G75*
G70*
%OFA0B0*%
%FSLAX24Y24*%
%IPPOS*%
%LPD*%
%AMOC8*
5,1,8,0,0,1.08239X$1,22.5*
%
%ADD10C,0.1340*%
%ADD11R,0.0678X0.0781*%
%ADD12R,0.0592X0.0710*%
%ADD13R,0.0710X0.0592*%
%ADD14C,0.0785*%
%ADD15R,0.1102X0.0669*%
%ADD16OC8,0.0680*%
%ADD17C,0.0680*%
%ADD18R,0.1580X0.0900*%
%ADD19R,0.3580X0.4580*%
%ADD20C,0.2000*%
D10*
X001600Y001600D03*
X001600Y019100D03*
X028100Y019100D03*
X028100Y001600D03*
D11*
X009629Y011000D03*
X009629Y012000D03*
X009629Y013000D03*
X005971Y013000D03*
X005971Y012000D03*
X005971Y011000D03*
D12*
X003174Y011000D03*
X002426Y011000D03*
D13*
X002700Y006274D03*
X002700Y005526D03*
X005200Y005526D03*
X005200Y006274D03*
X007700Y006274D03*
X007700Y005526D03*
X010200Y005526D03*
X010200Y006274D03*
X012700Y006274D03*
X012700Y005526D03*
X015200Y005526D03*
X015200Y006274D03*
X017700Y006274D03*
X017700Y005526D03*
X009600Y014826D03*
X009600Y015574D03*
D14*
X024698Y016534D02*
X025403Y016534D01*
X025403Y014566D02*
X024698Y014566D01*
X024698Y012597D02*
X025403Y012597D01*
X025403Y018503D02*
X024698Y018503D01*
D15*
X017700Y008891D03*
X017700Y007709D03*
X015200Y007709D03*
X015200Y008891D03*
X012700Y008891D03*
X012700Y007709D03*
X010200Y007709D03*
X010200Y008891D03*
X007700Y008891D03*
X007700Y007709D03*
X005200Y007709D03*
X005200Y008891D03*
X002700Y008891D03*
X002700Y007709D03*
D16*
X020000Y003900D03*
X021000Y003900D03*
X021000Y002900D03*
X020000Y002900D03*
X022000Y002900D03*
X023000Y002900D03*
X024000Y002900D03*
X024000Y003900D03*
X023000Y003900D03*
X022000Y003900D03*
X025000Y003900D03*
X025000Y002900D03*
D17*
X027300Y002900D02*
X027900Y002900D01*
X027900Y003900D02*
X027300Y003900D01*
X027400Y008700D02*
X027400Y009300D01*
X026400Y009300D02*
X026400Y008700D01*
X025400Y008700D02*
X025400Y009300D01*
X024400Y009300D02*
X024400Y008700D01*
X023400Y008700D02*
X023400Y009300D01*
X022400Y009300D02*
X022400Y008700D01*
X018000Y003900D02*
X017400Y003900D01*
X017400Y002900D02*
X018000Y002900D01*
X015500Y002900D02*
X014900Y002900D01*
X014900Y003900D02*
X015500Y003900D01*
X013000Y003900D02*
X012400Y003900D01*
X012400Y002900D02*
X013000Y002900D01*
X010500Y002900D02*
X009900Y002900D01*
X009900Y003900D02*
X010500Y003900D01*
X008000Y003900D02*
X007400Y003900D01*
X007400Y002900D02*
X008000Y002900D01*
X005500Y002900D02*
X004900Y002900D01*
X004900Y003900D02*
X005500Y003900D01*
X020300Y014100D02*
X020900Y014100D01*
X020900Y015100D02*
X020300Y015100D01*
X020300Y016100D02*
X020900Y016100D01*
D18*
X017950Y016000D03*
X017950Y014000D03*
D19*
X013450Y015000D03*
D20*
X019050Y012550D03*
X022500Y006150D03*
X013550Y001400D03*
X004200Y017450D03*
M02*
