%
M48
M72
T01C0.0400
T02C0.0470
T03C0.1260
%
T01
X1850Y3350
X1850Y4350
X5200Y3900
X5200Y2900
X7700Y2900
X7700Y3900
X10200Y3900
X10200Y2900
X12700Y2900
X12700Y3900
X15200Y3900
X15200Y2900
X17700Y2900
X17700Y3900
X20000Y3900
X21000Y3900
X21000Y2900
X20000Y2900
X22000Y2900
X23000Y2900
X24000Y2900
X24000Y3900
X23000Y3900
X22000Y3900
X25000Y3900
X25000Y2900
X27600Y3100
X27600Y4100
X27400Y9000
X26400Y9000
X25400Y9000
X24400Y9000
X23400Y9000
X22400Y9000
X20600Y14100
X20600Y15100
X20600Y16100
T02
X25050Y16534
X25050Y14566
X25050Y12597
X25050Y18503
T03
X1600Y1600
X1600Y19100
X28100Y19100
X28100Y1600
M30
