G75*
G70*
%OFA0B0*%
%FSLAX24Y24*%
%IPPOS*%
%LPD*%
%AMOC8*
5,1,8,0,0,1.08239X$1,22.5*
%
%ADD10C,0.0000*%
%ADD11C,0.0060*%
%ADD12C,0.0040*%
%ADD13C,0.0217*%
%ADD14C,0.0050*%
%ADD15R,0.0197X0.0197*%
%ADD16R,0.0089X0.0295*%
%ADD17C,0.0100*%
%ADD18R,0.0980X0.0560*%
%ADD19C,0.0200*%
%ADD20R,0.0300X0.4200*%
%ADD21R,0.0200X0.0750*%
%ADD22R,0.0200X0.0300*%
D10*
X000100Y000100D02*
X000100Y020596D01*
X029470Y020596D01*
X029470Y000100D01*
X000100Y000100D01*
X000970Y001600D02*
X000972Y001650D01*
X000978Y001700D01*
X000988Y001749D01*
X001002Y001797D01*
X001019Y001844D01*
X001040Y001889D01*
X001065Y001933D01*
X001093Y001974D01*
X001125Y002013D01*
X001159Y002050D01*
X001196Y002084D01*
X001236Y002114D01*
X001278Y002141D01*
X001322Y002165D01*
X001368Y002186D01*
X001415Y002202D01*
X001463Y002215D01*
X001513Y002224D01*
X001562Y002229D01*
X001613Y002230D01*
X001663Y002227D01*
X001712Y002220D01*
X001761Y002209D01*
X001809Y002194D01*
X001855Y002176D01*
X001900Y002154D01*
X001943Y002128D01*
X001984Y002099D01*
X002023Y002067D01*
X002059Y002032D01*
X002091Y001994D01*
X002121Y001954D01*
X002148Y001911D01*
X002171Y001867D01*
X002190Y001821D01*
X002206Y001773D01*
X002218Y001724D01*
X002226Y001675D01*
X002230Y001625D01*
X002230Y001575D01*
X002226Y001525D01*
X002218Y001476D01*
X002206Y001427D01*
X002190Y001379D01*
X002171Y001333D01*
X002148Y001289D01*
X002121Y001246D01*
X002091Y001206D01*
X002059Y001168D01*
X002023Y001133D01*
X001984Y001101D01*
X001943Y001072D01*
X001900Y001046D01*
X001855Y001024D01*
X001809Y001006D01*
X001761Y000991D01*
X001712Y000980D01*
X001663Y000973D01*
X001613Y000970D01*
X001562Y000971D01*
X001513Y000976D01*
X001463Y000985D01*
X001415Y000998D01*
X001368Y001014D01*
X001322Y001035D01*
X001278Y001059D01*
X001236Y001086D01*
X001196Y001116D01*
X001159Y001150D01*
X001125Y001187D01*
X001093Y001226D01*
X001065Y001267D01*
X001040Y001311D01*
X001019Y001356D01*
X001002Y001403D01*
X000988Y001451D01*
X000978Y001500D01*
X000972Y001550D01*
X000970Y001600D01*
X000970Y019100D02*
X000972Y019150D01*
X000978Y019200D01*
X000988Y019249D01*
X001002Y019297D01*
X001019Y019344D01*
X001040Y019389D01*
X001065Y019433D01*
X001093Y019474D01*
X001125Y019513D01*
X001159Y019550D01*
X001196Y019584D01*
X001236Y019614D01*
X001278Y019641D01*
X001322Y019665D01*
X001368Y019686D01*
X001415Y019702D01*
X001463Y019715D01*
X001513Y019724D01*
X001562Y019729D01*
X001613Y019730D01*
X001663Y019727D01*
X001712Y019720D01*
X001761Y019709D01*
X001809Y019694D01*
X001855Y019676D01*
X001900Y019654D01*
X001943Y019628D01*
X001984Y019599D01*
X002023Y019567D01*
X002059Y019532D01*
X002091Y019494D01*
X002121Y019454D01*
X002148Y019411D01*
X002171Y019367D01*
X002190Y019321D01*
X002206Y019273D01*
X002218Y019224D01*
X002226Y019175D01*
X002230Y019125D01*
X002230Y019075D01*
X002226Y019025D01*
X002218Y018976D01*
X002206Y018927D01*
X002190Y018879D01*
X002171Y018833D01*
X002148Y018789D01*
X002121Y018746D01*
X002091Y018706D01*
X002059Y018668D01*
X002023Y018633D01*
X001984Y018601D01*
X001943Y018572D01*
X001900Y018546D01*
X001855Y018524D01*
X001809Y018506D01*
X001761Y018491D01*
X001712Y018480D01*
X001663Y018473D01*
X001613Y018470D01*
X001562Y018471D01*
X001513Y018476D01*
X001463Y018485D01*
X001415Y018498D01*
X001368Y018514D01*
X001322Y018535D01*
X001278Y018559D01*
X001236Y018586D01*
X001196Y018616D01*
X001159Y018650D01*
X001125Y018687D01*
X001093Y018726D01*
X001065Y018767D01*
X001040Y018811D01*
X001019Y018856D01*
X001002Y018903D01*
X000988Y018951D01*
X000978Y019000D01*
X000972Y019050D01*
X000970Y019100D01*
X027470Y019100D02*
X027472Y019150D01*
X027478Y019200D01*
X027488Y019249D01*
X027502Y019297D01*
X027519Y019344D01*
X027540Y019389D01*
X027565Y019433D01*
X027593Y019474D01*
X027625Y019513D01*
X027659Y019550D01*
X027696Y019584D01*
X027736Y019614D01*
X027778Y019641D01*
X027822Y019665D01*
X027868Y019686D01*
X027915Y019702D01*
X027963Y019715D01*
X028013Y019724D01*
X028062Y019729D01*
X028113Y019730D01*
X028163Y019727D01*
X028212Y019720D01*
X028261Y019709D01*
X028309Y019694D01*
X028355Y019676D01*
X028400Y019654D01*
X028443Y019628D01*
X028484Y019599D01*
X028523Y019567D01*
X028559Y019532D01*
X028591Y019494D01*
X028621Y019454D01*
X028648Y019411D01*
X028671Y019367D01*
X028690Y019321D01*
X028706Y019273D01*
X028718Y019224D01*
X028726Y019175D01*
X028730Y019125D01*
X028730Y019075D01*
X028726Y019025D01*
X028718Y018976D01*
X028706Y018927D01*
X028690Y018879D01*
X028671Y018833D01*
X028648Y018789D01*
X028621Y018746D01*
X028591Y018706D01*
X028559Y018668D01*
X028523Y018633D01*
X028484Y018601D01*
X028443Y018572D01*
X028400Y018546D01*
X028355Y018524D01*
X028309Y018506D01*
X028261Y018491D01*
X028212Y018480D01*
X028163Y018473D01*
X028113Y018470D01*
X028062Y018471D01*
X028013Y018476D01*
X027963Y018485D01*
X027915Y018498D01*
X027868Y018514D01*
X027822Y018535D01*
X027778Y018559D01*
X027736Y018586D01*
X027696Y018616D01*
X027659Y018650D01*
X027625Y018687D01*
X027593Y018726D01*
X027565Y018767D01*
X027540Y018811D01*
X027519Y018856D01*
X027502Y018903D01*
X027488Y018951D01*
X027478Y019000D01*
X027472Y019050D01*
X027470Y019100D01*
X027470Y001600D02*
X027472Y001650D01*
X027478Y001700D01*
X027488Y001749D01*
X027502Y001797D01*
X027519Y001844D01*
X027540Y001889D01*
X027565Y001933D01*
X027593Y001974D01*
X027625Y002013D01*
X027659Y002050D01*
X027696Y002084D01*
X027736Y002114D01*
X027778Y002141D01*
X027822Y002165D01*
X027868Y002186D01*
X027915Y002202D01*
X027963Y002215D01*
X028013Y002224D01*
X028062Y002229D01*
X028113Y002230D01*
X028163Y002227D01*
X028212Y002220D01*
X028261Y002209D01*
X028309Y002194D01*
X028355Y002176D01*
X028400Y002154D01*
X028443Y002128D01*
X028484Y002099D01*
X028523Y002067D01*
X028559Y002032D01*
X028591Y001994D01*
X028621Y001954D01*
X028648Y001911D01*
X028671Y001867D01*
X028690Y001821D01*
X028706Y001773D01*
X028718Y001724D01*
X028726Y001675D01*
X028730Y001625D01*
X028730Y001575D01*
X028726Y001525D01*
X028718Y001476D01*
X028706Y001427D01*
X028690Y001379D01*
X028671Y001333D01*
X028648Y001289D01*
X028621Y001246D01*
X028591Y001206D01*
X028559Y001168D01*
X028523Y001133D01*
X028484Y001101D01*
X028443Y001072D01*
X028400Y001046D01*
X028355Y001024D01*
X028309Y001006D01*
X028261Y000991D01*
X028212Y000980D01*
X028163Y000973D01*
X028113Y000970D01*
X028062Y000971D01*
X028013Y000976D01*
X027963Y000985D01*
X027915Y000998D01*
X027868Y001014D01*
X027822Y001035D01*
X027778Y001059D01*
X027736Y001086D01*
X027696Y001116D01*
X027659Y001150D01*
X027625Y001187D01*
X027593Y001226D01*
X027565Y001267D01*
X027540Y001311D01*
X027519Y001356D01*
X027502Y001403D01*
X027488Y001451D01*
X027478Y001500D01*
X027472Y001550D01*
X027470Y001600D01*
D11*
X027455Y001457D02*
X027348Y001457D01*
X027135Y001244D01*
X027135Y001457D02*
X027135Y001030D01*
X026917Y001030D02*
X026597Y001030D01*
X026490Y001137D01*
X026597Y001244D01*
X026917Y001244D01*
X026917Y001350D02*
X026917Y001030D01*
X026917Y001350D02*
X026811Y001457D01*
X026597Y001457D01*
X026273Y001350D02*
X026166Y001457D01*
X025953Y001457D01*
X025846Y001350D01*
X025846Y001137D01*
X025953Y001030D01*
X026166Y001030D01*
X026273Y001137D01*
X026273Y001350D01*
X025628Y001350D02*
X025628Y001137D01*
X025522Y001030D01*
X025201Y001030D01*
X025201Y001671D01*
X025201Y001457D02*
X025522Y001457D01*
X025628Y001350D01*
X024339Y001457D02*
X024019Y001457D01*
X023912Y001350D01*
X023912Y001137D01*
X024019Y001030D01*
X024339Y001030D01*
X023696Y001030D02*
X023482Y001030D01*
X023589Y001030D02*
X023589Y001457D01*
X023482Y001457D01*
X023265Y001457D02*
X022945Y001457D01*
X022838Y001350D01*
X022838Y001137D01*
X022945Y001030D01*
X023265Y001030D01*
X023265Y000923D02*
X023265Y001457D01*
X023589Y001671D02*
X023589Y001777D01*
X023750Y002400D02*
X023500Y002650D01*
X023500Y004150D01*
X023250Y004400D01*
X022750Y004400D01*
X022500Y004150D01*
X022500Y002650D01*
X022250Y002400D01*
X021750Y002400D01*
X021500Y002650D01*
X021500Y004150D01*
X021250Y004400D01*
X020750Y004400D01*
X020500Y004150D01*
X020250Y004400D01*
X019750Y004400D01*
X019500Y004150D01*
X019500Y002650D01*
X019750Y002400D01*
X020250Y002400D01*
X020500Y002650D01*
X020500Y004150D01*
X021500Y004150D02*
X021750Y004400D01*
X022250Y004400D01*
X022500Y004150D01*
X023500Y004150D02*
X023750Y004400D01*
X024250Y004400D01*
X024500Y004150D01*
X024500Y002650D01*
X024250Y002400D01*
X023750Y002400D01*
X023500Y002650D02*
X023250Y002400D01*
X022750Y002400D01*
X022500Y002650D01*
X021500Y002650D02*
X021250Y002400D01*
X020750Y002400D01*
X020500Y002650D01*
X020257Y001671D02*
X019830Y001671D01*
X020044Y001671D02*
X020044Y001030D01*
X020475Y001137D02*
X020475Y001350D01*
X020581Y001457D01*
X020795Y001457D01*
X020902Y001350D01*
X020902Y001137D01*
X020795Y001030D01*
X020581Y001030D01*
X020475Y001137D01*
X021764Y001030D02*
X021977Y001030D01*
X021870Y001030D02*
X021870Y001671D01*
X021764Y001671D01*
X022193Y001350D02*
X022193Y001137D01*
X022300Y001030D01*
X022514Y001030D01*
X022620Y001137D01*
X022620Y001350D01*
X022514Y001457D01*
X022300Y001457D01*
X022193Y001350D01*
X023051Y000816D02*
X023158Y000816D01*
X023265Y000923D01*
X024750Y002400D02*
X024500Y002650D01*
X024750Y002400D02*
X025250Y002400D01*
X025500Y002650D01*
X025500Y004150D01*
X025250Y004400D01*
X024750Y004400D01*
X024500Y004150D01*
X027100Y004150D02*
X027100Y003650D01*
X027350Y003400D01*
X027100Y003150D01*
X027100Y002650D01*
X027350Y002400D01*
X027850Y002400D01*
X028100Y002650D01*
X028100Y003150D01*
X027850Y003400D01*
X027350Y003400D01*
X027850Y003400D02*
X028100Y003650D01*
X028100Y004150D01*
X027850Y004400D01*
X027350Y004400D01*
X027100Y004150D01*
X028099Y001671D02*
X028099Y001030D01*
X027779Y001030D01*
X027672Y001137D01*
X027672Y001350D01*
X027779Y001457D01*
X028099Y001457D01*
X018200Y002650D02*
X017950Y002400D01*
X017450Y002400D01*
X017200Y002650D01*
X017200Y003150D01*
X017450Y003400D01*
X017200Y003650D01*
X017200Y004150D01*
X017450Y004400D01*
X017950Y004400D01*
X018200Y004150D01*
X018200Y003650D01*
X017950Y003400D01*
X018200Y003150D01*
X018200Y002650D01*
X017950Y003400D02*
X017450Y003400D01*
X015700Y003150D02*
X015700Y002650D01*
X015450Y002400D01*
X014950Y002400D01*
X014700Y002650D01*
X014700Y003150D01*
X014950Y003400D01*
X014700Y003650D01*
X014700Y004150D01*
X014950Y004400D01*
X015450Y004400D01*
X015700Y004150D01*
X015700Y003650D01*
X015450Y003400D01*
X015700Y003150D01*
X015450Y003400D02*
X014950Y003400D01*
X013200Y003150D02*
X013200Y002650D01*
X012950Y002400D01*
X012450Y002400D01*
X012200Y002650D01*
X012200Y003150D01*
X012450Y003400D01*
X012200Y003650D01*
X012200Y004150D01*
X012450Y004400D01*
X012950Y004400D01*
X013200Y004150D01*
X013200Y003650D01*
X012950Y003400D01*
X013200Y003150D01*
X012950Y003400D02*
X012450Y003400D01*
X010700Y003150D02*
X010700Y002650D01*
X010450Y002400D01*
X009950Y002400D01*
X009700Y002650D01*
X009700Y003150D01*
X009950Y003400D01*
X009700Y003650D01*
X009700Y004150D01*
X009950Y004400D01*
X010450Y004400D01*
X010700Y004150D01*
X010700Y003650D01*
X010450Y003400D01*
X010700Y003150D01*
X010450Y003400D02*
X009950Y003400D01*
X008200Y003150D02*
X008200Y002650D01*
X007950Y002400D01*
X007450Y002400D01*
X007200Y002650D01*
X007200Y003150D01*
X007450Y003400D01*
X007200Y003650D01*
X007200Y004150D01*
X007450Y004400D01*
X007950Y004400D01*
X008200Y004150D01*
X008200Y003650D01*
X007950Y003400D01*
X008200Y003150D01*
X007950Y003400D02*
X007450Y003400D01*
X005700Y003150D02*
X005700Y002650D01*
X005450Y002400D01*
X004950Y002400D01*
X004700Y002650D01*
X004700Y003150D01*
X004950Y003400D01*
X004700Y003650D01*
X004700Y004150D01*
X004950Y004400D01*
X005450Y004400D01*
X005700Y004150D01*
X005700Y003650D01*
X005450Y003400D01*
X005700Y003150D01*
X005450Y003400D02*
X004950Y003400D01*
X006548Y010283D02*
X006548Y013726D01*
X009052Y013726D01*
X009052Y010283D01*
X006751Y010283D01*
X006751Y013687D01*
X006751Y010283D02*
X006548Y010283D01*
X019900Y013250D02*
X020000Y013150D01*
X021150Y013100D01*
X019900Y013250D02*
X019900Y016950D01*
X020000Y017050D01*
X021150Y017100D01*
X024340Y016883D02*
X024340Y018153D01*
X024340Y018853D02*
X024340Y019483D01*
X026940Y019483D01*
X027020Y019483D01*
X027020Y011613D01*
X026940Y011613D01*
X024340Y011613D01*
X023400Y011613D01*
X023400Y019483D01*
X024340Y019483D01*
X026220Y018503D02*
X026222Y018531D01*
X026228Y018558D01*
X026237Y018584D01*
X026250Y018609D01*
X026267Y018632D01*
X026286Y018652D01*
X026308Y018669D01*
X026332Y018683D01*
X026358Y018693D01*
X026385Y018700D01*
X026413Y018703D01*
X026441Y018702D01*
X026468Y018697D01*
X026495Y018688D01*
X026520Y018676D01*
X026543Y018661D01*
X026564Y018642D01*
X026582Y018621D01*
X026597Y018597D01*
X026608Y018571D01*
X026616Y018545D01*
X026620Y018517D01*
X026620Y018489D01*
X026616Y018461D01*
X026608Y018435D01*
X026597Y018409D01*
X026582Y018385D01*
X026564Y018364D01*
X026543Y018345D01*
X026520Y018330D01*
X026495Y018318D01*
X026468Y018309D01*
X026441Y018304D01*
X026413Y018303D01*
X026385Y018306D01*
X026358Y018313D01*
X026332Y018323D01*
X026308Y018337D01*
X026286Y018354D01*
X026267Y018374D01*
X026250Y018397D01*
X026237Y018422D01*
X026228Y018448D01*
X026222Y018475D01*
X026220Y018503D01*
X027080Y018630D02*
X027507Y018630D01*
X027725Y018523D02*
X028152Y018523D01*
X028369Y018630D02*
X028583Y018630D01*
X028476Y018630D02*
X028476Y019057D01*
X028369Y019057D01*
X028476Y019271D02*
X028476Y019377D01*
X028799Y019057D02*
X029119Y019057D01*
X029226Y018950D01*
X029226Y018630D01*
X028799Y018630D02*
X028799Y019057D01*
X027080Y019271D02*
X027080Y018630D01*
X026940Y019483D02*
X026940Y011613D01*
X027675Y012373D02*
X028102Y012373D01*
X028319Y012587D02*
X028426Y012480D01*
X028639Y012480D01*
X028746Y012587D01*
X028746Y012800D01*
X028639Y012907D01*
X028426Y012907D01*
X028319Y012800D01*
X028319Y012587D01*
X028964Y012587D02*
X028964Y012907D01*
X029391Y012907D02*
X029391Y012480D01*
X029070Y012480D01*
X028964Y012587D01*
X029608Y012907D02*
X029822Y012907D01*
X029715Y013014D02*
X029715Y012587D01*
X029822Y012480D01*
X030006Y010871D02*
X030006Y010230D01*
X029686Y010230D01*
X029579Y010337D01*
X029579Y010550D01*
X029686Y010657D01*
X030006Y010657D01*
X029363Y010657D02*
X029256Y010657D01*
X029042Y010444D01*
X029042Y010657D02*
X029042Y010230D01*
X028825Y010230D02*
X028505Y010230D01*
X028398Y010337D01*
X028505Y010444D01*
X028825Y010444D01*
X028825Y010550D02*
X028825Y010230D01*
X028825Y010550D02*
X028718Y010657D01*
X028505Y010657D01*
X028180Y010550D02*
X028180Y010337D01*
X028073Y010230D01*
X027860Y010230D01*
X027753Y010337D01*
X027753Y010550D01*
X027860Y010657D01*
X028073Y010657D01*
X028180Y010550D01*
X027536Y010550D02*
X027536Y010337D01*
X027429Y010230D01*
X027109Y010230D01*
X027109Y010871D01*
X027109Y010657D02*
X027429Y010657D01*
X027536Y010550D01*
X026247Y010657D02*
X026141Y010657D01*
X025927Y010444D01*
X025927Y010657D02*
X025927Y010230D01*
X025709Y010444D02*
X025282Y010444D01*
X025282Y010550D02*
X025389Y010657D01*
X025603Y010657D01*
X025709Y010550D01*
X025709Y010444D01*
X025603Y010230D02*
X025389Y010230D01*
X025282Y010337D01*
X025282Y010550D01*
X025065Y010657D02*
X025065Y010337D01*
X024958Y010230D01*
X024851Y010337D01*
X024745Y010230D01*
X024638Y010337D01*
X024638Y010657D01*
X024420Y010550D02*
X024314Y010657D01*
X024100Y010657D01*
X023993Y010550D01*
X023993Y010337D01*
X024100Y010230D01*
X024314Y010230D01*
X024420Y010337D01*
X024420Y010550D01*
X023776Y010550D02*
X023776Y010337D01*
X023669Y010230D01*
X023349Y010230D01*
X023349Y010016D02*
X023349Y010657D01*
X023669Y010657D01*
X023776Y010550D01*
X023650Y009500D02*
X023150Y009500D01*
X022900Y009250D01*
X022900Y008750D01*
X023150Y008500D01*
X023650Y008500D01*
X023900Y008750D01*
X023900Y009250D01*
X023650Y009500D01*
X023900Y009250D02*
X024150Y009500D01*
X024650Y009500D01*
X024900Y009250D01*
X025150Y009500D01*
X025650Y009500D01*
X025900Y009250D01*
X026150Y009500D01*
X026650Y009500D01*
X026900Y009250D01*
X027150Y009500D01*
X027650Y009500D01*
X027900Y009250D01*
X027900Y008750D01*
X027650Y008500D01*
X027150Y008500D01*
X026900Y008750D01*
X026650Y008500D01*
X026150Y008500D01*
X025900Y008750D01*
X025650Y008500D01*
X025150Y008500D01*
X024900Y008750D01*
X024650Y008500D01*
X024150Y008500D01*
X023900Y008750D01*
X022900Y008750D02*
X022650Y008500D01*
X022150Y008500D01*
X021900Y008750D01*
X021900Y009250D01*
X022150Y009500D01*
X022650Y009500D01*
X022900Y009250D01*
X022380Y010230D02*
X022166Y010230D01*
X022060Y010337D01*
X022060Y010550D01*
X022166Y010657D01*
X022380Y010657D01*
X022487Y010550D01*
X022487Y010337D01*
X022380Y010230D01*
X021844Y010230D02*
X021737Y010337D01*
X021737Y010764D01*
X021630Y010657D02*
X021844Y010657D01*
X024340Y011613D02*
X024340Y012243D01*
X024340Y012943D02*
X024340Y014213D01*
X024340Y014913D02*
X024340Y016183D01*
X026220Y016533D02*
X026222Y016561D01*
X026228Y016588D01*
X026237Y016614D01*
X026250Y016639D01*
X026267Y016662D01*
X026286Y016682D01*
X026308Y016699D01*
X026332Y016713D01*
X026358Y016723D01*
X026385Y016730D01*
X026413Y016733D01*
X026441Y016732D01*
X026468Y016727D01*
X026495Y016718D01*
X026520Y016706D01*
X026543Y016691D01*
X026564Y016672D01*
X026582Y016651D01*
X026597Y016627D01*
X026608Y016601D01*
X026616Y016575D01*
X026620Y016547D01*
X026620Y016519D01*
X026616Y016491D01*
X026608Y016465D01*
X026597Y016439D01*
X026582Y016415D01*
X026564Y016394D01*
X026543Y016375D01*
X026520Y016360D01*
X026495Y016348D01*
X026468Y016339D01*
X026441Y016334D01*
X026413Y016333D01*
X026385Y016336D01*
X026358Y016343D01*
X026332Y016353D01*
X026308Y016367D01*
X026286Y016384D01*
X026267Y016404D01*
X026250Y016427D01*
X026237Y016452D01*
X026228Y016478D01*
X026222Y016505D01*
X026220Y016533D01*
X027030Y016330D02*
X027030Y016971D01*
X027457Y016330D01*
X027457Y016971D01*
X028319Y016757D02*
X028426Y016757D01*
X028426Y016330D01*
X028319Y016330D02*
X028533Y016330D01*
X028749Y016330D02*
X028749Y016757D01*
X029069Y016757D01*
X029176Y016650D01*
X029176Y016330D01*
X028426Y016971D02*
X028426Y017077D01*
X028102Y016223D02*
X027675Y016223D01*
X027030Y015171D02*
X027030Y014530D01*
X027457Y014530D01*
X027675Y014423D02*
X028102Y014423D01*
X028319Y014637D02*
X028426Y014530D01*
X028639Y014530D01*
X028746Y014637D01*
X028746Y014850D01*
X028639Y014957D01*
X028426Y014957D01*
X028319Y014850D01*
X028319Y014637D01*
X028964Y014637D02*
X028964Y014957D01*
X029391Y014957D02*
X029391Y014530D01*
X029070Y014530D01*
X028964Y014637D01*
X029608Y014957D02*
X029822Y014957D01*
X029715Y015064D02*
X029715Y014637D01*
X029822Y014530D01*
X027457Y013121D02*
X027457Y012480D01*
X027030Y013121D01*
X027030Y012480D01*
X026220Y012593D02*
X026222Y012621D01*
X026228Y012648D01*
X026237Y012674D01*
X026250Y012699D01*
X026267Y012722D01*
X026286Y012742D01*
X026308Y012759D01*
X026332Y012773D01*
X026358Y012783D01*
X026385Y012790D01*
X026413Y012793D01*
X026441Y012792D01*
X026468Y012787D01*
X026495Y012778D01*
X026520Y012766D01*
X026543Y012751D01*
X026564Y012732D01*
X026582Y012711D01*
X026597Y012687D01*
X026608Y012661D01*
X026616Y012635D01*
X026620Y012607D01*
X026620Y012579D01*
X026616Y012551D01*
X026608Y012525D01*
X026597Y012499D01*
X026582Y012475D01*
X026564Y012454D01*
X026543Y012435D01*
X026520Y012420D01*
X026495Y012408D01*
X026468Y012399D01*
X026441Y012394D01*
X026413Y012393D01*
X026385Y012396D01*
X026358Y012403D01*
X026332Y012413D01*
X026308Y012427D01*
X026286Y012444D01*
X026267Y012464D01*
X026250Y012487D01*
X026237Y012512D01*
X026228Y012538D01*
X026222Y012565D01*
X026220Y012593D01*
X026220Y014563D02*
X026222Y014591D01*
X026228Y014618D01*
X026237Y014644D01*
X026250Y014669D01*
X026267Y014692D01*
X026286Y014712D01*
X026308Y014729D01*
X026332Y014743D01*
X026358Y014753D01*
X026385Y014760D01*
X026413Y014763D01*
X026441Y014762D01*
X026468Y014757D01*
X026495Y014748D01*
X026520Y014736D01*
X026543Y014721D01*
X026564Y014702D01*
X026582Y014681D01*
X026597Y014657D01*
X026608Y014631D01*
X026616Y014605D01*
X026620Y014577D01*
X026620Y014549D01*
X026616Y014521D01*
X026608Y014495D01*
X026597Y014469D01*
X026582Y014445D01*
X026564Y014424D01*
X026543Y014405D01*
X026520Y014390D01*
X026495Y014378D01*
X026468Y014369D01*
X026441Y014364D01*
X026413Y014363D01*
X026385Y014366D01*
X026358Y014373D01*
X026332Y014383D01*
X026308Y014397D01*
X026286Y014414D01*
X026267Y014434D01*
X026250Y014457D01*
X026237Y014482D01*
X026228Y014508D01*
X026222Y014535D01*
X026220Y014563D01*
X025900Y009250D02*
X025900Y008750D01*
X026900Y008750D02*
X026900Y009250D01*
X024900Y009250D02*
X024900Y008750D01*
D12*
X025333Y008501D02*
X025420Y008587D01*
X025680Y008587D01*
X025333Y008501D02*
X025333Y008240D01*
X025680Y008240D01*
X025680Y008072D02*
X025333Y008072D01*
X025680Y008072D02*
X025680Y007811D01*
X025593Y007725D01*
X025333Y007725D01*
X025333Y007555D02*
X025333Y007469D01*
X025507Y007295D01*
X025680Y007295D02*
X025333Y007295D01*
X025767Y007126D02*
X025767Y006779D01*
X025680Y006611D02*
X025160Y006611D01*
X025420Y006611D02*
X025420Y006264D01*
X025680Y006264D02*
X025160Y006264D01*
X025160Y006093D02*
X025160Y005920D01*
X025160Y006007D02*
X025680Y006007D01*
X025680Y006093D02*
X025680Y005920D01*
X026160Y005907D02*
X026680Y005907D01*
X026680Y005993D02*
X026680Y005820D01*
X026680Y006164D02*
X026160Y006164D01*
X026160Y005993D02*
X026160Y005820D01*
X026420Y006164D02*
X026420Y006511D01*
X026160Y006511D02*
X026680Y006511D01*
X026767Y006679D02*
X026767Y007026D01*
X026853Y007195D02*
X026333Y007195D01*
X026333Y007455D01*
X026420Y007542D01*
X026593Y007542D01*
X026680Y007455D01*
X026680Y007195D01*
X027160Y007126D02*
X027680Y007126D01*
X027507Y007300D01*
X027680Y007473D01*
X027160Y007473D01*
X027160Y007642D02*
X027333Y007815D01*
X027160Y007989D01*
X027680Y007989D01*
X027680Y007642D02*
X027160Y007642D01*
X026680Y007797D02*
X026593Y007884D01*
X026680Y007971D01*
X026593Y008058D01*
X026333Y008058D01*
X026333Y008226D02*
X026680Y008226D01*
X026507Y008226D02*
X026333Y008400D01*
X026333Y008487D01*
X026680Y007797D02*
X026593Y007711D01*
X026333Y007711D01*
X027160Y006871D02*
X027246Y006958D01*
X027420Y006958D01*
X027507Y006871D01*
X027507Y006611D01*
X027680Y006611D02*
X027160Y006611D01*
X027160Y006871D01*
X027767Y006442D02*
X027767Y006095D01*
X027680Y005925D02*
X027593Y005838D01*
X027246Y005838D01*
X027333Y005751D02*
X027333Y005925D01*
X027420Y005583D02*
X027333Y005496D01*
X027333Y005322D01*
X027420Y005236D01*
X027593Y005236D01*
X027680Y005322D01*
X027680Y005496D01*
X027593Y005583D01*
X027420Y005583D01*
X027160Y005067D02*
X027680Y005067D01*
X027333Y004893D02*
X027160Y005067D01*
X027333Y004893D02*
X027160Y004720D01*
X027680Y004720D01*
X024680Y006020D02*
X024680Y006193D01*
X024680Y006107D02*
X024160Y006107D01*
X024160Y006193D02*
X024160Y006020D01*
X024160Y006364D02*
X024680Y006364D01*
X024420Y006364D02*
X024420Y006711D01*
X024160Y006711D02*
X024680Y006711D01*
X024767Y006879D02*
X024767Y007226D01*
X024593Y007395D02*
X024680Y007482D01*
X024680Y007655D01*
X024593Y007742D01*
X024420Y007742D01*
X024333Y007655D01*
X024333Y007482D01*
X024420Y007395D01*
X024593Y007395D01*
X023767Y007426D02*
X023767Y007079D01*
X023680Y006911D02*
X023160Y006911D01*
X023420Y006911D02*
X023420Y006564D01*
X023680Y006564D02*
X023160Y006564D01*
X023160Y006393D02*
X023160Y006220D01*
X023160Y006307D02*
X023680Y006307D01*
X023680Y006393D02*
X023680Y006220D01*
X022580Y006607D02*
X022580Y006780D01*
X022493Y006867D01*
X022320Y006867D01*
X022320Y006693D01*
X022493Y006520D02*
X022146Y006520D01*
X022060Y006607D01*
X022060Y006780D01*
X022146Y006867D01*
X022060Y007036D02*
X022580Y007383D01*
X022060Y007383D01*
X022060Y007551D02*
X022060Y007812D01*
X022146Y007898D01*
X022493Y007898D01*
X022580Y007812D01*
X022580Y007551D01*
X022060Y007551D01*
X022060Y007036D02*
X022580Y007036D01*
X022580Y006607D02*
X022493Y006520D01*
X023420Y007595D02*
X023593Y007595D01*
X023680Y007682D01*
X023680Y007855D01*
X023593Y007942D01*
X023420Y007942D01*
X023333Y007855D01*
X023333Y007682D01*
X023420Y007595D01*
X023420Y008111D02*
X023420Y008284D01*
X023420Y008454D02*
X023420Y008628D01*
X023246Y008541D02*
X023680Y008541D01*
X023246Y008541D02*
X023160Y008628D01*
X023160Y008284D02*
X023246Y008197D01*
X023680Y008197D01*
X024333Y008171D02*
X024333Y007911D01*
X024680Y007911D01*
X024680Y008258D02*
X024420Y008258D01*
X024333Y008171D01*
X019057Y008198D02*
X019057Y007891D01*
X018903Y007737D02*
X018980Y007661D01*
X018980Y007507D01*
X018903Y007430D01*
X018596Y007430D01*
X018520Y007507D01*
X018520Y007661D01*
X018596Y007737D01*
X018520Y007277D02*
X018980Y007277D01*
X018673Y007123D02*
X018520Y007277D01*
X018673Y007123D02*
X018520Y006970D01*
X018980Y006970D01*
X018603Y006267D02*
X018296Y006267D01*
X018603Y005960D01*
X018680Y006036D01*
X018680Y006190D01*
X018603Y006267D01*
X018296Y006267D02*
X018220Y006190D01*
X018220Y006036D01*
X018296Y005960D01*
X018603Y005960D01*
X018680Y005806D02*
X018680Y005499D01*
X018680Y005346D02*
X018527Y005192D01*
X018527Y005269D02*
X018527Y005039D01*
X018680Y005039D02*
X018220Y005039D01*
X018220Y005269D01*
X018296Y005346D01*
X018450Y005346D01*
X018527Y005269D01*
X018373Y005499D02*
X018220Y005653D01*
X018680Y005653D01*
X016580Y006759D02*
X016120Y006759D01*
X016120Y006606D02*
X016120Y006913D01*
X016120Y007066D02*
X016580Y007066D01*
X016350Y007066D02*
X016350Y007373D01*
X016427Y007526D02*
X016427Y007757D01*
X016350Y007833D01*
X016196Y007833D01*
X016120Y007757D01*
X016120Y007526D01*
X016580Y007526D01*
X016580Y007373D02*
X016120Y007373D01*
X016427Y007680D02*
X016580Y007833D01*
X016580Y007987D02*
X016120Y007987D01*
X016273Y008140D01*
X016120Y008294D01*
X016580Y008294D01*
X016657Y008447D02*
X016657Y008754D01*
X016580Y008908D02*
X016120Y008908D01*
X016120Y009138D01*
X016196Y009215D01*
X016350Y009215D01*
X016427Y009138D01*
X016427Y008908D01*
X016503Y009368D02*
X016196Y009368D01*
X016120Y009445D01*
X016120Y009598D01*
X016196Y009675D01*
X016503Y009675D01*
X016580Y009598D01*
X016580Y009445D01*
X016503Y009368D01*
X016120Y009828D02*
X016120Y010135D01*
X016120Y009982D02*
X016580Y009982D01*
X016657Y010289D02*
X016657Y010596D01*
X016503Y010749D02*
X016580Y010826D01*
X016580Y010979D01*
X016503Y011056D01*
X016196Y011056D01*
X016120Y010979D01*
X016120Y010826D01*
X016196Y010749D01*
X016503Y010749D01*
X016427Y011210D02*
X016120Y011517D01*
X016120Y011210D02*
X016580Y011210D01*
X016350Y011286D02*
X016580Y011517D01*
X014157Y010696D02*
X014157Y010389D01*
X014080Y010082D02*
X013620Y010082D01*
X013620Y010235D02*
X013620Y009928D01*
X013696Y009775D02*
X013773Y009775D01*
X013850Y009698D01*
X013850Y009468D01*
X013850Y009315D02*
X013850Y009161D01*
X013850Y009315D02*
X014003Y009315D01*
X014080Y009238D01*
X014080Y009084D01*
X014003Y009008D01*
X013696Y009008D01*
X013620Y009084D01*
X013620Y009238D01*
X013696Y009315D01*
X013620Y009468D02*
X013620Y009698D01*
X013696Y009775D01*
X013850Y009698D02*
X013927Y009775D01*
X014003Y009775D01*
X014080Y009698D01*
X014080Y009468D01*
X013620Y009468D01*
X013620Y008854D02*
X013620Y008701D01*
X013620Y008777D02*
X014080Y008777D01*
X014080Y008701D02*
X014080Y008854D01*
X014157Y008547D02*
X014157Y008240D01*
X014080Y008087D02*
X013620Y008087D01*
X013773Y007933D01*
X013620Y007780D01*
X014080Y007780D01*
X014080Y007626D02*
X013927Y007473D01*
X013927Y007550D02*
X013927Y007320D01*
X014080Y007320D02*
X013620Y007320D01*
X013620Y007550D01*
X013696Y007626D01*
X013850Y007626D01*
X013927Y007550D01*
X013850Y007166D02*
X013850Y006859D01*
X014080Y006859D02*
X013620Y006859D01*
X013620Y006706D02*
X013620Y006399D01*
X013620Y006552D02*
X014080Y006552D01*
X013603Y005960D02*
X013296Y006267D01*
X013220Y006267D01*
X013220Y005960D01*
X013296Y005806D02*
X013450Y005806D01*
X013527Y005729D01*
X013527Y005499D01*
X013680Y005499D02*
X013220Y005499D01*
X013220Y005729D01*
X013296Y005806D01*
X013527Y005653D02*
X013680Y005806D01*
X013680Y005960D02*
X013603Y005960D01*
X013620Y007166D02*
X014080Y007166D01*
X015720Y006190D02*
X015796Y006267D01*
X015873Y006267D01*
X015950Y006190D01*
X015950Y006036D01*
X015873Y005960D01*
X015796Y005960D01*
X015720Y006036D01*
X015720Y006190D01*
X015950Y006190D02*
X016027Y006267D01*
X016103Y006267D01*
X016180Y006190D01*
X016180Y006036D01*
X016103Y005960D01*
X016027Y005960D01*
X015950Y006036D01*
X015950Y005806D02*
X015796Y005806D01*
X015720Y005729D01*
X015720Y005499D01*
X016180Y005499D01*
X016027Y005499D02*
X016027Y005729D01*
X015950Y005806D01*
X016027Y005653D02*
X016180Y005806D01*
X018596Y008351D02*
X018903Y008351D01*
X018980Y008428D01*
X018980Y008581D01*
X018903Y008658D01*
X018596Y008658D01*
X018520Y008581D01*
X018520Y008428D01*
X018596Y008351D01*
X018520Y008812D02*
X018980Y008812D01*
X018827Y008812D02*
X018520Y009118D01*
X018750Y008888D02*
X018980Y009118D01*
X014080Y010926D02*
X014080Y011079D01*
X014003Y011156D01*
X013696Y011156D01*
X013620Y011079D01*
X013620Y010926D01*
X013696Y010849D01*
X014003Y010849D01*
X014080Y010926D01*
X014080Y011310D02*
X013620Y011310D01*
X013850Y011386D02*
X014080Y011617D01*
X013927Y011310D02*
X013620Y011617D01*
X011580Y012973D02*
X011120Y012973D01*
X011120Y012820D02*
X011120Y013127D01*
X011273Y013280D02*
X011120Y013434D01*
X011580Y013434D01*
X011580Y013587D02*
X011580Y013280D01*
X011657Y013741D02*
X011657Y014048D01*
X011503Y014201D02*
X011580Y014278D01*
X011580Y014431D01*
X011503Y014508D01*
X011427Y014508D01*
X011350Y014431D01*
X011350Y014278D01*
X011273Y014201D01*
X011196Y014201D01*
X011120Y014278D01*
X011120Y014431D01*
X011196Y014508D01*
X011120Y014662D02*
X011273Y014815D01*
X011120Y014968D01*
X011580Y014968D01*
X011580Y015275D02*
X011120Y015275D01*
X011120Y015122D02*
X011120Y015429D01*
X010580Y015567D02*
X010580Y015260D01*
X010273Y015567D01*
X010196Y015567D01*
X010120Y015490D01*
X010120Y015336D01*
X010196Y015260D01*
X010196Y015106D02*
X010350Y015106D01*
X010427Y015029D01*
X010427Y014799D01*
X010580Y014799D02*
X010120Y014799D01*
X010120Y015029D01*
X010196Y015106D01*
X010427Y014953D02*
X010580Y015106D01*
X011120Y014662D02*
X011580Y014662D01*
X006680Y009817D02*
X006450Y009586D01*
X006527Y009510D02*
X006220Y009817D01*
X006220Y009510D02*
X006680Y009510D01*
X006603Y009356D02*
X006296Y009356D01*
X006220Y009279D01*
X006220Y009126D01*
X006296Y009049D01*
X006603Y009049D01*
X006680Y009126D01*
X006680Y009279D01*
X006603Y009356D01*
X006757Y008896D02*
X006757Y008589D01*
X006603Y008435D02*
X006527Y008435D01*
X006450Y008359D01*
X006450Y008282D01*
X006450Y008359D02*
X006373Y008435D01*
X006296Y008435D01*
X006220Y008359D01*
X006220Y008205D01*
X006296Y008128D01*
X006296Y007975D02*
X006220Y007898D01*
X006220Y007745D01*
X006296Y007668D01*
X006373Y007668D01*
X006450Y007745D01*
X006450Y007898D01*
X006527Y007975D01*
X006603Y007975D01*
X006680Y007898D01*
X006680Y007745D01*
X006603Y007668D01*
X006680Y007515D02*
X006680Y007208D01*
X006220Y007208D01*
X006220Y007515D01*
X006450Y007361D02*
X006450Y007208D01*
X006450Y007054D02*
X006527Y006977D01*
X006527Y006747D01*
X006680Y006747D02*
X006220Y006747D01*
X006220Y006977D01*
X006296Y007054D01*
X006450Y007054D01*
X006527Y006901D02*
X006680Y007054D01*
X005950Y006267D02*
X005950Y005960D01*
X005720Y006190D01*
X006180Y006190D01*
X006180Y005806D02*
X006027Y005653D01*
X006027Y005729D02*
X006027Y005499D01*
X006180Y005499D02*
X005720Y005499D01*
X005720Y005729D01*
X005796Y005806D01*
X005950Y005806D01*
X006027Y005729D01*
X004180Y006520D02*
X003720Y006520D01*
X003950Y006596D02*
X004180Y006826D01*
X004180Y006980D02*
X004180Y007133D01*
X004180Y007057D02*
X003720Y007057D01*
X003720Y007133D02*
X003720Y006980D01*
X003720Y006826D02*
X004027Y006520D01*
X003680Y006190D02*
X003603Y006267D01*
X003296Y006267D01*
X003220Y006190D01*
X003220Y006036D01*
X003296Y005960D01*
X003373Y005960D01*
X003450Y006036D01*
X003450Y006267D01*
X003680Y006190D02*
X003680Y006036D01*
X003603Y005960D01*
X003680Y005806D02*
X003527Y005653D01*
X003527Y005729D02*
X003527Y005499D01*
X003680Y005499D02*
X003220Y005499D01*
X003220Y005729D01*
X003296Y005806D01*
X003450Y005806D01*
X003527Y005729D01*
X003720Y007287D02*
X004180Y007287D01*
X004180Y007594D01*
X004180Y007747D02*
X003720Y007747D01*
X004180Y007747D02*
X004180Y008054D01*
X004257Y008208D02*
X004257Y008515D01*
X004103Y008668D02*
X004180Y008745D01*
X004180Y008898D01*
X004103Y008975D01*
X004027Y008975D01*
X003950Y008898D01*
X003950Y008745D01*
X003873Y008668D01*
X003796Y008668D01*
X003720Y008745D01*
X003720Y008898D01*
X003796Y008975D01*
X003720Y009128D02*
X004180Y009128D01*
X004027Y009282D01*
X004180Y009435D01*
X003720Y009435D01*
X004257Y009589D02*
X004257Y009896D01*
X004103Y010049D02*
X004180Y010126D01*
X004180Y010279D01*
X004103Y010356D01*
X003796Y010356D01*
X003720Y010279D01*
X003720Y010126D01*
X003796Y010049D01*
X004103Y010049D01*
X004027Y010510D02*
X003720Y010817D01*
X003950Y010586D02*
X004180Y010817D01*
X004180Y010510D02*
X003720Y010510D01*
X003087Y011520D02*
X002780Y011520D01*
X002627Y011520D02*
X002473Y011673D01*
X002550Y011673D02*
X002320Y011673D01*
X002320Y011520D02*
X002320Y011980D01*
X002550Y011980D01*
X002627Y011904D01*
X002627Y011750D01*
X002550Y011673D01*
X002780Y011827D02*
X002934Y011980D01*
X002934Y011520D01*
X006603Y008435D02*
X006680Y008359D01*
X006680Y008205D01*
X006603Y008128D01*
X008720Y008105D02*
X008796Y008028D01*
X008720Y008105D02*
X008720Y008259D01*
X008796Y008335D01*
X008873Y008335D01*
X009180Y008028D01*
X009180Y008335D01*
X009257Y008489D02*
X009257Y008796D01*
X009103Y008949D02*
X008796Y008949D01*
X008720Y009026D01*
X008720Y009179D01*
X008796Y009256D01*
X009103Y009256D01*
X009180Y009179D01*
X009180Y009026D01*
X009103Y008949D01*
X009027Y009410D02*
X008720Y009717D01*
X008720Y009410D02*
X009180Y009410D01*
X008950Y009486D02*
X009180Y009717D01*
X011220Y009517D02*
X011527Y009210D01*
X011450Y009286D02*
X011680Y009517D01*
X011680Y009210D02*
X011220Y009210D01*
X011296Y009056D02*
X011220Y008979D01*
X011220Y008826D01*
X011296Y008749D01*
X011603Y008749D01*
X011680Y008826D01*
X011680Y008979D01*
X011603Y009056D01*
X011296Y009056D01*
X011757Y008596D02*
X011757Y008289D01*
X011680Y008135D02*
X011680Y007828D01*
X011680Y007982D02*
X011220Y007982D01*
X011373Y007828D01*
X011296Y007675D02*
X011220Y007598D01*
X011220Y007445D01*
X011296Y007368D01*
X011373Y007368D01*
X011450Y007445D01*
X011450Y007598D01*
X011527Y007675D01*
X011603Y007675D01*
X011680Y007598D01*
X011680Y007445D01*
X011603Y007368D01*
X011680Y007215D02*
X011680Y006908D01*
X011220Y006908D01*
X011220Y007215D01*
X011450Y007061D02*
X011450Y006908D01*
X011450Y006754D02*
X011296Y006754D01*
X011220Y006677D01*
X011220Y006447D01*
X011680Y006447D01*
X011527Y006447D02*
X011527Y006677D01*
X011450Y006754D01*
X011527Y006601D02*
X011680Y006754D01*
X011180Y006190D02*
X011103Y006267D01*
X011027Y006267D01*
X010950Y006190D01*
X010950Y005960D01*
X011103Y005960D01*
X011180Y006036D01*
X011180Y006190D01*
X010950Y005960D02*
X010796Y006113D01*
X010720Y006267D01*
X010796Y005806D02*
X010950Y005806D01*
X011027Y005729D01*
X011027Y005499D01*
X011180Y005499D02*
X010720Y005499D01*
X010720Y005729D01*
X010796Y005806D01*
X011027Y005653D02*
X011180Y005806D01*
X009180Y006647D02*
X008720Y006647D01*
X008720Y006877D01*
X008796Y006954D01*
X008950Y006954D01*
X009027Y006877D01*
X009027Y006647D01*
X009027Y006801D02*
X009180Y006954D01*
X009180Y007108D02*
X008720Y007108D01*
X008720Y007415D01*
X008796Y007568D02*
X008873Y007568D01*
X008950Y007645D01*
X008950Y007798D01*
X009027Y007875D01*
X009103Y007875D01*
X009180Y007798D01*
X009180Y007645D01*
X009103Y007568D01*
X009180Y007415D02*
X009180Y007108D01*
X008950Y007108D02*
X008950Y007261D01*
X008796Y007568D02*
X008720Y007645D01*
X008720Y007798D01*
X008796Y007875D01*
X008603Y006267D02*
X008680Y006190D01*
X008680Y006036D01*
X008603Y005960D01*
X008450Y005960D02*
X008373Y006113D01*
X008373Y006190D01*
X008450Y006267D01*
X008603Y006267D01*
X008220Y006267D02*
X008220Y005960D01*
X008450Y005960D01*
X008450Y005806D02*
X008527Y005729D01*
X008527Y005499D01*
X008680Y005499D02*
X008220Y005499D01*
X008220Y005729D01*
X008296Y005806D01*
X008450Y005806D01*
X008527Y005653D02*
X008680Y005806D01*
D13*
X007013Y013378D03*
D14*
X007035Y014025D02*
X007035Y014475D01*
X006875Y014400D02*
X006875Y014100D01*
X006800Y014025D01*
X006650Y014025D01*
X006575Y014100D01*
X006575Y014400D01*
X006650Y014475D01*
X006800Y014475D01*
X006875Y014400D01*
X007035Y014175D02*
X007336Y014475D01*
X007496Y014325D02*
X007646Y014475D01*
X007646Y014025D01*
X007496Y014025D02*
X007796Y014025D01*
X007336Y014025D02*
X007110Y014250D01*
X019245Y014363D02*
X019245Y014663D01*
X019245Y014513D02*
X019695Y014513D01*
X019695Y014823D02*
X019695Y015123D01*
X019695Y014973D02*
X019245Y014973D01*
X019395Y014823D01*
X019770Y015283D02*
X019770Y015584D01*
X019695Y015894D02*
X019245Y015894D01*
X019245Y015744D02*
X019245Y016044D01*
X019245Y016204D02*
X019695Y016204D01*
X019470Y016204D02*
X019470Y016504D01*
X019245Y016504D02*
X019695Y016504D01*
X019245Y016665D02*
X019245Y016965D01*
X019245Y016815D02*
X019695Y016815D01*
X022645Y017637D02*
X022645Y017862D01*
X022720Y017937D01*
X022870Y017937D01*
X022945Y017862D01*
X022945Y017637D01*
X023095Y017637D02*
X022645Y017637D01*
X022645Y018097D02*
X023095Y018097D01*
X022945Y018247D01*
X023095Y018397D01*
X022645Y018397D01*
X022645Y018557D02*
X022645Y018783D01*
X022720Y018858D01*
X022870Y018858D01*
X022945Y018783D01*
X022945Y018557D01*
X023095Y018557D02*
X022645Y018557D01*
X022945Y018707D02*
X023095Y018858D01*
X023041Y010195D02*
X023116Y010120D01*
X023116Y010045D01*
X023041Y009970D01*
X023116Y009895D01*
X023116Y009820D01*
X023041Y009745D01*
X022891Y009745D01*
X022816Y009820D01*
X022966Y009970D02*
X023041Y009970D01*
X023041Y010195D02*
X022891Y010195D01*
X022816Y010120D01*
X022656Y010120D02*
X022581Y010195D01*
X022355Y010195D01*
X022355Y009745D01*
X022355Y009895D02*
X022581Y009895D01*
X022656Y009970D01*
X022656Y010120D01*
X022195Y010195D02*
X022045Y010195D01*
X022120Y010195D02*
X022120Y009820D01*
X022045Y009745D01*
X021970Y009745D01*
X021895Y009820D01*
X028445Y007095D02*
X028745Y006795D01*
X028670Y006870D02*
X028895Y007095D01*
X028895Y006795D02*
X028445Y006795D01*
X028520Y006634D02*
X028445Y006559D01*
X028445Y006409D01*
X028520Y006334D01*
X028820Y006334D01*
X028520Y006634D01*
X028820Y006634D01*
X028895Y006559D01*
X028895Y006409D01*
X028820Y006334D01*
X028895Y006174D02*
X028895Y005874D01*
X028895Y006024D02*
X028445Y006024D01*
X028595Y005874D01*
X028970Y005714D02*
X028970Y005413D01*
X028895Y005253D02*
X028745Y005103D01*
X028745Y005178D02*
X028745Y004953D01*
X028895Y004953D02*
X028445Y004953D01*
X028445Y005178D01*
X028520Y005253D01*
X028670Y005253D01*
X028745Y005178D01*
X028820Y004793D02*
X028520Y004793D01*
X028445Y004718D01*
X028445Y004568D01*
X028520Y004493D01*
X028820Y004493D01*
X028895Y004568D01*
X028895Y004718D01*
X028820Y004793D01*
X028445Y004332D02*
X028445Y004032D01*
X028445Y004182D02*
X028895Y004182D01*
X028820Y003872D02*
X028745Y003872D01*
X028670Y003797D01*
X028670Y003647D01*
X028595Y003572D01*
X028520Y003572D01*
X028445Y003647D01*
X028445Y003797D01*
X028520Y003872D01*
X028820Y003872D02*
X028895Y003797D01*
X028895Y003647D01*
X028820Y003572D01*
X028895Y003415D02*
X028895Y003265D01*
X028895Y003340D02*
X028445Y003340D01*
X028445Y003265D02*
X028445Y003415D01*
X028445Y003105D02*
X028895Y003105D01*
X028595Y002955D02*
X028445Y003105D01*
X028595Y002955D02*
X028445Y002805D01*
X028895Y002805D01*
X028895Y002644D02*
X028745Y002494D01*
X028745Y002569D02*
X028745Y002344D01*
X028895Y002344D02*
X028445Y002344D01*
X028445Y002569D01*
X028520Y002644D01*
X028670Y002644D01*
X028745Y002569D01*
X028895Y002184D02*
X028895Y001884D01*
X028445Y001884D01*
X028445Y002184D01*
X028670Y002034D02*
X028670Y001884D01*
X028670Y001724D02*
X028670Y001423D01*
X028895Y001423D02*
X028445Y001423D01*
X028445Y001263D02*
X028445Y000963D01*
X028445Y001113D02*
X028895Y001113D01*
X028895Y001724D02*
X028445Y001724D01*
X025365Y001675D02*
X025065Y001675D01*
X025215Y001675D02*
X025215Y002125D01*
X025065Y001975D01*
X024904Y001900D02*
X024829Y001825D01*
X024604Y001825D01*
X024604Y001675D02*
X024604Y002125D01*
X024829Y002125D01*
X024904Y002050D01*
X024904Y001900D01*
X024444Y002125D02*
X024294Y002125D01*
X024369Y002125D02*
X024369Y001750D01*
X024294Y001675D01*
X024219Y001675D01*
X024144Y001750D01*
X018970Y003113D02*
X018970Y003414D01*
X018895Y003574D02*
X018445Y003574D01*
X018445Y003799D01*
X018520Y003874D01*
X018670Y003874D01*
X018745Y003799D01*
X018745Y003574D01*
X018820Y004034D02*
X018520Y004034D01*
X018445Y004109D01*
X018445Y004259D01*
X018520Y004334D01*
X018820Y004334D01*
X018895Y004259D01*
X018895Y004109D01*
X018820Y004034D01*
X018445Y004495D02*
X018445Y004795D01*
X018445Y004645D02*
X018895Y004645D01*
X016530Y003497D02*
X016530Y003197D01*
X016455Y003037D02*
X016005Y003037D01*
X016155Y002887D01*
X016005Y002737D01*
X016455Y002737D01*
X016455Y002576D02*
X016305Y002426D01*
X016305Y002501D02*
X016305Y002276D01*
X016455Y002276D02*
X016005Y002276D01*
X016005Y002501D01*
X016080Y002576D01*
X016230Y002576D01*
X016305Y002501D01*
X016455Y002116D02*
X016455Y001816D01*
X016005Y001816D01*
X016005Y002116D01*
X016230Y001966D02*
X016230Y001816D01*
X016230Y001656D02*
X016230Y001355D01*
X016455Y001355D02*
X016005Y001355D01*
X016005Y001195D02*
X016005Y000895D01*
X016005Y001045D02*
X016455Y001045D01*
X016455Y001656D02*
X016005Y001656D01*
X013895Y002613D02*
X013445Y002613D01*
X013445Y002839D01*
X013520Y002914D01*
X013670Y002914D01*
X013745Y002839D01*
X013745Y002613D01*
X013745Y002764D02*
X013895Y002914D01*
X013895Y003074D02*
X013895Y003374D01*
X013820Y003534D02*
X013895Y003609D01*
X013895Y003759D01*
X013820Y003834D01*
X013745Y003834D01*
X013670Y003759D01*
X013670Y003609D01*
X013595Y003534D01*
X013520Y003534D01*
X013445Y003609D01*
X013445Y003759D01*
X013520Y003834D01*
X013595Y003995D02*
X013445Y004145D01*
X013895Y004145D01*
X013895Y003995D02*
X013895Y004295D01*
X013445Y003374D02*
X013445Y003074D01*
X013895Y003074D01*
X013670Y003074D02*
X013670Y003224D01*
X011395Y003074D02*
X011395Y003374D01*
X011320Y003534D02*
X011395Y003609D01*
X011395Y003759D01*
X011320Y003834D01*
X011245Y003834D01*
X011170Y003759D01*
X011170Y003609D01*
X011095Y003534D01*
X011020Y003534D01*
X010945Y003609D01*
X010945Y003759D01*
X011020Y003834D01*
X011020Y003995D02*
X010945Y004070D01*
X010945Y004220D01*
X011020Y004295D01*
X011095Y004295D01*
X011395Y003995D01*
X011395Y004295D01*
X010945Y003374D02*
X010945Y003074D01*
X011395Y003074D01*
X011395Y002914D02*
X011245Y002764D01*
X011245Y002839D02*
X011245Y002613D01*
X011395Y002613D02*
X010945Y002613D01*
X010945Y002839D01*
X011020Y002914D01*
X011170Y002914D01*
X011245Y002839D01*
X011170Y003074D02*
X011170Y003224D01*
X008895Y003074D02*
X008895Y003374D01*
X008820Y003534D02*
X008895Y003609D01*
X008895Y003759D01*
X008820Y003834D01*
X008745Y003834D01*
X008670Y003759D01*
X008670Y003609D01*
X008595Y003534D01*
X008520Y003534D01*
X008445Y003609D01*
X008445Y003759D01*
X008520Y003834D01*
X008520Y003995D02*
X008445Y004070D01*
X008445Y004220D01*
X008520Y004295D01*
X008595Y004295D01*
X008670Y004220D01*
X008745Y004295D01*
X008820Y004295D01*
X008895Y004220D01*
X008895Y004070D01*
X008820Y003995D01*
X008670Y004145D02*
X008670Y004220D01*
X008445Y003374D02*
X008445Y003074D01*
X008895Y003074D01*
X008895Y002914D02*
X008745Y002764D01*
X008745Y002839D02*
X008745Y002613D01*
X008895Y002613D02*
X008445Y002613D01*
X008445Y002839D01*
X008520Y002914D01*
X008670Y002914D01*
X008745Y002839D01*
X008670Y003074D02*
X008670Y003224D01*
X006470Y003074D02*
X006470Y003374D01*
X006320Y003534D02*
X006395Y003609D01*
X006395Y003759D01*
X006320Y003834D01*
X006245Y003834D01*
X006170Y003759D01*
X006170Y003609D01*
X006095Y003534D01*
X006020Y003534D01*
X005945Y003609D01*
X005945Y003759D01*
X006020Y003834D01*
X005945Y003995D02*
X006395Y003995D01*
X006245Y004145D01*
X006395Y004295D01*
X005945Y004295D01*
X006395Y002914D02*
X006395Y002613D01*
X005945Y002613D01*
X005945Y002153D02*
X006395Y002153D01*
X006395Y002453D01*
X006395Y001996D02*
X006395Y001846D01*
X006395Y001921D02*
X005945Y001921D01*
X005945Y001846D02*
X005945Y001996D01*
X005945Y001686D02*
X006245Y001386D01*
X006170Y001461D02*
X006395Y001686D01*
X006395Y001386D02*
X005945Y001386D01*
X016005Y003657D02*
X016005Y003807D01*
X016005Y003732D02*
X016455Y003732D01*
X016455Y003657D02*
X016455Y003807D01*
X016380Y003964D02*
X016080Y003964D01*
X016005Y004039D01*
X016005Y004189D01*
X016080Y004265D01*
X016230Y004265D02*
X016230Y004114D01*
X016230Y004265D02*
X016380Y004265D01*
X016455Y004189D01*
X016455Y004039D01*
X016380Y003964D01*
X016455Y004425D02*
X016005Y004425D01*
X016005Y004650D01*
X016080Y004725D01*
X016155Y004725D01*
X016230Y004650D01*
X016230Y004425D01*
X016230Y004650D02*
X016305Y004725D01*
X016380Y004725D01*
X016455Y004650D01*
X016455Y004425D01*
X016005Y004885D02*
X016005Y005185D01*
X016005Y005035D02*
X016455Y005035D01*
X018445Y002953D02*
X018895Y002953D01*
X018595Y002803D02*
X018445Y002953D01*
X018595Y002803D02*
X018445Y002653D01*
X018895Y002653D01*
X018895Y002493D02*
X018745Y002343D01*
X018745Y002418D02*
X018745Y002193D01*
X018895Y002193D02*
X018445Y002193D01*
X018445Y002418D01*
X018520Y002493D01*
X018670Y002493D01*
X018745Y002418D01*
X018895Y002033D02*
X018895Y001732D01*
X018445Y001732D01*
X018445Y002033D01*
X018670Y001882D02*
X018670Y001732D01*
X018670Y001572D02*
X018670Y001272D01*
X018895Y001272D02*
X018445Y001272D01*
X018445Y001112D02*
X018445Y000811D01*
X018445Y000962D02*
X018895Y000962D01*
X018895Y001572D02*
X018445Y001572D01*
D15*
X017700Y008300D03*
X015200Y008300D03*
X012700Y008300D03*
X010200Y008300D03*
X007700Y008300D03*
X005200Y008300D03*
X002700Y008300D03*
D16*
X003276Y008822D03*
X005776Y008822D03*
X008276Y008822D03*
X010776Y008822D03*
X013276Y008822D03*
X015776Y008822D03*
X018276Y008822D03*
D17*
X016060Y012980D02*
X015360Y012980D01*
X016060Y012980D02*
X016060Y017020D01*
X015360Y017020D01*
D18*
X016610Y016000D03*
X016610Y015000D03*
X016610Y014000D03*
D19*
X020140Y016870D03*
D20*
X021450Y015100D03*
D21*
X021200Y013375D03*
X021200Y016825D03*
D22*
X021200Y015600D03*
X021200Y014600D03*
M02*
