G75*
G70*
%OFA0B0*%
%FSLAX24Y24*%
%IPPOS*%
%LPD*%
%AMOC8*
5,1,8,0,0,1.08239X$1,22.5*
%
%ADD10C,0.0060*%
%ADD11R,0.0598X0.0701*%
%ADD12R,0.0512X0.0630*%
%ADD13R,0.0630X0.0512*%
%ADD14C,0.0705*%
%ADD15R,0.1024X0.0591*%
%ADD16OC8,0.0600*%
%ADD17C,0.0600*%
%ADD18C,0.0040*%
%ADD19C,0.0240*%
%ADD20C,0.1500*%
%ADD21C,0.1000*%
%ADD22C,0.0660*%
%ADD23C,0.0700*%
%ADD24C,0.0320*%
%ADD25C,0.0100*%
%ADD26C,0.0400*%
D10*
X012550Y001400D02*
X012950Y001400D01*
X013050Y001400D02*
X013052Y001444D01*
X013058Y001488D01*
X013068Y001531D01*
X013081Y001573D01*
X013098Y001614D01*
X013119Y001653D01*
X013143Y001690D01*
X013170Y001725D01*
X013200Y001757D01*
X013233Y001787D01*
X013269Y001813D01*
X013306Y001837D01*
X013346Y001856D01*
X013387Y001873D01*
X013430Y001885D01*
X013473Y001894D01*
X013517Y001899D01*
X013561Y001900D01*
X013605Y001897D01*
X013649Y001890D01*
X013692Y001879D01*
X013734Y001865D01*
X013774Y001847D01*
X013813Y001825D01*
X013849Y001801D01*
X013883Y001773D01*
X013915Y001742D01*
X013944Y001708D01*
X013970Y001672D01*
X013992Y001634D01*
X014011Y001594D01*
X014026Y001552D01*
X014038Y001510D01*
X014046Y001466D01*
X014050Y001422D01*
X014050Y001378D01*
X014046Y001334D01*
X014038Y001290D01*
X014026Y001248D01*
X014011Y001206D01*
X013992Y001166D01*
X013970Y001128D01*
X013944Y001092D01*
X013915Y001058D01*
X013883Y001027D01*
X013849Y000999D01*
X013813Y000975D01*
X013774Y000953D01*
X013734Y000935D01*
X013692Y000921D01*
X013649Y000910D01*
X013605Y000903D01*
X013561Y000900D01*
X013517Y000901D01*
X013473Y000906D01*
X013430Y000915D01*
X013387Y000927D01*
X013346Y000944D01*
X013306Y000963D01*
X013269Y000987D01*
X013233Y001013D01*
X013200Y001043D01*
X013170Y001075D01*
X013143Y001110D01*
X013119Y001147D01*
X013098Y001186D01*
X013081Y001227D01*
X013068Y001269D01*
X013058Y001312D01*
X013052Y001356D01*
X013050Y001400D01*
X013550Y000800D02*
X013550Y000400D01*
X014150Y001400D02*
X014550Y001400D01*
X013550Y002000D02*
X013550Y002400D01*
X021500Y006450D02*
X021900Y006450D01*
X022000Y006450D02*
X022002Y006494D01*
X022008Y006538D01*
X022018Y006581D01*
X022031Y006623D01*
X022048Y006664D01*
X022069Y006703D01*
X022093Y006740D01*
X022120Y006775D01*
X022150Y006807D01*
X022183Y006837D01*
X022219Y006863D01*
X022256Y006887D01*
X022296Y006906D01*
X022337Y006923D01*
X022380Y006935D01*
X022423Y006944D01*
X022467Y006949D01*
X022511Y006950D01*
X022555Y006947D01*
X022599Y006940D01*
X022642Y006929D01*
X022684Y006915D01*
X022724Y006897D01*
X022763Y006875D01*
X022799Y006851D01*
X022833Y006823D01*
X022865Y006792D01*
X022894Y006758D01*
X022920Y006722D01*
X022942Y006684D01*
X022961Y006644D01*
X022976Y006602D01*
X022988Y006560D01*
X022996Y006516D01*
X023000Y006472D01*
X023000Y006428D01*
X022996Y006384D01*
X022988Y006340D01*
X022976Y006298D01*
X022961Y006256D01*
X022942Y006216D01*
X022920Y006178D01*
X022894Y006142D01*
X022865Y006108D01*
X022833Y006077D01*
X022799Y006049D01*
X022763Y006025D01*
X022724Y006003D01*
X022684Y005985D01*
X022642Y005971D01*
X022599Y005960D01*
X022555Y005953D01*
X022511Y005950D01*
X022467Y005951D01*
X022423Y005956D01*
X022380Y005965D01*
X022337Y005977D01*
X022296Y005994D01*
X022256Y006013D01*
X022219Y006037D01*
X022183Y006063D01*
X022150Y006093D01*
X022120Y006125D01*
X022093Y006160D01*
X022069Y006197D01*
X022048Y006236D01*
X022031Y006277D01*
X022018Y006319D01*
X022008Y006362D01*
X022002Y006406D01*
X022000Y006450D01*
X022500Y005850D02*
X022500Y005450D01*
X023100Y006450D02*
X023500Y006450D01*
X022500Y007050D02*
X022500Y007450D01*
X019050Y011550D02*
X019050Y011950D01*
X018550Y012550D02*
X018552Y012594D01*
X018558Y012638D01*
X018568Y012681D01*
X018581Y012723D01*
X018598Y012764D01*
X018619Y012803D01*
X018643Y012840D01*
X018670Y012875D01*
X018700Y012907D01*
X018733Y012937D01*
X018769Y012963D01*
X018806Y012987D01*
X018846Y013006D01*
X018887Y013023D01*
X018930Y013035D01*
X018973Y013044D01*
X019017Y013049D01*
X019061Y013050D01*
X019105Y013047D01*
X019149Y013040D01*
X019192Y013029D01*
X019234Y013015D01*
X019274Y012997D01*
X019313Y012975D01*
X019349Y012951D01*
X019383Y012923D01*
X019415Y012892D01*
X019444Y012858D01*
X019470Y012822D01*
X019492Y012784D01*
X019511Y012744D01*
X019526Y012702D01*
X019538Y012660D01*
X019546Y012616D01*
X019550Y012572D01*
X019550Y012528D01*
X019546Y012484D01*
X019538Y012440D01*
X019526Y012398D01*
X019511Y012356D01*
X019492Y012316D01*
X019470Y012278D01*
X019444Y012242D01*
X019415Y012208D01*
X019383Y012177D01*
X019349Y012149D01*
X019313Y012125D01*
X019274Y012103D01*
X019234Y012085D01*
X019192Y012071D01*
X019149Y012060D01*
X019105Y012053D01*
X019061Y012050D01*
X019017Y012051D01*
X018973Y012056D01*
X018930Y012065D01*
X018887Y012077D01*
X018846Y012094D01*
X018806Y012113D01*
X018769Y012137D01*
X018733Y012163D01*
X018700Y012193D01*
X018670Y012225D01*
X018643Y012260D01*
X018619Y012297D01*
X018598Y012336D01*
X018581Y012377D01*
X018568Y012419D01*
X018558Y012462D01*
X018552Y012506D01*
X018550Y012550D01*
X018450Y012550D02*
X018050Y012550D01*
X019050Y013150D02*
X019050Y013550D01*
X019650Y012550D02*
X020050Y012550D01*
X027725Y018523D02*
X028152Y018523D01*
X028369Y018630D02*
X028583Y018630D01*
X028476Y018630D02*
X028476Y019057D01*
X028369Y019057D01*
X028476Y019271D02*
X028476Y019377D01*
X028799Y019057D02*
X029119Y019057D01*
X029226Y018950D01*
X029226Y018630D01*
X028799Y018630D02*
X028799Y019057D01*
X027507Y018630D02*
X027080Y018630D01*
X027080Y019271D01*
X005200Y017450D02*
X004800Y017450D01*
X003700Y017450D02*
X003702Y017494D01*
X003708Y017538D01*
X003718Y017581D01*
X003731Y017623D01*
X003748Y017664D01*
X003769Y017703D01*
X003793Y017740D01*
X003820Y017775D01*
X003850Y017807D01*
X003883Y017837D01*
X003919Y017863D01*
X003956Y017887D01*
X003996Y017906D01*
X004037Y017923D01*
X004080Y017935D01*
X004123Y017944D01*
X004167Y017949D01*
X004211Y017950D01*
X004255Y017947D01*
X004299Y017940D01*
X004342Y017929D01*
X004384Y017915D01*
X004424Y017897D01*
X004463Y017875D01*
X004499Y017851D01*
X004533Y017823D01*
X004565Y017792D01*
X004594Y017758D01*
X004620Y017722D01*
X004642Y017684D01*
X004661Y017644D01*
X004676Y017602D01*
X004688Y017560D01*
X004696Y017516D01*
X004700Y017472D01*
X004700Y017428D01*
X004696Y017384D01*
X004688Y017340D01*
X004676Y017298D01*
X004661Y017256D01*
X004642Y017216D01*
X004620Y017178D01*
X004594Y017142D01*
X004565Y017108D01*
X004533Y017077D01*
X004499Y017049D01*
X004463Y017025D01*
X004424Y017003D01*
X004384Y016985D01*
X004342Y016971D01*
X004299Y016960D01*
X004255Y016953D01*
X004211Y016950D01*
X004167Y016951D01*
X004123Y016956D01*
X004080Y016965D01*
X004037Y016977D01*
X003996Y016994D01*
X003956Y017013D01*
X003919Y017037D01*
X003883Y017063D01*
X003850Y017093D01*
X003820Y017125D01*
X003793Y017160D01*
X003769Y017197D01*
X003748Y017236D01*
X003731Y017277D01*
X003718Y017319D01*
X003708Y017362D01*
X003702Y017406D01*
X003700Y017450D01*
X003600Y017450D02*
X003200Y017450D01*
X004200Y016850D02*
X004200Y016450D01*
X004200Y018050D02*
X004200Y018450D01*
D11*
X005971Y013000D03*
X005971Y012000D03*
X005971Y011000D03*
X009629Y011000D03*
X009629Y012000D03*
X009629Y013000D03*
D12*
X003174Y011000D03*
X002426Y011000D03*
D13*
X002700Y006274D03*
X002700Y005526D03*
X005200Y005526D03*
X005200Y006274D03*
X007700Y006274D03*
X007700Y005526D03*
X010200Y005526D03*
X010200Y006274D03*
X012700Y006274D03*
X012700Y005526D03*
X015200Y005526D03*
X015200Y006274D03*
X017700Y006274D03*
X017700Y005526D03*
X009600Y014826D03*
X009600Y015574D03*
D14*
X024698Y016534D02*
X025403Y016534D01*
X025403Y014566D02*
X024698Y014566D01*
X024698Y012597D02*
X025403Y012597D01*
X025403Y018503D02*
X024698Y018503D01*
D15*
X017700Y008969D03*
X017700Y007631D03*
X015200Y007631D03*
X015200Y008969D03*
X012700Y008969D03*
X012700Y007631D03*
X010200Y007631D03*
X010200Y008969D03*
X007700Y008969D03*
X007700Y007631D03*
X005200Y007631D03*
X005200Y008969D03*
X002700Y008969D03*
X002700Y007631D03*
D16*
X020000Y003900D03*
X021000Y003900D03*
X021000Y002900D03*
X020000Y002900D03*
X022000Y002900D03*
X023000Y002900D03*
X024000Y002900D03*
X024000Y003900D03*
X023000Y003900D03*
X022000Y003900D03*
X025000Y003900D03*
X025000Y002900D03*
D17*
X027300Y003100D02*
X027900Y003100D01*
X027900Y004100D02*
X027300Y004100D01*
X027400Y008700D02*
X027400Y009300D01*
X026400Y009300D02*
X026400Y008700D01*
X025400Y008700D02*
X025400Y009300D01*
X024400Y009300D02*
X024400Y008700D01*
X023400Y008700D02*
X023400Y009300D01*
X022400Y009300D02*
X022400Y008700D01*
X018000Y003900D02*
X017400Y003900D01*
X017400Y002900D02*
X018000Y002900D01*
X015500Y002900D02*
X014900Y002900D01*
X014900Y003900D02*
X015500Y003900D01*
X013000Y003900D02*
X012400Y003900D01*
X012400Y002900D02*
X013000Y002900D01*
X010500Y002900D02*
X009900Y002900D01*
X009900Y003900D02*
X010500Y003900D01*
X008000Y003900D02*
X007400Y003900D01*
X007400Y002900D02*
X008000Y002900D01*
X005500Y002900D02*
X004900Y002900D01*
X004900Y003900D02*
X005500Y003900D01*
X002150Y004350D02*
X001550Y004350D01*
X001550Y003350D02*
X002150Y003350D01*
X020300Y014100D02*
X020900Y014100D01*
X020900Y015100D02*
X020300Y015100D01*
X020300Y016100D02*
X020900Y016100D01*
D18*
X019479Y012579D02*
X019074Y012574D01*
X019074Y012574D01*
X019079Y012979D01*
X019080Y012980D01*
X019119Y012976D01*
X019157Y012969D01*
X019194Y012958D01*
X019230Y012944D01*
X019265Y012927D01*
X019297Y012906D01*
X019328Y012883D01*
X019357Y012857D01*
X019383Y012828D01*
X019406Y012797D01*
X019427Y012765D01*
X019444Y012730D01*
X019458Y012694D01*
X019469Y012657D01*
X019476Y012619D01*
X019480Y012580D01*
X019442Y012580D01*
X019439Y012617D01*
X019431Y012654D01*
X019420Y012690D01*
X019406Y012724D01*
X019388Y012757D01*
X019367Y012788D01*
X019344Y012817D01*
X019317Y012844D01*
X019288Y012867D01*
X019257Y012888D01*
X019224Y012906D01*
X019190Y012920D01*
X019154Y012931D01*
X019117Y012939D01*
X019080Y012942D01*
X019080Y012905D01*
X019116Y012901D01*
X019151Y012894D01*
X019185Y012883D01*
X019218Y012868D01*
X019249Y012850D01*
X019278Y012829D01*
X019305Y012805D01*
X019329Y012778D01*
X019350Y012749D01*
X019368Y012718D01*
X019383Y012685D01*
X019394Y012651D01*
X019401Y012616D01*
X019405Y012580D01*
X019368Y012580D01*
X019364Y012614D01*
X019356Y012647D01*
X019345Y012680D01*
X019330Y012710D01*
X019312Y012739D01*
X019290Y012766D01*
X019266Y012790D01*
X019239Y012812D01*
X019210Y012830D01*
X019180Y012845D01*
X019147Y012856D01*
X019114Y012864D01*
X019080Y012868D01*
X019080Y012831D01*
X019112Y012827D01*
X019143Y012819D01*
X019173Y012807D01*
X019202Y012792D01*
X019228Y012774D01*
X019252Y012752D01*
X019274Y012728D01*
X019292Y012702D01*
X019307Y012673D01*
X019319Y012643D01*
X019327Y012612D01*
X019331Y012580D01*
X019294Y012580D01*
X019290Y012610D01*
X019282Y012638D01*
X019270Y012666D01*
X019255Y012692D01*
X019236Y012715D01*
X019215Y012736D01*
X019192Y012755D01*
X019166Y012770D01*
X019138Y012782D01*
X019110Y012790D01*
X019080Y012794D01*
X019080Y012757D01*
X019107Y012752D01*
X019132Y012744D01*
X019157Y012733D01*
X019180Y012718D01*
X019200Y012700D01*
X019218Y012680D01*
X019233Y012657D01*
X019244Y012632D01*
X019252Y012607D01*
X019257Y012580D01*
X019220Y012580D01*
X019215Y012603D01*
X019207Y012625D01*
X019196Y012646D01*
X019182Y012665D01*
X019165Y012682D01*
X019146Y012696D01*
X019125Y012707D01*
X019103Y012715D01*
X019080Y012720D01*
X019080Y012682D01*
X019099Y012678D01*
X019117Y012670D01*
X019133Y012660D01*
X019148Y012648D01*
X019160Y012633D01*
X019170Y012617D01*
X019178Y012599D01*
X019182Y012580D01*
X019145Y012580D01*
X019140Y012595D01*
X019132Y012609D01*
X019122Y012622D01*
X019109Y012632D01*
X019095Y012640D01*
X019080Y012645D01*
X019079Y012606D01*
X019091Y012600D01*
X019100Y012591D01*
X019106Y012579D01*
X018621Y012521D02*
X019026Y012526D01*
X019026Y012526D01*
X019021Y012121D01*
X019020Y012120D01*
X018981Y012124D01*
X018943Y012131D01*
X018906Y012142D01*
X018870Y012156D01*
X018835Y012173D01*
X018803Y012194D01*
X018772Y012217D01*
X018743Y012243D01*
X018717Y012272D01*
X018694Y012303D01*
X018673Y012335D01*
X018656Y012370D01*
X018642Y012406D01*
X018631Y012443D01*
X018624Y012481D01*
X018620Y012520D01*
X018658Y012520D01*
X018661Y012483D01*
X018669Y012446D01*
X018680Y012410D01*
X018694Y012376D01*
X018712Y012343D01*
X018733Y012312D01*
X018756Y012283D01*
X018783Y012256D01*
X018812Y012233D01*
X018843Y012212D01*
X018876Y012194D01*
X018910Y012180D01*
X018946Y012169D01*
X018983Y012161D01*
X019020Y012158D01*
X019020Y012195D01*
X018984Y012199D01*
X018949Y012206D01*
X018915Y012217D01*
X018882Y012232D01*
X018851Y012250D01*
X018822Y012271D01*
X018795Y012295D01*
X018771Y012322D01*
X018750Y012351D01*
X018732Y012382D01*
X018717Y012415D01*
X018706Y012449D01*
X018699Y012484D01*
X018695Y012520D01*
X018732Y012520D01*
X018736Y012486D01*
X018744Y012453D01*
X018755Y012420D01*
X018770Y012390D01*
X018788Y012361D01*
X018810Y012334D01*
X018834Y012310D01*
X018861Y012288D01*
X018890Y012270D01*
X018920Y012255D01*
X018953Y012244D01*
X018986Y012236D01*
X019020Y012232D01*
X019020Y012269D01*
X018988Y012273D01*
X018957Y012281D01*
X018927Y012293D01*
X018898Y012308D01*
X018872Y012326D01*
X018848Y012348D01*
X018826Y012372D01*
X018808Y012398D01*
X018793Y012427D01*
X018781Y012457D01*
X018773Y012488D01*
X018769Y012520D01*
X018806Y012520D01*
X018810Y012490D01*
X018818Y012462D01*
X018830Y012434D01*
X018845Y012408D01*
X018864Y012385D01*
X018885Y012364D01*
X018908Y012345D01*
X018934Y012330D01*
X018962Y012318D01*
X018990Y012310D01*
X019020Y012306D01*
X019020Y012343D01*
X018993Y012348D01*
X018968Y012356D01*
X018943Y012367D01*
X018920Y012382D01*
X018900Y012400D01*
X018882Y012420D01*
X018867Y012443D01*
X018856Y012468D01*
X018848Y012493D01*
X018843Y012520D01*
X018880Y012520D01*
X018885Y012497D01*
X018893Y012475D01*
X018904Y012454D01*
X018918Y012435D01*
X018935Y012418D01*
X018954Y012404D01*
X018975Y012393D01*
X018997Y012385D01*
X019020Y012380D01*
X019020Y012418D01*
X019001Y012422D01*
X018983Y012430D01*
X018967Y012440D01*
X018952Y012452D01*
X018940Y012467D01*
X018930Y012483D01*
X018922Y012501D01*
X018918Y012520D01*
X018955Y012520D01*
X018960Y012505D01*
X018968Y012491D01*
X018978Y012478D01*
X018991Y012468D01*
X019005Y012460D01*
X019020Y012455D01*
X019021Y012494D01*
X019009Y012500D01*
X019000Y012509D01*
X018994Y012521D01*
X022929Y006479D02*
X022524Y006474D01*
X022524Y006474D01*
X022529Y006879D01*
X022530Y006880D01*
X022569Y006876D01*
X022607Y006869D01*
X022644Y006858D01*
X022680Y006844D01*
X022715Y006827D01*
X022747Y006806D01*
X022778Y006783D01*
X022807Y006757D01*
X022833Y006728D01*
X022856Y006697D01*
X022877Y006665D01*
X022894Y006630D01*
X022908Y006594D01*
X022919Y006557D01*
X022926Y006519D01*
X022930Y006480D01*
X022892Y006480D01*
X022889Y006517D01*
X022881Y006554D01*
X022870Y006590D01*
X022856Y006624D01*
X022838Y006657D01*
X022817Y006688D01*
X022794Y006717D01*
X022767Y006744D01*
X022738Y006767D01*
X022707Y006788D01*
X022674Y006806D01*
X022640Y006820D01*
X022604Y006831D01*
X022567Y006839D01*
X022530Y006842D01*
X022530Y006805D01*
X022566Y006801D01*
X022601Y006794D01*
X022635Y006783D01*
X022668Y006768D01*
X022699Y006750D01*
X022728Y006729D01*
X022755Y006705D01*
X022779Y006678D01*
X022800Y006649D01*
X022818Y006618D01*
X022833Y006585D01*
X022844Y006551D01*
X022851Y006516D01*
X022855Y006480D01*
X022818Y006480D01*
X022814Y006514D01*
X022806Y006547D01*
X022795Y006580D01*
X022780Y006610D01*
X022762Y006639D01*
X022740Y006666D01*
X022716Y006690D01*
X022689Y006712D01*
X022660Y006730D01*
X022630Y006745D01*
X022597Y006756D01*
X022564Y006764D01*
X022530Y006768D01*
X022530Y006731D01*
X022562Y006727D01*
X022593Y006719D01*
X022623Y006707D01*
X022652Y006692D01*
X022678Y006674D01*
X022702Y006652D01*
X022724Y006628D01*
X022742Y006602D01*
X022757Y006573D01*
X022769Y006543D01*
X022777Y006512D01*
X022781Y006480D01*
X022744Y006480D01*
X022740Y006510D01*
X022732Y006538D01*
X022720Y006566D01*
X022705Y006592D01*
X022686Y006615D01*
X022665Y006636D01*
X022642Y006655D01*
X022616Y006670D01*
X022588Y006682D01*
X022560Y006690D01*
X022530Y006694D01*
X022530Y006657D01*
X022557Y006652D01*
X022582Y006644D01*
X022607Y006633D01*
X022630Y006618D01*
X022650Y006600D01*
X022668Y006580D01*
X022683Y006557D01*
X022694Y006532D01*
X022702Y006507D01*
X022707Y006480D01*
X022670Y006480D01*
X022665Y006503D01*
X022657Y006525D01*
X022646Y006546D01*
X022632Y006565D01*
X022615Y006582D01*
X022596Y006596D01*
X022575Y006607D01*
X022553Y006615D01*
X022530Y006620D01*
X022530Y006582D01*
X022549Y006578D01*
X022567Y006570D01*
X022583Y006560D01*
X022598Y006548D01*
X022610Y006533D01*
X022620Y006517D01*
X022628Y006499D01*
X022632Y006480D01*
X022595Y006480D01*
X022590Y006495D01*
X022582Y006509D01*
X022572Y006522D01*
X022559Y006532D01*
X022545Y006540D01*
X022530Y006545D01*
X022529Y006506D01*
X022541Y006500D01*
X022550Y006491D01*
X022556Y006479D01*
X022071Y006421D02*
X022476Y006426D01*
X022476Y006426D01*
X022471Y006021D01*
X022470Y006020D01*
X022431Y006024D01*
X022393Y006031D01*
X022356Y006042D01*
X022320Y006056D01*
X022285Y006073D01*
X022253Y006094D01*
X022222Y006117D01*
X022193Y006143D01*
X022167Y006172D01*
X022144Y006203D01*
X022123Y006235D01*
X022106Y006270D01*
X022092Y006306D01*
X022081Y006343D01*
X022074Y006381D01*
X022070Y006420D01*
X022108Y006420D01*
X022111Y006383D01*
X022119Y006346D01*
X022130Y006310D01*
X022144Y006276D01*
X022162Y006243D01*
X022183Y006212D01*
X022206Y006183D01*
X022233Y006156D01*
X022262Y006133D01*
X022293Y006112D01*
X022326Y006094D01*
X022360Y006080D01*
X022396Y006069D01*
X022433Y006061D01*
X022470Y006058D01*
X022470Y006095D01*
X022434Y006099D01*
X022399Y006106D01*
X022365Y006117D01*
X022332Y006132D01*
X022301Y006150D01*
X022272Y006171D01*
X022245Y006195D01*
X022221Y006222D01*
X022200Y006251D01*
X022182Y006282D01*
X022167Y006315D01*
X022156Y006349D01*
X022149Y006384D01*
X022145Y006420D01*
X022182Y006420D01*
X022186Y006386D01*
X022194Y006353D01*
X022205Y006320D01*
X022220Y006290D01*
X022238Y006261D01*
X022260Y006234D01*
X022284Y006210D01*
X022311Y006188D01*
X022340Y006170D01*
X022370Y006155D01*
X022403Y006144D01*
X022436Y006136D01*
X022470Y006132D01*
X022470Y006169D01*
X022438Y006173D01*
X022407Y006181D01*
X022377Y006193D01*
X022348Y006208D01*
X022322Y006226D01*
X022298Y006248D01*
X022276Y006272D01*
X022258Y006298D01*
X022243Y006327D01*
X022231Y006357D01*
X022223Y006388D01*
X022219Y006420D01*
X022256Y006420D01*
X022260Y006390D01*
X022268Y006362D01*
X022280Y006334D01*
X022295Y006308D01*
X022314Y006285D01*
X022335Y006264D01*
X022358Y006245D01*
X022384Y006230D01*
X022412Y006218D01*
X022440Y006210D01*
X022470Y006206D01*
X022470Y006243D01*
X022443Y006248D01*
X022418Y006256D01*
X022393Y006267D01*
X022370Y006282D01*
X022350Y006300D01*
X022332Y006320D01*
X022317Y006343D01*
X022306Y006368D01*
X022298Y006393D01*
X022293Y006420D01*
X022330Y006420D01*
X022335Y006397D01*
X022343Y006375D01*
X022354Y006354D01*
X022368Y006335D01*
X022385Y006318D01*
X022404Y006304D01*
X022425Y006293D01*
X022447Y006285D01*
X022470Y006280D01*
X022470Y006318D01*
X022451Y006322D01*
X022433Y006330D01*
X022417Y006340D01*
X022402Y006352D01*
X022390Y006367D01*
X022380Y006383D01*
X022372Y006401D01*
X022368Y006420D01*
X022405Y006420D01*
X022410Y006405D01*
X022418Y006391D01*
X022428Y006378D01*
X022441Y006368D01*
X022455Y006360D01*
X022470Y006355D01*
X022471Y006394D01*
X022459Y006400D01*
X022450Y006409D01*
X022444Y006421D01*
X013979Y001429D02*
X013574Y001424D01*
X013574Y001424D01*
X013579Y001829D01*
X013580Y001830D01*
X013619Y001826D01*
X013657Y001819D01*
X013694Y001808D01*
X013730Y001794D01*
X013765Y001777D01*
X013797Y001756D01*
X013828Y001733D01*
X013857Y001707D01*
X013883Y001678D01*
X013906Y001647D01*
X013927Y001615D01*
X013944Y001580D01*
X013958Y001544D01*
X013969Y001507D01*
X013976Y001469D01*
X013980Y001430D01*
X013942Y001430D01*
X013939Y001467D01*
X013931Y001504D01*
X013920Y001540D01*
X013906Y001574D01*
X013888Y001607D01*
X013867Y001638D01*
X013844Y001667D01*
X013817Y001694D01*
X013788Y001717D01*
X013757Y001738D01*
X013724Y001756D01*
X013690Y001770D01*
X013654Y001781D01*
X013617Y001789D01*
X013580Y001792D01*
X013580Y001755D01*
X013616Y001751D01*
X013651Y001744D01*
X013685Y001733D01*
X013718Y001718D01*
X013749Y001700D01*
X013778Y001679D01*
X013805Y001655D01*
X013829Y001628D01*
X013850Y001599D01*
X013868Y001568D01*
X013883Y001535D01*
X013894Y001501D01*
X013901Y001466D01*
X013905Y001430D01*
X013868Y001430D01*
X013864Y001464D01*
X013856Y001497D01*
X013845Y001530D01*
X013830Y001560D01*
X013812Y001589D01*
X013790Y001616D01*
X013766Y001640D01*
X013739Y001662D01*
X013710Y001680D01*
X013680Y001695D01*
X013647Y001706D01*
X013614Y001714D01*
X013580Y001718D01*
X013580Y001681D01*
X013612Y001677D01*
X013643Y001669D01*
X013673Y001657D01*
X013702Y001642D01*
X013728Y001624D01*
X013752Y001602D01*
X013774Y001578D01*
X013792Y001552D01*
X013807Y001523D01*
X013819Y001493D01*
X013827Y001462D01*
X013831Y001430D01*
X013794Y001430D01*
X013790Y001460D01*
X013782Y001488D01*
X013770Y001516D01*
X013755Y001542D01*
X013736Y001565D01*
X013715Y001586D01*
X013692Y001605D01*
X013666Y001620D01*
X013638Y001632D01*
X013610Y001640D01*
X013580Y001644D01*
X013580Y001607D01*
X013607Y001602D01*
X013632Y001594D01*
X013657Y001583D01*
X013680Y001568D01*
X013700Y001550D01*
X013718Y001530D01*
X013733Y001507D01*
X013744Y001482D01*
X013752Y001457D01*
X013757Y001430D01*
X013720Y001430D01*
X013715Y001453D01*
X013707Y001475D01*
X013696Y001496D01*
X013682Y001515D01*
X013665Y001532D01*
X013646Y001546D01*
X013625Y001557D01*
X013603Y001565D01*
X013580Y001570D01*
X013580Y001532D01*
X013599Y001528D01*
X013617Y001520D01*
X013633Y001510D01*
X013648Y001498D01*
X013660Y001483D01*
X013670Y001467D01*
X013678Y001449D01*
X013682Y001430D01*
X013645Y001430D01*
X013640Y001445D01*
X013632Y001459D01*
X013622Y001472D01*
X013609Y001482D01*
X013595Y001490D01*
X013580Y001495D01*
X013579Y001456D01*
X013591Y001450D01*
X013600Y001441D01*
X013606Y001429D01*
X013121Y001371D02*
X013526Y001376D01*
X013526Y001376D01*
X013521Y000971D01*
X013520Y000970D01*
X013481Y000974D01*
X013443Y000981D01*
X013406Y000992D01*
X013370Y001006D01*
X013335Y001023D01*
X013303Y001044D01*
X013272Y001067D01*
X013243Y001093D01*
X013217Y001122D01*
X013194Y001153D01*
X013173Y001185D01*
X013156Y001220D01*
X013142Y001256D01*
X013131Y001293D01*
X013124Y001331D01*
X013120Y001370D01*
X013158Y001370D01*
X013161Y001333D01*
X013169Y001296D01*
X013180Y001260D01*
X013194Y001226D01*
X013212Y001193D01*
X013233Y001162D01*
X013256Y001133D01*
X013283Y001106D01*
X013312Y001083D01*
X013343Y001062D01*
X013376Y001044D01*
X013410Y001030D01*
X013446Y001019D01*
X013483Y001011D01*
X013520Y001008D01*
X013520Y001045D01*
X013484Y001049D01*
X013449Y001056D01*
X013415Y001067D01*
X013382Y001082D01*
X013351Y001100D01*
X013322Y001121D01*
X013295Y001145D01*
X013271Y001172D01*
X013250Y001201D01*
X013232Y001232D01*
X013217Y001265D01*
X013206Y001299D01*
X013199Y001334D01*
X013195Y001370D01*
X013232Y001370D01*
X013236Y001336D01*
X013244Y001303D01*
X013255Y001270D01*
X013270Y001240D01*
X013288Y001211D01*
X013310Y001184D01*
X013334Y001160D01*
X013361Y001138D01*
X013390Y001120D01*
X013420Y001105D01*
X013453Y001094D01*
X013486Y001086D01*
X013520Y001082D01*
X013520Y001119D01*
X013488Y001123D01*
X013457Y001131D01*
X013427Y001143D01*
X013398Y001158D01*
X013372Y001176D01*
X013348Y001198D01*
X013326Y001222D01*
X013308Y001248D01*
X013293Y001277D01*
X013281Y001307D01*
X013273Y001338D01*
X013269Y001370D01*
X013306Y001370D01*
X013310Y001340D01*
X013318Y001312D01*
X013330Y001284D01*
X013345Y001258D01*
X013364Y001235D01*
X013385Y001214D01*
X013408Y001195D01*
X013434Y001180D01*
X013462Y001168D01*
X013490Y001160D01*
X013520Y001156D01*
X013520Y001193D01*
X013493Y001198D01*
X013468Y001206D01*
X013443Y001217D01*
X013420Y001232D01*
X013400Y001250D01*
X013382Y001270D01*
X013367Y001293D01*
X013356Y001318D01*
X013348Y001343D01*
X013343Y001370D01*
X013380Y001370D01*
X013385Y001347D01*
X013393Y001325D01*
X013404Y001304D01*
X013418Y001285D01*
X013435Y001268D01*
X013454Y001254D01*
X013475Y001243D01*
X013497Y001235D01*
X013520Y001230D01*
X013520Y001268D01*
X013501Y001272D01*
X013483Y001280D01*
X013467Y001290D01*
X013452Y001302D01*
X013440Y001317D01*
X013430Y001333D01*
X013422Y001351D01*
X013418Y001370D01*
X013455Y001370D01*
X013460Y001355D01*
X013468Y001341D01*
X013478Y001328D01*
X013491Y001318D01*
X013505Y001310D01*
X013520Y001305D01*
X013521Y001344D01*
X013509Y001350D01*
X013500Y001359D01*
X013494Y001371D01*
X003771Y017421D02*
X004176Y017426D01*
X004176Y017426D01*
X004171Y017021D01*
X004170Y017020D01*
X004131Y017024D01*
X004093Y017031D01*
X004056Y017042D01*
X004020Y017056D01*
X003985Y017073D01*
X003953Y017094D01*
X003922Y017117D01*
X003893Y017143D01*
X003867Y017172D01*
X003844Y017203D01*
X003823Y017235D01*
X003806Y017270D01*
X003792Y017306D01*
X003781Y017343D01*
X003774Y017381D01*
X003770Y017420D01*
X003808Y017420D01*
X003811Y017383D01*
X003819Y017346D01*
X003830Y017310D01*
X003844Y017276D01*
X003862Y017243D01*
X003883Y017212D01*
X003906Y017183D01*
X003933Y017156D01*
X003962Y017133D01*
X003993Y017112D01*
X004026Y017094D01*
X004060Y017080D01*
X004096Y017069D01*
X004133Y017061D01*
X004170Y017058D01*
X004170Y017095D01*
X004134Y017099D01*
X004099Y017106D01*
X004065Y017117D01*
X004032Y017132D01*
X004001Y017150D01*
X003972Y017171D01*
X003945Y017195D01*
X003921Y017222D01*
X003900Y017251D01*
X003882Y017282D01*
X003867Y017315D01*
X003856Y017349D01*
X003849Y017384D01*
X003845Y017420D01*
X003882Y017420D01*
X003886Y017386D01*
X003894Y017353D01*
X003905Y017320D01*
X003920Y017290D01*
X003938Y017261D01*
X003960Y017234D01*
X003984Y017210D01*
X004011Y017188D01*
X004040Y017170D01*
X004070Y017155D01*
X004103Y017144D01*
X004136Y017136D01*
X004170Y017132D01*
X004170Y017169D01*
X004138Y017173D01*
X004107Y017181D01*
X004077Y017193D01*
X004048Y017208D01*
X004022Y017226D01*
X003998Y017248D01*
X003976Y017272D01*
X003958Y017298D01*
X003943Y017327D01*
X003931Y017357D01*
X003923Y017388D01*
X003919Y017420D01*
X003956Y017420D01*
X003960Y017390D01*
X003968Y017362D01*
X003980Y017334D01*
X003995Y017308D01*
X004014Y017285D01*
X004035Y017264D01*
X004058Y017245D01*
X004084Y017230D01*
X004112Y017218D01*
X004140Y017210D01*
X004170Y017206D01*
X004170Y017243D01*
X004143Y017248D01*
X004118Y017256D01*
X004093Y017267D01*
X004070Y017282D01*
X004050Y017300D01*
X004032Y017320D01*
X004017Y017343D01*
X004006Y017368D01*
X003998Y017393D01*
X003993Y017420D01*
X004030Y017420D01*
X004035Y017397D01*
X004043Y017375D01*
X004054Y017354D01*
X004068Y017335D01*
X004085Y017318D01*
X004104Y017304D01*
X004125Y017293D01*
X004147Y017285D01*
X004170Y017280D01*
X004170Y017318D01*
X004151Y017322D01*
X004133Y017330D01*
X004117Y017340D01*
X004102Y017352D01*
X004090Y017367D01*
X004080Y017383D01*
X004072Y017401D01*
X004068Y017420D01*
X004105Y017420D01*
X004110Y017405D01*
X004118Y017391D01*
X004128Y017378D01*
X004141Y017368D01*
X004155Y017360D01*
X004170Y017355D01*
X004171Y017394D01*
X004159Y017400D01*
X004150Y017409D01*
X004144Y017421D01*
X004629Y017479D02*
X004224Y017474D01*
X004224Y017474D01*
X004229Y017879D01*
X004230Y017880D01*
X004269Y017876D01*
X004307Y017869D01*
X004344Y017858D01*
X004380Y017844D01*
X004415Y017827D01*
X004447Y017806D01*
X004478Y017783D01*
X004507Y017757D01*
X004533Y017728D01*
X004556Y017697D01*
X004577Y017665D01*
X004594Y017630D01*
X004608Y017594D01*
X004619Y017557D01*
X004626Y017519D01*
X004630Y017480D01*
X004592Y017480D01*
X004589Y017517D01*
X004581Y017554D01*
X004570Y017590D01*
X004556Y017624D01*
X004538Y017657D01*
X004517Y017688D01*
X004494Y017717D01*
X004467Y017744D01*
X004438Y017767D01*
X004407Y017788D01*
X004374Y017806D01*
X004340Y017820D01*
X004304Y017831D01*
X004267Y017839D01*
X004230Y017842D01*
X004230Y017805D01*
X004266Y017801D01*
X004301Y017794D01*
X004335Y017783D01*
X004368Y017768D01*
X004399Y017750D01*
X004428Y017729D01*
X004455Y017705D01*
X004479Y017678D01*
X004500Y017649D01*
X004518Y017618D01*
X004533Y017585D01*
X004544Y017551D01*
X004551Y017516D01*
X004555Y017480D01*
X004518Y017480D01*
X004514Y017514D01*
X004506Y017547D01*
X004495Y017580D01*
X004480Y017610D01*
X004462Y017639D01*
X004440Y017666D01*
X004416Y017690D01*
X004389Y017712D01*
X004360Y017730D01*
X004330Y017745D01*
X004297Y017756D01*
X004264Y017764D01*
X004230Y017768D01*
X004230Y017731D01*
X004262Y017727D01*
X004293Y017719D01*
X004323Y017707D01*
X004352Y017692D01*
X004378Y017674D01*
X004402Y017652D01*
X004424Y017628D01*
X004442Y017602D01*
X004457Y017573D01*
X004469Y017543D01*
X004477Y017512D01*
X004481Y017480D01*
X004444Y017480D01*
X004440Y017510D01*
X004432Y017538D01*
X004420Y017566D01*
X004405Y017592D01*
X004386Y017615D01*
X004365Y017636D01*
X004342Y017655D01*
X004316Y017670D01*
X004288Y017682D01*
X004260Y017690D01*
X004230Y017694D01*
X004230Y017657D01*
X004257Y017652D01*
X004282Y017644D01*
X004307Y017633D01*
X004330Y017618D01*
X004350Y017600D01*
X004368Y017580D01*
X004383Y017557D01*
X004394Y017532D01*
X004402Y017507D01*
X004407Y017480D01*
X004370Y017480D01*
X004365Y017503D01*
X004357Y017525D01*
X004346Y017546D01*
X004332Y017565D01*
X004315Y017582D01*
X004296Y017596D01*
X004275Y017607D01*
X004253Y017615D01*
X004230Y017620D01*
X004230Y017582D01*
X004249Y017578D01*
X004267Y017570D01*
X004283Y017560D01*
X004298Y017548D01*
X004310Y017533D01*
X004320Y017517D01*
X004328Y017499D01*
X004332Y017480D01*
X004295Y017480D01*
X004290Y017495D01*
X004282Y017509D01*
X004272Y017522D01*
X004259Y017532D01*
X004245Y017540D01*
X004230Y017545D01*
X004229Y017506D01*
X004241Y017500D01*
X004250Y017491D01*
X004256Y017479D01*
D19*
X009600Y019200D02*
X009600Y015574D01*
X010700Y018100D02*
X010700Y011000D01*
X009629Y011000D01*
X005971Y012000D02*
X005200Y012000D01*
X005200Y008969D01*
X004400Y011000D02*
X003174Y011000D01*
X004400Y011000D02*
X004400Y013000D01*
X005971Y013000D01*
X010700Y018100D02*
X016100Y018100D01*
X016100Y014000D01*
X020600Y014000D01*
X020600Y014100D01*
X020582Y018103D02*
X020582Y019200D01*
X009600Y019200D01*
D20*
X020600Y018503D02*
X020582Y018103D01*
X020550Y017400D01*
X020550Y016400D01*
X021850Y014900D02*
X023500Y014650D01*
X023000Y014566D02*
X025050Y014566D01*
X025050Y016534D02*
X027300Y016484D01*
X027300Y012600D01*
X027150Y012450D02*
X025050Y012597D01*
X025050Y018503D02*
X020950Y018503D01*
D21*
X027150Y012450D02*
X027300Y012600D01*
D22*
X023500Y014650D02*
X023000Y014900D01*
X021850Y014900D02*
X021350Y015100D01*
X020600Y015100D01*
X020600Y014100D02*
X020450Y014100D01*
X020600Y016100D02*
X020400Y016600D01*
X020600Y018503D02*
X020950Y018503D01*
D23*
X020550Y016400D02*
X020600Y016100D01*
X022750Y014800D02*
X023000Y014350D01*
X023000Y014566D01*
X023000Y014700D01*
X022750Y014800D01*
X023000Y014700D02*
X023000Y014900D01*
D24*
X000857Y000660D02*
X000660Y000660D01*
X000660Y000857D01*
X000857Y000660D01*
X000780Y000737D02*
X000660Y000737D01*
X002343Y000660D02*
X002552Y000869D01*
X002709Y001141D01*
X002770Y001370D01*
X005305Y001370D01*
X005500Y001451D01*
X005649Y001600D01*
X005730Y001795D01*
X005730Y002005D01*
X005730Y002151D01*
X005942Y002239D01*
X006138Y002435D01*
X006295Y002370D01*
X006827Y002370D01*
X006958Y002239D01*
X007245Y002120D01*
X008155Y002120D01*
X008442Y002239D01*
X008638Y002435D01*
X008795Y002370D01*
X009327Y002370D01*
X009458Y002239D01*
X009745Y002120D01*
X010655Y002120D01*
X010942Y002239D01*
X011138Y002435D01*
X011295Y002370D01*
X011827Y002370D01*
X011958Y002239D01*
X012245Y002120D01*
X012856Y002120D01*
X012804Y002080D01*
X012698Y001910D01*
X012449Y001910D01*
X012261Y001832D01*
X012118Y001689D01*
X012040Y001501D01*
X012040Y001299D01*
X012118Y001111D01*
X012261Y000968D01*
X012449Y000890D01*
X012698Y000890D01*
X012804Y000720D01*
X012882Y000660D01*
X002343Y000660D01*
X002420Y000737D02*
X012793Y000737D01*
X012173Y001056D02*
X002660Y001056D01*
X005315Y001374D02*
X012040Y001374D01*
X012121Y001693D02*
X005688Y001693D01*
X005730Y002011D02*
X012761Y002011D01*
X011867Y002330D02*
X011033Y002330D01*
X009367Y002330D02*
X008533Y002330D01*
X006867Y002330D02*
X006033Y002330D01*
X004267Y003430D02*
X003530Y003430D01*
X003530Y005477D01*
X003537Y005559D01*
X003530Y005582D01*
X003530Y005605D01*
X003498Y005682D01*
X003495Y005693D01*
X003495Y005877D01*
X003486Y005900D01*
X003495Y005923D01*
X003495Y006625D01*
X003422Y006802D01*
X003350Y006873D01*
X003484Y006929D01*
X003619Y007064D01*
X003692Y007240D01*
X003692Y008021D01*
X003619Y008198D01*
X003527Y008289D01*
X004373Y008289D01*
X004281Y008198D01*
X004208Y008021D01*
X004208Y007240D01*
X004281Y007064D01*
X004416Y006929D01*
X004550Y006873D01*
X004478Y006802D01*
X004405Y006625D01*
X004405Y005923D01*
X004414Y005900D01*
X004405Y005877D01*
X004405Y005175D01*
X004478Y004998D01*
X004613Y004863D01*
X004670Y004840D01*
X004670Y004649D01*
X004458Y004561D01*
X004239Y004342D01*
X004120Y004055D01*
X004120Y003745D01*
X004239Y003458D01*
X004267Y003430D01*
X004179Y003604D02*
X003530Y003604D01*
X003530Y003922D02*
X004120Y003922D01*
X004197Y004241D02*
X003530Y004241D01*
X003530Y004559D02*
X004456Y004559D01*
X004599Y004878D02*
X003530Y004878D01*
X003530Y005196D02*
X004405Y005196D01*
X004405Y005515D02*
X003533Y005515D01*
X003495Y005833D02*
X004405Y005833D01*
X004405Y006152D02*
X003495Y006152D01*
X003495Y006470D02*
X004405Y006470D01*
X004473Y006789D02*
X003427Y006789D01*
X003637Y007107D02*
X004263Y007107D01*
X004208Y007426D02*
X003692Y007426D01*
X003692Y007744D02*
X004208Y007744D01*
X004225Y008063D02*
X003675Y008063D01*
X001758Y009480D02*
X001745Y009480D01*
X001550Y009399D01*
X001401Y009250D01*
X001380Y009200D01*
X001380Y010470D01*
X001740Y010470D01*
X001763Y010413D01*
X001898Y010278D01*
X002075Y010205D01*
X002777Y010205D01*
X002800Y010214D01*
X002823Y010205D01*
X003525Y010205D01*
X003702Y010278D01*
X003824Y010400D01*
X004519Y010400D01*
X004600Y010433D01*
X004600Y009745D01*
X004593Y009745D01*
X004416Y009671D01*
X004394Y009649D01*
X003506Y009649D01*
X003484Y009671D01*
X003307Y009745D01*
X002093Y009745D01*
X001916Y009671D01*
X001781Y009536D01*
X001758Y009480D01*
X001900Y009655D02*
X001380Y009655D01*
X001380Y009337D02*
X001487Y009337D01*
X001380Y009974D02*
X004600Y009974D01*
X004600Y010292D02*
X003716Y010292D01*
X003500Y009655D02*
X004400Y009655D01*
X005800Y009745D02*
X005800Y010170D01*
X006366Y010170D01*
X006542Y010243D01*
X006677Y010378D01*
X006750Y010554D01*
X006750Y011446D01*
X006728Y011500D01*
X006750Y011554D01*
X006750Y012446D01*
X006728Y012500D01*
X006750Y012554D01*
X006750Y013446D01*
X006677Y013622D01*
X006542Y013757D01*
X006366Y013830D01*
X005577Y013830D01*
X005400Y013757D01*
X005265Y013622D01*
X005256Y013600D01*
X004281Y013600D01*
X004060Y013509D01*
X003891Y013340D01*
X003800Y013119D01*
X003800Y011624D01*
X003702Y011722D01*
X003525Y011795D01*
X002823Y011795D01*
X002800Y011786D01*
X002777Y011795D01*
X002075Y011795D01*
X001898Y011722D01*
X001763Y011587D01*
X001740Y011530D01*
X000745Y011530D01*
X000660Y011495D01*
X000660Y018357D01*
X000869Y018148D01*
X001141Y017991D01*
X001443Y017910D01*
X001757Y017910D01*
X002059Y017991D01*
X002331Y018148D01*
X002552Y018369D01*
X002709Y018641D01*
X002790Y018943D01*
X002790Y019257D01*
X002709Y019559D01*
X002552Y019831D01*
X002347Y020036D01*
X027353Y020036D01*
X027331Y020013D01*
X026798Y020013D01*
X026760Y020010D01*
X026723Y020004D01*
X026686Y019996D01*
X026650Y019984D01*
X026616Y019970D01*
X026582Y019952D01*
X026550Y019933D01*
X026519Y019911D01*
X026491Y019886D01*
X026464Y019859D01*
X026439Y019831D01*
X026417Y019800D01*
X026398Y019768D01*
X026380Y019734D01*
X026366Y019700D01*
X026354Y019664D01*
X026346Y019627D01*
X026340Y019590D01*
X026337Y019552D01*
X026337Y018348D01*
X026340Y018310D01*
X026346Y018273D01*
X026354Y018236D01*
X026366Y018200D01*
X026380Y018166D01*
X026398Y018132D01*
X026417Y018100D01*
X026439Y018069D01*
X026464Y018041D01*
X026491Y018014D01*
X026519Y017989D01*
X026550Y017967D01*
X026582Y017948D01*
X026616Y017930D01*
X026650Y017916D01*
X026686Y017904D01*
X026723Y017896D01*
X026760Y017890D01*
X026798Y017887D01*
X028910Y017887D01*
X028910Y002473D01*
X028831Y002552D01*
X028578Y002698D01*
X028680Y002945D01*
X028680Y003255D01*
X028561Y003542D01*
X028503Y003600D01*
X028561Y003658D01*
X028680Y003945D01*
X028680Y004255D01*
X028561Y004542D01*
X028342Y004761D01*
X028055Y004880D01*
X027930Y004880D01*
X027930Y008127D01*
X028061Y008258D01*
X028180Y008545D01*
X028180Y009455D01*
X028061Y009742D01*
X027842Y009961D01*
X027555Y010080D01*
X027245Y010080D01*
X026958Y009961D01*
X026900Y009903D01*
X026842Y009961D01*
X026555Y010080D01*
X026245Y010080D01*
X025958Y009961D01*
X025900Y009903D01*
X025842Y009961D01*
X025555Y010080D01*
X025245Y010080D01*
X024958Y009961D01*
X024900Y009903D01*
X024842Y009961D01*
X024555Y010080D01*
X024245Y010080D01*
X023958Y009961D01*
X023900Y009903D01*
X023842Y009961D01*
X023555Y010080D01*
X023245Y010080D01*
X022958Y009961D01*
X022900Y009903D01*
X022842Y009961D01*
X022555Y010080D01*
X022245Y010080D01*
X021958Y009961D01*
X021739Y009742D01*
X021713Y009680D01*
X018463Y009680D01*
X018307Y009745D01*
X017093Y009745D01*
X016916Y009671D01*
X016894Y009649D01*
X016006Y009649D01*
X015984Y009671D01*
X015807Y009745D01*
X014593Y009745D01*
X014416Y009671D01*
X014394Y009649D01*
X013506Y009649D01*
X013484Y009671D01*
X013307Y009745D01*
X012093Y009745D01*
X011916Y009671D01*
X011894Y009649D01*
X011006Y009649D01*
X010984Y009671D01*
X010807Y009745D01*
X009593Y009745D01*
X009416Y009671D01*
X009394Y009649D01*
X008506Y009649D01*
X008484Y009671D01*
X008307Y009745D01*
X007093Y009745D01*
X006916Y009671D01*
X006894Y009649D01*
X006006Y009649D01*
X005984Y009671D01*
X005807Y009745D01*
X005800Y009745D01*
X006000Y009655D02*
X006900Y009655D01*
X006592Y010292D02*
X009008Y010292D01*
X009058Y010243D02*
X009234Y010170D01*
X010023Y010170D01*
X010200Y010243D01*
X010335Y010378D01*
X010344Y010400D01*
X010819Y010400D01*
X011040Y010491D01*
X011209Y010660D01*
X011300Y010881D01*
X011300Y017500D01*
X015500Y017500D01*
X015500Y013881D01*
X015591Y013660D01*
X015760Y013491D01*
X015981Y013400D01*
X018528Y013400D01*
X018304Y013230D01*
X018198Y013060D01*
X017949Y013060D01*
X017761Y012982D01*
X017618Y012839D01*
X017540Y012651D01*
X017540Y012449D01*
X017618Y012261D01*
X017761Y012118D01*
X017949Y012040D01*
X018198Y012040D01*
X018304Y011870D01*
X018540Y011691D01*
X018540Y011449D01*
X018618Y011261D01*
X018761Y011118D01*
X018949Y011040D01*
X019151Y011040D01*
X019339Y011118D01*
X019482Y011261D01*
X019560Y011449D01*
X019560Y011695D01*
X019659Y011744D01*
X019909Y012018D01*
X019917Y012040D01*
X020151Y012040D01*
X020339Y012118D01*
X020482Y012261D01*
X020560Y012449D01*
X020560Y012651D01*
X020482Y012839D01*
X020339Y012982D01*
X020151Y013060D01*
X019917Y013060D01*
X019909Y013082D01*
X019659Y013356D01*
X019570Y013400D01*
X019952Y013400D01*
X020145Y013320D01*
X020216Y013320D01*
X020289Y013290D01*
X020761Y013290D01*
X020834Y013320D01*
X021055Y013320D01*
X021342Y013439D01*
X021561Y013658D01*
X021577Y013697D01*
X022228Y013599D01*
X022245Y013582D01*
X022525Y013420D01*
X022838Y013336D01*
X024064Y013336D01*
X023940Y013151D01*
X023834Y012845D01*
X023812Y012522D01*
X023873Y012204D01*
X024015Y011913D01*
X024228Y011668D01*
X024496Y011487D01*
X024802Y011382D01*
X027226Y011212D01*
X027543Y011273D01*
X027835Y011415D01*
X028079Y011628D01*
X028103Y011664D01*
X028284Y011845D01*
X028446Y012125D01*
X028530Y012438D01*
X028530Y016471D01*
X028533Y016619D01*
X028530Y016632D01*
X028530Y016646D01*
X028492Y016789D01*
X028456Y016933D01*
X028450Y016946D01*
X028446Y016959D01*
X028372Y017087D01*
X028301Y017217D01*
X028291Y017227D01*
X028284Y017239D01*
X028179Y017344D01*
X028077Y017451D01*
X028065Y017459D01*
X028055Y017468D01*
X027927Y017543D01*
X027800Y017620D01*
X027787Y017623D01*
X027775Y017630D01*
X027632Y017669D01*
X027489Y017710D01*
X027475Y017711D01*
X027462Y017714D01*
X027314Y017714D01*
X026030Y017743D01*
X026034Y017748D01*
X026196Y018028D01*
X026280Y018341D01*
X026280Y018665D01*
X026196Y018978D01*
X026034Y019258D01*
X025805Y019487D01*
X025525Y019649D01*
X025212Y019733D01*
X020864Y019733D01*
X020701Y019800D01*
X009481Y019800D01*
X009260Y019709D01*
X009091Y019540D01*
X009000Y019319D01*
X009000Y016224D01*
X008878Y016102D01*
X008805Y015925D01*
X008805Y015223D01*
X008814Y015200D01*
X008805Y015177D01*
X008805Y014475D01*
X008878Y014298D01*
X008989Y014188D01*
X008989Y013688D01*
X008923Y013622D01*
X008850Y013446D01*
X008850Y012554D01*
X008872Y012500D01*
X008850Y012446D01*
X008850Y011554D01*
X008872Y011500D01*
X008850Y011446D01*
X008850Y010554D01*
X008923Y010378D01*
X009058Y010243D01*
X008850Y010611D02*
X006750Y010611D01*
X006750Y010929D02*
X008850Y010929D01*
X008850Y011248D02*
X006750Y011248D01*
X006750Y011566D02*
X008850Y011566D01*
X008850Y011885D02*
X006750Y011885D01*
X006750Y012203D02*
X008850Y012203D01*
X008863Y012522D02*
X006737Y012522D01*
X006750Y012840D02*
X008850Y012840D01*
X008850Y013159D02*
X006750Y013159D01*
X006738Y013477D02*
X008862Y013477D01*
X008989Y013796D02*
X006450Y013796D01*
X005492Y013796D02*
X000660Y013796D01*
X000660Y013477D02*
X004028Y013477D01*
X003816Y013159D02*
X000660Y013159D01*
X000660Y012840D02*
X003800Y012840D01*
X003800Y012522D02*
X000660Y012522D01*
X000660Y012203D02*
X003800Y012203D01*
X003800Y011885D02*
X000660Y011885D01*
X000660Y011566D02*
X001755Y011566D01*
X001884Y010292D02*
X001380Y010292D01*
X005800Y009974D02*
X021988Y009974D01*
X022812Y009974D02*
X022988Y009974D01*
X023812Y009974D02*
X023988Y009974D01*
X024812Y009974D02*
X024988Y009974D01*
X025812Y009974D02*
X025988Y009974D01*
X026812Y009974D02*
X026988Y009974D01*
X027812Y009974D02*
X028910Y009974D01*
X028910Y010292D02*
X010249Y010292D01*
X011159Y010611D02*
X028910Y010611D01*
X028910Y010929D02*
X011300Y010929D01*
X011300Y011248D02*
X018631Y011248D01*
X018540Y011566D02*
X011300Y011566D01*
X011300Y011885D02*
X018294Y011885D01*
X017676Y012203D02*
X011300Y012203D01*
X011300Y012522D02*
X017540Y012522D01*
X017619Y012840D02*
X011300Y012840D01*
X011300Y013159D02*
X018259Y013159D01*
X019839Y013159D02*
X023945Y013159D01*
X023834Y012840D02*
X020481Y012840D01*
X020560Y012522D02*
X023812Y012522D01*
X023874Y012203D02*
X020424Y012203D01*
X019787Y011885D02*
X024040Y011885D01*
X024379Y011566D02*
X019560Y011566D01*
X019469Y011248D02*
X026715Y011248D01*
X027410Y011248D02*
X028910Y011248D01*
X028910Y011566D02*
X028008Y011566D01*
X028307Y011885D02*
X028910Y011885D01*
X028910Y012203D02*
X028467Y012203D01*
X028530Y012522D02*
X028910Y012522D01*
X028910Y012840D02*
X028530Y012840D01*
X028530Y013159D02*
X028910Y013159D01*
X028910Y013477D02*
X028530Y013477D01*
X028530Y013796D02*
X028910Y013796D01*
X028910Y014114D02*
X028530Y014114D01*
X028530Y014433D02*
X028910Y014433D01*
X028910Y014751D02*
X028530Y014751D01*
X028530Y015070D02*
X028910Y015070D01*
X028910Y015388D02*
X028530Y015388D01*
X028530Y015707D02*
X028910Y015707D01*
X028910Y016025D02*
X028530Y016025D01*
X028530Y016344D02*
X028910Y016344D01*
X028910Y016662D02*
X028526Y016662D01*
X028434Y016981D02*
X028910Y016981D01*
X028910Y017299D02*
X028225Y017299D01*
X027804Y017618D02*
X028910Y017618D01*
X026605Y017936D02*
X026143Y017936D01*
X026257Y018255D02*
X026350Y018255D01*
X026337Y018573D02*
X026280Y018573D01*
X026219Y018892D02*
X026337Y018892D01*
X026337Y019210D02*
X026062Y019210D01*
X026337Y019529D02*
X025733Y019529D01*
X026453Y019847D02*
X002536Y019847D01*
X002717Y019529D02*
X009087Y019529D01*
X009000Y019210D02*
X002790Y019210D01*
X002776Y018892D02*
X003933Y018892D01*
X003911Y018882D02*
X003768Y018739D01*
X003690Y018551D01*
X003690Y018309D01*
X003454Y018130D01*
X003348Y017960D01*
X003099Y017960D01*
X002911Y017882D01*
X002768Y017739D01*
X002690Y017551D01*
X002690Y017349D01*
X002768Y017161D01*
X002911Y017018D01*
X003099Y016940D01*
X003348Y016940D01*
X003454Y016770D01*
X003690Y016591D01*
X003690Y016349D01*
X003768Y016161D01*
X003911Y016018D01*
X004099Y015940D01*
X004301Y015940D01*
X004489Y016018D01*
X004632Y016161D01*
X004710Y016349D01*
X004710Y016595D01*
X004809Y016644D01*
X005059Y016918D01*
X005067Y016940D01*
X005301Y016940D01*
X005489Y017018D01*
X005632Y017161D01*
X005710Y017349D01*
X005710Y017551D01*
X005632Y017739D01*
X005489Y017882D01*
X005301Y017960D01*
X005067Y017960D01*
X005059Y017982D01*
X004809Y018256D01*
X004710Y018305D01*
X004710Y018551D01*
X004632Y018739D01*
X004489Y018882D01*
X004301Y018960D01*
X004099Y018960D01*
X003911Y018882D01*
X004467Y018892D02*
X009000Y018892D01*
X009000Y018573D02*
X004701Y018573D01*
X004810Y018255D02*
X009000Y018255D01*
X009000Y017936D02*
X005359Y017936D01*
X005683Y017618D02*
X009000Y017618D01*
X009000Y017299D02*
X005689Y017299D01*
X005399Y016981D02*
X009000Y016981D01*
X009000Y016662D02*
X004825Y016662D01*
X004708Y016344D02*
X009000Y016344D01*
X008846Y016025D02*
X004496Y016025D01*
X003904Y016025D02*
X000660Y016025D01*
X000660Y016344D02*
X003692Y016344D01*
X003596Y016662D02*
X000660Y016662D01*
X000660Y016981D02*
X003001Y016981D01*
X002711Y017299D02*
X000660Y017299D01*
X000660Y017618D02*
X002717Y017618D01*
X003041Y017936D02*
X001853Y017936D01*
X001347Y017936D02*
X000660Y017936D01*
X000660Y018255D02*
X000763Y018255D01*
X002437Y018255D02*
X003618Y018255D01*
X003699Y018573D02*
X002670Y018573D01*
X000853Y020036D02*
X000660Y019843D01*
X000660Y020036D01*
X000853Y020036D01*
X000664Y019847D02*
X000660Y019847D01*
X000660Y015707D02*
X008805Y015707D01*
X008805Y015388D02*
X000660Y015388D01*
X000660Y015070D02*
X008805Y015070D01*
X008805Y014751D02*
X000660Y014751D01*
X000660Y014433D02*
X008822Y014433D01*
X008989Y014114D02*
X000660Y014114D01*
X008500Y009655D02*
X009400Y009655D01*
X011000Y009655D02*
X011900Y009655D01*
X013500Y009655D02*
X014400Y009655D01*
X014373Y008289D02*
X013527Y008289D01*
X013619Y008198D01*
X013692Y008021D01*
X013692Y007240D01*
X013619Y007064D01*
X013484Y006929D01*
X013350Y006873D01*
X013422Y006802D01*
X013495Y006625D01*
X013495Y005923D01*
X013486Y005900D01*
X013495Y005877D01*
X013495Y005175D01*
X013422Y004998D01*
X013287Y004863D01*
X013230Y004840D01*
X013230Y004649D01*
X013442Y004561D01*
X013573Y004430D01*
X014005Y004430D01*
X014200Y004349D01*
X014230Y004320D01*
X014239Y004342D01*
X014458Y004561D01*
X014670Y004649D01*
X014670Y004840D01*
X014613Y004863D01*
X014478Y004998D01*
X014405Y005175D01*
X014405Y005877D01*
X014414Y005900D01*
X014405Y005923D01*
X014405Y006625D01*
X014478Y006802D01*
X014550Y006873D01*
X014416Y006929D01*
X014281Y007064D01*
X014208Y007240D01*
X014208Y008021D01*
X014281Y008198D01*
X014373Y008289D01*
X014225Y008063D02*
X013675Y008063D01*
X013692Y007744D02*
X014208Y007744D01*
X014208Y007426D02*
X013692Y007426D01*
X013637Y007107D02*
X014263Y007107D01*
X014473Y006789D02*
X013427Y006789D01*
X013495Y006470D02*
X014405Y006470D01*
X014405Y006152D02*
X013495Y006152D01*
X013495Y005833D02*
X014405Y005833D01*
X014405Y005515D02*
X013495Y005515D01*
X013495Y005196D02*
X014405Y005196D01*
X014599Y004878D02*
X013301Y004878D01*
X013444Y004559D02*
X014456Y004559D01*
X015730Y004649D02*
X015730Y004840D01*
X015787Y004863D01*
X015922Y004998D01*
X015995Y005175D01*
X015995Y005877D01*
X015986Y005900D01*
X015995Y005923D01*
X015995Y006625D01*
X015922Y006802D01*
X015850Y006873D01*
X015984Y006929D01*
X016119Y007064D01*
X016192Y007240D01*
X016192Y008021D01*
X016119Y008198D01*
X016027Y008289D01*
X016873Y008289D01*
X016781Y008198D01*
X016708Y008021D01*
X016708Y007240D01*
X016781Y007064D01*
X016916Y006929D01*
X017050Y006873D01*
X016978Y006802D01*
X016905Y006625D01*
X016905Y005923D01*
X016914Y005900D01*
X016905Y005877D01*
X016905Y005175D01*
X016978Y004998D01*
X017113Y004863D01*
X017170Y004840D01*
X017170Y004649D01*
X016958Y004561D01*
X016739Y004342D01*
X016730Y004320D01*
X016700Y004349D01*
X016505Y004430D01*
X016073Y004430D01*
X015942Y004561D01*
X015730Y004649D01*
X015944Y004559D02*
X016956Y004559D01*
X017099Y004878D02*
X015801Y004878D01*
X015995Y005196D02*
X016905Y005196D01*
X016905Y005515D02*
X015995Y005515D01*
X015995Y005833D02*
X016905Y005833D01*
X016905Y006152D02*
X015995Y006152D01*
X015995Y006470D02*
X016905Y006470D01*
X016973Y006789D02*
X015927Y006789D01*
X016137Y007107D02*
X016763Y007107D01*
X016708Y007426D02*
X016192Y007426D01*
X016192Y007744D02*
X016708Y007744D01*
X016725Y008063D02*
X016175Y008063D01*
X016000Y009655D02*
X016900Y009655D01*
X018517Y008300D02*
X018537Y008320D01*
X019970Y008320D01*
X019970Y004680D01*
X019677Y004680D01*
X019427Y004430D01*
X018573Y004430D01*
X018442Y004561D01*
X018230Y004649D01*
X018230Y004840D01*
X018287Y004863D01*
X018422Y004998D01*
X018495Y005175D01*
X018495Y005877D01*
X018486Y005900D01*
X018495Y005923D01*
X018495Y006625D01*
X018422Y006802D01*
X018350Y006873D01*
X018484Y006929D01*
X018619Y007064D01*
X018692Y007240D01*
X018692Y008021D01*
X018619Y008198D01*
X018517Y008300D01*
X018675Y008063D02*
X019970Y008063D01*
X019970Y007744D02*
X018692Y007744D01*
X018692Y007426D02*
X019970Y007426D01*
X019970Y007107D02*
X018637Y007107D01*
X018427Y006789D02*
X019970Y006789D01*
X019970Y006470D02*
X018495Y006470D01*
X018495Y006152D02*
X019970Y006152D01*
X019970Y005833D02*
X018495Y005833D01*
X018495Y005515D02*
X019970Y005515D01*
X019970Y005196D02*
X018495Y005196D01*
X018301Y004878D02*
X019970Y004878D01*
X019556Y004559D02*
X018444Y004559D01*
X018633Y003370D02*
X019367Y003370D01*
X019220Y003223D01*
X019220Y002577D01*
X019677Y002120D01*
X020323Y002120D01*
X020500Y002297D01*
X020677Y002120D01*
X021323Y002120D01*
X021500Y002297D01*
X021677Y002120D01*
X022323Y002120D01*
X022500Y002297D01*
X022677Y002120D01*
X023323Y002120D01*
X023470Y002267D01*
X023470Y002245D01*
X023551Y002050D01*
X023700Y001901D01*
X023895Y001820D01*
X026927Y001820D01*
X026910Y001757D01*
X026910Y001443D01*
X026991Y001141D01*
X027148Y000869D01*
X027357Y000660D01*
X014219Y000660D01*
X014409Y000868D01*
X014417Y000890D01*
X014651Y000890D01*
X014839Y000968D01*
X014982Y001111D01*
X015060Y001299D01*
X015060Y001501D01*
X014982Y001689D01*
X014839Y001832D01*
X014651Y001910D01*
X014417Y001910D01*
X014409Y001932D01*
X014159Y002206D01*
X014060Y002255D01*
X014060Y002370D01*
X014327Y002370D01*
X014458Y002239D01*
X014745Y002120D01*
X015655Y002120D01*
X015942Y002239D01*
X016138Y002435D01*
X016295Y002370D01*
X016827Y002370D01*
X016958Y002239D01*
X017245Y002120D01*
X018155Y002120D01*
X018442Y002239D01*
X018661Y002458D01*
X018780Y002745D01*
X018780Y003055D01*
X018661Y003342D01*
X018633Y003370D01*
X018685Y003285D02*
X019282Y003285D01*
X019220Y002967D02*
X018780Y002967D01*
X018740Y002648D02*
X019220Y002648D01*
X019467Y002330D02*
X018533Y002330D01*
X016867Y002330D02*
X016033Y002330D01*
X014979Y001693D02*
X026910Y001693D01*
X026929Y001374D02*
X015060Y001374D01*
X014927Y001056D02*
X027040Y001056D01*
X027280Y000737D02*
X014289Y000737D01*
X014336Y002011D02*
X023589Y002011D01*
X024470Y004533D02*
X024323Y004680D01*
X024030Y004680D01*
X024030Y004970D01*
X024470Y004970D01*
X024470Y004533D01*
X024470Y004559D02*
X024444Y004559D01*
X024470Y004878D02*
X024030Y004878D01*
X022470Y004878D02*
X021530Y004878D01*
X021677Y004680D02*
X021530Y004533D01*
X021530Y005940D01*
X021648Y005940D01*
X021754Y005770D01*
X021990Y005591D01*
X021990Y005349D01*
X022068Y005161D01*
X022211Y005018D01*
X022399Y004940D01*
X022470Y004940D01*
X022470Y004533D01*
X022323Y004680D01*
X021677Y004680D01*
X021556Y004559D02*
X021530Y004559D01*
X021530Y005196D02*
X022053Y005196D01*
X021990Y005515D02*
X021530Y005515D01*
X021530Y005833D02*
X021714Y005833D01*
X021648Y006960D02*
X021530Y006960D01*
X021530Y007270D01*
X021938Y007270D01*
X021754Y007130D01*
X021648Y006960D01*
X021739Y007107D02*
X021530Y007107D01*
X023081Y007270D02*
X023505Y007270D01*
X023700Y007351D01*
X023849Y007500D01*
X023870Y007550D01*
X023870Y006801D01*
X023789Y006882D01*
X023601Y006960D01*
X023367Y006960D01*
X023359Y006982D01*
X023109Y007256D01*
X023081Y007270D01*
X023244Y007107D02*
X023870Y007107D01*
X023870Y007426D02*
X023775Y007426D01*
X022470Y004559D02*
X022444Y004559D01*
X027930Y005196D02*
X028910Y005196D01*
X028910Y005515D02*
X027930Y005515D01*
X027930Y005833D02*
X028910Y005833D01*
X028910Y006152D02*
X027930Y006152D01*
X027930Y006470D02*
X028910Y006470D01*
X028910Y006789D02*
X027930Y006789D01*
X027930Y007107D02*
X028910Y007107D01*
X028910Y007426D02*
X027930Y007426D01*
X027930Y007744D02*
X028910Y007744D01*
X028910Y008063D02*
X027930Y008063D01*
X028112Y008381D02*
X028910Y008381D01*
X028910Y008700D02*
X028180Y008700D01*
X028180Y009018D02*
X028910Y009018D01*
X028910Y009337D02*
X028180Y009337D01*
X028097Y009655D02*
X028910Y009655D01*
X026070Y013759D02*
X026070Y013872D01*
X026034Y013811D01*
X025988Y013764D01*
X026070Y013759D01*
X026070Y013796D02*
X026019Y013796D01*
X026070Y015259D02*
X026057Y015282D01*
X026070Y015281D01*
X026070Y015259D01*
X024054Y015796D02*
X023950Y015796D01*
X023844Y015842D01*
X021874Y016140D01*
X021750Y016126D01*
X021780Y016238D01*
X021780Y017273D01*
X024059Y017273D01*
X023915Y017034D01*
X023824Y016723D01*
X023817Y016400D01*
X023894Y016085D01*
X024049Y015801D01*
X024054Y015796D01*
X023926Y016025D02*
X022636Y016025D01*
X021780Y016344D02*
X023830Y016344D01*
X023823Y016662D02*
X021780Y016662D01*
X021780Y016981D02*
X023899Y016981D01*
X019654Y015557D02*
X019639Y015542D01*
X019520Y015255D01*
X019520Y014945D01*
X019639Y014658D01*
X019697Y014600D01*
X019697Y014600D01*
X016700Y014600D01*
X016700Y017981D01*
X016700Y018219D01*
X016609Y018440D01*
X016449Y018600D01*
X019373Y018600D01*
X019346Y017997D01*
X019327Y017589D01*
X019320Y017562D01*
X019320Y017428D01*
X019314Y017294D01*
X019320Y017266D01*
X019320Y016238D01*
X019404Y015925D01*
X019566Y015645D01*
X019654Y015557D01*
X019575Y015388D02*
X016700Y015388D01*
X016700Y015707D02*
X019530Y015707D01*
X019377Y016025D02*
X016700Y016025D01*
X016700Y016344D02*
X019320Y016344D01*
X019320Y016662D02*
X016700Y016662D01*
X016700Y016981D02*
X019320Y016981D01*
X019314Y017299D02*
X016700Y017299D01*
X016700Y017618D02*
X019329Y017618D01*
X019343Y017936D02*
X016700Y017936D01*
X016685Y018255D02*
X019357Y018255D01*
X019372Y018573D02*
X016476Y018573D01*
X015500Y017299D02*
X011300Y017299D01*
X011300Y016981D02*
X015500Y016981D01*
X015500Y016662D02*
X011300Y016662D01*
X011300Y016344D02*
X015500Y016344D01*
X015500Y016025D02*
X011300Y016025D01*
X011300Y015707D02*
X015500Y015707D01*
X015500Y015388D02*
X011300Y015388D01*
X011300Y015070D02*
X015500Y015070D01*
X015500Y014751D02*
X011300Y014751D01*
X011300Y014433D02*
X015500Y014433D01*
X015500Y014114D02*
X011300Y014114D01*
X011300Y013796D02*
X015535Y013796D01*
X015795Y013477D02*
X011300Y013477D01*
X009629Y013000D02*
X009629Y014826D01*
X009600Y014826D01*
X010200Y018449D02*
X010200Y018600D01*
X010351Y018600D01*
X010200Y018449D01*
X010200Y018573D02*
X010324Y018573D01*
X016700Y015070D02*
X019520Y015070D01*
X019600Y014751D02*
X016700Y014751D01*
X019346Y017997D02*
X019346Y017997D01*
X021380Y013477D02*
X022426Y013477D01*
X028869Y020013D02*
X028847Y020036D01*
X028910Y020036D01*
X028910Y020013D01*
X028869Y020013D01*
X011873Y008289D02*
X011781Y008198D01*
X011708Y008021D01*
X011708Y007240D01*
X011781Y007064D01*
X011916Y006929D01*
X012050Y006873D01*
X011978Y006802D01*
X011905Y006625D01*
X011905Y005923D01*
X011914Y005900D01*
X011905Y005877D01*
X011905Y005175D01*
X011978Y004998D01*
X012113Y004863D01*
X012170Y004840D01*
X012170Y004649D01*
X011958Y004561D01*
X011739Y004342D01*
X011730Y004320D01*
X011700Y004349D01*
X011505Y004430D01*
X011073Y004430D01*
X010942Y004561D01*
X010730Y004649D01*
X010730Y004840D01*
X010787Y004863D01*
X010922Y004998D01*
X010995Y005175D01*
X010995Y005877D01*
X010986Y005900D01*
X010995Y005923D01*
X010995Y006625D01*
X010922Y006802D01*
X010850Y006873D01*
X010984Y006929D01*
X011119Y007064D01*
X011192Y007240D01*
X011192Y008021D01*
X011119Y008198D01*
X011027Y008289D01*
X011873Y008289D01*
X011725Y008063D02*
X011175Y008063D01*
X011192Y007744D02*
X011708Y007744D01*
X011708Y007426D02*
X011192Y007426D01*
X011137Y007107D02*
X011763Y007107D01*
X011973Y006789D02*
X010927Y006789D01*
X010995Y006470D02*
X011905Y006470D01*
X011905Y006152D02*
X010995Y006152D01*
X010995Y005833D02*
X011905Y005833D01*
X011905Y005515D02*
X010995Y005515D01*
X010995Y005196D02*
X011905Y005196D01*
X012099Y004878D02*
X010801Y004878D01*
X010944Y004559D02*
X011956Y004559D01*
X009670Y004649D02*
X009458Y004561D01*
X009239Y004342D01*
X009230Y004320D01*
X009200Y004349D01*
X009005Y004430D01*
X008573Y004430D01*
X008442Y004561D01*
X008230Y004649D01*
X008230Y004840D01*
X008287Y004863D01*
X008422Y004998D01*
X008495Y005175D01*
X008495Y005877D01*
X008486Y005900D01*
X008495Y005923D01*
X008495Y006625D01*
X008422Y006802D01*
X008350Y006873D01*
X008484Y006929D01*
X008619Y007064D01*
X008692Y007240D01*
X008692Y008021D01*
X008619Y008198D01*
X008527Y008289D01*
X009373Y008289D01*
X009281Y008198D01*
X009208Y008021D01*
X009208Y007240D01*
X009281Y007064D01*
X009416Y006929D01*
X009550Y006873D01*
X009478Y006802D01*
X009405Y006625D01*
X009405Y005923D01*
X009414Y005900D01*
X009405Y005877D01*
X009405Y005175D01*
X009478Y004998D01*
X009613Y004863D01*
X009670Y004840D01*
X009670Y004649D01*
X009456Y004559D02*
X008444Y004559D01*
X008301Y004878D02*
X009599Y004878D01*
X009405Y005196D02*
X008495Y005196D01*
X008495Y005515D02*
X009405Y005515D01*
X009405Y005833D02*
X008495Y005833D01*
X008495Y006152D02*
X009405Y006152D01*
X009405Y006470D02*
X008495Y006470D01*
X008427Y006789D02*
X009473Y006789D01*
X009263Y007107D02*
X008637Y007107D01*
X008692Y007426D02*
X009208Y007426D01*
X009208Y007744D02*
X008692Y007744D01*
X008675Y008063D02*
X009225Y008063D01*
X007050Y006873D02*
X006978Y006802D01*
X006905Y006625D01*
X006905Y005923D01*
X006914Y005900D01*
X006905Y005877D01*
X006905Y005175D01*
X006978Y004998D01*
X007113Y004863D01*
X007170Y004840D01*
X007170Y004649D01*
X006958Y004561D01*
X006739Y004342D01*
X006730Y004320D01*
X006700Y004349D01*
X006505Y004430D01*
X006073Y004430D01*
X005942Y004561D01*
X005730Y004649D01*
X005730Y004840D01*
X005787Y004863D01*
X005922Y004998D01*
X005995Y005175D01*
X005995Y005877D01*
X005986Y005900D01*
X005995Y005923D01*
X005995Y006625D01*
X005922Y006802D01*
X005850Y006873D01*
X005984Y006929D01*
X006119Y007064D01*
X006192Y007240D01*
X006192Y008021D01*
X006119Y008198D01*
X006027Y008289D01*
X006873Y008289D01*
X006781Y008198D01*
X006708Y008021D01*
X006708Y007240D01*
X006781Y007064D01*
X006916Y006929D01*
X007050Y006873D01*
X006973Y006789D02*
X005927Y006789D01*
X005995Y006470D02*
X006905Y006470D01*
X006905Y006152D02*
X005995Y006152D01*
X005995Y005833D02*
X006905Y005833D01*
X006905Y005515D02*
X005995Y005515D01*
X005995Y005196D02*
X006905Y005196D01*
X007099Y004878D02*
X005801Y004878D01*
X005944Y004559D02*
X006956Y004559D01*
X006763Y007107D02*
X006137Y007107D01*
X006192Y007426D02*
X006708Y007426D01*
X006708Y007744D02*
X006192Y007744D01*
X006175Y008063D02*
X006725Y008063D01*
X014060Y002330D02*
X014367Y002330D01*
X028061Y004878D02*
X028910Y004878D01*
X028910Y004559D02*
X028544Y004559D01*
X028680Y004241D02*
X028910Y004241D01*
X028910Y003922D02*
X028671Y003922D01*
X028507Y003604D02*
X028910Y003604D01*
X028910Y003285D02*
X028668Y003285D01*
X028680Y002967D02*
X028910Y002967D01*
X028910Y002648D02*
X028665Y002648D01*
X028910Y000727D02*
X028910Y000660D01*
X028843Y000660D01*
X028910Y000727D01*
D25*
X027600Y002350D02*
X024000Y002350D01*
X024000Y002900D01*
X024000Y003400D02*
X025800Y003400D01*
X025800Y004850D01*
X027400Y004850D01*
X027400Y009000D01*
X026400Y009000D02*
X026400Y005150D01*
X025000Y005150D01*
X025000Y003900D01*
X025000Y002900D02*
X026300Y002900D01*
X026300Y004100D01*
X027600Y004100D01*
X027600Y003100D02*
X027600Y002350D01*
X024000Y003400D02*
X024000Y003900D01*
X023500Y003400D02*
X023500Y005500D01*
X025400Y005500D01*
X025400Y009000D01*
X024400Y009000D02*
X024400Y005800D01*
X023000Y005800D01*
X023000Y003900D01*
X022500Y003400D02*
X023500Y003400D01*
X022500Y003400D02*
X022000Y003900D01*
X021000Y003900D02*
X021000Y007800D01*
X023400Y007800D01*
X023400Y009000D01*
X020500Y009000D02*
X020500Y002900D01*
X020000Y002900D01*
X020000Y003900D02*
X017700Y003900D01*
X017700Y005526D01*
X017700Y006274D02*
X017700Y007631D01*
X017700Y008969D02*
X017700Y009000D01*
X015200Y007631D02*
X015200Y006274D01*
X015200Y005526D02*
X015200Y003900D01*
X016400Y003900D01*
X016400Y002900D01*
X017700Y002900D01*
X015200Y002900D02*
X013900Y002900D01*
X013900Y003900D01*
X012700Y003900D01*
X012700Y005526D01*
X012700Y006274D02*
X012700Y007631D01*
X010200Y007631D02*
X010200Y006274D01*
X010200Y005526D02*
X010200Y003900D01*
X011400Y003900D01*
X011400Y002900D01*
X012700Y002900D01*
X010200Y002900D02*
X008900Y002900D01*
X008900Y003900D01*
X007700Y003900D01*
X007700Y005526D01*
X007700Y006274D02*
X007700Y007631D01*
X005200Y007631D02*
X005200Y006274D01*
X005200Y005526D02*
X005200Y003900D01*
X006400Y003900D01*
X006400Y002900D01*
X007700Y002900D01*
X005200Y002900D02*
X005200Y001900D01*
X002500Y001900D01*
X002500Y002650D01*
X002500Y003350D01*
X001850Y003350D01*
X003000Y002900D02*
X005200Y002900D01*
X003000Y002900D02*
X003000Y005500D01*
X002700Y005526D01*
X002700Y006274D02*
X002700Y007631D01*
X002500Y008969D02*
X002500Y009000D01*
X003100Y008969D02*
X003100Y008950D01*
X001850Y008950D01*
X001850Y004350D01*
X002500Y002650D02*
X000850Y002650D01*
X000850Y011000D01*
X002426Y011000D01*
D26*
X002500Y008969D02*
X003100Y008969D01*
X005200Y008969D01*
X007700Y008969D01*
X010200Y008969D01*
X012700Y008969D01*
X015200Y008969D01*
X017700Y008969D01*
X017700Y009000D02*
X020500Y009000D01*
X022400Y009000D01*
M02*
