G75*
G70*
%OFA0B0*%
%FSLAX24Y24*%
%IPPOS*%
%LPD*%
%AMOC8*
5,1,8,0,0,1.08239X$1,22.5*
%
%ADD10C,0.0592*%
%ADD11R,0.0671X0.0946*%
%ADD12OC8,0.0680*%
%ADD13C,0.2000*%
D10*
X001130Y001080D03*
X001130Y015580D03*
X032130Y015580D03*
X032130Y001080D03*
D11*
X029240Y001330D03*
X028020Y001330D03*
X027290Y001330D03*
X026070Y001330D03*
X025340Y001330D03*
X024120Y001330D03*
X023390Y001330D03*
X022170Y001330D03*
X021440Y001330D03*
X020220Y001330D03*
X019490Y001330D03*
X018270Y001330D03*
X017540Y001330D03*
X016320Y001330D03*
X015590Y001330D03*
X014370Y001330D03*
X013640Y001330D03*
X012420Y001330D03*
X011690Y001330D03*
X010470Y001330D03*
X009740Y001330D03*
X008520Y001330D03*
X007790Y001330D03*
X006570Y001330D03*
X005840Y001330D03*
X004620Y001330D03*
X003890Y001330D03*
X002670Y001330D03*
X002670Y003080D03*
X003890Y003080D03*
X004620Y003080D03*
X005840Y003080D03*
X006570Y003080D03*
X007790Y003080D03*
X008520Y003080D03*
X009740Y003080D03*
X010470Y003080D03*
X011690Y003080D03*
X012420Y003080D03*
X013640Y003080D03*
X014370Y003080D03*
X015590Y003080D03*
X016320Y003080D03*
X017540Y003080D03*
X018270Y003080D03*
X019490Y003080D03*
X020220Y003080D03*
X021440Y003080D03*
X022170Y003080D03*
X023390Y003080D03*
X024120Y003080D03*
X025340Y003080D03*
X026070Y003080D03*
X027290Y003080D03*
X028020Y003080D03*
X029240Y003080D03*
X029240Y004830D03*
X028020Y004830D03*
X027290Y004830D03*
X026070Y004830D03*
X025340Y004830D03*
X024120Y004830D03*
X023390Y004830D03*
X022170Y004830D03*
X021440Y004830D03*
X020220Y004830D03*
X019490Y004830D03*
X018270Y004830D03*
X017540Y004830D03*
X016320Y004830D03*
X015590Y004830D03*
X014370Y004830D03*
X013640Y004830D03*
X012420Y004830D03*
X011690Y004830D03*
X010470Y004830D03*
X009740Y004830D03*
X008520Y004830D03*
X007790Y004830D03*
X006570Y004830D03*
X005840Y004830D03*
X004620Y004830D03*
X003890Y004830D03*
X002670Y004830D03*
X002670Y006580D03*
X003890Y006580D03*
X004620Y006580D03*
X005840Y006580D03*
X006570Y006580D03*
X007790Y006580D03*
X008520Y006580D03*
X009740Y006580D03*
X010470Y006580D03*
X011690Y006580D03*
X012420Y006580D03*
X013640Y006580D03*
X014370Y006580D03*
X015590Y006580D03*
X016320Y006580D03*
X017540Y006580D03*
X018270Y006580D03*
X019490Y006580D03*
X020220Y006580D03*
X021440Y006580D03*
X022170Y006580D03*
X023390Y006580D03*
X024120Y006580D03*
X025340Y006580D03*
X026070Y006580D03*
X027290Y006580D03*
X028020Y006580D03*
X029240Y006580D03*
X029240Y008330D03*
X028020Y008330D03*
X027290Y008330D03*
X026070Y008330D03*
X025340Y008330D03*
X024120Y008330D03*
X023390Y008330D03*
X022170Y008330D03*
X021440Y008330D03*
X020220Y008330D03*
X019490Y008330D03*
X018270Y008330D03*
X017540Y008330D03*
X016320Y008330D03*
X015590Y008330D03*
X014370Y008330D03*
X013640Y008330D03*
X012420Y008330D03*
X011690Y008330D03*
X010470Y008330D03*
X009740Y008330D03*
X008520Y008330D03*
X007790Y008330D03*
X006570Y008330D03*
X005840Y008330D03*
X004620Y008330D03*
X003890Y008330D03*
X002670Y008330D03*
X002670Y010080D03*
X003890Y010080D03*
X004620Y010080D03*
X005840Y010080D03*
X006570Y010080D03*
X007790Y010080D03*
X008520Y010080D03*
X009740Y010080D03*
X010470Y010080D03*
X011690Y010080D03*
X012420Y010080D03*
X013640Y010080D03*
X014370Y010080D03*
X015590Y010080D03*
X016320Y010080D03*
X017540Y010080D03*
X018270Y010080D03*
X019490Y010080D03*
X020220Y010080D03*
X021440Y010080D03*
X022170Y010080D03*
X023390Y010080D03*
X024120Y010080D03*
X025340Y010080D03*
X026070Y010080D03*
X027290Y010080D03*
X028020Y010080D03*
X029240Y010080D03*
X029240Y011830D03*
X028020Y011830D03*
X027290Y011830D03*
X026070Y011830D03*
X025340Y011830D03*
X024120Y011830D03*
X023390Y011830D03*
X022170Y011830D03*
X021440Y011830D03*
X020220Y011830D03*
X019490Y011830D03*
X018270Y011830D03*
X017540Y011830D03*
X016320Y011830D03*
X015590Y011830D03*
X014370Y011830D03*
X013640Y011830D03*
X012420Y011830D03*
X011690Y011830D03*
X010470Y011830D03*
X009740Y011830D03*
X008520Y011830D03*
X007790Y011830D03*
X006570Y011830D03*
X005840Y011830D03*
X004620Y011830D03*
X003890Y011830D03*
X002670Y011830D03*
X002670Y013580D03*
X003890Y013580D03*
X004620Y013580D03*
X005840Y013580D03*
X006570Y013580D03*
X007790Y013580D03*
X008520Y013580D03*
X009740Y013580D03*
X010470Y013580D03*
X011690Y013580D03*
X012420Y013580D03*
X013640Y013580D03*
X014370Y013580D03*
X015590Y013580D03*
X016320Y013580D03*
X017540Y013580D03*
X018270Y013580D03*
X019490Y013580D03*
X020220Y013580D03*
X021440Y013580D03*
X022170Y013580D03*
X023390Y013580D03*
X024120Y013580D03*
X025340Y013580D03*
X026070Y013580D03*
X027290Y013580D03*
X028020Y013580D03*
X029240Y013580D03*
X029240Y015330D03*
X028020Y015330D03*
X027290Y015330D03*
X026070Y015330D03*
X025340Y015330D03*
X024120Y015330D03*
X023390Y015330D03*
X022170Y015330D03*
X021440Y015330D03*
X020220Y015330D03*
X019490Y015330D03*
X018270Y015330D03*
X017540Y015330D03*
X016320Y015330D03*
X015590Y015330D03*
X014370Y015330D03*
X013640Y015330D03*
X012420Y015330D03*
X011690Y015330D03*
X010470Y015330D03*
X009740Y015330D03*
X008520Y015330D03*
X007790Y015330D03*
X006570Y015330D03*
X005840Y015330D03*
X004620Y015330D03*
X003890Y015330D03*
X002670Y015330D03*
D12*
X030880Y010230D03*
X031880Y010230D03*
X031880Y009230D03*
X030880Y009230D03*
X030880Y008230D03*
X031880Y008230D03*
X031880Y007230D03*
X030880Y007230D03*
X030880Y006230D03*
X031880Y006230D03*
X031880Y005230D03*
X030880Y005230D03*
D13*
X031630Y001580D03*
X031630Y014080D03*
X001130Y005580D03*
M02*
