%
M48
M72
T01C0.0236
T02C0.0400
T03C0.0512
%
T01
X3890Y1980
X4730Y2380
X6570Y2380
X8520Y2380
X10470Y2380
X12420Y2380
X14370Y2530
X14370Y2030
X16320Y2030
X16320Y2530
X18270Y2530
X18270Y2030
X21440Y2030
X22170Y2030
X22170Y2530
X21440Y2530
X21440Y4130
X22170Y4130
X25340Y4130
X26070Y4130
X26070Y2530
X25340Y2530
X25340Y2030
X26070Y2030
X29090Y2030
X29090Y2530
X29090Y4130
X29090Y5880
X26070Y5880
X25340Y5880
X22170Y5880
X21440Y5880
X18270Y5880
X16320Y5880
X14370Y5880
X12420Y5880
X10470Y5880
X8680Y5880
X7790Y5480
X6570Y5880
X4620Y5880
X3130Y5880
X3130Y4130
X4620Y4130
X5840Y3730
X6730Y4130
X8520Y4130
X10470Y4130
X12420Y4130
X14370Y4130
X16320Y4130
X18270Y4130
X18270Y7630
X16320Y7630
X14370Y7630
X12420Y7630
X10630Y7630
X9740Y7230
X8520Y7630
X6570Y7630
X4620Y7630
X3130Y7630
X3180Y9380
X4620Y9380
X6570Y9380
X8520Y9380
X10470Y9380
X11690Y8980
X12580Y9380
X14370Y9380
X16320Y9380
X18270Y9380
X21440Y9380
X22170Y9380
X24730Y8380
X25340Y7630
X26070Y7630
X29090Y7630
X29090Y9380
X26070Y9380
X25340Y9380
X25340Y11130
X26070Y11130
X29090Y11130
X29090Y12880
X26070Y12880
X25340Y12880
X22170Y12880
X21440Y12880
X18270Y12880
X16320Y12880
X15590Y12380
X14370Y12880
X12420Y12880
X10470Y12880
X8520Y12880
X6570Y12880
X4620Y12880
X3130Y12880
X2670Y14630
X4620Y14630
X6570Y14630
X8520Y14630
X10470Y14630
X12420Y14630
X14370Y14630
X16320Y14630
X17540Y14280
X18430Y14630
X21440Y14630
X22280Y14630
X25340Y14630
X26070Y14630
X29090Y14630
X22170Y11130
X21440Y11130
X18270Y11130
X16320Y11130
X14530Y11130
X13640Y10730
X12420Y11130
X10470Y11130
X8520Y11130
X6570Y11130
X4620Y11130
X3080Y11130
X2670Y2380
X21440Y7630
X22170Y7630
T02
X30880Y7230
X31880Y7230
X31880Y6230
X30880Y6230
X30880Y5230
X31880Y5230
X31880Y8230
X30880Y8230
X30880Y9230
X31880Y9230
X31880Y10230
X30880Y10230
T03
X1130Y1080
X1130Y15580
X32130Y15580
X32130Y1080
M30
