G75*
G70*
%OFA0B0*%
%FSLAX24Y24*%
%IPPOS*%
%LPD*%
%AMOC8*
5,1,8,0,0,1.08239X$1,22.5*
%
%ADD10C,0.1300*%
%ADD11R,0.0620X0.0180*%
%ADD12R,0.0552X0.0631*%
%ADD13R,0.0900X0.0900*%
%ADD14C,0.0900*%
%ADD15R,0.0631X0.0552*%
%ADD16R,0.2166X0.2481*%
%ADD17R,0.0440X0.0690*%
%ADD18R,0.1040X0.0640*%
%ADD19R,0.0355X0.0591*%
%ADD20C,0.0630*%
%ADD21R,0.0394X0.0630*%
%ADD22R,0.0540X0.0540*%
%ADD23R,0.0631X0.0237*%
%ADD24R,0.0237X0.0631*%
%ADD25R,0.0800X0.2140*%
%ADD26OC8,0.0640*%
%ADD27C,0.0640*%
%ADD28R,0.0512X0.0591*%
%ADD29R,0.1418X0.0591*%
%ADD30R,0.0920X0.0440*%
%ADD31OC8,0.1040*%
%ADD32R,0.0442X0.0201*%
%ADD33C,0.2000*%
%ADD34R,0.1102X0.0669*%
%ADD35R,0.0591X0.0434*%
%ADD36R,0.1024X0.0906*%
%ADD37R,0.0237X0.0827*%
%ADD38C,0.0394*%
%ADD39R,0.0906X0.1024*%
%ADD40R,0.0827X0.0237*%
%ADD41R,0.0634X0.0634*%
%ADD42C,0.0700*%
%ADD43C,0.0634*%
D10*
X001735Y001750D03*
X001735Y032700D03*
X038885Y032700D03*
X038885Y001750D03*
D11*
X014352Y009325D03*
X014352Y009585D03*
X014352Y009835D03*
X014352Y010095D03*
X014352Y010355D03*
X014352Y010605D03*
X014352Y010865D03*
X014352Y011115D03*
X014352Y011375D03*
X014352Y011635D03*
X014352Y011885D03*
X014352Y012145D03*
X012132Y012145D03*
X012132Y011885D03*
X012132Y011635D03*
X012132Y011375D03*
X012132Y011115D03*
X012132Y010865D03*
X012132Y010605D03*
X012132Y010355D03*
X012132Y010095D03*
X012132Y009835D03*
X012132Y009585D03*
X012132Y009325D03*
D12*
X010029Y010970D03*
X009281Y010970D03*
X009281Y011820D03*
X010029Y011820D03*
X011491Y013120D03*
X012239Y013120D03*
X008259Y014490D03*
X007511Y014490D03*
X007579Y012120D03*
X006831Y012120D03*
X006831Y011070D03*
X007579Y011070D03*
X008061Y009250D03*
X008809Y009250D03*
X008859Y007450D03*
X008111Y007450D03*
X007159Y006300D03*
X006411Y006300D03*
X006459Y007250D03*
X005711Y007250D03*
X011661Y006400D03*
X012409Y006400D03*
X012409Y004900D03*
X011661Y004900D03*
X014111Y005750D03*
X014859Y005750D03*
X014859Y006900D03*
X014111Y006900D03*
X017411Y005750D03*
X018159Y005750D03*
X018461Y004900D03*
X019209Y004900D03*
X018709Y006600D03*
X017961Y006600D03*
X023711Y005350D03*
X024459Y005350D03*
X024661Y006700D03*
X025409Y006700D03*
X026656Y013480D03*
X027404Y013480D03*
X025159Y016100D03*
X024411Y016100D03*
X029331Y018570D03*
X030079Y018570D03*
X030099Y019860D03*
X029351Y019860D03*
X034361Y023950D03*
X035109Y023950D03*
X035241Y022240D03*
X035989Y022240D03*
X034609Y031200D03*
X033861Y031200D03*
X030459Y031400D03*
X029711Y031400D03*
X007989Y027440D03*
X007241Y027440D03*
X006899Y024750D03*
X006151Y024750D03*
X004909Y030350D03*
X004161Y030350D03*
X033151Y004910D03*
X033899Y004910D03*
X037101Y005470D03*
X037849Y005470D03*
D13*
X033978Y001960D03*
X031705Y001950D03*
D14*
X029736Y001950D03*
X035946Y001960D03*
D15*
X037135Y009596D03*
X037135Y010344D03*
X038375Y010344D03*
X038375Y009596D03*
X032785Y011876D03*
X032785Y012624D03*
X035705Y017656D03*
X035705Y018404D03*
X037435Y025026D03*
X037435Y025774D03*
X038285Y025774D03*
X038285Y025026D03*
X039635Y025026D03*
X039635Y025774D03*
X032785Y026876D03*
X032785Y027624D03*
X022585Y015224D03*
X022585Y014476D03*
X023865Y014436D03*
X023865Y015184D03*
X018854Y012078D03*
X018854Y011330D03*
X018043Y011386D03*
X018043Y010637D03*
X016285Y010526D03*
X016285Y011274D03*
X017985Y008174D03*
X017985Y007426D03*
X018885Y007426D03*
X018885Y008174D03*
X016435Y007324D03*
X016435Y006576D03*
X013235Y006424D03*
X013235Y005676D03*
X010485Y006376D03*
X010485Y007124D03*
X007285Y007326D03*
X007285Y008074D03*
X006885Y009326D03*
X006885Y010074D03*
X008455Y011046D03*
X008455Y011794D03*
X005005Y024036D03*
X005005Y024784D03*
X005905Y025916D03*
X005905Y026664D03*
X009635Y026424D03*
X009635Y025676D03*
X018685Y030276D03*
X018685Y031024D03*
X024635Y008274D03*
X025485Y008274D03*
X025485Y007526D03*
X024635Y007526D03*
X023445Y007004D03*
X023445Y006256D03*
X025385Y005774D03*
X025385Y005026D03*
D16*
X031895Y008744D03*
D17*
X030995Y005860D03*
X032795Y005860D03*
D18*
X029705Y004900D03*
X028105Y004900D03*
X027815Y007450D03*
X029415Y007450D03*
X003065Y030070D03*
X001465Y030070D03*
D19*
X037165Y007160D03*
X038365Y007160D03*
D20*
X037870Y007857D02*
X037660Y007857D01*
X037660Y008703D01*
X037870Y008703D01*
X037870Y007857D01*
X037870Y008486D02*
X037660Y008486D01*
D21*
X037765Y007130D03*
D22*
X039235Y009280D03*
X039235Y010280D03*
X035425Y010290D03*
X035425Y009290D03*
D23*
X023548Y018625D03*
X023548Y018940D03*
X023548Y019255D03*
X023548Y019570D03*
X023548Y019885D03*
X023548Y020200D03*
X023548Y020515D03*
X023548Y020830D03*
X023548Y021145D03*
X023548Y021460D03*
X023548Y021775D03*
X018982Y021775D03*
X018982Y021460D03*
X018982Y021145D03*
X018982Y020830D03*
X018982Y020515D03*
X018982Y020200D03*
X018982Y019885D03*
X018982Y019570D03*
X018982Y019255D03*
X018982Y018940D03*
X018982Y018625D03*
D24*
X019690Y017917D03*
X020005Y017917D03*
X020320Y017917D03*
X020635Y017917D03*
X020950Y017917D03*
X021265Y017917D03*
X021580Y017917D03*
X021895Y017917D03*
X022210Y017917D03*
X022525Y017917D03*
X022840Y017917D03*
X022840Y022483D03*
X022525Y022483D03*
X022210Y022483D03*
X021895Y022483D03*
X021580Y022483D03*
X021265Y022483D03*
X020950Y022483D03*
X020635Y022483D03*
X020320Y022483D03*
X020005Y022483D03*
X019690Y022483D03*
D25*
X027165Y021830D03*
X027165Y018030D03*
D26*
X027345Y032080D03*
X027345Y033080D03*
X028345Y033080D03*
X028345Y032080D03*
X026345Y032080D03*
X026345Y033080D03*
X025345Y033080D03*
X025345Y032080D03*
X024345Y032080D03*
X024345Y033080D03*
X023345Y033080D03*
X023345Y032080D03*
X008585Y032200D03*
X008585Y033200D03*
X007585Y033200D03*
X007585Y032200D03*
X006585Y032200D03*
X006585Y033200D03*
X005585Y033200D03*
X005585Y032200D03*
X004585Y032200D03*
X004585Y033200D03*
X003585Y033200D03*
X003585Y032200D03*
D27*
X001485Y027700D02*
X000885Y027700D01*
X000885Y026700D02*
X001485Y026700D01*
X001185Y025050D02*
X001185Y024450D01*
X002185Y024450D02*
X002185Y025050D01*
X003185Y025050D02*
X003185Y024450D01*
X002435Y016900D02*
X001835Y016900D01*
X001835Y015900D02*
X002435Y015900D01*
X010135Y032200D02*
X010735Y032200D01*
X010735Y033200D02*
X010135Y033200D01*
X017005Y033170D02*
X017005Y032570D01*
X018005Y032570D02*
X018005Y033170D01*
X029935Y032950D02*
X029935Y032350D01*
X030935Y032350D02*
X030935Y032950D01*
X031935Y032950D02*
X031935Y032350D01*
X033835Y032340D02*
X033835Y032940D01*
X034835Y032940D02*
X034835Y032340D01*
X035835Y032340D02*
X035835Y032940D01*
X036835Y032940D02*
X036835Y032340D01*
X039135Y028300D02*
X039735Y028300D01*
X039735Y027300D02*
X039135Y027300D01*
X038985Y023800D02*
X039585Y023800D01*
X039585Y022800D02*
X038985Y022800D01*
D28*
X032815Y021690D03*
X031905Y021690D03*
X030995Y021690D03*
X017715Y031500D03*
X016805Y031500D03*
X015895Y031500D03*
D29*
X016805Y029060D03*
X031905Y024130D03*
D30*
X036195Y021510D03*
X036195Y020910D03*
X036195Y020310D03*
X036195Y019710D03*
X038635Y019710D03*
X038635Y020310D03*
X038635Y020910D03*
X038635Y021510D03*
D31*
X011495Y028880D03*
X007555Y028880D03*
D32*
X007980Y023134D03*
X007980Y022878D03*
X007980Y022622D03*
X007980Y022366D03*
X006090Y022366D03*
X006090Y022622D03*
X006090Y022878D03*
X006090Y023134D03*
D33*
X012135Y023350D03*
X007585Y017200D03*
X023985Y010900D03*
X033185Y019000D03*
D34*
X034785Y012891D03*
X034785Y011709D03*
X034785Y025109D03*
X034785Y026291D03*
D35*
X033668Y025700D03*
X032802Y025326D03*
X032802Y026074D03*
X010468Y029026D03*
X010468Y029774D03*
X009602Y029400D03*
D36*
X009731Y003787D03*
X009731Y001701D03*
X006689Y001701D03*
X006689Y003787D03*
X003381Y003787D03*
X003381Y001701D03*
X013039Y001701D03*
X013039Y003787D03*
X016081Y003787D03*
X016081Y001701D03*
X019389Y001701D03*
X019389Y003787D03*
X022431Y003787D03*
X022431Y001701D03*
X025739Y001701D03*
X025739Y003787D03*
D37*
X024715Y003886D03*
X024400Y003886D03*
X024085Y003886D03*
X023770Y003886D03*
X023455Y003886D03*
X018365Y003886D03*
X018050Y003886D03*
X017735Y003886D03*
X017420Y003886D03*
X017105Y003886D03*
X012015Y003886D03*
X011700Y003886D03*
X011385Y003886D03*
X011070Y003886D03*
X010755Y003886D03*
X005665Y003886D03*
X005350Y003886D03*
X005035Y003886D03*
X004720Y003886D03*
X004405Y003886D03*
D38*
X004346Y003000D03*
X005724Y003000D03*
X002835Y006511D03*
X002835Y007889D03*
X010696Y003000D03*
X012074Y003000D03*
X017046Y003000D03*
X018424Y003000D03*
X023396Y003000D03*
X024774Y003000D03*
D39*
X003622Y005546D03*
X001536Y005546D03*
X001536Y008854D03*
X003622Y008854D03*
D40*
X003721Y007830D03*
X003721Y007515D03*
X003721Y007200D03*
X003721Y006885D03*
X003721Y006570D03*
D41*
X037785Y029200D03*
D42*
X037785Y030200D03*
X035785Y030200D03*
D43*
X035785Y029200D03*
X034785Y029200D03*
X034785Y030200D03*
X033785Y030200D03*
X033785Y029200D03*
X032785Y029200D03*
X032785Y030200D03*
X031785Y030200D03*
X031785Y029200D03*
X030785Y029200D03*
X030785Y030200D03*
X029785Y030200D03*
X029785Y029200D03*
X028785Y029200D03*
X028785Y030200D03*
X027785Y030200D03*
X027785Y029200D03*
X026785Y029200D03*
X026785Y030200D03*
X025785Y030200D03*
X025785Y029200D03*
X036785Y029200D03*
X036785Y030200D03*
M02*
