G75*
G70*
%OFA0B0*%
%FSLAX24Y24*%
%IPPOS*%
%LPD*%
%AMOC8*
5,1,8,0,0,1.08239X$1,22.5*
%
%ADD10C,0.1300*%
%ADD11R,0.0900X0.0900*%
%ADD12C,0.0900*%
%ADD13OC8,0.0640*%
%ADD14C,0.0640*%
%ADD15OC8,0.1040*%
%ADD16C,0.2000*%
%ADD17C,0.0394*%
%ADD18R,0.0634X0.0634*%
%ADD19C,0.0700*%
%ADD20C,0.0634*%
D10*
X001735Y001750D03*
X001735Y032700D03*
X038885Y032700D03*
X038885Y001750D03*
D11*
X033978Y001960D03*
X031705Y001950D03*
D12*
X029736Y001950D03*
X035946Y001960D03*
D13*
X028345Y032080D03*
X028345Y033080D03*
X027345Y033080D03*
X027345Y032080D03*
X026345Y032080D03*
X026345Y033080D03*
X025345Y033080D03*
X025345Y032080D03*
X024345Y032080D03*
X024345Y033080D03*
X023345Y033080D03*
X023345Y032080D03*
X008585Y032200D03*
X008585Y033200D03*
X007585Y033200D03*
X007585Y032200D03*
X006585Y032200D03*
X006585Y033200D03*
X005585Y033200D03*
X005585Y032200D03*
X004585Y032200D03*
X004585Y033200D03*
X003585Y033200D03*
X003585Y032200D03*
D14*
X001485Y027700D02*
X000885Y027700D01*
X000885Y026700D02*
X001485Y026700D01*
X001185Y025050D02*
X001185Y024450D01*
X002185Y024450D02*
X002185Y025050D01*
X003185Y025050D02*
X003185Y024450D01*
X002435Y016900D02*
X001835Y016900D01*
X001835Y015900D02*
X002435Y015900D01*
X010135Y032200D02*
X010735Y032200D01*
X010735Y033200D02*
X010135Y033200D01*
X017005Y033170D02*
X017005Y032570D01*
X018005Y032570D02*
X018005Y033170D01*
X029935Y032950D02*
X029935Y032350D01*
X030935Y032350D02*
X030935Y032950D01*
X031935Y032950D02*
X031935Y032350D01*
X033835Y032340D02*
X033835Y032940D01*
X034835Y032940D02*
X034835Y032340D01*
X035835Y032340D02*
X035835Y032940D01*
X036835Y032940D02*
X036835Y032340D01*
X039135Y028300D02*
X039735Y028300D01*
X039735Y027300D02*
X039135Y027300D01*
X038985Y023800D02*
X039585Y023800D01*
X039585Y022800D02*
X038985Y022800D01*
D15*
X011495Y028880D03*
X007555Y028880D03*
D16*
X012135Y023350D03*
X007585Y017200D03*
X023985Y010900D03*
X033185Y019000D03*
D17*
X024774Y003000D03*
X023396Y003000D03*
X018424Y003000D03*
X017046Y003000D03*
X012074Y003000D03*
X010696Y003000D03*
X005724Y003000D03*
X004346Y003000D03*
X002835Y006511D03*
X002835Y007889D03*
D18*
X037785Y029200D03*
D19*
X037785Y030200D03*
X035785Y030200D03*
D20*
X035785Y029200D03*
X034785Y029200D03*
X034785Y030200D03*
X033785Y030200D03*
X033785Y029200D03*
X032785Y029200D03*
X032785Y030200D03*
X031785Y030200D03*
X031785Y029200D03*
X030785Y029200D03*
X030785Y030200D03*
X029785Y030200D03*
X029785Y029200D03*
X028785Y029200D03*
X028785Y030200D03*
X027785Y030200D03*
X027785Y029200D03*
X026785Y029200D03*
X026785Y030200D03*
X025785Y030200D03*
X025785Y029200D03*
X036785Y029200D03*
X036785Y030200D03*
M02*
