%
M48
M72
T01C0.0197
T02C0.0236
T03C0.0354
T04C0.0400
T05C0.0440
T06C0.0472
T07C0.1260
%
T01
X5244Y6350
X7394Y8800
X8144Y8500
X8594Y9900
X9594Y9300
X10944Y9850
X11394Y10100
X11394Y9300
X10794Y10900
X10694Y11300
X11394Y11100
X11494Y12150
X10744Y12750
X9344Y12400
X10794Y15100
X11544Y16000
X12544Y16000
X14594Y16000
X14994Y15550
X15444Y15100
X16194Y15100
X16394Y15550
X17144Y15050
X17694Y15550
X17694Y16100
X18644Y16100
X18644Y14700
X19394Y13950
X19794Y13500
X19544Y12600
X19544Y12000
X17694Y12800
X15794Y13950
X14894Y13500
X15444Y10600
X15094Y10300
X15594Y8700
X15194Y8550
X15594Y7800
X17044Y7800
X17444Y7400
X17044Y8600
X16994Y6300
X18844Y5550
X19444Y6950
X21644Y9000
X22694Y9000
X23894Y7650
X24044Y6300
X26144Y5550
X26094Y7600
X30044Y8700
X33494Y8700
X34744Y9250
X36394Y11050
X38294Y13500
X35094Y16350
X31544Y14400
X31544Y12900
X28794Y14600
X28794Y15750
X27844Y18350
X26694Y18900
X25794Y18350
X24894Y18800
X24894Y17700
X24244Y19900
X24044Y20600
X24894Y20950
X24894Y22450
X25294Y22450
X25744Y22500
X25694Y23100
X25394Y23450
X25994Y23500
X26794Y23150
X26944Y22300
X27344Y21500
X27044Y21150
X27844Y21500
X28294Y21650
X28794Y21450
X27844Y22850
X28194Y23500
X27644Y23800
X28144Y24200
X27044Y24350
X24994Y24550
X24594Y24150
X23994Y23050
X24294Y22450
X23044Y23150
X22394Y23250
X23044Y24000
X22594Y25150
X21594Y25700
X19694Y26100
X18544Y26100
X16594Y28050
X16094Y29800
X14094Y29800
X8094Y28050
X15144Y22150
X16744Y23550
X17694Y23000
X18044Y23400
X18044Y21850
X18344Y21550
X18744Y21400
X17694Y21350
X17694Y20500
X17344Y20200
X17144Y19000
X17344Y18000
X17694Y17700
X19544Y17800
X19544Y18550
X19244Y19150
X19244Y20100
X19694Y20200
X20494Y20200
X20894Y19000
X20344Y18550
X21594Y18150
X21744Y20450
X22194Y20500
X21744Y22150
X19894Y23500
X23994Y25150
X23844Y25850
X23894Y26650
X24244Y27700
X24594Y28100
X25394Y28200
X26094Y28500
X27394Y28500
X27844Y28350
X28694Y28450
X27844Y29250
X26944Y30700
X27644Y27500
X26894Y27100
X25094Y26650
X24944Y26050
X29294Y26600
X30794Y27500
X31294Y27450
X33294Y27750
X33694Y27450
X34444Y27450
X35444Y27650
X34344Y24450
X33644Y23800
X33694Y22850
X34094Y22050
X34544Y22350
X35344Y20900
X32694Y23800
X31294Y23450
X31294Y24250
X30294Y24200
X29294Y23150
X30294Y22150
X31194Y22050
X38644Y19200
X39744Y22850
X33294Y31350
X20844Y15700
X21394Y15450
X20844Y14150
X22494Y12150
X14244Y8550
X13444Y9000
X12044Y7200
X11094Y6350
X12044Y5550
X6194Y10500
X6194Y11950
T02
X7544Y13700
X8294Y13750
X8294Y12790
X11544Y14450
X13794Y17300
X12544Y17700
X12944Y18750
X11194Y18750
X11194Y19750
X9744Y19750
X9744Y18750
X9744Y23450
X8544Y23450
X11194Y23450
X14144Y23450
X16644Y19050
X15144Y17300
X15844Y13150
X19794Y13000
X21944Y13150
X21944Y14250
X21944Y15450
X24194Y14150
X24194Y12600
X26944Y16400
X30844Y16400
X31544Y19000
X29794Y22050
X23844Y21900
X22944Y21700
X22944Y22550
X21544Y18950
X22344Y18200
X20794Y18150
X12594Y8100
X2494Y17850
X20544Y29750
X36394Y6500
X36394Y4800
X34004Y3970
X28454Y4700
T03
X24783Y3000
X23405Y3000
X18433Y3000
X17055Y3000
X12083Y3000
X10705Y3000
X5733Y3000
X4355Y3000
X2844Y10461
X2844Y11839
T04
X2144Y15900
X2144Y16900
X14594Y31550
X15594Y31550
X16594Y31550
X17594Y31550
X18594Y31550
X19594Y31550
X19594Y32550
X18594Y32550
X17594Y32550
X16594Y32550
X15594Y32550
X14594Y32550
X21104Y32530
X22104Y32530
X23104Y32530
X24104Y32530
X25104Y32530
X26104Y32530
X26104Y31530
X25104Y31530
X24104Y31530
X23104Y31530
X22104Y31530
X21104Y31530
X26794Y26250
X26794Y25250
X27794Y25250
X28794Y25250
X29794Y25250
X29794Y26250
X28794Y26250
X27794Y26250
X30794Y26250
X31794Y26250
X31794Y25250
X30794Y25250
X32794Y25250
X33794Y25250
X33794Y26250
X32794Y26250
X34794Y26250
X35794Y26250
X35794Y25250
X34794Y25250
X36794Y25250
X37794Y25250
X38794Y25250
X38794Y26250
X37794Y26250
X36794Y26250
X36794Y23800
X37794Y23800
X32544Y29150
X32544Y30150
X32094Y31650
X32094Y32650
X33844Y32540
X34844Y32540
X35844Y32540
X36844Y32540
X37294Y30250
X37294Y29250
X39074Y29370
X39074Y30370
X34894Y30200
X34894Y29200
X29994Y31650
X29994Y32650
X27744Y32600
X27744Y31600
X4854Y32050
X3444Y32050
T05
X7584Y28920
X11524Y28920
T06
X29745Y1950
X31714Y1950
X33987Y1960
X35955Y1960
T07
X1744Y1750
X8014Y22430
X1744Y32700
X29404Y12290
X38894Y1750
X38894Y32700
M30
