G75*
G70*
%OFA0B0*%
%FSLAX24Y24*%
%IPPOS*%
%LPD*%
%AMOC8*
5,1,8,0,0,1.08239X$1,22.5*
%
%ADD10C,0.0050*%
%ADD11C,0.0110*%
%ADD12C,0.0000*%
%ADD13C,0.0020*%
%ADD14C,0.0120*%
%ADD15C,0.0150*%
%ADD16C,0.0080*%
%ADD17C,0.0100*%
%ADD18C,0.0060*%
%ADD19C,0.0030*%
%ADD20C,0.0040*%
%ADD21R,0.0340X0.0300*%
%ADD22R,0.0167X0.0096*%
%ADD23R,0.0197X0.0197*%
%ADD24R,0.0089X0.0295*%
D10*
X000134Y000130D02*
X000214Y034060D01*
X040744Y034140D01*
X040654Y000180D01*
X000134Y000130D01*
X002889Y015613D02*
X002889Y015914D01*
X002889Y015764D02*
X003339Y015764D01*
X003339Y016074D02*
X002889Y016074D01*
X002889Y016374D01*
X002889Y016534D02*
X003039Y016684D01*
X002889Y016834D01*
X003339Y016834D01*
X003339Y016995D02*
X002889Y016995D01*
X002889Y017220D01*
X002964Y017295D01*
X003114Y017295D01*
X003189Y017220D01*
X003189Y016995D01*
X003339Y016534D02*
X002889Y016534D01*
X003114Y016224D02*
X003114Y016074D01*
X003339Y016074D02*
X003339Y016374D01*
X005523Y024445D02*
X005448Y024520D01*
X005523Y024445D02*
X005673Y024445D01*
X005748Y024520D01*
X005748Y024595D01*
X005673Y024670D01*
X005523Y024670D01*
X005448Y024745D01*
X005448Y024820D01*
X005523Y024895D01*
X005673Y024895D01*
X005748Y024820D01*
X005908Y024895D02*
X006133Y024895D01*
X006208Y024820D01*
X006208Y024670D01*
X006133Y024595D01*
X005908Y024595D01*
X005908Y024445D02*
X005908Y024895D01*
X006369Y024745D02*
X006519Y024895D01*
X006519Y024445D01*
X006369Y024445D02*
X006669Y024445D01*
X005337Y029675D02*
X005036Y029675D01*
X005186Y029675D02*
X005186Y030125D01*
X005036Y029975D01*
X004876Y030050D02*
X004801Y030125D01*
X004651Y030125D01*
X004576Y030050D01*
X004576Y029750D01*
X004651Y029675D01*
X004801Y029675D01*
X004876Y029750D01*
X004419Y029675D02*
X004269Y029675D01*
X004344Y029675D02*
X004344Y030125D01*
X004269Y030125D02*
X004419Y030125D01*
X004303Y032805D02*
X004303Y033105D01*
X004453Y033255D01*
X004603Y033105D01*
X004603Y032805D01*
X004764Y032805D02*
X004914Y032805D01*
X004839Y032805D02*
X004839Y033255D01*
X004764Y033255D02*
X004914Y033255D01*
X005070Y033255D02*
X005371Y032805D01*
X005371Y033255D01*
X005070Y033255D02*
X005070Y032805D01*
X005531Y032730D02*
X005831Y032730D01*
X005991Y032880D02*
X006066Y032805D01*
X006216Y032805D01*
X006292Y032880D01*
X006292Y032955D01*
X006216Y033030D01*
X006066Y033030D01*
X005991Y033105D01*
X005991Y033180D01*
X006066Y033255D01*
X006216Y033255D01*
X006292Y033180D01*
X006452Y033255D02*
X006602Y033255D01*
X006527Y033255D02*
X006527Y032805D01*
X006452Y032805D02*
X006602Y032805D01*
X006759Y032880D02*
X006834Y032805D01*
X006984Y032805D01*
X007059Y032880D01*
X007059Y033030D01*
X006909Y033030D01*
X007059Y033180D02*
X006984Y033255D01*
X006834Y033255D01*
X006759Y033180D01*
X006759Y032880D01*
X004603Y033030D02*
X004303Y033030D01*
X003319Y033120D02*
X003319Y032820D01*
X003244Y032745D01*
X003019Y032745D01*
X003019Y033195D01*
X003244Y033195D01*
X003319Y033120D01*
X002858Y033195D02*
X002858Y032745D01*
X002558Y033195D01*
X002558Y032745D01*
X002398Y032820D02*
X002398Y032970D01*
X002248Y032970D01*
X002398Y032820D02*
X002323Y032745D01*
X002173Y032745D01*
X002098Y032820D01*
X002098Y033120D01*
X002173Y033195D01*
X002323Y033195D01*
X002398Y033120D01*
X001938Y032670D02*
X001637Y032670D01*
X001477Y032745D02*
X001477Y033195D01*
X001177Y033195D02*
X001177Y032745D01*
X001020Y032745D02*
X000870Y032745D01*
X000945Y032745D02*
X000945Y033195D01*
X000870Y033195D02*
X001020Y033195D01*
X001177Y033195D02*
X001477Y032745D01*
X000710Y032745D02*
X000710Y033045D01*
X000560Y033195D01*
X000410Y033045D01*
X000410Y032745D01*
X000410Y032970D02*
X000710Y032970D01*
X014119Y033325D02*
X014119Y033775D01*
X014344Y033775D01*
X014419Y033700D01*
X014419Y033550D01*
X014344Y033475D01*
X014119Y033475D01*
X014579Y033400D02*
X014654Y033325D01*
X014805Y033325D01*
X014880Y033400D01*
X014880Y033700D01*
X014805Y033775D01*
X014654Y033775D01*
X014579Y033700D01*
X014579Y033400D01*
X015040Y033325D02*
X015040Y033775D01*
X015340Y033775D02*
X015340Y033325D01*
X015190Y033475D01*
X015040Y033325D01*
X015500Y033325D02*
X015500Y033775D01*
X015725Y033775D01*
X015800Y033700D01*
X015800Y033550D01*
X015725Y033475D01*
X015500Y033475D01*
X015650Y033475D02*
X015800Y033325D01*
X015961Y033250D02*
X016261Y033250D01*
X016421Y033325D02*
X016646Y033325D01*
X016721Y033400D01*
X016721Y033475D01*
X016646Y033550D01*
X016421Y033550D01*
X016421Y033325D02*
X016421Y033775D01*
X016646Y033775D01*
X016721Y033700D01*
X016721Y033625D01*
X016646Y033550D01*
X016881Y033475D02*
X017107Y033475D01*
X017182Y033550D01*
X017182Y033700D01*
X017107Y033775D01*
X016881Y033775D01*
X016881Y033325D01*
X017031Y033475D02*
X017182Y033325D01*
X017342Y033325D02*
X017567Y033325D01*
X017642Y033400D01*
X017642Y033700D01*
X017567Y033775D01*
X017342Y033775D01*
X017342Y033325D01*
X020629Y033305D02*
X020854Y033305D01*
X020929Y033380D01*
X020929Y033680D01*
X020854Y033755D01*
X020629Y033755D01*
X020629Y033305D01*
X021089Y033305D02*
X021239Y033305D01*
X021164Y033305D02*
X021164Y033755D01*
X021089Y033755D02*
X021239Y033755D01*
X021396Y033680D02*
X021396Y033605D01*
X021471Y033530D01*
X021621Y033530D01*
X021697Y033455D01*
X021697Y033380D01*
X021621Y033305D01*
X021471Y033305D01*
X021396Y033380D01*
X021396Y033680D02*
X021471Y033755D01*
X021621Y033755D01*
X021697Y033680D01*
X021857Y033755D02*
X021857Y033305D01*
X021857Y033455D02*
X022082Y033455D01*
X022157Y033530D01*
X022157Y033680D01*
X022082Y033755D01*
X021857Y033755D01*
X022317Y033755D02*
X022317Y033305D01*
X022617Y033305D01*
X022777Y033305D02*
X022777Y033605D01*
X022928Y033755D01*
X023078Y033605D01*
X023078Y033305D01*
X023078Y033530D02*
X022777Y033530D01*
X023238Y033680D02*
X023238Y033755D01*
X023238Y033680D02*
X023388Y033530D01*
X023388Y033305D01*
X023388Y033530D02*
X023538Y033680D01*
X023538Y033755D01*
X026549Y033857D02*
X026999Y033857D01*
X026999Y034158D01*
X026774Y034007D02*
X026774Y033857D01*
X026849Y033697D02*
X026924Y033697D01*
X026999Y033622D01*
X026999Y033472D01*
X026924Y033397D01*
X026924Y033237D02*
X026624Y033237D01*
X026549Y033162D01*
X026549Y033012D01*
X026624Y032937D01*
X026924Y032937D01*
X026999Y033012D01*
X026999Y033162D01*
X026924Y033237D01*
X026699Y033397D02*
X026774Y033472D01*
X026774Y033622D01*
X026849Y033697D01*
X026624Y033697D02*
X026549Y033622D01*
X026549Y033472D01*
X026624Y033397D01*
X026699Y033397D01*
X026549Y033857D02*
X026549Y034158D01*
X026999Y032776D02*
X026999Y032476D01*
X026549Y032476D01*
X026624Y032316D02*
X026549Y032241D01*
X026549Y032091D01*
X026624Y032016D01*
X026924Y032016D01*
X026999Y032091D01*
X026999Y032241D01*
X026924Y032316D01*
X027074Y031856D02*
X027074Y031555D01*
X026924Y031395D02*
X026999Y031320D01*
X026999Y031170D01*
X026924Y031095D01*
X026624Y031095D01*
X026549Y031170D01*
X026549Y031320D01*
X026624Y031395D01*
X028799Y031370D02*
X028799Y031145D01*
X029249Y031145D01*
X029099Y031145D02*
X029099Y031370D01*
X029024Y031445D01*
X028874Y031445D01*
X028799Y031370D01*
X029324Y031605D02*
X029324Y031906D01*
X029249Y032066D02*
X028799Y032066D01*
X029249Y032066D02*
X029249Y032366D01*
X029174Y032526D02*
X028874Y032526D01*
X028799Y032601D01*
X028799Y032751D01*
X028874Y032826D01*
X029174Y032826D01*
X029249Y032751D01*
X029249Y032601D01*
X029174Y032526D01*
X029174Y032987D02*
X028874Y032987D01*
X028799Y033062D01*
X028799Y033212D01*
X028874Y033287D01*
X028799Y033447D02*
X029249Y033447D01*
X029099Y033447D02*
X028799Y033747D01*
X029024Y033522D02*
X029249Y033747D01*
X029174Y033287D02*
X029249Y033212D01*
X029249Y033062D01*
X029174Y032987D01*
X030899Y033062D02*
X030974Y032987D01*
X031274Y032987D01*
X031349Y033062D01*
X031349Y033212D01*
X031274Y033287D01*
X031349Y033447D02*
X030899Y033447D01*
X030974Y033287D02*
X030899Y033212D01*
X030899Y033062D01*
X030974Y032826D02*
X030899Y032751D01*
X030899Y032601D01*
X030974Y032526D01*
X031274Y032526D01*
X031349Y032601D01*
X031349Y032751D01*
X031274Y032826D01*
X030974Y032826D01*
X031349Y032366D02*
X031349Y032066D01*
X030899Y032066D01*
X031424Y031906D02*
X031424Y031605D01*
X031274Y031445D02*
X031349Y031370D01*
X031349Y031220D01*
X031274Y031145D01*
X030974Y031145D01*
X030899Y031220D01*
X030899Y031370D01*
X030974Y031445D01*
X031424Y030326D02*
X031499Y030326D01*
X031574Y030251D01*
X031649Y030326D01*
X031724Y030326D01*
X031799Y030251D01*
X031799Y030101D01*
X031724Y030026D01*
X031574Y030176D02*
X031574Y030251D01*
X031424Y030326D02*
X031349Y030251D01*
X031349Y030101D01*
X031424Y030026D01*
X031349Y029866D02*
X031349Y029566D01*
X031349Y029716D02*
X031799Y029716D01*
X031724Y029406D02*
X031349Y029406D01*
X031349Y029105D02*
X031724Y029105D01*
X031799Y029180D01*
X031799Y029331D01*
X031724Y029406D01*
X031724Y028945D02*
X031799Y028870D01*
X031799Y028645D01*
X031349Y028645D01*
X031349Y028870D01*
X031424Y028945D01*
X031499Y028945D01*
X031574Y028870D01*
X031574Y028645D01*
X031574Y028870D02*
X031649Y028945D01*
X031724Y028945D01*
X033699Y028920D02*
X033699Y028695D01*
X034149Y028695D01*
X034149Y028920D01*
X034074Y028995D01*
X033999Y028995D01*
X033924Y028920D01*
X033924Y028695D01*
X033924Y028920D02*
X033849Y028995D01*
X033774Y028995D01*
X033699Y028920D01*
X033699Y029155D02*
X034074Y029155D01*
X034149Y029230D01*
X034149Y029381D01*
X034074Y029456D01*
X033699Y029456D01*
X033699Y029616D02*
X033699Y029916D01*
X033699Y029766D02*
X034149Y029766D01*
X034149Y030076D02*
X033849Y030376D01*
X033774Y030376D01*
X033699Y030301D01*
X033699Y030151D01*
X033774Y030076D01*
X034149Y030076D02*
X034149Y030376D01*
X036099Y030276D02*
X036549Y030276D01*
X036549Y030126D02*
X036549Y030426D01*
X036249Y030126D02*
X036099Y030276D01*
X036099Y029966D02*
X036099Y029666D01*
X036099Y029816D02*
X036549Y029816D01*
X036474Y029506D02*
X036099Y029506D01*
X036099Y029205D02*
X036474Y029205D01*
X036549Y029280D01*
X036549Y029431D01*
X036474Y029506D01*
X036474Y029045D02*
X036549Y028970D01*
X036549Y028745D01*
X036099Y028745D01*
X036099Y028970D01*
X036174Y029045D01*
X036249Y029045D01*
X036324Y028970D01*
X036324Y028745D01*
X036324Y028970D02*
X036399Y029045D01*
X036474Y029045D01*
X039819Y029544D02*
X039819Y029844D01*
X039969Y030004D02*
X039819Y030154D01*
X039969Y030304D01*
X040269Y030304D01*
X040269Y030465D02*
X039819Y030465D01*
X040269Y030765D01*
X039819Y030765D01*
X040044Y030304D02*
X040044Y030004D01*
X039969Y030004D02*
X040269Y030004D01*
X040044Y029694D02*
X040044Y029544D01*
X040269Y029544D02*
X039819Y029544D01*
X038704Y033285D02*
X038704Y033735D01*
X038403Y033735D02*
X038403Y033285D01*
X038553Y033435D01*
X038704Y033285D01*
X038243Y033360D02*
X038168Y033285D01*
X038018Y033285D01*
X037943Y033360D01*
X038018Y033510D02*
X037943Y033585D01*
X037943Y033660D01*
X038018Y033735D01*
X038168Y033735D01*
X038243Y033660D01*
X038168Y033510D02*
X038243Y033435D01*
X038243Y033360D01*
X038168Y033510D02*
X038018Y033510D01*
X037783Y033285D02*
X037483Y033735D01*
X037322Y033660D02*
X037247Y033735D01*
X037097Y033735D01*
X037022Y033660D01*
X037022Y033360D01*
X037097Y033285D01*
X037247Y033285D01*
X037322Y033360D01*
X037322Y033660D01*
X037483Y033285D02*
X037783Y033735D01*
X036862Y033660D02*
X036862Y033510D01*
X036787Y033435D01*
X036562Y033435D01*
X036712Y033435D02*
X036862Y033285D01*
X036562Y033285D02*
X036562Y033735D01*
X036787Y033735D01*
X036862Y033660D01*
X036402Y033660D02*
X036402Y033510D01*
X036327Y033435D01*
X036101Y033435D01*
X036101Y033285D02*
X036101Y033735D01*
X036327Y033735D01*
X036402Y033660D01*
X035941Y033510D02*
X035641Y033510D01*
X035791Y033660D02*
X035791Y033360D01*
X035481Y033285D02*
X035181Y033285D01*
X035181Y033735D01*
X035481Y033735D01*
X035331Y033510D02*
X035181Y033510D01*
X035020Y033435D02*
X034870Y033285D01*
X034720Y033435D01*
X034720Y033735D01*
X035020Y033735D02*
X035020Y033435D01*
X034560Y033285D02*
X034260Y033285D01*
X034260Y033735D01*
X034100Y033585D02*
X033949Y033735D01*
X033799Y033585D01*
X033799Y033285D01*
X033639Y033435D02*
X033639Y033735D01*
X033799Y033510D02*
X034100Y033510D01*
X034100Y033585D02*
X034100Y033285D01*
X033639Y033435D02*
X033489Y033285D01*
X033339Y033435D01*
X033339Y033735D01*
X031349Y033747D02*
X031124Y033522D01*
X031199Y033447D02*
X030899Y033747D01*
X037289Y023045D02*
X037439Y023045D01*
X037364Y023045D02*
X037364Y022595D01*
X037289Y022595D02*
X037439Y022595D01*
X037596Y022595D02*
X037896Y022895D01*
X037896Y022970D01*
X037821Y023045D01*
X037671Y023045D01*
X037596Y022970D01*
X037596Y022595D02*
X037896Y022595D01*
X038056Y022670D02*
X038131Y022595D01*
X038281Y022595D01*
X038357Y022670D01*
X038357Y022970D02*
X038281Y023045D01*
X038131Y023045D01*
X038056Y022970D01*
X038056Y022670D01*
X038919Y010605D02*
X039569Y010605D01*
X039569Y008955D01*
X038919Y008955D01*
X038919Y010605D01*
X039244Y009805D02*
X039244Y009605D01*
X039344Y009705D02*
X039144Y009705D01*
X038774Y008660D02*
X038774Y007410D01*
X036774Y007410D01*
X036774Y008660D01*
X038774Y008660D01*
X035759Y008965D02*
X035109Y008965D01*
X035109Y010615D01*
X035759Y010615D01*
X035759Y008965D01*
X035434Y009615D02*
X035434Y009815D01*
X035534Y009715D02*
X035334Y009715D01*
X036939Y003535D02*
X033002Y003535D01*
X033002Y000385D01*
X036939Y000385D01*
X036939Y003535D01*
X032698Y003525D02*
X032698Y000375D01*
X028761Y000375D01*
X028761Y003525D01*
X032698Y003525D01*
X014989Y016870D02*
X014914Y016795D01*
X014614Y016795D01*
X014539Y016870D01*
X014539Y017020D01*
X014614Y017095D01*
X014914Y017095D01*
X014989Y017020D01*
X014989Y016870D01*
X014839Y016945D02*
X014989Y017095D01*
X014989Y017255D02*
X014989Y017556D01*
X014989Y017406D02*
X014539Y017406D01*
X014689Y017255D01*
D11*
X001454Y015094D02*
X001454Y014996D01*
X001454Y015094D02*
X001356Y015193D01*
X000864Y015193D01*
X000765Y015444D02*
X001159Y015444D01*
X001258Y015542D01*
X001258Y015739D01*
X001159Y015837D01*
X001159Y016088D02*
X001258Y016187D01*
X001258Y016383D01*
X001159Y016482D01*
X000962Y016482D01*
X000864Y016383D01*
X000864Y016187D01*
X000962Y016088D01*
X001159Y016088D01*
X000765Y015837D02*
X000667Y015739D01*
X000667Y015542D01*
X000765Y015444D01*
X000864Y014799D02*
X001159Y014799D01*
X001258Y014897D01*
X001258Y015193D01*
X000864Y014557D02*
X000864Y014459D01*
X001061Y014262D01*
X001258Y014262D02*
X000864Y014262D01*
X000962Y014011D02*
X001061Y014011D01*
X001061Y013617D01*
X001159Y013617D02*
X000962Y013617D01*
X000864Y013716D01*
X000864Y013913D01*
X000962Y014011D01*
X001258Y013913D02*
X001258Y013716D01*
X001159Y013617D01*
X000864Y013367D02*
X001258Y013170D01*
X000864Y012973D01*
X000667Y012722D02*
X000667Y012328D01*
X001258Y012328D01*
X001258Y012722D01*
X000962Y012525D02*
X000962Y012328D01*
X000962Y016733D02*
X001159Y016733D01*
X001258Y016831D01*
X001258Y017028D01*
X001159Y017126D01*
X000962Y017126D01*
X000864Y017028D01*
X000864Y016831D01*
X000962Y016733D01*
X001061Y017377D02*
X000864Y017673D01*
X001061Y017377D02*
X001258Y017673D01*
X001258Y017914D02*
X001258Y018013D01*
X001159Y018013D01*
X001159Y017914D01*
X001258Y017914D01*
X001159Y018237D02*
X001258Y018335D01*
X001258Y018532D01*
X001159Y018630D01*
X000962Y018630D01*
X000864Y018532D01*
X000864Y018335D01*
X000962Y018237D01*
X001159Y018237D01*
X001061Y018881D02*
X000864Y019078D01*
X000864Y019176D01*
X000962Y019418D02*
X001159Y019418D01*
X001258Y019517D01*
X001258Y019812D01*
X001356Y019812D02*
X000864Y019812D01*
X000864Y019517D01*
X000962Y019418D01*
X001454Y019615D02*
X001454Y019714D01*
X001356Y019812D01*
X001258Y020063D02*
X000667Y020457D01*
X000962Y020707D02*
X001159Y020707D01*
X001258Y020806D01*
X001258Y021003D01*
X001159Y021101D01*
X000962Y021101D01*
X000864Y021003D01*
X000864Y020806D01*
X000962Y020707D01*
X000864Y021352D02*
X000864Y021647D01*
X000962Y021746D01*
X001159Y021746D01*
X001258Y021647D01*
X001258Y021352D01*
X001454Y021352D02*
X000864Y021352D01*
X000962Y021997D02*
X000864Y022095D01*
X000864Y022292D01*
X000962Y022390D01*
X001061Y022390D01*
X001061Y021997D01*
X001159Y021997D02*
X000962Y021997D01*
X001159Y021997D02*
X001258Y022095D01*
X001258Y022292D01*
X001258Y022641D02*
X000864Y022641D01*
X000864Y022936D01*
X000962Y023035D01*
X001258Y023035D01*
X001258Y023286D02*
X001258Y023581D01*
X001159Y023679D01*
X001061Y023581D01*
X001061Y023384D01*
X000962Y023286D01*
X000864Y023384D01*
X000864Y023679D01*
X000962Y023930D02*
X001159Y023930D01*
X001258Y024029D01*
X001258Y024225D01*
X001159Y024324D01*
X000962Y024324D01*
X000864Y024225D01*
X000864Y024029D01*
X000962Y023930D01*
X000864Y024575D02*
X001159Y024575D01*
X001258Y024673D01*
X001258Y024968D01*
X000864Y024968D01*
X000864Y025219D02*
X001258Y025219D01*
X001061Y025219D02*
X000864Y025416D01*
X000864Y025515D01*
X000962Y025756D02*
X001159Y025756D01*
X001258Y025855D01*
X001258Y026150D01*
X001159Y026401D02*
X000962Y026401D01*
X000864Y026499D01*
X000864Y026696D01*
X000962Y026795D01*
X001061Y026795D01*
X001061Y026401D01*
X001159Y026401D02*
X001258Y026499D01*
X001258Y026696D01*
X000864Y026150D02*
X000864Y025855D01*
X000962Y025756D01*
X000864Y018881D02*
X001258Y018881D01*
X001258Y017377D02*
X000667Y017377D01*
D12*
X002667Y011839D02*
X002669Y011865D01*
X002675Y011891D01*
X002685Y011916D01*
X002698Y011939D01*
X002714Y011959D01*
X002734Y011977D01*
X002756Y011992D01*
X002779Y012004D01*
X002805Y012012D01*
X002831Y012016D01*
X002857Y012016D01*
X002883Y012012D01*
X002909Y012004D01*
X002933Y011992D01*
X002954Y011977D01*
X002974Y011959D01*
X002990Y011939D01*
X003003Y011916D01*
X003013Y011891D01*
X003019Y011865D01*
X003021Y011839D01*
X003019Y011813D01*
X003013Y011787D01*
X003003Y011762D01*
X002990Y011739D01*
X002974Y011719D01*
X002954Y011701D01*
X002932Y011686D01*
X002909Y011674D01*
X002883Y011666D01*
X002857Y011662D01*
X002831Y011662D01*
X002805Y011666D01*
X002779Y011674D01*
X002755Y011686D01*
X002734Y011701D01*
X002714Y011719D01*
X002698Y011739D01*
X002685Y011762D01*
X002675Y011787D01*
X002669Y011813D01*
X002667Y011839D01*
X002667Y010461D02*
X002669Y010487D01*
X002675Y010513D01*
X002685Y010538D01*
X002698Y010561D01*
X002714Y010581D01*
X002734Y010599D01*
X002756Y010614D01*
X002779Y010626D01*
X002805Y010634D01*
X002831Y010638D01*
X002857Y010638D01*
X002883Y010634D01*
X002909Y010626D01*
X002933Y010614D01*
X002954Y010599D01*
X002974Y010581D01*
X002990Y010561D01*
X003003Y010538D01*
X003013Y010513D01*
X003019Y010487D01*
X003021Y010461D01*
X003019Y010435D01*
X003013Y010409D01*
X003003Y010384D01*
X002990Y010361D01*
X002974Y010341D01*
X002954Y010323D01*
X002932Y010308D01*
X002909Y010296D01*
X002883Y010288D01*
X002857Y010284D01*
X002831Y010284D01*
X002805Y010288D01*
X002779Y010296D01*
X002755Y010308D01*
X002734Y010323D01*
X002714Y010341D01*
X002698Y010361D01*
X002685Y010384D01*
X002675Y010409D01*
X002669Y010435D01*
X002667Y010461D01*
X004178Y003000D02*
X004180Y003026D01*
X004186Y003052D01*
X004196Y003077D01*
X004209Y003100D01*
X004225Y003120D01*
X004245Y003138D01*
X004267Y003153D01*
X004290Y003165D01*
X004316Y003173D01*
X004342Y003177D01*
X004368Y003177D01*
X004394Y003173D01*
X004420Y003165D01*
X004444Y003153D01*
X004465Y003138D01*
X004485Y003120D01*
X004501Y003100D01*
X004514Y003077D01*
X004524Y003052D01*
X004530Y003026D01*
X004532Y003000D01*
X004530Y002974D01*
X004524Y002948D01*
X004514Y002923D01*
X004501Y002900D01*
X004485Y002880D01*
X004465Y002862D01*
X004443Y002847D01*
X004420Y002835D01*
X004394Y002827D01*
X004368Y002823D01*
X004342Y002823D01*
X004316Y002827D01*
X004290Y002835D01*
X004266Y002847D01*
X004245Y002862D01*
X004225Y002880D01*
X004209Y002900D01*
X004196Y002923D01*
X004186Y002948D01*
X004180Y002974D01*
X004178Y003000D01*
X005556Y003000D02*
X005558Y003026D01*
X005564Y003052D01*
X005574Y003077D01*
X005587Y003100D01*
X005603Y003120D01*
X005623Y003138D01*
X005645Y003153D01*
X005668Y003165D01*
X005694Y003173D01*
X005720Y003177D01*
X005746Y003177D01*
X005772Y003173D01*
X005798Y003165D01*
X005822Y003153D01*
X005843Y003138D01*
X005863Y003120D01*
X005879Y003100D01*
X005892Y003077D01*
X005902Y003052D01*
X005908Y003026D01*
X005910Y003000D01*
X005908Y002974D01*
X005902Y002948D01*
X005892Y002923D01*
X005879Y002900D01*
X005863Y002880D01*
X005843Y002862D01*
X005821Y002847D01*
X005798Y002835D01*
X005772Y002827D01*
X005746Y002823D01*
X005720Y002823D01*
X005694Y002827D01*
X005668Y002835D01*
X005644Y002847D01*
X005623Y002862D01*
X005603Y002880D01*
X005587Y002900D01*
X005574Y002923D01*
X005564Y002948D01*
X005558Y002974D01*
X005556Y003000D01*
X001114Y001750D02*
X001116Y001800D01*
X001122Y001850D01*
X001132Y001899D01*
X001146Y001947D01*
X001163Y001994D01*
X001184Y002039D01*
X001209Y002083D01*
X001237Y002124D01*
X001269Y002163D01*
X001303Y002200D01*
X001340Y002234D01*
X001380Y002264D01*
X001422Y002291D01*
X001466Y002315D01*
X001512Y002336D01*
X001559Y002352D01*
X001607Y002365D01*
X001657Y002374D01*
X001706Y002379D01*
X001757Y002380D01*
X001807Y002377D01*
X001856Y002370D01*
X001905Y002359D01*
X001953Y002344D01*
X001999Y002326D01*
X002044Y002304D01*
X002087Y002278D01*
X002128Y002249D01*
X002167Y002217D01*
X002203Y002182D01*
X002235Y002144D01*
X002265Y002104D01*
X002292Y002061D01*
X002315Y002017D01*
X002334Y001971D01*
X002350Y001923D01*
X002362Y001874D01*
X002370Y001825D01*
X002374Y001775D01*
X002374Y001725D01*
X002370Y001675D01*
X002362Y001626D01*
X002350Y001577D01*
X002334Y001529D01*
X002315Y001483D01*
X002292Y001439D01*
X002265Y001396D01*
X002235Y001356D01*
X002203Y001318D01*
X002167Y001283D01*
X002128Y001251D01*
X002087Y001222D01*
X002044Y001196D01*
X001999Y001174D01*
X001953Y001156D01*
X001905Y001141D01*
X001856Y001130D01*
X001807Y001123D01*
X001757Y001120D01*
X001706Y001121D01*
X001657Y001126D01*
X001607Y001135D01*
X001559Y001148D01*
X001512Y001164D01*
X001466Y001185D01*
X001422Y001209D01*
X001380Y001236D01*
X001340Y001266D01*
X001303Y001300D01*
X001269Y001337D01*
X001237Y001376D01*
X001209Y001417D01*
X001184Y001461D01*
X001163Y001506D01*
X001146Y001553D01*
X001132Y001601D01*
X001122Y001650D01*
X001116Y001700D01*
X001114Y001750D01*
X010528Y003000D02*
X010530Y003026D01*
X010536Y003052D01*
X010546Y003077D01*
X010559Y003100D01*
X010575Y003120D01*
X010595Y003138D01*
X010617Y003153D01*
X010640Y003165D01*
X010666Y003173D01*
X010692Y003177D01*
X010718Y003177D01*
X010744Y003173D01*
X010770Y003165D01*
X010794Y003153D01*
X010815Y003138D01*
X010835Y003120D01*
X010851Y003100D01*
X010864Y003077D01*
X010874Y003052D01*
X010880Y003026D01*
X010882Y003000D01*
X010880Y002974D01*
X010874Y002948D01*
X010864Y002923D01*
X010851Y002900D01*
X010835Y002880D01*
X010815Y002862D01*
X010793Y002847D01*
X010770Y002835D01*
X010744Y002827D01*
X010718Y002823D01*
X010692Y002823D01*
X010666Y002827D01*
X010640Y002835D01*
X010616Y002847D01*
X010595Y002862D01*
X010575Y002880D01*
X010559Y002900D01*
X010546Y002923D01*
X010536Y002948D01*
X010530Y002974D01*
X010528Y003000D01*
X011906Y003000D02*
X011908Y003026D01*
X011914Y003052D01*
X011924Y003077D01*
X011937Y003100D01*
X011953Y003120D01*
X011973Y003138D01*
X011995Y003153D01*
X012018Y003165D01*
X012044Y003173D01*
X012070Y003177D01*
X012096Y003177D01*
X012122Y003173D01*
X012148Y003165D01*
X012172Y003153D01*
X012193Y003138D01*
X012213Y003120D01*
X012229Y003100D01*
X012242Y003077D01*
X012252Y003052D01*
X012258Y003026D01*
X012260Y003000D01*
X012258Y002974D01*
X012252Y002948D01*
X012242Y002923D01*
X012229Y002900D01*
X012213Y002880D01*
X012193Y002862D01*
X012171Y002847D01*
X012148Y002835D01*
X012122Y002827D01*
X012096Y002823D01*
X012070Y002823D01*
X012044Y002827D01*
X012018Y002835D01*
X011994Y002847D01*
X011973Y002862D01*
X011953Y002880D01*
X011937Y002900D01*
X011924Y002923D01*
X011914Y002948D01*
X011908Y002974D01*
X011906Y003000D01*
X016878Y003000D02*
X016880Y003026D01*
X016886Y003052D01*
X016896Y003077D01*
X016909Y003100D01*
X016925Y003120D01*
X016945Y003138D01*
X016967Y003153D01*
X016990Y003165D01*
X017016Y003173D01*
X017042Y003177D01*
X017068Y003177D01*
X017094Y003173D01*
X017120Y003165D01*
X017144Y003153D01*
X017165Y003138D01*
X017185Y003120D01*
X017201Y003100D01*
X017214Y003077D01*
X017224Y003052D01*
X017230Y003026D01*
X017232Y003000D01*
X017230Y002974D01*
X017224Y002948D01*
X017214Y002923D01*
X017201Y002900D01*
X017185Y002880D01*
X017165Y002862D01*
X017143Y002847D01*
X017120Y002835D01*
X017094Y002827D01*
X017068Y002823D01*
X017042Y002823D01*
X017016Y002827D01*
X016990Y002835D01*
X016966Y002847D01*
X016945Y002862D01*
X016925Y002880D01*
X016909Y002900D01*
X016896Y002923D01*
X016886Y002948D01*
X016880Y002974D01*
X016878Y003000D01*
X018256Y003000D02*
X018258Y003026D01*
X018264Y003052D01*
X018274Y003077D01*
X018287Y003100D01*
X018303Y003120D01*
X018323Y003138D01*
X018345Y003153D01*
X018368Y003165D01*
X018394Y003173D01*
X018420Y003177D01*
X018446Y003177D01*
X018472Y003173D01*
X018498Y003165D01*
X018522Y003153D01*
X018543Y003138D01*
X018563Y003120D01*
X018579Y003100D01*
X018592Y003077D01*
X018602Y003052D01*
X018608Y003026D01*
X018610Y003000D01*
X018608Y002974D01*
X018602Y002948D01*
X018592Y002923D01*
X018579Y002900D01*
X018563Y002880D01*
X018543Y002862D01*
X018521Y002847D01*
X018498Y002835D01*
X018472Y002827D01*
X018446Y002823D01*
X018420Y002823D01*
X018394Y002827D01*
X018368Y002835D01*
X018344Y002847D01*
X018323Y002862D01*
X018303Y002880D01*
X018287Y002900D01*
X018274Y002923D01*
X018264Y002948D01*
X018258Y002974D01*
X018256Y003000D01*
X023228Y003000D02*
X023230Y003026D01*
X023236Y003052D01*
X023246Y003077D01*
X023259Y003100D01*
X023275Y003120D01*
X023295Y003138D01*
X023317Y003153D01*
X023340Y003165D01*
X023366Y003173D01*
X023392Y003177D01*
X023418Y003177D01*
X023444Y003173D01*
X023470Y003165D01*
X023494Y003153D01*
X023515Y003138D01*
X023535Y003120D01*
X023551Y003100D01*
X023564Y003077D01*
X023574Y003052D01*
X023580Y003026D01*
X023582Y003000D01*
X023580Y002974D01*
X023574Y002948D01*
X023564Y002923D01*
X023551Y002900D01*
X023535Y002880D01*
X023515Y002862D01*
X023493Y002847D01*
X023470Y002835D01*
X023444Y002827D01*
X023418Y002823D01*
X023392Y002823D01*
X023366Y002827D01*
X023340Y002835D01*
X023316Y002847D01*
X023295Y002862D01*
X023275Y002880D01*
X023259Y002900D01*
X023246Y002923D01*
X023236Y002948D01*
X023230Y002974D01*
X023228Y003000D01*
X024606Y003000D02*
X024608Y003026D01*
X024614Y003052D01*
X024624Y003077D01*
X024637Y003100D01*
X024653Y003120D01*
X024673Y003138D01*
X024695Y003153D01*
X024718Y003165D01*
X024744Y003173D01*
X024770Y003177D01*
X024796Y003177D01*
X024822Y003173D01*
X024848Y003165D01*
X024872Y003153D01*
X024893Y003138D01*
X024913Y003120D01*
X024929Y003100D01*
X024942Y003077D01*
X024952Y003052D01*
X024958Y003026D01*
X024960Y003000D01*
X024958Y002974D01*
X024952Y002948D01*
X024942Y002923D01*
X024929Y002900D01*
X024913Y002880D01*
X024893Y002862D01*
X024871Y002847D01*
X024848Y002835D01*
X024822Y002827D01*
X024796Y002823D01*
X024770Y002823D01*
X024744Y002827D01*
X024718Y002835D01*
X024694Y002847D01*
X024673Y002862D01*
X024653Y002880D01*
X024637Y002900D01*
X024624Y002923D01*
X024614Y002948D01*
X024608Y002974D01*
X024606Y003000D01*
X028774Y012290D02*
X028776Y012340D01*
X028782Y012390D01*
X028792Y012439D01*
X028806Y012487D01*
X028823Y012534D01*
X028844Y012579D01*
X028869Y012623D01*
X028897Y012664D01*
X028929Y012703D01*
X028963Y012740D01*
X029000Y012774D01*
X029040Y012804D01*
X029082Y012831D01*
X029126Y012855D01*
X029172Y012876D01*
X029219Y012892D01*
X029267Y012905D01*
X029317Y012914D01*
X029366Y012919D01*
X029417Y012920D01*
X029467Y012917D01*
X029516Y012910D01*
X029565Y012899D01*
X029613Y012884D01*
X029659Y012866D01*
X029704Y012844D01*
X029747Y012818D01*
X029788Y012789D01*
X029827Y012757D01*
X029863Y012722D01*
X029895Y012684D01*
X029925Y012644D01*
X029952Y012601D01*
X029975Y012557D01*
X029994Y012511D01*
X030010Y012463D01*
X030022Y012414D01*
X030030Y012365D01*
X030034Y012315D01*
X030034Y012265D01*
X030030Y012215D01*
X030022Y012166D01*
X030010Y012117D01*
X029994Y012069D01*
X029975Y012023D01*
X029952Y011979D01*
X029925Y011936D01*
X029895Y011896D01*
X029863Y011858D01*
X029827Y011823D01*
X029788Y011791D01*
X029747Y011762D01*
X029704Y011736D01*
X029659Y011714D01*
X029613Y011696D01*
X029565Y011681D01*
X029516Y011670D01*
X029467Y011663D01*
X029417Y011660D01*
X029366Y011661D01*
X029317Y011666D01*
X029267Y011675D01*
X029219Y011688D01*
X029172Y011704D01*
X029126Y011725D01*
X029082Y011749D01*
X029040Y011776D01*
X029000Y011806D01*
X028963Y011840D01*
X028929Y011877D01*
X028897Y011916D01*
X028869Y011957D01*
X028844Y012001D01*
X028823Y012046D01*
X028806Y012093D01*
X028792Y012141D01*
X028782Y012190D01*
X028776Y012240D01*
X028774Y012290D01*
X038264Y001750D02*
X038266Y001800D01*
X038272Y001850D01*
X038282Y001899D01*
X038296Y001947D01*
X038313Y001994D01*
X038334Y002039D01*
X038359Y002083D01*
X038387Y002124D01*
X038419Y002163D01*
X038453Y002200D01*
X038490Y002234D01*
X038530Y002264D01*
X038572Y002291D01*
X038616Y002315D01*
X038662Y002336D01*
X038709Y002352D01*
X038757Y002365D01*
X038807Y002374D01*
X038856Y002379D01*
X038907Y002380D01*
X038957Y002377D01*
X039006Y002370D01*
X039055Y002359D01*
X039103Y002344D01*
X039149Y002326D01*
X039194Y002304D01*
X039237Y002278D01*
X039278Y002249D01*
X039317Y002217D01*
X039353Y002182D01*
X039385Y002144D01*
X039415Y002104D01*
X039442Y002061D01*
X039465Y002017D01*
X039484Y001971D01*
X039500Y001923D01*
X039512Y001874D01*
X039520Y001825D01*
X039524Y001775D01*
X039524Y001725D01*
X039520Y001675D01*
X039512Y001626D01*
X039500Y001577D01*
X039484Y001529D01*
X039465Y001483D01*
X039442Y001439D01*
X039415Y001396D01*
X039385Y001356D01*
X039353Y001318D01*
X039317Y001283D01*
X039278Y001251D01*
X039237Y001222D01*
X039194Y001196D01*
X039149Y001174D01*
X039103Y001156D01*
X039055Y001141D01*
X039006Y001130D01*
X038957Y001123D01*
X038907Y001120D01*
X038856Y001121D01*
X038807Y001126D01*
X038757Y001135D01*
X038709Y001148D01*
X038662Y001164D01*
X038616Y001185D01*
X038572Y001209D01*
X038530Y001236D01*
X038490Y001266D01*
X038453Y001300D01*
X038419Y001337D01*
X038387Y001376D01*
X038359Y001417D01*
X038334Y001461D01*
X038313Y001506D01*
X038296Y001553D01*
X038282Y001601D01*
X038272Y001650D01*
X038266Y001700D01*
X038264Y001750D01*
X007384Y022430D02*
X007386Y022480D01*
X007392Y022530D01*
X007402Y022579D01*
X007416Y022627D01*
X007433Y022674D01*
X007454Y022719D01*
X007479Y022763D01*
X007507Y022804D01*
X007539Y022843D01*
X007573Y022880D01*
X007610Y022914D01*
X007650Y022944D01*
X007692Y022971D01*
X007736Y022995D01*
X007782Y023016D01*
X007829Y023032D01*
X007877Y023045D01*
X007927Y023054D01*
X007976Y023059D01*
X008027Y023060D01*
X008077Y023057D01*
X008126Y023050D01*
X008175Y023039D01*
X008223Y023024D01*
X008269Y023006D01*
X008314Y022984D01*
X008357Y022958D01*
X008398Y022929D01*
X008437Y022897D01*
X008473Y022862D01*
X008505Y022824D01*
X008535Y022784D01*
X008562Y022741D01*
X008585Y022697D01*
X008604Y022651D01*
X008620Y022603D01*
X008632Y022554D01*
X008640Y022505D01*
X008644Y022455D01*
X008644Y022405D01*
X008640Y022355D01*
X008632Y022306D01*
X008620Y022257D01*
X008604Y022209D01*
X008585Y022163D01*
X008562Y022119D01*
X008535Y022076D01*
X008505Y022036D01*
X008473Y021998D01*
X008437Y021963D01*
X008398Y021931D01*
X008357Y021902D01*
X008314Y021876D01*
X008269Y021854D01*
X008223Y021836D01*
X008175Y021821D01*
X008126Y021810D01*
X008077Y021803D01*
X008027Y021800D01*
X007976Y021801D01*
X007927Y021806D01*
X007877Y021815D01*
X007829Y021828D01*
X007782Y021844D01*
X007736Y021865D01*
X007692Y021889D01*
X007650Y021916D01*
X007610Y021946D01*
X007573Y021980D01*
X007539Y022017D01*
X007507Y022056D01*
X007479Y022097D01*
X007454Y022141D01*
X007433Y022186D01*
X007416Y022233D01*
X007402Y022281D01*
X007392Y022330D01*
X007386Y022380D01*
X007384Y022430D01*
X001114Y032700D02*
X001116Y032750D01*
X001122Y032800D01*
X001132Y032849D01*
X001146Y032897D01*
X001163Y032944D01*
X001184Y032989D01*
X001209Y033033D01*
X001237Y033074D01*
X001269Y033113D01*
X001303Y033150D01*
X001340Y033184D01*
X001380Y033214D01*
X001422Y033241D01*
X001466Y033265D01*
X001512Y033286D01*
X001559Y033302D01*
X001607Y033315D01*
X001657Y033324D01*
X001706Y033329D01*
X001757Y033330D01*
X001807Y033327D01*
X001856Y033320D01*
X001905Y033309D01*
X001953Y033294D01*
X001999Y033276D01*
X002044Y033254D01*
X002087Y033228D01*
X002128Y033199D01*
X002167Y033167D01*
X002203Y033132D01*
X002235Y033094D01*
X002265Y033054D01*
X002292Y033011D01*
X002315Y032967D01*
X002334Y032921D01*
X002350Y032873D01*
X002362Y032824D01*
X002370Y032775D01*
X002374Y032725D01*
X002374Y032675D01*
X002370Y032625D01*
X002362Y032576D01*
X002350Y032527D01*
X002334Y032479D01*
X002315Y032433D01*
X002292Y032389D01*
X002265Y032346D01*
X002235Y032306D01*
X002203Y032268D01*
X002167Y032233D01*
X002128Y032201D01*
X002087Y032172D01*
X002044Y032146D01*
X001999Y032124D01*
X001953Y032106D01*
X001905Y032091D01*
X001856Y032080D01*
X001807Y032073D01*
X001757Y032070D01*
X001706Y032071D01*
X001657Y032076D01*
X001607Y032085D01*
X001559Y032098D01*
X001512Y032114D01*
X001466Y032135D01*
X001422Y032159D01*
X001380Y032186D01*
X001340Y032216D01*
X001303Y032250D01*
X001269Y032287D01*
X001237Y032326D01*
X001209Y032367D01*
X001184Y032411D01*
X001163Y032456D01*
X001146Y032503D01*
X001132Y032551D01*
X001122Y032600D01*
X001116Y032650D01*
X001114Y032700D01*
X038264Y032700D02*
X038266Y032750D01*
X038272Y032800D01*
X038282Y032849D01*
X038296Y032897D01*
X038313Y032944D01*
X038334Y032989D01*
X038359Y033033D01*
X038387Y033074D01*
X038419Y033113D01*
X038453Y033150D01*
X038490Y033184D01*
X038530Y033214D01*
X038572Y033241D01*
X038616Y033265D01*
X038662Y033286D01*
X038709Y033302D01*
X038757Y033315D01*
X038807Y033324D01*
X038856Y033329D01*
X038907Y033330D01*
X038957Y033327D01*
X039006Y033320D01*
X039055Y033309D01*
X039103Y033294D01*
X039149Y033276D01*
X039194Y033254D01*
X039237Y033228D01*
X039278Y033199D01*
X039317Y033167D01*
X039353Y033132D01*
X039385Y033094D01*
X039415Y033054D01*
X039442Y033011D01*
X039465Y032967D01*
X039484Y032921D01*
X039500Y032873D01*
X039512Y032824D01*
X039520Y032775D01*
X039524Y032725D01*
X039524Y032675D01*
X039520Y032625D01*
X039512Y032576D01*
X039500Y032527D01*
X039484Y032479D01*
X039465Y032433D01*
X039442Y032389D01*
X039415Y032346D01*
X039385Y032306D01*
X039353Y032268D01*
X039317Y032233D01*
X039278Y032201D01*
X039237Y032172D01*
X039194Y032146D01*
X039149Y032124D01*
X039103Y032106D01*
X039055Y032091D01*
X039006Y032080D01*
X038957Y032073D01*
X038907Y032070D01*
X038856Y032071D01*
X038807Y032076D01*
X038757Y032085D01*
X038709Y032098D01*
X038662Y032114D01*
X038616Y032135D01*
X038572Y032159D01*
X038530Y032186D01*
X038490Y032216D01*
X038453Y032250D01*
X038419Y032287D01*
X038387Y032326D01*
X038359Y032367D01*
X038334Y032411D01*
X038313Y032456D01*
X038296Y032503D01*
X038282Y032551D01*
X038272Y032600D01*
X038266Y032650D01*
X038264Y032700D01*
D13*
X036734Y028662D02*
X036514Y028662D01*
X036624Y028552D01*
X036624Y028699D01*
X036624Y028478D02*
X036624Y028331D01*
X036514Y028441D01*
X036734Y028441D01*
X036734Y028257D02*
X036661Y028183D01*
X036661Y028220D02*
X036661Y028110D01*
X036734Y028110D02*
X036514Y028110D01*
X036514Y028220D01*
X036550Y028257D01*
X036624Y028257D01*
X036661Y028220D01*
X035584Y027931D02*
X035547Y027931D01*
X035400Y028078D01*
X035364Y028078D01*
X035364Y027931D01*
X035400Y027857D02*
X035474Y027857D01*
X035511Y027820D01*
X035511Y027710D01*
X035584Y027710D02*
X035364Y027710D01*
X035364Y027820D01*
X035400Y027857D01*
X035511Y027783D02*
X035584Y027857D01*
X037804Y027636D02*
X037804Y027489D01*
X037914Y027489D01*
X037877Y027562D01*
X037877Y027599D01*
X037914Y027636D01*
X037987Y027636D01*
X038024Y027599D01*
X038024Y027526D01*
X037987Y027489D01*
X037914Y027415D02*
X037914Y027268D01*
X037804Y027378D01*
X038024Y027378D01*
X038024Y027194D02*
X037951Y027120D01*
X037951Y027157D02*
X037951Y027047D01*
X038024Y027047D02*
X037804Y027047D01*
X037804Y027157D01*
X037840Y027194D01*
X037914Y027194D01*
X037951Y027157D01*
X039154Y027107D02*
X039190Y027144D01*
X039264Y027144D01*
X039301Y027107D01*
X039301Y026997D01*
X039374Y026997D02*
X039154Y026997D01*
X039154Y027107D01*
X039190Y027218D02*
X039154Y027255D01*
X039154Y027328D01*
X039190Y027365D01*
X039227Y027365D01*
X039264Y027328D01*
X039301Y027365D01*
X039337Y027365D01*
X039374Y027328D01*
X039374Y027255D01*
X039337Y027218D01*
X039374Y027144D02*
X039301Y027070D01*
X039264Y027291D02*
X039264Y027328D01*
X039227Y027439D02*
X039264Y027476D01*
X039264Y027586D01*
X039337Y027586D02*
X039190Y027586D01*
X039154Y027549D01*
X039154Y027476D01*
X039190Y027439D01*
X039227Y027439D01*
X039337Y027439D02*
X039374Y027476D01*
X039374Y027549D01*
X039337Y027586D01*
X031330Y027807D02*
X031330Y027843D01*
X031293Y027880D01*
X031183Y027880D01*
X031183Y027807D01*
X031220Y027770D01*
X031293Y027770D01*
X031330Y027807D01*
X031256Y027953D02*
X031183Y027880D01*
X031109Y027880D02*
X031072Y027843D01*
X030962Y027843D01*
X030962Y027770D02*
X030962Y027990D01*
X031072Y027990D01*
X031109Y027953D01*
X031109Y027880D01*
X031035Y027843D02*
X031109Y027770D01*
X031256Y027953D02*
X031330Y027990D01*
X016914Y020370D02*
X016914Y017670D01*
X016614Y017670D02*
X016614Y020370D01*
X016613Y020408D01*
X016608Y020445D01*
X016601Y020482D01*
X016592Y020518D01*
X016579Y020554D01*
X016564Y020588D01*
X015664Y021031D02*
X015619Y020999D01*
X015577Y020963D01*
X015537Y020924D01*
X015500Y020882D01*
X015466Y020839D01*
X015435Y020792D01*
X015407Y020744D01*
X015383Y020694D01*
X015362Y020643D01*
X015345Y020590D01*
X015331Y020536D01*
X015322Y020481D01*
X015316Y020426D01*
X015314Y020370D01*
X015314Y017670D01*
X015614Y017670D02*
X015614Y020370D01*
X016564Y021031D02*
X016609Y020999D01*
X016651Y020963D01*
X016691Y020924D01*
X016728Y020883D01*
X016762Y020839D01*
X016793Y020792D01*
X016821Y020744D01*
X016845Y020694D01*
X016866Y020643D01*
X016883Y020590D01*
X016897Y020536D01*
X016906Y020481D01*
X016912Y020426D01*
X016914Y020370D01*
X015664Y020588D02*
X015649Y020554D01*
X015636Y020518D01*
X015627Y020482D01*
X015620Y020445D01*
X015615Y020408D01*
X015614Y020370D01*
X016114Y019420D02*
X016114Y019270D01*
X016114Y018770D02*
X016114Y018620D01*
X015314Y017670D02*
X015316Y017614D01*
X015322Y017559D01*
X015331Y017504D01*
X015345Y017450D01*
X015362Y017397D01*
X015383Y017346D01*
X015407Y017296D01*
X015435Y017248D01*
X015466Y017201D01*
X015500Y017157D01*
X015537Y017116D01*
X015577Y017077D01*
X015619Y017041D01*
X015664Y017009D01*
X016564Y017009D02*
X016609Y017041D01*
X016651Y017077D01*
X016691Y017116D01*
X016728Y017158D01*
X016762Y017201D01*
X016793Y017248D01*
X016821Y017296D01*
X016845Y017346D01*
X016866Y017397D01*
X016883Y017450D01*
X016897Y017504D01*
X016906Y017559D01*
X016912Y017614D01*
X016914Y017670D01*
X016614Y017670D02*
X016613Y017632D01*
X016608Y017595D01*
X016601Y017558D01*
X016592Y017522D01*
X016579Y017486D01*
X016564Y017452D01*
X015664Y017452D02*
X015649Y017486D01*
X015636Y017522D01*
X015627Y017558D01*
X015620Y017595D01*
X015615Y017632D01*
X015614Y017670D01*
X009130Y014393D02*
X009130Y014357D01*
X009093Y014320D01*
X009130Y014283D01*
X009130Y014247D01*
X009093Y014210D01*
X009020Y014210D01*
X008983Y014247D01*
X008909Y014247D02*
X008872Y014210D01*
X008799Y014210D01*
X008762Y014247D01*
X008688Y014247D02*
X008651Y014210D01*
X008578Y014210D01*
X008541Y014247D01*
X008541Y014393D01*
X008578Y014430D01*
X008651Y014430D01*
X008688Y014393D01*
X008762Y014393D02*
X008799Y014430D01*
X008872Y014430D01*
X008909Y014393D01*
X008909Y014357D01*
X008872Y014320D01*
X008909Y014283D01*
X008909Y014247D01*
X008872Y014320D02*
X008835Y014320D01*
X008983Y014393D02*
X009020Y014430D01*
X009093Y014430D01*
X009130Y014393D01*
X009093Y014320D02*
X009056Y014320D01*
X007587Y010236D02*
X007440Y010236D01*
X007404Y010199D01*
X007404Y010126D01*
X007440Y010089D01*
X007477Y010089D01*
X007514Y010126D01*
X007514Y010236D01*
X007587Y010236D02*
X007624Y010199D01*
X007624Y010126D01*
X007587Y010089D01*
X007624Y010015D02*
X007624Y009868D01*
X007477Y010015D01*
X007440Y010015D01*
X007404Y009978D01*
X007404Y009905D01*
X007440Y009868D01*
X007440Y009794D02*
X007404Y009757D01*
X007404Y009684D01*
X007440Y009647D01*
X007587Y009647D01*
X007624Y009684D01*
X007624Y009757D01*
X007587Y009794D01*
X007556Y008630D02*
X007483Y008630D01*
X007446Y008593D01*
X007372Y008593D02*
X007372Y008557D01*
X007335Y008520D01*
X007372Y008483D01*
X007372Y008447D01*
X007335Y008410D01*
X007262Y008410D01*
X007225Y008447D01*
X007151Y008447D02*
X007114Y008410D01*
X007041Y008410D01*
X007004Y008447D01*
X007004Y008593D01*
X007041Y008630D01*
X007114Y008630D01*
X007151Y008593D01*
X007225Y008593D02*
X007262Y008630D01*
X007335Y008630D01*
X007372Y008593D01*
X007335Y008520D02*
X007298Y008520D01*
X007446Y008410D02*
X007593Y008557D01*
X007593Y008593D01*
X007556Y008630D01*
X007593Y008410D02*
X007446Y008410D01*
X008254Y008043D02*
X008254Y007897D01*
X008291Y007860D01*
X008364Y007860D01*
X008401Y007897D01*
X008475Y007897D02*
X008512Y007860D01*
X008585Y007860D01*
X008622Y007897D01*
X008622Y007933D01*
X008585Y007970D01*
X008548Y007970D01*
X008585Y007970D02*
X008622Y008007D01*
X008622Y008043D01*
X008585Y008080D01*
X008512Y008080D01*
X008475Y008043D01*
X008401Y008043D02*
X008364Y008080D01*
X008291Y008080D01*
X008254Y008043D01*
X008696Y008007D02*
X008769Y008080D01*
X008769Y007860D01*
X008696Y007860D02*
X008843Y007860D01*
X008841Y009710D02*
X008914Y009710D01*
X008951Y009747D01*
X009025Y009747D02*
X009062Y009710D01*
X009135Y009710D01*
X009172Y009747D01*
X009172Y009783D01*
X009135Y009820D01*
X009098Y009820D01*
X009135Y009820D02*
X009172Y009857D01*
X009172Y009893D01*
X009135Y009930D01*
X009062Y009930D01*
X009025Y009893D01*
X008951Y009893D02*
X008914Y009930D01*
X008841Y009930D01*
X008804Y009893D01*
X008804Y009747D01*
X008841Y009710D01*
X009246Y009747D02*
X009393Y009893D01*
X009393Y009747D01*
X009356Y009710D01*
X009283Y009710D01*
X009246Y009747D01*
X009246Y009893D01*
X009283Y009930D01*
X009356Y009930D01*
X009393Y009893D01*
X005080Y007590D02*
X004933Y007590D01*
X004933Y007480D01*
X005006Y007517D01*
X005043Y007517D01*
X005080Y007480D01*
X005080Y007407D01*
X005043Y007370D01*
X004970Y007370D01*
X004933Y007407D01*
X004859Y007407D02*
X004822Y007370D01*
X004749Y007370D01*
X004712Y007407D01*
X004638Y007370D02*
X004564Y007443D01*
X004601Y007443D02*
X004491Y007443D01*
X004491Y007370D02*
X004491Y007590D01*
X004601Y007590D01*
X004638Y007553D01*
X004638Y007480D01*
X004601Y007443D01*
X004712Y007553D02*
X004749Y007590D01*
X004822Y007590D01*
X004859Y007553D01*
X004859Y007517D01*
X004822Y007480D01*
X004859Y007443D01*
X004859Y007407D01*
X004822Y007480D02*
X004785Y007480D01*
X004722Y006840D02*
X004759Y006803D01*
X004759Y006767D01*
X004722Y006730D01*
X004759Y006693D01*
X004759Y006657D01*
X004722Y006620D01*
X004649Y006620D01*
X004612Y006657D01*
X004538Y006620D02*
X004464Y006693D01*
X004501Y006693D02*
X004391Y006693D01*
X004391Y006620D02*
X004391Y006840D01*
X004501Y006840D01*
X004538Y006803D01*
X004538Y006730D01*
X004501Y006693D01*
X004612Y006803D02*
X004649Y006840D01*
X004722Y006840D01*
X004722Y006730D02*
X004685Y006730D01*
X004833Y006730D02*
X004943Y006730D01*
X004980Y006693D01*
X004980Y006657D01*
X004943Y006620D01*
X004870Y006620D01*
X004833Y006657D01*
X004833Y006730D01*
X004906Y006803D01*
X004980Y006840D01*
X004841Y029222D02*
X004843Y029241D01*
X004848Y029258D01*
X004857Y029275D01*
X004870Y029289D01*
X004884Y029300D01*
X004901Y029308D01*
X004919Y029313D01*
X004938Y029314D01*
X004956Y029311D01*
X004974Y029305D01*
X004989Y029295D01*
X005003Y029282D01*
X005013Y029267D01*
X005021Y029250D01*
X005025Y029231D01*
X005025Y029213D01*
X005021Y029194D01*
X005013Y029177D01*
X005003Y029162D01*
X004989Y029149D01*
X004974Y029139D01*
X004956Y029133D01*
X004938Y029130D01*
X004919Y029131D01*
X004901Y029136D01*
X004884Y029144D01*
X004870Y029155D01*
X004857Y029169D01*
X004848Y029186D01*
X004843Y029203D01*
X004841Y029222D01*
X004985Y033510D02*
X004948Y033547D01*
X004985Y033510D02*
X005058Y033510D01*
X005095Y033547D01*
X005095Y033583D01*
X005058Y033620D01*
X005021Y033620D01*
X005058Y033620D02*
X005095Y033657D01*
X005095Y033693D01*
X005058Y033730D01*
X004985Y033730D01*
X004948Y033693D01*
X005169Y033547D02*
X005206Y033547D01*
X005206Y033510D01*
X005169Y033510D01*
X005169Y033547D01*
X005280Y033547D02*
X005316Y033510D01*
X005390Y033510D01*
X005426Y033547D01*
X005426Y033620D01*
X005390Y033657D01*
X005353Y033657D01*
X005280Y033620D01*
X005280Y033730D01*
X005426Y033730D01*
X005501Y033657D02*
X005537Y033657D01*
X005574Y033620D01*
X005611Y033657D01*
X005647Y033620D01*
X005647Y033510D01*
X005574Y033510D02*
X005574Y033620D01*
X005501Y033657D02*
X005501Y033510D01*
X005722Y033510D02*
X005722Y033657D01*
X005758Y033657D01*
X005795Y033620D01*
X005832Y033657D01*
X005868Y033620D01*
X005868Y033510D01*
X005795Y033510D02*
X005795Y033620D01*
X006164Y033657D02*
X006200Y033620D01*
X006310Y033620D01*
X006310Y033547D02*
X006310Y033693D01*
X006274Y033730D01*
X006200Y033730D01*
X006164Y033693D01*
X006164Y033657D01*
X006164Y033547D02*
X006200Y033510D01*
X006274Y033510D01*
X006310Y033547D01*
X006385Y033547D02*
X006531Y033693D01*
X006531Y033547D01*
X006495Y033510D01*
X006421Y033510D01*
X006385Y033547D01*
X006385Y033693D01*
X006421Y033730D01*
X006495Y033730D01*
X006531Y033693D01*
X006606Y033693D02*
X006642Y033730D01*
X006679Y033730D01*
X006716Y033693D01*
X006716Y033657D01*
X006679Y033620D01*
X006642Y033620D01*
X006606Y033657D01*
X006606Y033693D01*
X007011Y033547D02*
X007047Y033583D01*
X007157Y033583D01*
X007157Y033620D02*
X007157Y033510D01*
X007047Y033510D01*
X007011Y033547D01*
X007047Y033657D02*
X007121Y033657D01*
X007157Y033620D01*
X007232Y033657D02*
X007342Y033657D01*
X007378Y033620D01*
X007378Y033510D01*
X007453Y033547D02*
X007489Y033510D01*
X007599Y033510D01*
X007599Y033473D02*
X007599Y033657D01*
X007489Y033657D01*
X007453Y033620D01*
X007453Y033547D01*
X007526Y033437D02*
X007563Y033437D01*
X007599Y033473D01*
X007674Y033510D02*
X007747Y033510D01*
X007710Y033510D02*
X007710Y033730D01*
X007674Y033730D01*
X007821Y033620D02*
X007858Y033657D01*
X007931Y033657D01*
X007968Y033620D01*
X007968Y033583D01*
X007821Y033583D01*
X007821Y033547D02*
X007821Y033620D01*
X007821Y033547D02*
X007858Y033510D01*
X007931Y033510D01*
X008263Y033437D02*
X008300Y033437D01*
X008336Y033473D01*
X008336Y033657D01*
X008336Y033730D02*
X008336Y033767D01*
X008447Y033657D02*
X008520Y033657D01*
X008557Y033620D01*
X008557Y033510D01*
X008447Y033510D01*
X008410Y033547D01*
X008447Y033583D01*
X008557Y033583D01*
X008631Y033547D02*
X008668Y033510D01*
X008778Y033510D01*
X008852Y033510D02*
X008852Y033730D01*
X008778Y033657D02*
X008668Y033657D01*
X008631Y033620D01*
X008631Y033547D01*
X008852Y033583D02*
X008962Y033657D01*
X008852Y033583D02*
X008962Y033510D01*
X007232Y033510D02*
X007232Y033657D01*
X004653Y033620D02*
X004653Y033510D01*
X004653Y033620D02*
X004616Y033657D01*
X004543Y033657D01*
X004506Y033620D01*
X004432Y033657D02*
X004359Y033657D01*
X004395Y033693D02*
X004395Y033547D01*
X004432Y033510D01*
X004506Y033510D02*
X004506Y033730D01*
X004248Y033730D02*
X004248Y033767D01*
X004248Y033657D02*
X004248Y033510D01*
X004211Y033510D02*
X004285Y033510D01*
X004248Y033657D02*
X004211Y033657D01*
X004137Y033657D02*
X004137Y033547D01*
X004101Y033510D01*
X004064Y033547D01*
X004027Y033510D01*
X003990Y033547D01*
X003990Y033657D01*
X003695Y033620D02*
X003695Y033583D01*
X003549Y033583D01*
X003549Y033547D02*
X003549Y033620D01*
X003585Y033657D01*
X003659Y033657D01*
X003695Y033620D01*
X003659Y033510D02*
X003585Y033510D01*
X003549Y033547D01*
X003475Y033510D02*
X003401Y033510D01*
X003438Y033510D02*
X003438Y033730D01*
X003401Y033730D01*
X003327Y033620D02*
X003290Y033657D01*
X003180Y033657D01*
X003180Y033730D02*
X003180Y033510D01*
X003290Y033510D01*
X003327Y033547D01*
X003327Y033620D01*
X003106Y033620D02*
X003106Y033510D01*
X002996Y033510D01*
X002959Y033547D01*
X002996Y033583D01*
X003106Y033583D01*
X003106Y033620D02*
X003069Y033657D01*
X002996Y033657D01*
X002885Y033657D02*
X002775Y033657D01*
X002738Y033620D01*
X002738Y033547D01*
X002775Y033510D01*
X002885Y033510D01*
X002443Y033510D02*
X002407Y033547D01*
X002407Y033693D01*
X002443Y033657D02*
X002370Y033657D01*
X002296Y033657D02*
X002186Y033657D01*
X002149Y033620D01*
X002149Y033547D01*
X002186Y033510D01*
X002296Y033510D01*
X002075Y033583D02*
X001928Y033583D01*
X001928Y033547D02*
X001928Y033620D01*
X001965Y033657D01*
X002038Y033657D01*
X002075Y033620D01*
X002075Y033583D01*
X002038Y033510D02*
X001965Y033510D01*
X001928Y033547D01*
X001854Y033510D02*
X001854Y033620D01*
X001817Y033657D01*
X001707Y033657D01*
X001707Y033510D01*
X001633Y033510D02*
X001633Y033620D01*
X001596Y033657D01*
X001486Y033657D01*
X001486Y033510D01*
X001412Y033547D02*
X001412Y033620D01*
X001375Y033657D01*
X001302Y033657D01*
X001265Y033620D01*
X001265Y033547D01*
X001302Y033510D01*
X001375Y033510D01*
X001412Y033547D01*
X001191Y033510D02*
X001081Y033510D01*
X001044Y033547D01*
X001044Y033620D01*
X001081Y033657D01*
X001191Y033657D01*
D14*
X032714Y033220D02*
X033301Y033220D01*
X033008Y032927D02*
X033008Y033514D01*
X034514Y031567D02*
X034808Y030980D01*
X035101Y031567D01*
X035714Y031617D02*
X035714Y030736D01*
X035714Y031030D02*
X036154Y031030D01*
X036301Y031177D01*
X036301Y031470D01*
X036154Y031617D01*
X035714Y031617D01*
X037864Y030670D02*
X038451Y030670D01*
X038158Y030377D02*
X038158Y030964D01*
D15*
X038336Y033020D02*
X037769Y033020D01*
X021236Y030095D02*
X020669Y030095D01*
X020953Y030095D02*
X020953Y030946D01*
X020669Y030662D01*
X014386Y030295D02*
X013819Y030295D01*
X014103Y030295D02*
X014103Y031146D01*
X013819Y030862D01*
D16*
X011324Y028020D02*
X011324Y027470D01*
X011324Y028020D02*
X009624Y028020D01*
X009324Y027720D01*
X009324Y027470D01*
X009324Y026570D02*
X009324Y026320D01*
X009624Y026020D01*
X011324Y026020D01*
X011324Y026570D01*
X011164Y026600D02*
X011136Y026547D01*
X011105Y026496D01*
X011071Y026446D01*
X011034Y026399D01*
X010994Y026355D01*
X010951Y026313D01*
X010906Y026274D01*
X010858Y026238D01*
X010808Y026206D01*
X010756Y026176D01*
X010702Y026150D01*
X010646Y026128D01*
X010590Y026109D01*
X010532Y026093D01*
X010473Y026082D01*
X010414Y026074D01*
X010354Y026070D01*
X010294Y026070D01*
X010234Y026074D01*
X010175Y026082D01*
X010116Y026093D01*
X010058Y026109D01*
X010002Y026128D01*
X009946Y026150D01*
X009892Y026176D01*
X009840Y026206D01*
X009790Y026238D01*
X009742Y026274D01*
X009697Y026313D01*
X009654Y026355D01*
X009614Y026399D01*
X009577Y026446D01*
X009543Y026496D01*
X009512Y026547D01*
X009484Y026600D01*
X009484Y027440D02*
X009512Y027493D01*
X009543Y027544D01*
X009577Y027594D01*
X009614Y027641D01*
X009654Y027685D01*
X009697Y027727D01*
X009742Y027766D01*
X009790Y027802D01*
X009840Y027834D01*
X009892Y027864D01*
X009946Y027890D01*
X010002Y027912D01*
X010058Y027931D01*
X010116Y027947D01*
X010175Y027958D01*
X010234Y027966D01*
X010294Y027970D01*
X010354Y027970D01*
X010414Y027966D01*
X010473Y027958D01*
X010532Y027947D01*
X010590Y027931D01*
X010646Y027912D01*
X010702Y027890D01*
X010756Y027864D01*
X010808Y027834D01*
X010858Y027802D01*
X010906Y027766D01*
X010951Y027727D01*
X010994Y027685D01*
X011034Y027641D01*
X011071Y027594D01*
X011105Y027544D01*
X011136Y027493D01*
X011164Y027440D01*
X018924Y020682D02*
X018924Y017218D01*
X019082Y017060D01*
X022546Y017060D01*
X022704Y017218D01*
X022704Y020682D01*
X022546Y020840D01*
X019082Y020840D01*
X018924Y020682D01*
X027404Y029810D02*
X027334Y029880D01*
X027404Y029810D02*
X027544Y029810D01*
X027614Y029880D01*
X027614Y029950D01*
X027544Y030020D01*
X027404Y030020D01*
X027334Y030090D01*
X027334Y030160D01*
X027404Y030230D01*
X027544Y030230D01*
X027614Y030160D01*
X027794Y030090D02*
X027794Y029880D01*
X027864Y029810D01*
X027934Y029880D01*
X028005Y029810D01*
X028075Y029880D01*
X028075Y030090D01*
X028255Y030090D02*
X028325Y030090D01*
X028325Y029810D01*
X028255Y029810D02*
X028395Y029810D01*
X028632Y029880D02*
X028632Y030160D01*
X028562Y030090D02*
X028702Y030090D01*
X028869Y030020D02*
X028869Y029880D01*
X028939Y029810D01*
X029149Y029810D01*
X029329Y029810D02*
X029329Y030230D01*
X029399Y030090D02*
X029539Y030090D01*
X029609Y030020D01*
X029609Y029810D01*
X029789Y029880D02*
X029789Y030020D01*
X029859Y030090D01*
X030000Y030090D01*
X030070Y030020D01*
X030070Y029950D01*
X029789Y029950D01*
X029789Y029880D02*
X029859Y029810D01*
X030000Y029810D01*
X030250Y029810D02*
X030460Y029810D01*
X030530Y029880D01*
X030460Y029950D01*
X030320Y029950D01*
X030250Y030020D01*
X030320Y030090D01*
X030530Y030090D01*
X029609Y030490D02*
X029609Y030840D01*
X029329Y030840D02*
X029329Y030630D01*
X029399Y030560D01*
X029609Y030560D01*
X029609Y030490D02*
X029539Y030420D01*
X029469Y030420D01*
X029399Y030090D02*
X029329Y030020D01*
X029149Y030090D02*
X028939Y030090D01*
X028869Y030020D01*
X028702Y029810D02*
X028632Y029880D01*
X028325Y030230D02*
X028325Y030300D01*
X028325Y030560D02*
X028325Y030910D01*
X028395Y030980D01*
X028395Y030770D02*
X028255Y030770D01*
X028075Y030770D02*
X028005Y030840D01*
X027864Y030840D01*
X027864Y030700D02*
X028075Y030700D01*
X028075Y030770D02*
X028075Y030560D01*
X027864Y030560D01*
X027794Y030630D01*
X027864Y030700D01*
X027614Y030700D02*
X027614Y030630D01*
X027544Y030560D01*
X027404Y030560D01*
X027334Y030630D01*
X027404Y030770D02*
X027334Y030840D01*
X027334Y030910D01*
X027404Y030980D01*
X027544Y030980D01*
X027614Y030910D01*
X027544Y030770D02*
X027614Y030700D01*
X027544Y030770D02*
X027404Y030770D01*
X028562Y030770D02*
X028632Y030840D01*
X028772Y030840D01*
X028842Y030770D01*
X028842Y030700D01*
X028562Y030700D01*
X028562Y030630D02*
X028562Y030770D01*
X028562Y030630D02*
X028632Y030560D01*
X028772Y030560D01*
X029092Y030630D02*
X029092Y030910D01*
X029022Y030840D02*
X029162Y030840D01*
X029092Y030630D02*
X029162Y030560D01*
X037464Y031180D02*
X037884Y031180D01*
X037884Y031040D02*
X037884Y031320D01*
X037884Y031500D02*
X037604Y031781D01*
X037534Y031781D01*
X037464Y031711D01*
X037464Y031570D01*
X037534Y031500D01*
X037464Y031180D02*
X037604Y031040D01*
X037884Y031500D02*
X037884Y031781D01*
X037744Y031961D02*
X037884Y032101D01*
X037744Y032241D01*
X037464Y032241D01*
X037464Y031961D02*
X037744Y031961D01*
X038354Y031961D02*
X038634Y032241D01*
X038634Y031961D02*
X038354Y032241D01*
X038424Y031781D02*
X038354Y031711D01*
X038354Y031570D01*
X038494Y031570D02*
X038494Y031781D01*
X038424Y031781D02*
X038634Y031781D01*
X038634Y031570D01*
X038564Y031500D01*
X038494Y031570D01*
X038424Y031320D02*
X038634Y031320D01*
X038634Y031180D02*
X038424Y031180D01*
X038354Y031250D01*
X038424Y031320D01*
X038424Y031180D02*
X038354Y031110D01*
X038354Y031040D01*
X038634Y031040D01*
X038964Y031180D02*
X039384Y031180D01*
X039384Y031040D02*
X039384Y031320D01*
X039384Y031500D02*
X039104Y031500D01*
X038964Y031641D01*
X039104Y031781D01*
X039384Y031781D01*
X039174Y031781D02*
X039174Y031500D01*
X038964Y031180D02*
X039104Y031040D01*
X038124Y021861D02*
X036724Y021861D01*
X036724Y019359D01*
X038124Y019359D01*
X038124Y021861D01*
X034954Y020980D02*
X034954Y019580D01*
X032374Y019580D01*
X032374Y020980D01*
X034954Y020980D01*
X031564Y020940D02*
X031564Y019540D01*
X028984Y019540D01*
X028984Y020940D01*
X031564Y020940D01*
X028824Y009700D02*
X027124Y009700D01*
X027124Y009150D01*
X027124Y008250D02*
X027124Y007700D01*
X028824Y007700D01*
X029124Y008000D01*
X029124Y008250D01*
X029124Y009150D02*
X029124Y009400D01*
X028824Y009700D01*
X028964Y009120D02*
X028936Y009173D01*
X028905Y009224D01*
X028871Y009274D01*
X028834Y009321D01*
X028794Y009365D01*
X028751Y009407D01*
X028706Y009446D01*
X028658Y009482D01*
X028608Y009514D01*
X028556Y009544D01*
X028502Y009570D01*
X028446Y009592D01*
X028390Y009611D01*
X028332Y009627D01*
X028273Y009638D01*
X028214Y009646D01*
X028154Y009650D01*
X028094Y009650D01*
X028034Y009646D01*
X027975Y009638D01*
X027916Y009627D01*
X027858Y009611D01*
X027802Y009592D01*
X027746Y009570D01*
X027692Y009544D01*
X027640Y009514D01*
X027590Y009482D01*
X027542Y009446D01*
X027497Y009407D01*
X027454Y009365D01*
X027414Y009321D01*
X027377Y009274D01*
X027343Y009224D01*
X027312Y009173D01*
X027284Y009120D01*
X027284Y008280D02*
X027312Y008227D01*
X027343Y008176D01*
X027377Y008126D01*
X027414Y008079D01*
X027454Y008035D01*
X027497Y007993D01*
X027542Y007954D01*
X027590Y007918D01*
X027640Y007886D01*
X027692Y007856D01*
X027746Y007830D01*
X027802Y007808D01*
X027858Y007789D01*
X027916Y007773D01*
X027975Y007762D01*
X028034Y007754D01*
X028094Y007750D01*
X028154Y007750D01*
X028214Y007754D01*
X028273Y007762D01*
X028332Y007773D01*
X028390Y007789D01*
X028446Y007808D01*
X028502Y007830D01*
X028556Y007856D01*
X028608Y007886D01*
X028658Y007918D01*
X028706Y007954D01*
X028751Y007993D01*
X028794Y008035D01*
X028834Y008079D01*
X028871Y008126D01*
X028905Y008176D01*
X028936Y008227D01*
X028964Y008280D01*
X029514Y007150D02*
X027814Y007150D01*
X027814Y006600D01*
X027974Y006570D02*
X028002Y006623D01*
X028033Y006674D01*
X028067Y006724D01*
X028104Y006771D01*
X028144Y006815D01*
X028187Y006857D01*
X028232Y006896D01*
X028280Y006932D01*
X028330Y006964D01*
X028382Y006994D01*
X028436Y007020D01*
X028492Y007042D01*
X028548Y007061D01*
X028606Y007077D01*
X028665Y007088D01*
X028724Y007096D01*
X028784Y007100D01*
X028844Y007100D01*
X028904Y007096D01*
X028963Y007088D01*
X029022Y007077D01*
X029080Y007061D01*
X029136Y007042D01*
X029192Y007020D01*
X029246Y006994D01*
X029298Y006964D01*
X029348Y006932D01*
X029396Y006896D01*
X029441Y006857D01*
X029484Y006815D01*
X029524Y006771D01*
X029561Y006724D01*
X029595Y006674D01*
X029626Y006623D01*
X029654Y006570D01*
X029814Y006600D02*
X029814Y006850D01*
X029514Y007150D01*
X030614Y006910D02*
X030614Y009270D01*
X030614Y006910D02*
X033194Y006910D01*
X033194Y009270D01*
X029814Y005700D02*
X029814Y005450D01*
X029514Y005150D01*
X027814Y005150D01*
X027814Y005700D01*
X027974Y005730D02*
X028002Y005677D01*
X028033Y005626D01*
X028067Y005576D01*
X028104Y005529D01*
X028144Y005485D01*
X028187Y005443D01*
X028232Y005404D01*
X028280Y005368D01*
X028330Y005336D01*
X028382Y005306D01*
X028436Y005280D01*
X028492Y005258D01*
X028548Y005239D01*
X028606Y005223D01*
X028665Y005212D01*
X028724Y005204D01*
X028784Y005200D01*
X028844Y005200D01*
X028904Y005204D01*
X028963Y005212D01*
X029022Y005223D01*
X029080Y005239D01*
X029136Y005258D01*
X029192Y005280D01*
X029246Y005306D01*
X029298Y005336D01*
X029348Y005368D01*
X029396Y005404D01*
X029441Y005443D01*
X029484Y005485D01*
X029524Y005529D01*
X029561Y005576D01*
X029595Y005626D01*
X029626Y005677D01*
X029654Y005730D01*
D17*
X019128Y020525D02*
X019130Y020545D01*
X019135Y020565D01*
X019145Y020583D01*
X019157Y020600D01*
X019172Y020614D01*
X019190Y020624D01*
X019209Y020632D01*
X019229Y020636D01*
X019249Y020636D01*
X019269Y020632D01*
X019288Y020624D01*
X019306Y020614D01*
X019321Y020600D01*
X019333Y020583D01*
X019343Y020565D01*
X019348Y020545D01*
X019350Y020525D01*
X019348Y020505D01*
X019343Y020485D01*
X019333Y020467D01*
X019321Y020450D01*
X019306Y020436D01*
X019288Y020426D01*
X019269Y020418D01*
X019249Y020414D01*
X019229Y020414D01*
X019209Y020418D01*
X019190Y020426D01*
X019172Y020436D01*
X019157Y020450D01*
X019145Y020467D01*
X019135Y020485D01*
X019130Y020505D01*
X019128Y020525D01*
X038894Y040900D02*
X038944Y040950D01*
D18*
X037094Y033040D02*
X036594Y033040D01*
X036344Y032790D01*
X036344Y032290D01*
X036594Y032040D01*
X037094Y032040D01*
X037344Y032290D01*
X037344Y032790D01*
X037094Y033040D01*
X036344Y032790D02*
X036094Y033040D01*
X035594Y033040D01*
X035344Y032790D01*
X035344Y032290D01*
X035094Y032040D01*
X034594Y032040D01*
X034344Y032290D01*
X034094Y032040D01*
X033594Y032040D01*
X033344Y032290D01*
X033344Y032790D01*
X033594Y033040D01*
X034094Y033040D01*
X034344Y032790D01*
X034594Y033040D01*
X035094Y033040D01*
X035344Y032790D01*
X035344Y032290D02*
X035594Y032040D01*
X036094Y032040D01*
X036344Y032290D01*
X037044Y030750D02*
X037544Y030750D01*
X037794Y030500D01*
X037794Y030000D01*
X037544Y029750D01*
X037794Y029500D01*
X037794Y029000D01*
X037544Y028750D01*
X037044Y028750D01*
X036794Y029000D01*
X036794Y029500D01*
X037044Y029750D01*
X036794Y030000D01*
X036794Y030500D01*
X037044Y030750D01*
X037044Y029750D02*
X037544Y029750D01*
X038574Y029620D02*
X038574Y029120D01*
X038824Y028870D01*
X039324Y028870D01*
X039574Y029120D01*
X039574Y029620D01*
X039324Y029870D01*
X038824Y029870D01*
X038574Y029620D01*
X038824Y029870D02*
X038574Y030120D01*
X038574Y030620D01*
X038824Y030870D01*
X039324Y030870D01*
X039574Y030620D01*
X039574Y030120D01*
X039324Y029870D01*
X035394Y029950D02*
X035144Y029700D01*
X035394Y029450D01*
X035394Y028950D01*
X035144Y028700D01*
X034644Y028700D01*
X034394Y028950D01*
X034394Y029450D01*
X034644Y029700D01*
X034394Y029950D01*
X034394Y030450D01*
X034644Y030700D01*
X035144Y030700D01*
X035394Y030450D01*
X035394Y029950D01*
X035144Y029700D02*
X034644Y029700D01*
X033044Y029900D02*
X032794Y029650D01*
X033044Y029400D01*
X033044Y028900D01*
X032794Y028650D01*
X032294Y028650D01*
X032044Y028900D01*
X032044Y029400D01*
X032294Y029650D01*
X032044Y029900D01*
X032044Y030400D01*
X032294Y030650D01*
X032794Y030650D01*
X033044Y030400D01*
X033044Y029900D01*
X032794Y029650D02*
X032294Y029650D01*
X032344Y031150D02*
X031844Y031150D01*
X031594Y031400D01*
X031594Y031900D01*
X031844Y032150D01*
X031594Y032400D01*
X031594Y032900D01*
X031844Y033150D01*
X032344Y033150D01*
X032594Y032900D01*
X032594Y032400D01*
X032344Y032150D01*
X032594Y031900D01*
X032594Y031400D01*
X032344Y031150D01*
X032344Y032150D02*
X031844Y032150D01*
X030494Y031900D02*
X030494Y031400D01*
X030244Y031150D01*
X029744Y031150D01*
X029494Y031400D01*
X029494Y031900D01*
X029744Y032150D01*
X029494Y032400D01*
X029494Y032900D01*
X029744Y033150D01*
X030244Y033150D01*
X030494Y032900D01*
X030494Y032400D01*
X030244Y032150D01*
X030494Y031900D01*
X030244Y032150D02*
X029744Y032150D01*
X028244Y032350D02*
X027994Y032100D01*
X028244Y031850D01*
X028244Y031350D01*
X027994Y031100D01*
X027494Y031100D01*
X027244Y031350D01*
X027244Y031850D01*
X027494Y032100D01*
X027244Y032350D01*
X027244Y032850D01*
X027494Y033100D01*
X027994Y033100D01*
X028244Y032850D01*
X028244Y032350D01*
X027994Y032100D02*
X027494Y032100D01*
X026604Y032780D02*
X026604Y031280D01*
X026354Y031030D01*
X025854Y031030D01*
X025604Y031280D01*
X025604Y032780D01*
X025854Y033030D01*
X026354Y033030D01*
X026604Y032780D01*
X025604Y032780D02*
X025354Y033030D01*
X024854Y033030D01*
X024604Y032780D01*
X024604Y031280D01*
X024854Y031030D01*
X025354Y031030D01*
X025604Y031280D01*
X024604Y031280D02*
X024354Y031030D01*
X023854Y031030D01*
X023604Y031280D01*
X023604Y032780D01*
X023854Y033030D01*
X024354Y033030D01*
X024604Y032780D01*
X023604Y032780D02*
X023354Y033030D01*
X022854Y033030D01*
X022604Y032780D01*
X022604Y031280D01*
X022854Y031030D01*
X023354Y031030D01*
X023604Y031280D01*
X022604Y031280D02*
X022354Y031030D01*
X021854Y031030D01*
X021604Y031280D01*
X021604Y032780D01*
X021854Y033030D01*
X022354Y033030D01*
X022604Y032780D01*
X021604Y032780D02*
X021354Y033030D01*
X020854Y033030D01*
X020604Y032780D01*
X020604Y031280D01*
X020854Y031030D01*
X021354Y031030D01*
X021604Y031280D01*
X020094Y031300D02*
X020094Y032800D01*
X019844Y033050D01*
X019344Y033050D01*
X019094Y032800D01*
X019094Y031300D01*
X019344Y031050D01*
X019844Y031050D01*
X020094Y031300D01*
X019094Y031300D02*
X018844Y031050D01*
X018344Y031050D01*
X018094Y031300D01*
X018094Y032800D01*
X018344Y033050D01*
X018844Y033050D01*
X019094Y032800D01*
X018094Y032800D02*
X017844Y033050D01*
X017344Y033050D01*
X017094Y032800D01*
X017094Y031300D01*
X017344Y031050D01*
X017844Y031050D01*
X018094Y031300D01*
X017094Y031300D02*
X016844Y031050D01*
X016344Y031050D01*
X016094Y031300D01*
X016094Y032800D01*
X016344Y033050D01*
X016844Y033050D01*
X017094Y032800D01*
X016094Y032800D02*
X015844Y033050D01*
X015344Y033050D01*
X015094Y032800D01*
X015094Y031300D01*
X015344Y031050D01*
X015844Y031050D01*
X016094Y031300D01*
X015094Y031300D02*
X014844Y031050D01*
X014344Y031050D01*
X014094Y031300D01*
X014094Y032800D01*
X014344Y033050D01*
X014844Y033050D01*
X015094Y032800D01*
X011422Y030345D02*
X011424Y030394D01*
X011430Y030442D01*
X011440Y030490D01*
X011454Y030537D01*
X011471Y030583D01*
X011492Y030627D01*
X011517Y030669D01*
X011545Y030709D01*
X011577Y030747D01*
X011611Y030782D01*
X011648Y030814D01*
X011687Y030843D01*
X011729Y030869D01*
X011773Y030891D01*
X011818Y030909D01*
X011865Y030924D01*
X011912Y030935D01*
X011961Y030942D01*
X012010Y030945D01*
X012059Y030944D01*
X012107Y030939D01*
X012156Y030930D01*
X012203Y030917D01*
X012249Y030900D01*
X012293Y030880D01*
X012336Y030856D01*
X012377Y030829D01*
X012415Y030798D01*
X012451Y030765D01*
X012483Y030729D01*
X012513Y030690D01*
X012540Y030649D01*
X012563Y030605D01*
X012582Y030560D01*
X012598Y030514D01*
X012610Y030467D01*
X012618Y030418D01*
X012622Y030369D01*
X012622Y030321D01*
X012618Y030272D01*
X012610Y030223D01*
X012598Y030176D01*
X012582Y030130D01*
X012563Y030085D01*
X012540Y030041D01*
X012513Y030000D01*
X012483Y029961D01*
X012451Y029925D01*
X012415Y029892D01*
X012377Y029861D01*
X012336Y029834D01*
X012293Y029810D01*
X012249Y029790D01*
X012203Y029773D01*
X012156Y029760D01*
X012107Y029751D01*
X012059Y029746D01*
X012010Y029745D01*
X011961Y029748D01*
X011912Y029755D01*
X011865Y029766D01*
X011818Y029781D01*
X011773Y029799D01*
X011729Y029821D01*
X011687Y029847D01*
X011648Y029876D01*
X011611Y029908D01*
X011577Y029943D01*
X011545Y029981D01*
X011517Y030021D01*
X011492Y030063D01*
X011471Y030107D01*
X011454Y030153D01*
X011440Y030200D01*
X011430Y030248D01*
X011424Y030296D01*
X011422Y030345D01*
X010379Y031388D02*
X010381Y031437D01*
X010387Y031485D01*
X010397Y031533D01*
X010411Y031580D01*
X010428Y031626D01*
X010449Y031670D01*
X010474Y031712D01*
X010502Y031752D01*
X010534Y031790D01*
X010568Y031825D01*
X010605Y031857D01*
X010644Y031886D01*
X010686Y031912D01*
X010730Y031934D01*
X010775Y031952D01*
X010822Y031967D01*
X010869Y031978D01*
X010918Y031985D01*
X010967Y031988D01*
X011016Y031987D01*
X011064Y031982D01*
X011113Y031973D01*
X011160Y031960D01*
X011206Y031943D01*
X011250Y031923D01*
X011293Y031899D01*
X011334Y031872D01*
X011372Y031841D01*
X011408Y031808D01*
X011440Y031772D01*
X011470Y031733D01*
X011497Y031692D01*
X011520Y031648D01*
X011539Y031603D01*
X011555Y031557D01*
X011567Y031510D01*
X011575Y031461D01*
X011579Y031412D01*
X011579Y031364D01*
X011575Y031315D01*
X011567Y031266D01*
X011555Y031219D01*
X011539Y031173D01*
X011520Y031128D01*
X011497Y031084D01*
X011470Y031043D01*
X011440Y031004D01*
X011408Y030968D01*
X011372Y030935D01*
X011334Y030904D01*
X011293Y030877D01*
X011250Y030853D01*
X011206Y030833D01*
X011160Y030816D01*
X011113Y030803D01*
X011064Y030794D01*
X011016Y030789D01*
X010967Y030788D01*
X010918Y030791D01*
X010869Y030798D01*
X010822Y030809D01*
X010775Y030824D01*
X010730Y030842D01*
X010686Y030864D01*
X010644Y030890D01*
X010605Y030919D01*
X010568Y030951D01*
X010534Y030986D01*
X010502Y031024D01*
X010474Y031064D01*
X010449Y031106D01*
X010428Y031150D01*
X010411Y031196D01*
X010397Y031243D01*
X010387Y031291D01*
X010381Y031339D01*
X010379Y031388D01*
X008954Y031770D02*
X008956Y031819D01*
X008962Y031867D01*
X008972Y031915D01*
X008986Y031962D01*
X009003Y032008D01*
X009024Y032052D01*
X009049Y032094D01*
X009077Y032134D01*
X009109Y032172D01*
X009143Y032207D01*
X009180Y032239D01*
X009219Y032268D01*
X009261Y032294D01*
X009305Y032316D01*
X009350Y032334D01*
X009397Y032349D01*
X009444Y032360D01*
X009493Y032367D01*
X009542Y032370D01*
X009591Y032369D01*
X009639Y032364D01*
X009688Y032355D01*
X009735Y032342D01*
X009781Y032325D01*
X009825Y032305D01*
X009868Y032281D01*
X009909Y032254D01*
X009947Y032223D01*
X009983Y032190D01*
X010015Y032154D01*
X010045Y032115D01*
X010072Y032074D01*
X010095Y032030D01*
X010114Y031985D01*
X010130Y031939D01*
X010142Y031892D01*
X010150Y031843D01*
X010154Y031794D01*
X010154Y031746D01*
X010150Y031697D01*
X010142Y031648D01*
X010130Y031601D01*
X010114Y031555D01*
X010095Y031510D01*
X010072Y031466D01*
X010045Y031425D01*
X010015Y031386D01*
X009983Y031350D01*
X009947Y031317D01*
X009909Y031286D01*
X009868Y031259D01*
X009825Y031235D01*
X009781Y031215D01*
X009735Y031198D01*
X009688Y031185D01*
X009639Y031176D01*
X009591Y031171D01*
X009542Y031170D01*
X009493Y031173D01*
X009444Y031180D01*
X009397Y031191D01*
X009350Y031206D01*
X009305Y031224D01*
X009261Y031246D01*
X009219Y031272D01*
X009180Y031301D01*
X009143Y031333D01*
X009109Y031368D01*
X009077Y031406D01*
X009049Y031446D01*
X009024Y031488D01*
X009003Y031532D01*
X008986Y031578D01*
X008972Y031625D01*
X008962Y031673D01*
X008956Y031721D01*
X008954Y031770D01*
X007529Y031388D02*
X007531Y031437D01*
X007537Y031485D01*
X007547Y031533D01*
X007561Y031580D01*
X007578Y031626D01*
X007599Y031670D01*
X007624Y031712D01*
X007652Y031752D01*
X007684Y031790D01*
X007718Y031825D01*
X007755Y031857D01*
X007794Y031886D01*
X007836Y031912D01*
X007880Y031934D01*
X007925Y031952D01*
X007972Y031967D01*
X008019Y031978D01*
X008068Y031985D01*
X008117Y031988D01*
X008166Y031987D01*
X008214Y031982D01*
X008263Y031973D01*
X008310Y031960D01*
X008356Y031943D01*
X008400Y031923D01*
X008443Y031899D01*
X008484Y031872D01*
X008522Y031841D01*
X008558Y031808D01*
X008590Y031772D01*
X008620Y031733D01*
X008647Y031692D01*
X008670Y031648D01*
X008689Y031603D01*
X008705Y031557D01*
X008717Y031510D01*
X008725Y031461D01*
X008729Y031412D01*
X008729Y031364D01*
X008725Y031315D01*
X008717Y031266D01*
X008705Y031219D01*
X008689Y031173D01*
X008670Y031128D01*
X008647Y031084D01*
X008620Y031043D01*
X008590Y031004D01*
X008558Y030968D01*
X008522Y030935D01*
X008484Y030904D01*
X008443Y030877D01*
X008400Y030853D01*
X008356Y030833D01*
X008310Y030816D01*
X008263Y030803D01*
X008214Y030794D01*
X008166Y030789D01*
X008117Y030788D01*
X008068Y030791D01*
X008019Y030798D01*
X007972Y030809D01*
X007925Y030824D01*
X007880Y030842D01*
X007836Y030864D01*
X007794Y030890D01*
X007755Y030919D01*
X007718Y030951D01*
X007684Y030986D01*
X007652Y031024D01*
X007624Y031064D01*
X007599Y031106D01*
X007578Y031150D01*
X007561Y031196D01*
X007547Y031243D01*
X007537Y031291D01*
X007531Y031339D01*
X007529Y031388D01*
X006486Y030345D02*
X006488Y030394D01*
X006494Y030442D01*
X006504Y030490D01*
X006518Y030537D01*
X006535Y030583D01*
X006556Y030627D01*
X006581Y030669D01*
X006609Y030709D01*
X006641Y030747D01*
X006675Y030782D01*
X006712Y030814D01*
X006751Y030843D01*
X006793Y030869D01*
X006837Y030891D01*
X006882Y030909D01*
X006929Y030924D01*
X006976Y030935D01*
X007025Y030942D01*
X007074Y030945D01*
X007123Y030944D01*
X007171Y030939D01*
X007220Y030930D01*
X007267Y030917D01*
X007313Y030900D01*
X007357Y030880D01*
X007400Y030856D01*
X007441Y030829D01*
X007479Y030798D01*
X007515Y030765D01*
X007547Y030729D01*
X007577Y030690D01*
X007604Y030649D01*
X007627Y030605D01*
X007646Y030560D01*
X007662Y030514D01*
X007674Y030467D01*
X007682Y030418D01*
X007686Y030369D01*
X007686Y030321D01*
X007682Y030272D01*
X007674Y030223D01*
X007662Y030176D01*
X007646Y030130D01*
X007627Y030085D01*
X007604Y030041D01*
X007577Y030000D01*
X007547Y029961D01*
X007515Y029925D01*
X007479Y029892D01*
X007441Y029861D01*
X007400Y029834D01*
X007357Y029810D01*
X007313Y029790D01*
X007267Y029773D01*
X007220Y029760D01*
X007171Y029751D01*
X007123Y029746D01*
X007074Y029745D01*
X007025Y029748D01*
X006976Y029755D01*
X006929Y029766D01*
X006882Y029781D01*
X006837Y029799D01*
X006793Y029821D01*
X006751Y029847D01*
X006712Y029876D01*
X006675Y029908D01*
X006641Y029943D01*
X006609Y029981D01*
X006581Y030021D01*
X006556Y030063D01*
X006535Y030107D01*
X006518Y030153D01*
X006504Y030200D01*
X006494Y030248D01*
X006488Y030296D01*
X006486Y030345D01*
X005746Y029411D02*
X004742Y029411D01*
X004729Y029410D01*
X004717Y029405D01*
X004706Y029398D01*
X004696Y029389D01*
X004689Y029378D01*
X004685Y029366D01*
X004683Y029352D01*
X004683Y028348D01*
X004684Y028335D01*
X004689Y028322D01*
X004696Y028311D01*
X004705Y028302D01*
X004716Y028295D01*
X004729Y028290D01*
X004742Y028289D01*
X005746Y028289D01*
X005759Y028290D01*
X005771Y028295D01*
X005782Y028302D01*
X005792Y028311D01*
X005799Y028322D01*
X005803Y028334D01*
X005805Y028348D01*
X005805Y029352D01*
X005804Y029365D01*
X005799Y029378D01*
X005792Y029389D01*
X005783Y029398D01*
X005772Y029405D01*
X005759Y029410D01*
X005746Y029411D01*
X007144Y029328D02*
X007109Y029362D01*
X007072Y029394D01*
X007033Y029422D01*
X006991Y029447D01*
X006947Y029468D01*
X006902Y029486D01*
X006855Y029501D01*
X006808Y029511D01*
X006760Y029517D01*
X006711Y029520D01*
X006662Y029519D01*
X006614Y029513D01*
X006566Y029504D01*
X006519Y029491D01*
X006474Y029474D01*
X006429Y029454D01*
X006387Y029430D01*
X006347Y029402D01*
X006309Y029372D01*
X006274Y029338D01*
X006241Y029302D01*
X006212Y029263D01*
X006186Y029222D01*
X006163Y029179D01*
X006144Y029134D01*
X006128Y029088D01*
X006116Y029041D01*
X006108Y028993D01*
X006104Y028944D01*
X006104Y028896D01*
X006108Y028847D01*
X006116Y028799D01*
X006128Y028752D01*
X006144Y028706D01*
X006163Y028661D01*
X006186Y028618D01*
X006212Y028577D01*
X006241Y028538D01*
X006274Y028502D01*
X006309Y028468D01*
X006347Y028438D01*
X006387Y028410D01*
X006429Y028386D01*
X006474Y028366D01*
X006519Y028349D01*
X006566Y028336D01*
X006614Y028327D01*
X006662Y028321D01*
X006711Y028320D01*
X006760Y028323D01*
X006808Y028329D01*
X006855Y028339D01*
X006902Y028354D01*
X006947Y028372D01*
X006991Y028393D01*
X007033Y028418D01*
X007072Y028446D01*
X007109Y028478D01*
X007144Y028512D01*
X006486Y027495D02*
X006488Y027544D01*
X006494Y027592D01*
X006504Y027640D01*
X006518Y027687D01*
X006535Y027733D01*
X006556Y027777D01*
X006581Y027819D01*
X006609Y027859D01*
X006641Y027897D01*
X006675Y027932D01*
X006712Y027964D01*
X006751Y027993D01*
X006793Y028019D01*
X006837Y028041D01*
X006882Y028059D01*
X006929Y028074D01*
X006976Y028085D01*
X007025Y028092D01*
X007074Y028095D01*
X007123Y028094D01*
X007171Y028089D01*
X007220Y028080D01*
X007267Y028067D01*
X007313Y028050D01*
X007357Y028030D01*
X007400Y028006D01*
X007441Y027979D01*
X007479Y027948D01*
X007515Y027915D01*
X007547Y027879D01*
X007577Y027840D01*
X007604Y027799D01*
X007627Y027755D01*
X007646Y027710D01*
X007662Y027664D01*
X007674Y027617D01*
X007682Y027568D01*
X007686Y027519D01*
X007686Y027471D01*
X007682Y027422D01*
X007674Y027373D01*
X007662Y027326D01*
X007646Y027280D01*
X007627Y027235D01*
X007604Y027191D01*
X007577Y027150D01*
X007547Y027111D01*
X007515Y027075D01*
X007479Y027042D01*
X007441Y027011D01*
X007400Y026984D01*
X007357Y026960D01*
X007313Y026940D01*
X007267Y026923D01*
X007220Y026910D01*
X007171Y026901D01*
X007123Y026896D01*
X007074Y026895D01*
X007025Y026898D01*
X006976Y026905D01*
X006929Y026916D01*
X006882Y026931D01*
X006837Y026949D01*
X006793Y026971D01*
X006751Y026997D01*
X006712Y027026D01*
X006675Y027058D01*
X006641Y027093D01*
X006609Y027131D01*
X006581Y027171D01*
X006556Y027213D01*
X006535Y027257D01*
X006518Y027303D01*
X006504Y027350D01*
X006494Y027398D01*
X006488Y027446D01*
X006486Y027495D01*
X007529Y026452D02*
X007531Y026501D01*
X007537Y026549D01*
X007547Y026597D01*
X007561Y026644D01*
X007578Y026690D01*
X007599Y026734D01*
X007624Y026776D01*
X007652Y026816D01*
X007684Y026854D01*
X007718Y026889D01*
X007755Y026921D01*
X007794Y026950D01*
X007836Y026976D01*
X007880Y026998D01*
X007925Y027016D01*
X007972Y027031D01*
X008019Y027042D01*
X008068Y027049D01*
X008117Y027052D01*
X008166Y027051D01*
X008214Y027046D01*
X008263Y027037D01*
X008310Y027024D01*
X008356Y027007D01*
X008400Y026987D01*
X008443Y026963D01*
X008484Y026936D01*
X008522Y026905D01*
X008558Y026872D01*
X008590Y026836D01*
X008620Y026797D01*
X008647Y026756D01*
X008670Y026712D01*
X008689Y026667D01*
X008705Y026621D01*
X008717Y026574D01*
X008725Y026525D01*
X008729Y026476D01*
X008729Y026428D01*
X008725Y026379D01*
X008717Y026330D01*
X008705Y026283D01*
X008689Y026237D01*
X008670Y026192D01*
X008647Y026148D01*
X008620Y026107D01*
X008590Y026068D01*
X008558Y026032D01*
X008522Y025999D01*
X008484Y025968D01*
X008443Y025941D01*
X008400Y025917D01*
X008356Y025897D01*
X008310Y025880D01*
X008263Y025867D01*
X008214Y025858D01*
X008166Y025853D01*
X008117Y025852D01*
X008068Y025855D01*
X008019Y025862D01*
X007972Y025873D01*
X007925Y025888D01*
X007880Y025906D01*
X007836Y025928D01*
X007794Y025954D01*
X007755Y025983D01*
X007718Y026015D01*
X007684Y026050D01*
X007652Y026088D01*
X007624Y026128D01*
X007599Y026170D01*
X007578Y026214D01*
X007561Y026260D01*
X007547Y026307D01*
X007537Y026355D01*
X007531Y026403D01*
X007529Y026452D01*
X008954Y026070D02*
X008956Y026119D01*
X008962Y026167D01*
X008972Y026215D01*
X008986Y026262D01*
X009003Y026308D01*
X009024Y026352D01*
X009049Y026394D01*
X009077Y026434D01*
X009109Y026472D01*
X009143Y026507D01*
X009180Y026539D01*
X009219Y026568D01*
X009261Y026594D01*
X009305Y026616D01*
X009350Y026634D01*
X009397Y026649D01*
X009444Y026660D01*
X009493Y026667D01*
X009542Y026670D01*
X009591Y026669D01*
X009639Y026664D01*
X009688Y026655D01*
X009735Y026642D01*
X009781Y026625D01*
X009825Y026605D01*
X009868Y026581D01*
X009909Y026554D01*
X009947Y026523D01*
X009983Y026490D01*
X010015Y026454D01*
X010045Y026415D01*
X010072Y026374D01*
X010095Y026330D01*
X010114Y026285D01*
X010130Y026239D01*
X010142Y026192D01*
X010150Y026143D01*
X010154Y026094D01*
X010154Y026046D01*
X010150Y025997D01*
X010142Y025948D01*
X010130Y025901D01*
X010114Y025855D01*
X010095Y025810D01*
X010072Y025766D01*
X010045Y025725D01*
X010015Y025686D01*
X009983Y025650D01*
X009947Y025617D01*
X009909Y025586D01*
X009868Y025559D01*
X009825Y025535D01*
X009781Y025515D01*
X009735Y025498D01*
X009688Y025485D01*
X009639Y025476D01*
X009591Y025471D01*
X009542Y025470D01*
X009493Y025473D01*
X009444Y025480D01*
X009397Y025491D01*
X009350Y025506D01*
X009305Y025524D01*
X009261Y025546D01*
X009219Y025572D01*
X009180Y025601D01*
X009143Y025633D01*
X009109Y025668D01*
X009077Y025706D01*
X009049Y025746D01*
X009024Y025788D01*
X009003Y025832D01*
X008986Y025878D01*
X008972Y025925D01*
X008962Y025973D01*
X008956Y026021D01*
X008954Y026070D01*
X008954Y027770D02*
X008956Y027819D01*
X008962Y027867D01*
X008972Y027915D01*
X008986Y027962D01*
X009003Y028008D01*
X009024Y028052D01*
X009049Y028094D01*
X009077Y028134D01*
X009109Y028172D01*
X009143Y028207D01*
X009180Y028239D01*
X009219Y028268D01*
X009261Y028294D01*
X009305Y028316D01*
X009350Y028334D01*
X009397Y028349D01*
X009444Y028360D01*
X009493Y028367D01*
X009542Y028370D01*
X009591Y028369D01*
X009639Y028364D01*
X009688Y028355D01*
X009735Y028342D01*
X009781Y028325D01*
X009825Y028305D01*
X009868Y028281D01*
X009909Y028254D01*
X009947Y028223D01*
X009983Y028190D01*
X010015Y028154D01*
X010045Y028115D01*
X010072Y028074D01*
X010095Y028030D01*
X010114Y027985D01*
X010130Y027939D01*
X010142Y027892D01*
X010150Y027843D01*
X010154Y027794D01*
X010154Y027746D01*
X010150Y027697D01*
X010142Y027648D01*
X010130Y027601D01*
X010114Y027555D01*
X010095Y027510D01*
X010072Y027466D01*
X010045Y027425D01*
X010015Y027386D01*
X009983Y027350D01*
X009947Y027317D01*
X009909Y027286D01*
X009868Y027259D01*
X009825Y027235D01*
X009781Y027215D01*
X009735Y027198D01*
X009688Y027185D01*
X009639Y027176D01*
X009591Y027171D01*
X009542Y027170D01*
X009493Y027173D01*
X009444Y027180D01*
X009397Y027191D01*
X009350Y027206D01*
X009305Y027224D01*
X009261Y027246D01*
X009219Y027272D01*
X009180Y027301D01*
X009143Y027333D01*
X009109Y027368D01*
X009077Y027406D01*
X009049Y027446D01*
X009024Y027488D01*
X009003Y027532D01*
X008986Y027578D01*
X008972Y027625D01*
X008962Y027673D01*
X008956Y027721D01*
X008954Y027770D01*
X007994Y028482D02*
X008031Y028450D01*
X008071Y028421D01*
X008112Y028396D01*
X008156Y028374D01*
X008201Y028355D01*
X008248Y028341D01*
X008296Y028330D01*
X008344Y028323D01*
X008393Y028320D01*
X008442Y028321D01*
X008490Y028326D01*
X008538Y028335D01*
X008586Y028348D01*
X008631Y028365D01*
X008676Y028385D01*
X008719Y028409D01*
X008759Y028436D01*
X008797Y028467D01*
X008833Y028500D01*
X008866Y028537D01*
X008895Y028576D01*
X008922Y028617D01*
X008945Y028660D01*
X008964Y028705D01*
X008980Y028751D01*
X008992Y028799D01*
X009000Y028847D01*
X009004Y028896D01*
X009004Y028944D01*
X009000Y028993D01*
X008992Y029041D01*
X008980Y029089D01*
X008964Y029135D01*
X008945Y029180D01*
X008922Y029223D01*
X008895Y029264D01*
X008866Y029303D01*
X008833Y029340D01*
X008797Y029373D01*
X008759Y029404D01*
X008719Y029431D01*
X008676Y029455D01*
X008631Y029475D01*
X008586Y029492D01*
X008538Y029505D01*
X008490Y029514D01*
X008442Y029519D01*
X008393Y029520D01*
X008344Y029517D01*
X008296Y029510D01*
X008248Y029499D01*
X008201Y029485D01*
X008156Y029466D01*
X008112Y029444D01*
X008071Y029419D01*
X008031Y029390D01*
X007994Y029358D01*
X005004Y028920D02*
X005009Y029143D01*
X005026Y029366D01*
X005053Y029588D01*
X005091Y029808D01*
X005140Y030026D01*
X005200Y030241D01*
X005270Y030453D01*
X005350Y030661D01*
X005441Y030865D01*
X005541Y031065D01*
X005651Y031259D01*
X005771Y031448D01*
X005899Y031630D01*
X006037Y031806D01*
X006183Y031976D01*
X006337Y032137D01*
X006498Y032291D01*
X006668Y032437D01*
X006844Y032575D01*
X007026Y032703D01*
X007215Y032823D01*
X007409Y032933D01*
X007609Y033033D01*
X007813Y033124D01*
X008021Y033204D01*
X008233Y033274D01*
X008448Y033334D01*
X008666Y033383D01*
X008886Y033421D01*
X009108Y033448D01*
X009331Y033465D01*
X009554Y033470D01*
X009777Y033465D01*
X010000Y033448D01*
X010222Y033421D01*
X010442Y033383D01*
X010660Y033334D01*
X010875Y033274D01*
X011087Y033204D01*
X011295Y033124D01*
X011499Y033033D01*
X011699Y032933D01*
X011893Y032823D01*
X012082Y032703D01*
X012264Y032575D01*
X012440Y032437D01*
X012610Y032291D01*
X012771Y032137D01*
X012925Y031976D01*
X013071Y031806D01*
X013209Y031630D01*
X013337Y031448D01*
X013457Y031259D01*
X013567Y031065D01*
X013667Y030865D01*
X013758Y030661D01*
X013838Y030453D01*
X013908Y030241D01*
X013968Y030026D01*
X014017Y029808D01*
X014055Y029588D01*
X014082Y029366D01*
X014099Y029143D01*
X014104Y028920D01*
X014099Y028697D01*
X014082Y028474D01*
X014055Y028252D01*
X014017Y028032D01*
X013968Y027814D01*
X013908Y027599D01*
X013838Y027387D01*
X013758Y027179D01*
X013667Y026975D01*
X013567Y026775D01*
X013457Y026581D01*
X013337Y026392D01*
X013209Y026210D01*
X013071Y026034D01*
X012925Y025864D01*
X012771Y025703D01*
X012610Y025549D01*
X012440Y025403D01*
X012264Y025265D01*
X012082Y025137D01*
X011893Y025017D01*
X011699Y024907D01*
X011499Y024807D01*
X011295Y024716D01*
X011087Y024636D01*
X010875Y024566D01*
X010660Y024506D01*
X010442Y024457D01*
X010222Y024419D01*
X010000Y024392D01*
X009777Y024375D01*
X009554Y024370D01*
X009331Y024375D01*
X009108Y024392D01*
X008886Y024419D01*
X008666Y024457D01*
X008448Y024506D01*
X008233Y024566D01*
X008021Y024636D01*
X007813Y024716D01*
X007609Y024807D01*
X007409Y024907D01*
X007215Y025017D01*
X007026Y025137D01*
X006844Y025265D01*
X006668Y025403D01*
X006498Y025549D01*
X006337Y025703D01*
X006183Y025864D01*
X006037Y026034D01*
X005899Y026210D01*
X005771Y026392D01*
X005651Y026581D01*
X005541Y026775D01*
X005441Y026975D01*
X005350Y027179D01*
X005270Y027387D01*
X005200Y027599D01*
X005140Y027814D01*
X005091Y028032D01*
X005053Y028252D01*
X005026Y028474D01*
X005009Y028697D01*
X005004Y028920D01*
X005104Y031600D02*
X005304Y031600D01*
X005304Y031800D01*
X005304Y032300D02*
X005304Y032500D01*
X005104Y032500D01*
X004604Y032500D02*
X004404Y032500D01*
X004404Y032300D01*
X004404Y031800D02*
X004404Y031600D01*
X004604Y031600D01*
X003894Y031600D02*
X003894Y031800D01*
X003894Y031600D02*
X003694Y031600D01*
X003194Y031600D02*
X002994Y031600D01*
X002994Y031800D01*
X002994Y032300D02*
X002994Y032500D01*
X003194Y032500D01*
X003694Y032500D02*
X003894Y032500D01*
X003894Y032300D01*
X008954Y030070D02*
X008956Y030119D01*
X008962Y030167D01*
X008972Y030215D01*
X008986Y030262D01*
X009003Y030308D01*
X009024Y030352D01*
X009049Y030394D01*
X009077Y030434D01*
X009109Y030472D01*
X009143Y030507D01*
X009180Y030539D01*
X009219Y030568D01*
X009261Y030594D01*
X009305Y030616D01*
X009350Y030634D01*
X009397Y030649D01*
X009444Y030660D01*
X009493Y030667D01*
X009542Y030670D01*
X009591Y030669D01*
X009639Y030664D01*
X009688Y030655D01*
X009735Y030642D01*
X009781Y030625D01*
X009825Y030605D01*
X009868Y030581D01*
X009909Y030554D01*
X009947Y030523D01*
X009983Y030490D01*
X010015Y030454D01*
X010045Y030415D01*
X010072Y030374D01*
X010095Y030330D01*
X010114Y030285D01*
X010130Y030239D01*
X010142Y030192D01*
X010150Y030143D01*
X010154Y030094D01*
X010154Y030046D01*
X010150Y029997D01*
X010142Y029948D01*
X010130Y029901D01*
X010114Y029855D01*
X010095Y029810D01*
X010072Y029766D01*
X010045Y029725D01*
X010015Y029686D01*
X009983Y029650D01*
X009947Y029617D01*
X009909Y029586D01*
X009868Y029559D01*
X009825Y029535D01*
X009781Y029515D01*
X009735Y029498D01*
X009688Y029485D01*
X009639Y029476D01*
X009591Y029471D01*
X009542Y029470D01*
X009493Y029473D01*
X009444Y029480D01*
X009397Y029491D01*
X009350Y029506D01*
X009305Y029524D01*
X009261Y029546D01*
X009219Y029572D01*
X009180Y029601D01*
X009143Y029633D01*
X009109Y029668D01*
X009077Y029706D01*
X009049Y029746D01*
X009024Y029788D01*
X009003Y029832D01*
X008986Y029878D01*
X008972Y029925D01*
X008962Y029973D01*
X008956Y030021D01*
X008954Y030070D01*
X005604Y028920D02*
X005609Y029114D01*
X005623Y029307D01*
X005647Y029500D01*
X005680Y029691D01*
X005722Y029880D01*
X005774Y030067D01*
X005835Y030251D01*
X005905Y030432D01*
X005983Y030609D01*
X006070Y030782D01*
X006166Y030951D01*
X006270Y031115D01*
X006381Y031273D01*
X006501Y031426D01*
X006627Y031573D01*
X006761Y031713D01*
X006901Y031847D01*
X007048Y031973D01*
X007201Y032093D01*
X007359Y032204D01*
X007523Y032308D01*
X007692Y032404D01*
X007865Y032491D01*
X008042Y032569D01*
X008223Y032639D01*
X008407Y032700D01*
X008594Y032752D01*
X008783Y032794D01*
X008974Y032827D01*
X009167Y032851D01*
X009360Y032865D01*
X009554Y032870D01*
X009748Y032865D01*
X009941Y032851D01*
X010134Y032827D01*
X010325Y032794D01*
X010514Y032752D01*
X010701Y032700D01*
X010885Y032639D01*
X011066Y032569D01*
X011243Y032491D01*
X011416Y032404D01*
X011585Y032308D01*
X011749Y032204D01*
X011907Y032093D01*
X012060Y031973D01*
X012207Y031847D01*
X012347Y031713D01*
X012481Y031573D01*
X012607Y031426D01*
X012727Y031273D01*
X012838Y031115D01*
X012942Y030951D01*
X013038Y030782D01*
X013125Y030609D01*
X013203Y030432D01*
X013273Y030251D01*
X013334Y030067D01*
X013386Y029880D01*
X013428Y029691D01*
X013461Y029500D01*
X013485Y029307D01*
X013499Y029114D01*
X013504Y028920D01*
X013499Y028726D01*
X013485Y028533D01*
X013461Y028340D01*
X013428Y028149D01*
X013386Y027960D01*
X013334Y027773D01*
X013273Y027589D01*
X013203Y027408D01*
X013125Y027231D01*
X013038Y027058D01*
X012942Y026889D01*
X012838Y026725D01*
X012727Y026567D01*
X012607Y026414D01*
X012481Y026267D01*
X012347Y026127D01*
X012207Y025993D01*
X012060Y025867D01*
X011907Y025747D01*
X011749Y025636D01*
X011585Y025532D01*
X011416Y025436D01*
X011243Y025349D01*
X011066Y025271D01*
X010885Y025201D01*
X010701Y025140D01*
X010514Y025088D01*
X010325Y025046D01*
X010134Y025013D01*
X009941Y024989D01*
X009748Y024975D01*
X009554Y024970D01*
X009360Y024975D01*
X009167Y024989D01*
X008974Y025013D01*
X008783Y025046D01*
X008594Y025088D01*
X008407Y025140D01*
X008223Y025201D01*
X008042Y025271D01*
X007865Y025349D01*
X007692Y025436D01*
X007523Y025532D01*
X007359Y025636D01*
X007201Y025747D01*
X007048Y025867D01*
X006901Y025993D01*
X006761Y026127D01*
X006627Y026267D01*
X006501Y026414D01*
X006381Y026567D01*
X006270Y026725D01*
X006166Y026889D01*
X006070Y027058D01*
X005983Y027231D01*
X005905Y027408D01*
X005835Y027589D01*
X005774Y027773D01*
X005722Y027960D01*
X005680Y028149D01*
X005647Y028340D01*
X005623Y028533D01*
X005609Y028726D01*
X005604Y028920D01*
X011114Y029358D02*
X011077Y029390D01*
X011037Y029419D01*
X010996Y029444D01*
X010952Y029466D01*
X010907Y029485D01*
X010860Y029499D01*
X010812Y029510D01*
X010764Y029517D01*
X010715Y029520D01*
X010666Y029519D01*
X010618Y029514D01*
X010570Y029505D01*
X010522Y029492D01*
X010477Y029475D01*
X010432Y029455D01*
X010389Y029431D01*
X010349Y029404D01*
X010311Y029373D01*
X010275Y029340D01*
X010242Y029303D01*
X010213Y029264D01*
X010186Y029223D01*
X010163Y029180D01*
X010144Y029135D01*
X010128Y029089D01*
X010116Y029041D01*
X010108Y028993D01*
X010104Y028944D01*
X010104Y028896D01*
X010108Y028847D01*
X010116Y028799D01*
X010128Y028751D01*
X010144Y028705D01*
X010163Y028660D01*
X010186Y028617D01*
X010213Y028576D01*
X010242Y028537D01*
X010275Y028500D01*
X010311Y028467D01*
X010349Y028436D01*
X010389Y028409D01*
X010432Y028385D01*
X010477Y028365D01*
X010522Y028348D01*
X010570Y028335D01*
X010618Y028326D01*
X010666Y028321D01*
X010715Y028320D01*
X010764Y028323D01*
X010812Y028330D01*
X010860Y028341D01*
X010907Y028355D01*
X010952Y028374D01*
X010996Y028396D01*
X011037Y028421D01*
X011077Y028450D01*
X011114Y028482D01*
X011422Y027495D02*
X011424Y027544D01*
X011430Y027592D01*
X011440Y027640D01*
X011454Y027687D01*
X011471Y027733D01*
X011492Y027777D01*
X011517Y027819D01*
X011545Y027859D01*
X011577Y027897D01*
X011611Y027932D01*
X011648Y027964D01*
X011687Y027993D01*
X011729Y028019D01*
X011773Y028041D01*
X011818Y028059D01*
X011865Y028074D01*
X011912Y028085D01*
X011961Y028092D01*
X012010Y028095D01*
X012059Y028094D01*
X012107Y028089D01*
X012156Y028080D01*
X012203Y028067D01*
X012249Y028050D01*
X012293Y028030D01*
X012336Y028006D01*
X012377Y027979D01*
X012415Y027948D01*
X012451Y027915D01*
X012483Y027879D01*
X012513Y027840D01*
X012540Y027799D01*
X012563Y027755D01*
X012582Y027710D01*
X012598Y027664D01*
X012610Y027617D01*
X012618Y027568D01*
X012622Y027519D01*
X012622Y027471D01*
X012618Y027422D01*
X012610Y027373D01*
X012598Y027326D01*
X012582Y027280D01*
X012563Y027235D01*
X012540Y027191D01*
X012513Y027150D01*
X012483Y027111D01*
X012451Y027075D01*
X012415Y027042D01*
X012377Y027011D01*
X012336Y026984D01*
X012293Y026960D01*
X012249Y026940D01*
X012203Y026923D01*
X012156Y026910D01*
X012107Y026901D01*
X012059Y026896D01*
X012010Y026895D01*
X011961Y026898D01*
X011912Y026905D01*
X011865Y026916D01*
X011818Y026931D01*
X011773Y026949D01*
X011729Y026971D01*
X011687Y026997D01*
X011648Y027026D01*
X011611Y027058D01*
X011577Y027093D01*
X011545Y027131D01*
X011517Y027171D01*
X011492Y027213D01*
X011471Y027257D01*
X011454Y027303D01*
X011440Y027350D01*
X011430Y027398D01*
X011424Y027446D01*
X011422Y027495D01*
X010379Y026452D02*
X010381Y026501D01*
X010387Y026549D01*
X010397Y026597D01*
X010411Y026644D01*
X010428Y026690D01*
X010449Y026734D01*
X010474Y026776D01*
X010502Y026816D01*
X010534Y026854D01*
X010568Y026889D01*
X010605Y026921D01*
X010644Y026950D01*
X010686Y026976D01*
X010730Y026998D01*
X010775Y027016D01*
X010822Y027031D01*
X010869Y027042D01*
X010918Y027049D01*
X010967Y027052D01*
X011016Y027051D01*
X011064Y027046D01*
X011113Y027037D01*
X011160Y027024D01*
X011206Y027007D01*
X011250Y026987D01*
X011293Y026963D01*
X011334Y026936D01*
X011372Y026905D01*
X011408Y026872D01*
X011440Y026836D01*
X011470Y026797D01*
X011497Y026756D01*
X011520Y026712D01*
X011539Y026667D01*
X011555Y026621D01*
X011567Y026574D01*
X011575Y026525D01*
X011579Y026476D01*
X011579Y026428D01*
X011575Y026379D01*
X011567Y026330D01*
X011555Y026283D01*
X011539Y026237D01*
X011520Y026192D01*
X011497Y026148D01*
X011470Y026107D01*
X011440Y026068D01*
X011408Y026032D01*
X011372Y025999D01*
X011334Y025968D01*
X011293Y025941D01*
X011250Y025917D01*
X011206Y025897D01*
X011160Y025880D01*
X011113Y025867D01*
X011064Y025858D01*
X011016Y025853D01*
X010967Y025852D01*
X010918Y025855D01*
X010869Y025862D01*
X010822Y025873D01*
X010775Y025888D01*
X010730Y025906D01*
X010686Y025928D01*
X010644Y025954D01*
X010605Y025983D01*
X010568Y026015D01*
X010534Y026050D01*
X010502Y026088D01*
X010474Y026128D01*
X010449Y026170D01*
X010428Y026214D01*
X010411Y026260D01*
X010397Y026307D01*
X010387Y026355D01*
X010381Y026403D01*
X010379Y026452D01*
X011964Y028512D02*
X011999Y028478D01*
X012036Y028446D01*
X012075Y028418D01*
X012117Y028393D01*
X012161Y028372D01*
X012206Y028354D01*
X012253Y028339D01*
X012300Y028329D01*
X012348Y028323D01*
X012397Y028320D01*
X012446Y028321D01*
X012494Y028327D01*
X012542Y028336D01*
X012589Y028349D01*
X012634Y028366D01*
X012679Y028386D01*
X012721Y028410D01*
X012761Y028438D01*
X012799Y028468D01*
X012834Y028502D01*
X012867Y028538D01*
X012896Y028577D01*
X012922Y028618D01*
X012945Y028661D01*
X012964Y028706D01*
X012980Y028752D01*
X012992Y028799D01*
X013000Y028847D01*
X013004Y028896D01*
X013004Y028944D01*
X013000Y028993D01*
X012992Y029041D01*
X012980Y029088D01*
X012964Y029134D01*
X012945Y029179D01*
X012922Y029222D01*
X012896Y029263D01*
X012867Y029302D01*
X012834Y029338D01*
X012799Y029372D01*
X012761Y029402D01*
X012721Y029430D01*
X012679Y029454D01*
X012634Y029474D01*
X012589Y029491D01*
X012542Y029504D01*
X012494Y029513D01*
X012446Y029519D01*
X012397Y029520D01*
X012348Y029517D01*
X012300Y029511D01*
X012253Y029501D01*
X012206Y029486D01*
X012161Y029468D01*
X012117Y029447D01*
X012075Y029422D01*
X012036Y029394D01*
X011999Y029362D01*
X011964Y029328D01*
X019344Y022371D02*
X019557Y022371D01*
X019451Y022371D02*
X019451Y021730D01*
X019557Y021730D02*
X019344Y021730D01*
X019774Y021837D02*
X019880Y021730D01*
X020094Y021730D01*
X020201Y021837D01*
X020418Y021730D02*
X020845Y022157D01*
X020845Y022264D01*
X020738Y022371D01*
X020525Y022371D01*
X020418Y022264D01*
X020201Y022264D02*
X020094Y022371D01*
X019880Y022371D01*
X019774Y022264D01*
X019774Y021837D01*
X020418Y021730D02*
X020845Y021730D01*
X017064Y021170D02*
X017064Y016870D01*
X017062Y016853D01*
X017058Y016836D01*
X017051Y016820D01*
X017041Y016806D01*
X017028Y016793D01*
X017014Y016783D01*
X016998Y016776D01*
X016981Y016772D01*
X016964Y016770D01*
X016564Y016770D01*
X015664Y016770D02*
X015264Y016770D01*
X015247Y016772D01*
X015230Y016776D01*
X015214Y016783D01*
X015200Y016793D01*
X015187Y016806D01*
X015177Y016820D01*
X015170Y016836D01*
X015166Y016853D01*
X015164Y016870D01*
X015164Y021170D01*
X015166Y021187D01*
X015170Y021204D01*
X015177Y021220D01*
X015187Y021234D01*
X015200Y021247D01*
X015214Y021257D01*
X015230Y021264D01*
X015247Y021268D01*
X015264Y021270D01*
X015664Y021270D01*
X016564Y021270D02*
X016964Y021270D01*
X016981Y021268D01*
X016998Y021264D01*
X017014Y021257D01*
X017028Y021247D01*
X017041Y021234D01*
X017051Y021220D01*
X017058Y021204D01*
X017062Y021187D01*
X017064Y021170D01*
X016364Y019270D02*
X016114Y019270D01*
X015864Y019270D01*
X015864Y019120D02*
X015864Y018920D01*
X016364Y018920D01*
X016364Y019120D01*
X015864Y019120D01*
X015864Y018770D02*
X016114Y018770D01*
X016364Y018770D01*
X013971Y012295D02*
X013371Y012295D01*
X013131Y012295D01*
X012531Y012295D01*
X013131Y012295D02*
X013133Y012274D01*
X013138Y012254D01*
X013147Y012235D01*
X013159Y012218D01*
X013174Y012203D01*
X013191Y012191D01*
X013210Y012182D01*
X013230Y012177D01*
X013251Y012175D01*
X013272Y012177D01*
X013292Y012182D01*
X013311Y012191D01*
X013328Y012203D01*
X013343Y012218D01*
X013355Y012235D01*
X013364Y012254D01*
X013369Y012274D01*
X013371Y012295D01*
X014801Y011085D02*
X015191Y011085D01*
X013971Y009175D02*
X012531Y009175D01*
X011691Y009835D02*
X011291Y009835D01*
X002644Y015650D02*
X002394Y015400D01*
X001894Y015400D01*
X001644Y015650D01*
X001644Y016150D01*
X001894Y016400D01*
X001644Y016650D01*
X001644Y017150D01*
X001894Y017400D01*
X002394Y017400D01*
X002644Y017150D01*
X002644Y016650D01*
X002394Y016400D01*
X002644Y016150D01*
X002644Y015650D01*
X002394Y016400D02*
X001894Y016400D01*
X031533Y007155D02*
X031854Y006835D01*
X031854Y007262D01*
X032174Y007155D02*
X031533Y007155D01*
X031533Y006617D02*
X032067Y006617D01*
X032174Y006510D01*
X032174Y006297D01*
X032067Y006190D01*
X031533Y006190D01*
X036544Y023300D02*
X037044Y023300D01*
X037294Y023550D01*
X037544Y023300D01*
X038044Y023300D01*
X038294Y023550D01*
X038294Y024050D01*
X038044Y024300D01*
X037544Y024300D01*
X037294Y024050D01*
X037294Y023550D01*
X037294Y024050D02*
X037044Y024300D01*
X036544Y024300D01*
X036294Y024050D01*
X036294Y023550D01*
X036544Y023300D01*
X034344Y032290D02*
X034344Y032790D01*
D19*
X034615Y010340D02*
X034677Y010217D01*
X034800Y010093D01*
X034800Y010279D01*
X034862Y010340D01*
X034923Y010340D01*
X034985Y010279D01*
X034985Y010155D01*
X034923Y010093D01*
X034800Y010093D01*
X034923Y009972D02*
X034985Y009910D01*
X034985Y009787D01*
X034923Y009725D01*
X034677Y009725D01*
X034615Y009787D01*
X034615Y009910D01*
X034677Y009972D01*
X039085Y008727D02*
X039208Y008603D01*
X039147Y008482D02*
X039085Y008420D01*
X039085Y008297D01*
X039147Y008235D01*
X039393Y008235D01*
X039455Y008297D01*
X039455Y008420D01*
X039393Y008482D01*
X039455Y008603D02*
X039455Y008850D01*
X039455Y008727D02*
X039085Y008727D01*
X027917Y007507D02*
X027869Y007555D01*
X027772Y007555D01*
X027724Y007507D01*
X027622Y007507D02*
X027574Y007555D01*
X027477Y007555D01*
X027429Y007507D01*
X027429Y007313D01*
X027477Y007265D01*
X027574Y007265D01*
X027622Y007313D01*
X027724Y007265D02*
X027917Y007458D01*
X027917Y007507D01*
X027917Y007265D02*
X027724Y007265D01*
X027234Y009915D02*
X027234Y009963D01*
X027427Y010157D01*
X027427Y010205D01*
X027234Y010205D01*
X027132Y010157D02*
X027084Y010205D01*
X026987Y010205D01*
X026939Y010157D01*
X026939Y009963D01*
X026987Y009915D01*
X027084Y009915D01*
X027132Y009963D01*
X012139Y012329D02*
X011826Y012642D01*
X011982Y012642D02*
X011982Y012329D01*
X011826Y012329D02*
X012139Y012642D01*
X012139Y012485D02*
X011826Y012485D01*
X011817Y012935D02*
X011727Y013025D01*
X011772Y013025D02*
X011637Y013025D01*
X011637Y012935D02*
X011637Y013205D01*
X011772Y013205D01*
X011817Y013160D01*
X011817Y013070D01*
X011772Y013025D01*
X011913Y012935D02*
X012093Y013115D01*
X012093Y013160D01*
X012048Y013205D01*
X011958Y013205D01*
X011913Y013160D01*
X011913Y012935D02*
X012093Y012935D01*
X009936Y011905D02*
X009863Y011868D01*
X009789Y011795D01*
X009899Y011795D01*
X009936Y011758D01*
X009936Y011722D01*
X009899Y011685D01*
X009826Y011685D01*
X009789Y011722D01*
X009789Y011795D01*
X009706Y011832D02*
X009706Y011868D01*
X009669Y011905D01*
X009596Y011905D01*
X009559Y011868D01*
X009476Y011868D02*
X009439Y011905D01*
X009366Y011905D01*
X009329Y011868D01*
X009329Y011722D01*
X009366Y011685D01*
X009439Y011685D01*
X009476Y011722D01*
X009559Y011685D02*
X009706Y011832D01*
X009706Y011685D02*
X009559Y011685D01*
X009596Y011055D02*
X009559Y011018D01*
X009596Y011055D02*
X009669Y011055D01*
X009706Y011018D01*
X009706Y010982D01*
X009559Y010835D01*
X009706Y010835D01*
X009789Y010835D02*
X009789Y010872D01*
X009936Y011018D01*
X009936Y011055D01*
X009789Y011055D01*
X009476Y011018D02*
X009439Y011055D01*
X009366Y011055D01*
X009329Y011018D01*
X009329Y010872D01*
X009366Y010835D01*
X009439Y010835D01*
X009476Y010872D01*
X008599Y011172D02*
X008599Y011245D01*
X008562Y011282D01*
X008599Y011365D02*
X008452Y011512D01*
X008415Y011512D01*
X008379Y011475D01*
X008379Y011402D01*
X008415Y011365D01*
X008415Y011282D02*
X008379Y011245D01*
X008379Y011172D01*
X008415Y011135D01*
X008562Y011135D01*
X008599Y011172D01*
X008599Y011365D02*
X008599Y011512D01*
X008562Y011595D02*
X008599Y011632D01*
X008599Y011705D01*
X008562Y011742D01*
X008526Y011742D01*
X008489Y011705D01*
X008489Y011632D01*
X008452Y011595D01*
X008415Y011595D01*
X008379Y011632D01*
X008379Y011705D01*
X008415Y011742D01*
X008452Y011742D01*
X008489Y011705D01*
X008489Y011632D02*
X008526Y011595D01*
X008562Y011595D01*
X007396Y011608D02*
X007396Y011572D01*
X007359Y011535D01*
X007285Y011535D01*
X007249Y011572D01*
X007165Y011572D02*
X007129Y011535D01*
X007055Y011535D01*
X007019Y011572D01*
X006935Y011535D02*
X006862Y011608D01*
X006898Y011608D02*
X006788Y011608D01*
X006788Y011535D02*
X006788Y011755D01*
X006898Y011755D01*
X006935Y011718D01*
X006935Y011645D01*
X006898Y011608D01*
X007019Y011718D02*
X007055Y011755D01*
X007129Y011755D01*
X007165Y011718D01*
X007165Y011682D01*
X007129Y011645D01*
X007165Y011608D01*
X007165Y011572D01*
X007129Y011645D02*
X007092Y011645D01*
X007249Y011718D02*
X007285Y011755D01*
X007359Y011755D01*
X007396Y011718D01*
X007396Y011682D01*
X007359Y011645D01*
X007396Y011608D01*
X007359Y011645D02*
X007322Y011645D01*
X007309Y010655D02*
X007199Y010545D01*
X007346Y010545D01*
X007309Y010435D02*
X007309Y010655D01*
X007115Y010618D02*
X007115Y010582D01*
X007079Y010545D01*
X007115Y010508D01*
X007115Y010472D01*
X007079Y010435D01*
X007005Y010435D01*
X006969Y010472D01*
X006885Y010435D02*
X006812Y010508D01*
X006848Y010508D02*
X006738Y010508D01*
X006738Y010435D02*
X006738Y010655D01*
X006848Y010655D01*
X006885Y010618D01*
X006885Y010545D01*
X006848Y010508D01*
X006969Y010618D02*
X007005Y010655D01*
X007079Y010655D01*
X007115Y010618D01*
X007079Y010545D02*
X007042Y010545D01*
X010003Y026215D02*
X010100Y026215D01*
X010149Y026263D01*
X010250Y026263D02*
X010298Y026215D01*
X010395Y026215D01*
X010443Y026263D01*
X010443Y026312D01*
X010395Y026360D01*
X010346Y026360D01*
X010395Y026360D02*
X010443Y026408D01*
X010443Y026457D01*
X010395Y026505D01*
X010298Y026505D01*
X010250Y026457D01*
X010149Y026457D02*
X010100Y026505D01*
X010003Y026505D01*
X009955Y026457D01*
X009955Y026263D01*
X010003Y026215D01*
X010544Y026263D02*
X010544Y026312D01*
X010593Y026360D01*
X010689Y026360D01*
X010738Y026312D01*
X010738Y026263D01*
X010689Y026215D01*
X010593Y026215D01*
X010544Y026263D01*
X010593Y026360D02*
X010544Y026408D01*
X010544Y026457D01*
X010593Y026505D01*
X010689Y026505D01*
X010738Y026457D01*
X010738Y026408D01*
X010689Y026360D01*
D20*
X006634Y027077D02*
X006634Y027230D01*
X006557Y027307D01*
X006634Y027460D02*
X006634Y027767D01*
X006634Y027614D02*
X006174Y027614D01*
X006327Y027460D01*
X006250Y027307D02*
X006174Y027230D01*
X006174Y027077D01*
X006250Y027000D01*
X006557Y027000D01*
X006634Y027077D01*
X006557Y027921D02*
X006404Y027921D01*
X006404Y028151D01*
X006481Y028228D01*
X006557Y028228D01*
X006634Y028151D01*
X006634Y027998D01*
X006557Y027921D01*
X006404Y027921D02*
X006250Y028074D01*
X006174Y028228D01*
X002524Y028110D02*
X002064Y028110D01*
X002064Y028340D01*
X002140Y028417D01*
X002294Y028417D01*
X002371Y028340D01*
X002371Y028110D01*
X002371Y028263D02*
X002524Y028417D01*
X002524Y028570D02*
X002524Y028877D01*
X002524Y028724D02*
X002064Y028724D01*
X002217Y028570D01*
X002341Y029810D02*
X002341Y030040D01*
X002264Y030117D01*
X002110Y030117D01*
X002034Y030040D01*
X002034Y029810D01*
X002494Y029810D01*
X002341Y029963D02*
X002494Y030117D01*
X002417Y030270D02*
X002494Y030347D01*
X002494Y030501D01*
X002417Y030577D01*
X002264Y030577D01*
X002187Y030501D01*
X002187Y030424D01*
X002264Y030270D01*
X002034Y030270D01*
X002034Y030577D01*
X001254Y030937D02*
X001254Y031090D01*
X001177Y031167D01*
X001024Y031320D02*
X000794Y031551D01*
X001254Y031551D01*
X001024Y031627D02*
X001024Y031320D01*
X000870Y031167D02*
X000794Y031090D01*
X000794Y030937D01*
X000870Y030860D01*
X001177Y030860D01*
X001254Y030937D01*
X001424Y023268D02*
X000964Y023268D01*
X000964Y022962D02*
X001424Y023268D01*
X001424Y022962D02*
X000964Y022962D01*
X001040Y022808D02*
X000964Y022731D01*
X000964Y022578D01*
X001040Y022501D01*
X001347Y022501D01*
X001424Y022578D01*
X001424Y022731D01*
X001347Y022808D01*
X001040Y022808D01*
X001501Y022348D02*
X001501Y022041D01*
X001424Y021734D02*
X000964Y021734D01*
X000964Y021887D02*
X000964Y021580D01*
X001117Y021427D02*
X001424Y021427D01*
X001194Y021427D02*
X001194Y021120D01*
X001117Y021120D02*
X000964Y021273D01*
X001117Y021427D01*
X001117Y021120D02*
X001424Y021120D01*
X001633Y019230D02*
X001863Y019230D01*
X001940Y019154D01*
X001940Y019000D01*
X001863Y018923D01*
X001633Y018923D01*
X001633Y018770D02*
X001633Y019230D01*
X001786Y018923D02*
X001940Y018770D01*
X002093Y018770D02*
X002400Y018770D01*
X002247Y018770D02*
X002247Y019230D01*
X002093Y019077D01*
X002554Y019154D02*
X002630Y019230D01*
X002784Y019230D01*
X002861Y019154D01*
X002861Y019077D01*
X002554Y018770D01*
X002861Y018770D01*
X003564Y018830D02*
X003564Y018370D01*
X003564Y018523D02*
X003794Y018523D01*
X003871Y018600D01*
X003871Y018754D01*
X003794Y018830D01*
X003564Y018830D01*
X003717Y018523D02*
X003871Y018370D01*
X004024Y018447D02*
X004024Y018523D01*
X004101Y018600D01*
X004255Y018600D01*
X004331Y018523D01*
X004331Y018447D01*
X004255Y018370D01*
X004101Y018370D01*
X004024Y018447D01*
X004101Y018600D02*
X004024Y018677D01*
X004024Y018754D01*
X004101Y018830D01*
X004255Y018830D01*
X004331Y018754D01*
X004331Y018677D01*
X004255Y018600D01*
X004767Y019070D02*
X004767Y019530D01*
X004614Y019530D02*
X004921Y019530D01*
X005074Y019377D02*
X005228Y019530D01*
X005228Y019070D01*
X005381Y019070D02*
X005074Y019070D01*
X003848Y013013D02*
X003848Y012643D01*
X003848Y012648D02*
X003848Y012152D01*
X003846Y012130D01*
X003841Y012108D01*
X003832Y012087D01*
X003821Y012068D01*
X003806Y012051D01*
X003789Y012036D01*
X003770Y012025D01*
X003749Y012016D01*
X003727Y012011D01*
X003705Y012009D01*
X003705Y012008D02*
X003495Y012008D01*
X003407Y012648D02*
X003407Y013018D01*
X003406Y013018D02*
X003408Y013031D01*
X003412Y013044D01*
X003419Y013056D01*
X003429Y013066D01*
X003441Y013073D01*
X003454Y013078D01*
X003467Y013079D01*
X003468Y013079D02*
X003468Y013079D01*
X003483Y013077D01*
X003497Y013072D01*
X003509Y013065D01*
X003520Y013054D01*
X003527Y013042D01*
X003532Y013028D01*
X003534Y013013D01*
X003534Y012952D01*
X003536Y012935D01*
X003541Y012918D01*
X003549Y012903D01*
X003560Y012890D01*
X003573Y012879D01*
X003588Y012871D01*
X003605Y012866D01*
X003622Y012864D01*
X003633Y012864D01*
X003650Y012866D01*
X003667Y012871D01*
X003682Y012879D01*
X003695Y012890D01*
X003706Y012903D01*
X003714Y012918D01*
X003719Y012935D01*
X003721Y012952D01*
X003721Y013018D01*
X003723Y013032D01*
X003727Y013044D01*
X003734Y013056D01*
X003744Y013066D01*
X003756Y013073D01*
X003768Y013077D01*
X003782Y013079D01*
X003797Y013077D01*
X003811Y013072D01*
X003823Y013065D01*
X003834Y013054D01*
X003841Y013042D01*
X003846Y013028D01*
X003848Y013013D01*
X003848Y012648D02*
X000344Y012648D01*
X000344Y009651D01*
X001768Y009651D01*
X001768Y009282D01*
X001768Y009281D02*
X001767Y009268D01*
X001762Y009255D01*
X001755Y009243D01*
X001745Y009233D01*
X001733Y009226D01*
X001720Y009221D01*
X001707Y009220D01*
X001707Y009221D02*
X001707Y009221D01*
X001692Y009223D01*
X001678Y009228D01*
X001666Y009235D01*
X001655Y009246D01*
X001648Y009258D01*
X001643Y009272D01*
X001641Y009287D01*
X001641Y009348D01*
X001640Y009348D02*
X001638Y009365D01*
X001633Y009382D01*
X001625Y009397D01*
X001614Y009410D01*
X001601Y009421D01*
X001586Y009429D01*
X001569Y009434D01*
X001552Y009436D01*
X001541Y009436D01*
X001524Y009434D01*
X001507Y009429D01*
X001492Y009421D01*
X001479Y009410D01*
X001468Y009397D01*
X001460Y009382D01*
X001455Y009365D01*
X001453Y009348D01*
X001453Y009282D01*
X001451Y009268D01*
X001447Y009256D01*
X001440Y009244D01*
X001430Y009234D01*
X001418Y009227D01*
X001406Y009223D01*
X001392Y009221D01*
X001377Y009223D01*
X001363Y009228D01*
X001351Y009235D01*
X001340Y009246D01*
X001333Y009258D01*
X001328Y009272D01*
X001326Y009287D01*
X001326Y009629D01*
X001768Y009651D02*
X003848Y009651D01*
X003848Y009282D01*
X003849Y009281D02*
X003848Y009268D01*
X003843Y009255D01*
X003836Y009243D01*
X003826Y009233D01*
X003814Y009226D01*
X003801Y009221D01*
X003788Y009220D01*
X003788Y009221D02*
X003788Y009221D01*
X003773Y009223D01*
X003759Y009228D01*
X003747Y009235D01*
X003736Y009246D01*
X003729Y009258D01*
X003724Y009272D01*
X003722Y009287D01*
X003721Y009287D02*
X003721Y009348D01*
X003719Y009365D01*
X003714Y009382D01*
X003706Y009397D01*
X003695Y009410D01*
X003682Y009421D01*
X003667Y009429D01*
X003650Y009434D01*
X003633Y009436D01*
X003622Y009436D01*
X003605Y009434D01*
X003588Y009429D01*
X003573Y009421D01*
X003560Y009410D01*
X003549Y009397D01*
X003541Y009382D01*
X003536Y009365D01*
X003534Y009348D01*
X003534Y009282D01*
X003532Y009268D01*
X003528Y009256D01*
X003521Y009244D01*
X003511Y009234D01*
X003499Y009227D01*
X003487Y009223D01*
X003473Y009221D01*
X003458Y009223D01*
X003444Y009228D01*
X003432Y009235D01*
X003421Y009246D01*
X003414Y009258D01*
X003409Y009272D01*
X003407Y009287D01*
X003407Y009629D01*
X003848Y009651D02*
X003848Y010154D01*
X003846Y010176D01*
X003841Y010197D01*
X003833Y010217D01*
X003822Y010235D01*
X003808Y010252D01*
X003791Y010266D01*
X003773Y010277D01*
X003753Y010285D01*
X003732Y010290D01*
X003710Y010292D01*
X003479Y010292D01*
X004364Y010361D02*
X004364Y010130D01*
X004824Y010130D01*
X004671Y010130D02*
X004671Y010361D01*
X004594Y010437D01*
X004440Y010437D01*
X004364Y010361D01*
X004364Y010591D02*
X004824Y010591D01*
X004824Y010898D01*
X004747Y011051D02*
X004824Y011128D01*
X004824Y011281D01*
X004747Y011358D01*
X004671Y011358D01*
X004594Y011281D01*
X004594Y011128D01*
X004517Y011051D01*
X004440Y011051D01*
X004364Y011128D01*
X004364Y011281D01*
X004440Y011358D01*
X004440Y011512D02*
X004517Y011512D01*
X004594Y011588D01*
X004594Y011742D01*
X004671Y011818D01*
X004747Y011818D01*
X004824Y011742D01*
X004824Y011588D01*
X004747Y011512D01*
X004440Y011512D02*
X004364Y011588D01*
X004364Y011742D01*
X004440Y011818D01*
X004364Y010898D02*
X004364Y010591D01*
X004594Y010591D02*
X004594Y010744D01*
X004824Y010437D02*
X004671Y010284D01*
X004594Y009977D02*
X004440Y009977D01*
X004364Y009900D01*
X004364Y009670D01*
X004824Y009670D01*
X004671Y009670D02*
X004671Y009900D01*
X004594Y009977D01*
X002474Y009949D02*
X002474Y009673D01*
X002474Y009950D02*
X002473Y009962D01*
X002469Y009973D01*
X002462Y009983D01*
X002453Y009991D01*
X002442Y009997D01*
X002430Y009999D01*
X001089Y010087D01*
X001071Y010089D01*
X001053Y010094D01*
X001037Y010103D01*
X001022Y010115D01*
X001010Y010129D01*
X001001Y010145D01*
X000995Y010163D01*
X000993Y010181D01*
X000994Y010200D01*
X000999Y010218D01*
X001007Y010234D01*
X001018Y010249D01*
X001032Y010262D01*
X001048Y010271D01*
X001065Y010278D01*
X001084Y010281D01*
X001083Y010281D02*
X002419Y010369D01*
X002433Y010371D01*
X002445Y010377D01*
X002457Y010386D01*
X002465Y010396D01*
X002471Y010409D01*
X002474Y010423D01*
X002473Y010437D01*
X002469Y010450D01*
X002462Y010462D01*
X002452Y010472D01*
X002441Y010480D01*
X002427Y010484D01*
X002413Y010485D01*
X000967Y010419D01*
X000951Y010419D01*
X000929Y010417D01*
X000908Y010412D01*
X000888Y010404D01*
X000870Y010393D01*
X000853Y010379D01*
X000839Y010362D01*
X000828Y010344D01*
X000820Y010324D01*
X000815Y010303D01*
X000813Y010281D01*
X000813Y009673D01*
X000873Y010639D02*
X002446Y010722D01*
X002469Y010724D01*
X002490Y010729D01*
X002511Y010738D01*
X002531Y010750D01*
X002548Y010764D01*
X002562Y010781D01*
X002574Y010801D01*
X002583Y010822D01*
X002588Y010843D01*
X002590Y010866D01*
X002590Y011445D01*
X002588Y011466D01*
X002583Y011486D01*
X002575Y011505D01*
X002565Y011523D01*
X002551Y011539D01*
X002535Y011553D01*
X002517Y011563D01*
X002498Y011571D01*
X002478Y011576D01*
X002457Y011578D01*
X000873Y011660D01*
X000874Y011661D02*
X000860Y011660D01*
X000847Y011655D01*
X000836Y011647D01*
X000827Y011637D01*
X000821Y011624D01*
X000818Y011611D01*
X000819Y011597D01*
X000824Y011584D01*
X000832Y011573D01*
X000842Y011564D01*
X000855Y011558D01*
X000868Y011555D01*
X000868Y011556D02*
X002093Y011489D01*
X002117Y011487D01*
X002141Y011482D01*
X002164Y011474D01*
X002185Y011462D01*
X002205Y011447D01*
X002222Y011430D01*
X002237Y011410D01*
X002249Y011389D01*
X002257Y011366D01*
X002262Y011342D01*
X002264Y011318D01*
X002264Y010971D01*
X002265Y010971D02*
X002263Y010947D01*
X002258Y010924D01*
X002250Y010902D01*
X002239Y010881D01*
X002224Y010862D01*
X002208Y010846D01*
X002189Y010831D01*
X002168Y010820D01*
X002146Y010812D01*
X002123Y010807D01*
X002099Y010805D01*
X002071Y010805D01*
X000873Y010750D01*
X000860Y010748D01*
X000847Y010742D01*
X000836Y010733D01*
X000828Y010722D01*
X000823Y010709D01*
X000821Y010695D01*
X000823Y010681D01*
X000828Y010668D01*
X000836Y010657D01*
X000847Y010648D01*
X000860Y010642D01*
X000873Y010640D01*
X000951Y011881D02*
X000967Y011881D01*
X002413Y011815D01*
X002427Y011816D01*
X002441Y011820D01*
X002452Y011828D01*
X002462Y011838D01*
X002469Y011850D01*
X002473Y011863D01*
X002474Y011877D01*
X002471Y011891D01*
X002465Y011904D01*
X002457Y011914D01*
X002445Y011923D01*
X002433Y011929D01*
X002419Y011931D01*
X001083Y012019D01*
X001084Y012019D02*
X001065Y012022D01*
X001048Y012029D01*
X001032Y012038D01*
X001018Y012051D01*
X001007Y012066D01*
X000999Y012082D01*
X000994Y012100D01*
X000993Y012119D01*
X000995Y012137D01*
X001001Y012155D01*
X001010Y012171D01*
X001022Y012185D01*
X001037Y012197D01*
X001053Y012206D01*
X001071Y012211D01*
X001089Y012213D01*
X001089Y012212D02*
X002430Y012301D01*
X002442Y012303D01*
X002453Y012309D01*
X002462Y012317D01*
X002469Y012327D01*
X002473Y012338D01*
X002474Y012350D01*
X002474Y012626D01*
X001768Y012670D02*
X001768Y013013D01*
X001767Y013013D02*
X001765Y013028D01*
X001760Y013042D01*
X001753Y013054D01*
X001742Y013065D01*
X001730Y013072D01*
X001716Y013077D01*
X001701Y013079D01*
X001687Y013077D01*
X001675Y013073D01*
X001663Y013066D01*
X001653Y013056D01*
X001646Y013044D01*
X001642Y013032D01*
X001640Y013018D01*
X001641Y013018D02*
X001641Y012952D01*
X001640Y012952D02*
X001638Y012935D01*
X001633Y012918D01*
X001625Y012903D01*
X001614Y012890D01*
X001601Y012879D01*
X001586Y012871D01*
X001569Y012866D01*
X001552Y012864D01*
X001541Y012864D01*
X001524Y012866D01*
X001507Y012871D01*
X001492Y012879D01*
X001479Y012890D01*
X001468Y012903D01*
X001460Y012918D01*
X001455Y012935D01*
X001453Y012952D01*
X001453Y013013D01*
X001451Y013028D01*
X001446Y013042D01*
X001439Y013054D01*
X001428Y013065D01*
X001416Y013072D01*
X001402Y013077D01*
X001387Y013079D01*
X001387Y013079D01*
X001374Y013078D01*
X001361Y013073D01*
X001349Y013066D01*
X001339Y013056D01*
X001332Y013044D01*
X001327Y013031D01*
X001326Y013018D01*
X001326Y012648D01*
X000813Y012019D02*
X000815Y011997D01*
X000820Y011976D01*
X000828Y011956D01*
X000839Y011938D01*
X000853Y011921D01*
X000870Y011907D01*
X000888Y011896D01*
X000908Y011888D01*
X000929Y011883D01*
X000951Y011881D01*
X000813Y012019D02*
X000813Y012626D01*
X005183Y004980D02*
X005183Y004520D01*
X005490Y004520D01*
X005643Y004597D02*
X005720Y004520D01*
X005873Y004520D01*
X005950Y004597D01*
X006104Y004750D02*
X006411Y004750D01*
X006334Y004520D02*
X006334Y004980D01*
X006104Y004750D01*
X005950Y004904D02*
X005873Y004980D01*
X005720Y004980D01*
X005643Y004904D01*
X005643Y004597D01*
X006040Y004004D02*
X006543Y004004D01*
X006912Y004004D01*
X006913Y004005D02*
X006926Y004004D01*
X006939Y003999D01*
X006951Y003992D01*
X006961Y003982D01*
X006968Y003970D01*
X006973Y003957D01*
X006974Y003944D01*
X006973Y003944D02*
X006973Y003944D01*
X006971Y003929D01*
X006966Y003915D01*
X006959Y003903D01*
X006948Y003892D01*
X006936Y003885D01*
X006922Y003880D01*
X006907Y003878D01*
X006907Y003877D02*
X006846Y003877D01*
X006829Y003875D01*
X006812Y003870D01*
X006797Y003862D01*
X006784Y003851D01*
X006773Y003838D01*
X006765Y003823D01*
X006760Y003806D01*
X006758Y003789D01*
X006758Y003778D01*
X006760Y003761D01*
X006765Y003744D01*
X006773Y003729D01*
X006784Y003716D01*
X006797Y003705D01*
X006812Y003697D01*
X006829Y003692D01*
X006846Y003690D01*
X006912Y003690D01*
X006926Y003688D01*
X006938Y003684D01*
X006950Y003677D01*
X006960Y003667D01*
X006967Y003655D01*
X006971Y003643D01*
X006973Y003629D01*
X006971Y003614D01*
X006966Y003600D01*
X006959Y003588D01*
X006948Y003577D01*
X006936Y003570D01*
X006922Y003565D01*
X006907Y003563D01*
X006565Y003563D01*
X006543Y004004D02*
X006543Y001924D01*
X006912Y001924D01*
X006913Y001924D02*
X006926Y001923D01*
X006939Y001918D01*
X006951Y001911D01*
X006961Y001901D01*
X006968Y001889D01*
X006973Y001876D01*
X006974Y001863D01*
X006973Y001863D02*
X006973Y001863D01*
X006971Y001848D01*
X006966Y001834D01*
X006959Y001822D01*
X006948Y001811D01*
X006936Y001804D01*
X006922Y001799D01*
X006907Y001797D01*
X006846Y001797D01*
X006846Y001796D02*
X006829Y001794D01*
X006812Y001789D01*
X006797Y001781D01*
X006784Y001770D01*
X006773Y001757D01*
X006765Y001742D01*
X006760Y001725D01*
X006758Y001708D01*
X006758Y001697D01*
X006760Y001680D01*
X006765Y001663D01*
X006773Y001648D01*
X006784Y001635D01*
X006797Y001624D01*
X006812Y001616D01*
X006829Y001611D01*
X006846Y001609D01*
X006912Y001609D01*
X006926Y001607D01*
X006938Y001603D01*
X006950Y001596D01*
X006960Y001586D01*
X006967Y001574D01*
X006971Y001562D01*
X006973Y001548D01*
X006971Y001533D01*
X006966Y001519D01*
X006959Y001507D01*
X006948Y001496D01*
X006936Y001489D01*
X006922Y001484D01*
X006907Y001482D01*
X006565Y001482D01*
X006543Y001924D02*
X006543Y000500D01*
X003546Y000500D01*
X003546Y004004D01*
X004042Y004004D01*
X004064Y004002D01*
X004086Y003997D01*
X004107Y003988D01*
X004126Y003977D01*
X004143Y003962D01*
X004158Y003945D01*
X004169Y003926D01*
X004178Y003905D01*
X004183Y003883D01*
X004185Y003861D01*
X004186Y003861D02*
X004186Y003651D01*
X003546Y003563D02*
X003176Y003563D01*
X003176Y003562D02*
X003163Y003564D01*
X003150Y003568D01*
X003138Y003575D01*
X003128Y003585D01*
X003121Y003597D01*
X003116Y003610D01*
X003115Y003623D01*
X003115Y003624D02*
X003115Y003624D01*
X003117Y003639D01*
X003122Y003653D01*
X003129Y003665D01*
X003140Y003676D01*
X003152Y003683D01*
X003166Y003688D01*
X003181Y003690D01*
X003242Y003690D01*
X003259Y003692D01*
X003276Y003697D01*
X003291Y003705D01*
X003304Y003716D01*
X003315Y003729D01*
X003323Y003744D01*
X003328Y003761D01*
X003330Y003778D01*
X003330Y003789D01*
X003328Y003806D01*
X003323Y003823D01*
X003315Y003838D01*
X003304Y003851D01*
X003291Y003862D01*
X003276Y003870D01*
X003259Y003875D01*
X003242Y003877D01*
X003176Y003877D01*
X003162Y003879D01*
X003150Y003883D01*
X003138Y003890D01*
X003128Y003900D01*
X003121Y003912D01*
X003117Y003924D01*
X003115Y003938D01*
X003117Y003953D01*
X003122Y003967D01*
X003129Y003979D01*
X003140Y003990D01*
X003152Y003997D01*
X003166Y004002D01*
X003181Y004004D01*
X003551Y004004D01*
X003568Y002630D02*
X003844Y002630D01*
X003856Y002629D01*
X003867Y002625D01*
X003877Y002618D01*
X003885Y002609D01*
X003891Y002598D01*
X003893Y002586D01*
X003982Y001245D01*
X003981Y001245D02*
X003983Y001227D01*
X003988Y001209D01*
X003997Y001193D01*
X004009Y001178D01*
X004023Y001166D01*
X004039Y001157D01*
X004057Y001151D01*
X004075Y001149D01*
X004094Y001150D01*
X004112Y001155D01*
X004128Y001163D01*
X004143Y001174D01*
X004156Y001188D01*
X004165Y001204D01*
X004172Y001221D01*
X004175Y001240D01*
X004175Y001239D02*
X004263Y002575D01*
X004265Y002589D01*
X004271Y002601D01*
X004280Y002613D01*
X004290Y002621D01*
X004303Y002627D01*
X004317Y002630D01*
X004331Y002629D01*
X004344Y002625D01*
X004356Y002618D01*
X004366Y002608D01*
X004374Y002597D01*
X004378Y002583D01*
X004379Y002569D01*
X004313Y001123D01*
X004313Y001107D01*
X004311Y001085D01*
X004306Y001064D01*
X004298Y001044D01*
X004287Y001026D01*
X004273Y001009D01*
X004256Y000995D01*
X004238Y000984D01*
X004218Y000976D01*
X004197Y000971D01*
X004175Y000969D01*
X003568Y000969D01*
X003546Y001482D02*
X003176Y001482D01*
X003163Y001483D01*
X003150Y001488D01*
X003138Y001495D01*
X003128Y001505D01*
X003121Y001517D01*
X003116Y001530D01*
X003115Y001543D01*
X003115Y001543D01*
X003117Y001558D01*
X003122Y001572D01*
X003129Y001584D01*
X003140Y001595D01*
X003152Y001602D01*
X003166Y001607D01*
X003181Y001609D01*
X003242Y001609D01*
X003259Y001611D01*
X003276Y001616D01*
X003291Y001624D01*
X003304Y001635D01*
X003315Y001648D01*
X003323Y001663D01*
X003328Y001680D01*
X003330Y001697D01*
X003330Y001708D01*
X003328Y001725D01*
X003323Y001742D01*
X003315Y001757D01*
X003304Y001770D01*
X003291Y001781D01*
X003276Y001789D01*
X003259Y001794D01*
X003242Y001796D01*
X003242Y001797D02*
X003176Y001797D01*
X003176Y001796D02*
X003162Y001798D01*
X003150Y001802D01*
X003138Y001809D01*
X003128Y001819D01*
X003121Y001831D01*
X003117Y001843D01*
X003115Y001857D01*
X003117Y001872D01*
X003122Y001886D01*
X003129Y001898D01*
X003140Y001909D01*
X003152Y001916D01*
X003166Y001921D01*
X003181Y001923D01*
X003181Y001924D02*
X003524Y001924D01*
X004705Y002249D02*
X004638Y001024D01*
X004639Y001024D02*
X004636Y001011D01*
X004630Y000998D01*
X004621Y000988D01*
X004610Y000980D01*
X004597Y000975D01*
X004583Y000974D01*
X004570Y000977D01*
X004557Y000983D01*
X004547Y000992D01*
X004539Y001003D01*
X004534Y001016D01*
X004533Y001030D01*
X004534Y001029D02*
X004616Y002614D01*
X004616Y002613D02*
X004618Y002634D01*
X004623Y002654D01*
X004631Y002673D01*
X004641Y002691D01*
X004655Y002707D01*
X004671Y002721D01*
X004689Y002731D01*
X004708Y002739D01*
X004728Y002744D01*
X004749Y002746D01*
X005328Y002746D01*
X005351Y002744D01*
X005372Y002739D01*
X005393Y002730D01*
X005413Y002718D01*
X005430Y002704D01*
X005444Y002687D01*
X005456Y002667D01*
X005465Y002646D01*
X005470Y002625D01*
X005472Y002602D01*
X005555Y001029D01*
X005554Y001029D02*
X005552Y001016D01*
X005546Y001003D01*
X005537Y000992D01*
X005526Y000984D01*
X005513Y000979D01*
X005499Y000977D01*
X005485Y000979D01*
X005472Y000984D01*
X005461Y000992D01*
X005452Y001003D01*
X005446Y001016D01*
X005444Y001029D01*
X005389Y002227D01*
X005389Y002255D01*
X005387Y002279D01*
X005382Y002302D01*
X005374Y002324D01*
X005363Y002345D01*
X005348Y002364D01*
X005332Y002380D01*
X005313Y002395D01*
X005292Y002406D01*
X005270Y002414D01*
X005247Y002419D01*
X005223Y002421D01*
X005223Y002420D02*
X004876Y002420D01*
X004852Y002418D01*
X004828Y002413D01*
X004805Y002405D01*
X004784Y002393D01*
X004764Y002378D01*
X004747Y002361D01*
X004732Y002341D01*
X004720Y002320D01*
X004712Y002297D01*
X004707Y002273D01*
X004705Y002249D01*
X005709Y002569D02*
X005775Y001123D01*
X005775Y001107D01*
X005777Y001085D01*
X005782Y001064D01*
X005790Y001044D01*
X005801Y001026D01*
X005815Y001009D01*
X005832Y000995D01*
X005850Y000984D01*
X005870Y000976D01*
X005891Y000971D01*
X005913Y000969D01*
X006521Y000969D01*
X006107Y001245D02*
X006195Y002586D01*
X006197Y002598D01*
X006203Y002609D01*
X006211Y002618D01*
X006221Y002625D01*
X006232Y002629D01*
X006244Y002630D01*
X006245Y002630D02*
X006521Y002630D01*
X005825Y002575D02*
X005913Y001239D01*
X005913Y001240D02*
X005916Y001221D01*
X005923Y001204D01*
X005932Y001188D01*
X005945Y001174D01*
X005960Y001163D01*
X005976Y001155D01*
X005994Y001150D01*
X006013Y001149D01*
X006031Y001151D01*
X006049Y001157D01*
X006065Y001166D01*
X006079Y001178D01*
X006091Y001193D01*
X006100Y001209D01*
X006105Y001227D01*
X006107Y001245D01*
X005825Y002575D02*
X005823Y002589D01*
X005817Y002601D01*
X005808Y002613D01*
X005798Y002621D01*
X005785Y002627D01*
X005771Y002630D01*
X005757Y002629D01*
X005744Y002625D01*
X005732Y002618D01*
X005722Y002608D01*
X005714Y002597D01*
X005710Y002583D01*
X005709Y002569D01*
X005902Y003635D02*
X005902Y003866D01*
X005904Y003888D01*
X005909Y003909D01*
X005917Y003929D01*
X005928Y003947D01*
X005942Y003964D01*
X005959Y003978D01*
X005977Y003989D01*
X005997Y003997D01*
X006018Y004002D01*
X006040Y004004D01*
X009465Y003624D02*
X009465Y003624D01*
X009465Y003623D02*
X009466Y003610D01*
X009471Y003597D01*
X009478Y003585D01*
X009488Y003575D01*
X009500Y003568D01*
X009513Y003564D01*
X009526Y003562D01*
X009526Y003563D02*
X009896Y003563D01*
X009680Y003778D02*
X009680Y003789D01*
X009678Y003806D01*
X009673Y003823D01*
X009665Y003838D01*
X009654Y003851D01*
X009641Y003862D01*
X009626Y003870D01*
X009609Y003875D01*
X009592Y003877D01*
X009526Y003877D01*
X009512Y003879D01*
X009500Y003883D01*
X009488Y003890D01*
X009478Y003900D01*
X009471Y003912D01*
X009467Y003924D01*
X009465Y003938D01*
X009467Y003953D01*
X009472Y003967D01*
X009479Y003979D01*
X009490Y003990D01*
X009502Y003997D01*
X009516Y004002D01*
X009531Y004004D01*
X009901Y004004D01*
X009896Y004004D02*
X010392Y004004D01*
X010414Y004002D01*
X010436Y003997D01*
X010457Y003988D01*
X010476Y003977D01*
X010493Y003962D01*
X010508Y003945D01*
X010519Y003926D01*
X010528Y003905D01*
X010533Y003883D01*
X010535Y003861D01*
X010536Y003861D02*
X010536Y003651D01*
X009896Y004004D02*
X009896Y000500D01*
X012893Y000500D01*
X012893Y001924D01*
X013262Y001924D01*
X013263Y001924D02*
X013276Y001923D01*
X013289Y001918D01*
X013301Y001911D01*
X013311Y001901D01*
X013318Y001889D01*
X013323Y001876D01*
X013324Y001863D01*
X013323Y001863D02*
X013323Y001863D01*
X013321Y001848D01*
X013316Y001834D01*
X013309Y001822D01*
X013298Y001811D01*
X013286Y001804D01*
X013272Y001799D01*
X013257Y001797D01*
X013196Y001797D01*
X013196Y001796D02*
X013179Y001794D01*
X013162Y001789D01*
X013147Y001781D01*
X013134Y001770D01*
X013123Y001757D01*
X013115Y001742D01*
X013110Y001725D01*
X013108Y001708D01*
X013108Y001697D01*
X013110Y001680D01*
X013115Y001663D01*
X013123Y001648D01*
X013134Y001635D01*
X013147Y001624D01*
X013162Y001616D01*
X013179Y001611D01*
X013196Y001609D01*
X013262Y001609D01*
X013276Y001607D01*
X013288Y001603D01*
X013300Y001596D01*
X013310Y001586D01*
X013317Y001574D01*
X013321Y001562D01*
X013323Y001548D01*
X013321Y001533D01*
X013316Y001519D01*
X013309Y001507D01*
X013298Y001496D01*
X013286Y001489D01*
X013272Y001484D01*
X013257Y001482D01*
X012915Y001482D01*
X012893Y001924D02*
X012893Y004004D01*
X013262Y004004D01*
X013263Y004005D02*
X013276Y004004D01*
X013289Y003999D01*
X013301Y003992D01*
X013311Y003982D01*
X013318Y003970D01*
X013323Y003957D01*
X013324Y003944D01*
X013323Y003944D02*
X013323Y003944D01*
X013321Y003929D01*
X013316Y003915D01*
X013309Y003903D01*
X013298Y003892D01*
X013286Y003885D01*
X013272Y003880D01*
X013257Y003878D01*
X013257Y003877D02*
X013196Y003877D01*
X013179Y003875D01*
X013162Y003870D01*
X013147Y003862D01*
X013134Y003851D01*
X013123Y003838D01*
X013115Y003823D01*
X013110Y003806D01*
X013108Y003789D01*
X013108Y003778D01*
X013110Y003761D01*
X013115Y003744D01*
X013123Y003729D01*
X013134Y003716D01*
X013147Y003705D01*
X013162Y003697D01*
X013179Y003692D01*
X013196Y003690D01*
X013262Y003690D01*
X013276Y003688D01*
X013288Y003684D01*
X013300Y003677D01*
X013310Y003667D01*
X013317Y003655D01*
X013321Y003643D01*
X013323Y003629D01*
X013321Y003614D01*
X013316Y003600D01*
X013309Y003588D01*
X013298Y003577D01*
X013286Y003570D01*
X013272Y003565D01*
X013257Y003563D01*
X012915Y003563D01*
X012893Y004004D02*
X012390Y004004D01*
X012368Y004002D01*
X012347Y003997D01*
X012327Y003989D01*
X012309Y003978D01*
X012292Y003964D01*
X012278Y003947D01*
X012267Y003929D01*
X012259Y003909D01*
X012254Y003888D01*
X012252Y003866D01*
X012252Y003635D01*
X012234Y004070D02*
X012080Y004070D01*
X012004Y004147D01*
X012004Y004223D01*
X012080Y004300D01*
X012234Y004300D01*
X012311Y004223D01*
X012311Y004147D01*
X012234Y004070D01*
X012234Y004300D02*
X012311Y004377D01*
X012311Y004454D01*
X012234Y004530D01*
X012080Y004530D01*
X012004Y004454D01*
X012004Y004377D01*
X012080Y004300D01*
X012070Y004520D02*
X012223Y004520D01*
X012300Y004597D01*
X012454Y004597D02*
X012530Y004520D01*
X012684Y004520D01*
X012761Y004597D01*
X012761Y004673D01*
X012684Y004750D01*
X012607Y004750D01*
X012684Y004750D02*
X012761Y004827D01*
X012761Y004904D01*
X012684Y004980D01*
X012530Y004980D01*
X012454Y004904D01*
X012300Y004904D02*
X012223Y004980D01*
X012070Y004980D01*
X011993Y004904D01*
X011993Y004597D01*
X012070Y004520D01*
X011850Y004454D02*
X011773Y004530D01*
X011620Y004530D01*
X011543Y004454D01*
X011533Y004520D02*
X011840Y004520D01*
X011850Y004454D02*
X011850Y004377D01*
X011773Y004300D01*
X011850Y004223D01*
X011850Y004147D01*
X011773Y004070D01*
X011620Y004070D01*
X011543Y004147D01*
X011390Y004070D02*
X011236Y004223D01*
X011313Y004223D02*
X011083Y004223D01*
X011083Y004070D02*
X011083Y004530D01*
X011313Y004530D01*
X011390Y004454D01*
X011390Y004300D01*
X011313Y004223D01*
X011533Y004520D02*
X011533Y004980D01*
X011554Y005420D02*
X011554Y005497D01*
X011861Y005804D01*
X011861Y005880D01*
X011554Y005880D01*
X011400Y005804D02*
X011400Y005727D01*
X011323Y005650D01*
X011400Y005573D01*
X011400Y005497D01*
X011323Y005420D01*
X011170Y005420D01*
X011093Y005497D01*
X010940Y005420D02*
X010786Y005573D01*
X010863Y005573D02*
X010633Y005573D01*
X010633Y005420D02*
X010633Y005880D01*
X010863Y005880D01*
X010940Y005804D01*
X010940Y005650D01*
X010863Y005573D01*
X011093Y005804D02*
X011170Y005880D01*
X011323Y005880D01*
X011400Y005804D01*
X011323Y005650D02*
X011247Y005650D01*
X011697Y004300D02*
X011773Y004300D01*
X012764Y004947D02*
X012841Y004870D01*
X012994Y004870D01*
X013071Y004947D01*
X013224Y004947D02*
X013301Y004870D01*
X013455Y004870D01*
X013531Y004947D01*
X013531Y005023D01*
X013455Y005100D01*
X013378Y005100D01*
X013455Y005100D02*
X013531Y005177D01*
X013531Y005254D01*
X013455Y005330D01*
X013301Y005330D01*
X013224Y005254D01*
X013071Y005254D02*
X012994Y005330D01*
X012841Y005330D01*
X012764Y005254D01*
X012764Y004947D01*
X013685Y004947D02*
X013761Y004870D01*
X013915Y004870D01*
X013992Y004947D01*
X013992Y005023D01*
X013915Y005100D01*
X013685Y005100D01*
X013685Y004947D01*
X013685Y005100D02*
X013838Y005254D01*
X013992Y005330D01*
X015264Y005447D02*
X015340Y005370D01*
X015647Y005370D01*
X015724Y005447D01*
X015724Y005600D01*
X015647Y005677D01*
X015647Y005830D02*
X015724Y005907D01*
X015724Y006061D01*
X015647Y006137D01*
X015571Y006137D01*
X015494Y006061D01*
X015494Y005984D01*
X015494Y006061D02*
X015417Y006137D01*
X015340Y006137D01*
X015264Y006061D01*
X015264Y005907D01*
X015340Y005830D01*
X015340Y005677D02*
X015264Y005600D01*
X015264Y005447D01*
X015494Y006291D02*
X015494Y006598D01*
X015724Y006521D02*
X015264Y006521D01*
X015494Y006291D01*
X016464Y006094D02*
X016924Y006094D01*
X016940Y006189D02*
X017247Y006189D01*
X017324Y006266D01*
X017324Y006419D01*
X017247Y006496D01*
X017324Y006649D02*
X017324Y006956D01*
X017324Y006803D02*
X016864Y006803D01*
X017017Y006649D01*
X016940Y006496D02*
X016864Y006419D01*
X016864Y006266D01*
X016940Y006189D01*
X016924Y006248D02*
X016924Y005941D01*
X016847Y005787D02*
X016924Y005711D01*
X016924Y005557D01*
X016847Y005480D01*
X016924Y005327D02*
X016771Y005173D01*
X016771Y005250D02*
X016771Y005020D01*
X016924Y005020D02*
X016464Y005020D01*
X016464Y005250D01*
X016540Y005327D01*
X016694Y005327D01*
X016771Y005250D01*
X016540Y005480D02*
X016464Y005557D01*
X016464Y005711D01*
X016540Y005787D01*
X016617Y005787D01*
X016694Y005711D01*
X016771Y005787D01*
X016847Y005787D01*
X016694Y005711D02*
X016694Y005634D01*
X016617Y005941D02*
X016464Y006094D01*
X017017Y007110D02*
X016864Y007263D01*
X017324Y007263D01*
X017324Y007110D02*
X017324Y007417D01*
X017290Y008670D02*
X017597Y008670D01*
X017674Y008747D01*
X017674Y008900D01*
X017597Y008977D01*
X017674Y009130D02*
X017367Y009437D01*
X017290Y009437D01*
X017214Y009361D01*
X017214Y009207D01*
X017290Y009130D01*
X017290Y008977D02*
X017214Y008900D01*
X017214Y008747D01*
X017290Y008670D01*
X017674Y009130D02*
X017674Y009437D01*
X017597Y009591D02*
X017674Y009668D01*
X017674Y009821D01*
X017597Y009898D01*
X017521Y009898D01*
X017444Y009821D01*
X017444Y009744D01*
X017444Y009821D02*
X017367Y009898D01*
X017290Y009898D01*
X017214Y009821D01*
X017214Y009668D01*
X017290Y009591D01*
X017199Y010281D02*
X017122Y010358D01*
X017122Y010512D01*
X017199Y010588D01*
X017122Y010742D02*
X017352Y010742D01*
X017275Y010895D01*
X017275Y010972D01*
X017352Y011049D01*
X017506Y011049D01*
X017582Y010972D01*
X017582Y010819D01*
X017506Y010742D01*
X017506Y010588D02*
X017582Y010512D01*
X017582Y010358D01*
X017506Y010281D01*
X017199Y010281D01*
X017122Y010742D02*
X017122Y011049D01*
X015774Y011034D02*
X015314Y011034D01*
X015467Y010880D01*
X015390Y010727D02*
X015314Y010650D01*
X015314Y010497D01*
X015390Y010420D01*
X015697Y010420D01*
X015774Y010497D01*
X015774Y010650D01*
X015697Y010727D01*
X015774Y010880D02*
X015774Y011187D01*
X015697Y011341D02*
X015774Y011418D01*
X015774Y011571D01*
X015697Y011648D01*
X015621Y011648D01*
X015544Y011571D01*
X015544Y011494D01*
X015544Y011571D02*
X015467Y011648D01*
X015390Y011648D01*
X015314Y011571D01*
X015314Y011418D01*
X015390Y011341D01*
X013440Y010655D02*
X013233Y010655D01*
X013336Y010655D02*
X013336Y010965D01*
X013233Y010862D01*
X013117Y010965D02*
X013117Y010707D01*
X013066Y010655D01*
X012962Y010655D01*
X012911Y010707D01*
X012911Y010965D01*
X013490Y013489D02*
X013797Y013489D01*
X013874Y013566D01*
X013874Y013719D01*
X013797Y013796D01*
X013874Y013949D02*
X013874Y014256D01*
X013874Y014103D02*
X013414Y014103D01*
X013567Y013949D01*
X013490Y013796D02*
X013414Y013719D01*
X013414Y013566D01*
X013490Y013489D01*
X014694Y013709D02*
X014694Y013939D01*
X014770Y014016D01*
X014924Y014016D01*
X015001Y013939D01*
X015001Y013709D01*
X015154Y013709D02*
X014694Y013709D01*
X015001Y013863D02*
X015154Y014016D01*
X015077Y014170D02*
X015154Y014246D01*
X015154Y014400D01*
X015077Y014477D01*
X015001Y014477D01*
X014924Y014400D01*
X014924Y014323D01*
X014924Y014400D02*
X014847Y014477D01*
X014770Y014477D01*
X014694Y014400D01*
X014694Y014246D01*
X014770Y014170D01*
X013874Y014486D02*
X013797Y014410D01*
X013874Y014486D02*
X013874Y014640D01*
X013797Y014717D01*
X013644Y014717D01*
X013567Y014640D01*
X013567Y014563D01*
X013644Y014410D01*
X013414Y014410D01*
X013414Y014717D01*
X012755Y016220D02*
X012601Y016220D01*
X012524Y016297D01*
X012524Y016373D01*
X012601Y016450D01*
X012755Y016450D01*
X012831Y016373D01*
X012831Y016297D01*
X012755Y016220D01*
X012755Y016450D02*
X012831Y016527D01*
X012831Y016604D01*
X012755Y016680D01*
X012601Y016680D01*
X012524Y016604D01*
X012524Y016527D01*
X012601Y016450D01*
X012371Y016297D02*
X012294Y016220D01*
X012141Y016220D01*
X012064Y016297D01*
X012064Y016604D01*
X012141Y016680D01*
X012294Y016680D01*
X012371Y016604D01*
X012980Y017910D02*
X013287Y017910D01*
X013364Y017987D01*
X013364Y018140D01*
X013287Y018217D01*
X013364Y018370D02*
X013364Y018677D01*
X013364Y018524D02*
X012904Y018524D01*
X013057Y018370D01*
X012980Y018217D02*
X012904Y018140D01*
X012904Y017987D01*
X012980Y017910D01*
X013134Y018831D02*
X013134Y019138D01*
X013364Y019061D02*
X012904Y019061D01*
X013134Y018831D01*
X014434Y020156D02*
X014510Y020079D01*
X014817Y020079D01*
X014894Y020156D01*
X014894Y020309D01*
X014817Y020386D01*
X014817Y020540D02*
X014894Y020616D01*
X014894Y020770D01*
X014817Y020847D01*
X014741Y020847D01*
X014664Y020770D01*
X014664Y020693D01*
X014664Y020770D02*
X014587Y020847D01*
X014510Y020847D01*
X014434Y020770D01*
X014434Y020616D01*
X014510Y020540D01*
X014510Y020386D02*
X014434Y020309D01*
X014434Y020156D01*
X018659Y013241D02*
X018582Y013164D01*
X018582Y013011D01*
X018659Y012934D01*
X018736Y012934D01*
X018812Y013011D01*
X018812Y013241D01*
X018659Y013241D02*
X018966Y013241D01*
X019042Y013164D01*
X019042Y013011D01*
X018966Y012934D01*
X018966Y012780D02*
X019042Y012704D01*
X019042Y012550D01*
X018966Y012474D01*
X018659Y012474D01*
X018582Y012550D01*
X018582Y012704D01*
X018659Y012780D01*
X018944Y009817D02*
X018944Y009510D01*
X018714Y009740D01*
X019174Y009740D01*
X019174Y009356D02*
X019174Y009049D01*
X018867Y009356D01*
X018790Y009356D01*
X018714Y009279D01*
X018714Y009126D01*
X018790Y009049D01*
X018790Y008896D02*
X018714Y008819D01*
X018714Y008666D01*
X018790Y008589D01*
X019097Y008589D01*
X019174Y008666D01*
X019174Y008819D01*
X019097Y008896D01*
X019691Y007480D02*
X019614Y007404D01*
X019614Y007097D01*
X019691Y007020D01*
X019844Y007020D01*
X019921Y007097D01*
X020074Y007020D02*
X020381Y007327D01*
X020381Y007404D01*
X020305Y007480D01*
X020151Y007480D01*
X020074Y007404D01*
X019921Y007404D02*
X019844Y007480D01*
X019691Y007480D01*
X020074Y007020D02*
X020381Y007020D01*
X020535Y007020D02*
X020842Y007327D01*
X020842Y007404D01*
X020765Y007480D01*
X020611Y007480D01*
X020535Y007404D01*
X020535Y007020D02*
X020842Y007020D01*
X020634Y005530D02*
X020480Y005530D01*
X020404Y005454D01*
X020250Y005454D02*
X020250Y005377D01*
X020173Y005300D01*
X020250Y005223D01*
X020250Y005147D01*
X020173Y005070D01*
X020020Y005070D01*
X019943Y005147D01*
X019790Y005070D02*
X019636Y005223D01*
X019713Y005223D02*
X019483Y005223D01*
X019483Y005070D02*
X019483Y005530D01*
X019713Y005530D01*
X019790Y005454D01*
X019790Y005300D01*
X019713Y005223D01*
X019943Y005454D02*
X020020Y005530D01*
X020173Y005530D01*
X020250Y005454D01*
X020173Y005300D02*
X020097Y005300D01*
X020404Y005070D02*
X020711Y005377D01*
X020711Y005454D01*
X020634Y005530D01*
X020711Y005070D02*
X020404Y005070D01*
X019111Y004904D02*
X019034Y004980D01*
X018880Y004980D01*
X018804Y004904D01*
X018650Y004904D02*
X018573Y004980D01*
X018420Y004980D01*
X018343Y004904D01*
X018343Y004597D01*
X018420Y004520D01*
X018573Y004520D01*
X018650Y004597D01*
X018804Y004520D02*
X019111Y004827D01*
X019111Y004904D01*
X019111Y004520D02*
X018804Y004520D01*
X018740Y004004D02*
X019243Y004004D01*
X019612Y004004D01*
X019613Y004005D02*
X019626Y004004D01*
X019639Y003999D01*
X019651Y003992D01*
X019661Y003982D01*
X019668Y003970D01*
X019673Y003957D01*
X019674Y003944D01*
X019673Y003944D02*
X019673Y003944D01*
X019671Y003929D01*
X019666Y003915D01*
X019659Y003903D01*
X019648Y003892D01*
X019636Y003885D01*
X019622Y003880D01*
X019607Y003878D01*
X019607Y003877D02*
X019546Y003877D01*
X019529Y003875D01*
X019512Y003870D01*
X019497Y003862D01*
X019484Y003851D01*
X019473Y003838D01*
X019465Y003823D01*
X019460Y003806D01*
X019458Y003789D01*
X019458Y003778D01*
X019460Y003761D01*
X019465Y003744D01*
X019473Y003729D01*
X019484Y003716D01*
X019497Y003705D01*
X019512Y003697D01*
X019529Y003692D01*
X019546Y003690D01*
X019612Y003690D01*
X019626Y003688D01*
X019638Y003684D01*
X019650Y003677D01*
X019660Y003667D01*
X019667Y003655D01*
X019671Y003643D01*
X019673Y003629D01*
X019671Y003614D01*
X019666Y003600D01*
X019659Y003588D01*
X019648Y003577D01*
X019636Y003570D01*
X019622Y003565D01*
X019607Y003563D01*
X019265Y003563D01*
X019243Y004004D02*
X019243Y001924D01*
X019612Y001924D01*
X019613Y001924D02*
X019626Y001923D01*
X019639Y001918D01*
X019651Y001911D01*
X019661Y001901D01*
X019668Y001889D01*
X019673Y001876D01*
X019674Y001863D01*
X019673Y001863D02*
X019673Y001863D01*
X019671Y001848D01*
X019666Y001834D01*
X019659Y001822D01*
X019648Y001811D01*
X019636Y001804D01*
X019622Y001799D01*
X019607Y001797D01*
X019546Y001797D01*
X019546Y001796D02*
X019529Y001794D01*
X019512Y001789D01*
X019497Y001781D01*
X019484Y001770D01*
X019473Y001757D01*
X019465Y001742D01*
X019460Y001725D01*
X019458Y001708D01*
X019458Y001697D01*
X019460Y001680D01*
X019465Y001663D01*
X019473Y001648D01*
X019484Y001635D01*
X019497Y001624D01*
X019512Y001616D01*
X019529Y001611D01*
X019546Y001609D01*
X019612Y001609D01*
X019626Y001607D01*
X019638Y001603D01*
X019650Y001596D01*
X019660Y001586D01*
X019667Y001574D01*
X019671Y001562D01*
X019673Y001548D01*
X019671Y001533D01*
X019666Y001519D01*
X019659Y001507D01*
X019648Y001496D01*
X019636Y001489D01*
X019622Y001484D01*
X019607Y001482D01*
X019265Y001482D01*
X019243Y001924D02*
X019243Y000500D01*
X016246Y000500D01*
X016246Y004004D01*
X016742Y004004D01*
X016764Y004002D01*
X016786Y003997D01*
X016807Y003988D01*
X016826Y003977D01*
X016843Y003962D01*
X016858Y003945D01*
X016869Y003926D01*
X016878Y003905D01*
X016883Y003883D01*
X016885Y003861D01*
X016886Y003861D02*
X016886Y003651D01*
X016246Y003563D02*
X015876Y003563D01*
X015876Y003562D02*
X015863Y003564D01*
X015850Y003568D01*
X015838Y003575D01*
X015828Y003585D01*
X015821Y003597D01*
X015816Y003610D01*
X015815Y003623D01*
X015815Y003624D02*
X015815Y003624D01*
X015817Y003639D01*
X015822Y003653D01*
X015829Y003665D01*
X015840Y003676D01*
X015852Y003683D01*
X015866Y003688D01*
X015881Y003690D01*
X015942Y003690D01*
X015959Y003692D01*
X015976Y003697D01*
X015991Y003705D01*
X016004Y003716D01*
X016015Y003729D01*
X016023Y003744D01*
X016028Y003761D01*
X016030Y003778D01*
X016030Y003789D01*
X016028Y003806D01*
X016023Y003823D01*
X016015Y003838D01*
X016004Y003851D01*
X015991Y003862D01*
X015976Y003870D01*
X015959Y003875D01*
X015942Y003877D01*
X015876Y003877D01*
X015862Y003879D01*
X015850Y003883D01*
X015838Y003890D01*
X015828Y003900D01*
X015821Y003912D01*
X015817Y003924D01*
X015815Y003938D01*
X015817Y003953D01*
X015822Y003967D01*
X015829Y003979D01*
X015840Y003990D01*
X015852Y003997D01*
X015866Y004002D01*
X015881Y004004D01*
X016251Y004004D01*
X016268Y002630D02*
X016544Y002630D01*
X016556Y002629D01*
X016567Y002625D01*
X016577Y002618D01*
X016585Y002609D01*
X016591Y002598D01*
X016593Y002586D01*
X016682Y001245D01*
X016681Y001245D02*
X016683Y001227D01*
X016688Y001209D01*
X016697Y001193D01*
X016709Y001178D01*
X016723Y001166D01*
X016739Y001157D01*
X016757Y001151D01*
X016775Y001149D01*
X016794Y001150D01*
X016812Y001155D01*
X016828Y001163D01*
X016843Y001174D01*
X016856Y001188D01*
X016865Y001204D01*
X016872Y001221D01*
X016875Y001240D01*
X016875Y001239D02*
X016963Y002575D01*
X016965Y002589D01*
X016971Y002601D01*
X016980Y002613D01*
X016990Y002621D01*
X017003Y002627D01*
X017017Y002630D01*
X017031Y002629D01*
X017044Y002625D01*
X017056Y002618D01*
X017066Y002608D01*
X017074Y002597D01*
X017078Y002583D01*
X017079Y002569D01*
X017013Y001123D01*
X017013Y001107D01*
X017011Y001085D01*
X017006Y001064D01*
X016998Y001044D01*
X016987Y001026D01*
X016973Y001009D01*
X016956Y000995D01*
X016938Y000984D01*
X016918Y000976D01*
X016897Y000971D01*
X016875Y000969D01*
X016268Y000969D01*
X016246Y001482D02*
X015876Y001482D01*
X015863Y001483D01*
X015850Y001488D01*
X015838Y001495D01*
X015828Y001505D01*
X015821Y001517D01*
X015816Y001530D01*
X015815Y001543D01*
X015815Y001543D01*
X015817Y001558D01*
X015822Y001572D01*
X015829Y001584D01*
X015840Y001595D01*
X015852Y001602D01*
X015866Y001607D01*
X015881Y001609D01*
X015942Y001609D01*
X015959Y001611D01*
X015976Y001616D01*
X015991Y001624D01*
X016004Y001635D01*
X016015Y001648D01*
X016023Y001663D01*
X016028Y001680D01*
X016030Y001697D01*
X016030Y001708D01*
X016028Y001725D01*
X016023Y001742D01*
X016015Y001757D01*
X016004Y001770D01*
X015991Y001781D01*
X015976Y001789D01*
X015959Y001794D01*
X015942Y001796D01*
X015942Y001797D02*
X015876Y001797D01*
X015876Y001796D02*
X015862Y001798D01*
X015850Y001802D01*
X015838Y001809D01*
X015828Y001819D01*
X015821Y001831D01*
X015817Y001843D01*
X015815Y001857D01*
X015817Y001872D01*
X015822Y001886D01*
X015829Y001898D01*
X015840Y001909D01*
X015852Y001916D01*
X015866Y001921D01*
X015881Y001923D01*
X015881Y001924D02*
X016224Y001924D01*
X017405Y002249D02*
X017338Y001024D01*
X017339Y001024D02*
X017336Y001011D01*
X017330Y000998D01*
X017321Y000988D01*
X017310Y000980D01*
X017297Y000975D01*
X017283Y000974D01*
X017270Y000977D01*
X017257Y000983D01*
X017247Y000992D01*
X017239Y001003D01*
X017234Y001016D01*
X017233Y001030D01*
X017234Y001029D02*
X017316Y002614D01*
X017316Y002613D02*
X017318Y002634D01*
X017323Y002654D01*
X017331Y002673D01*
X017341Y002691D01*
X017355Y002707D01*
X017371Y002721D01*
X017389Y002731D01*
X017408Y002739D01*
X017428Y002744D01*
X017449Y002746D01*
X018028Y002746D01*
X018051Y002744D01*
X018072Y002739D01*
X018093Y002730D01*
X018113Y002718D01*
X018130Y002704D01*
X018144Y002687D01*
X018156Y002667D01*
X018165Y002646D01*
X018170Y002625D01*
X018172Y002602D01*
X018255Y001029D01*
X018254Y001029D02*
X018252Y001016D01*
X018246Y001003D01*
X018237Y000992D01*
X018226Y000984D01*
X018213Y000979D01*
X018199Y000977D01*
X018185Y000979D01*
X018172Y000984D01*
X018161Y000992D01*
X018152Y001003D01*
X018146Y001016D01*
X018144Y001029D01*
X018089Y002227D01*
X018089Y002255D01*
X018087Y002279D01*
X018082Y002302D01*
X018074Y002324D01*
X018063Y002345D01*
X018048Y002364D01*
X018032Y002380D01*
X018013Y002395D01*
X017992Y002406D01*
X017970Y002414D01*
X017947Y002419D01*
X017923Y002421D01*
X017923Y002420D02*
X017576Y002420D01*
X017552Y002418D01*
X017528Y002413D01*
X017505Y002405D01*
X017484Y002393D01*
X017464Y002378D01*
X017447Y002361D01*
X017432Y002341D01*
X017420Y002320D01*
X017412Y002297D01*
X017407Y002273D01*
X017405Y002249D01*
X018409Y002569D02*
X018475Y001123D01*
X018475Y001107D01*
X018477Y001085D01*
X018482Y001064D01*
X018490Y001044D01*
X018501Y001026D01*
X018515Y001009D01*
X018532Y000995D01*
X018550Y000984D01*
X018570Y000976D01*
X018591Y000971D01*
X018613Y000969D01*
X019221Y000969D01*
X018807Y001245D02*
X018895Y002586D01*
X018897Y002598D01*
X018903Y002609D01*
X018911Y002618D01*
X018921Y002625D01*
X018932Y002629D01*
X018944Y002630D01*
X018945Y002630D02*
X019221Y002630D01*
X018525Y002575D02*
X018613Y001239D01*
X018613Y001240D02*
X018616Y001221D01*
X018623Y001204D01*
X018632Y001188D01*
X018645Y001174D01*
X018660Y001163D01*
X018676Y001155D01*
X018694Y001150D01*
X018713Y001149D01*
X018731Y001151D01*
X018749Y001157D01*
X018765Y001166D01*
X018779Y001178D01*
X018791Y001193D01*
X018800Y001209D01*
X018805Y001227D01*
X018807Y001245D01*
X018525Y002575D02*
X018523Y002589D01*
X018517Y002601D01*
X018508Y002613D01*
X018498Y002621D01*
X018485Y002627D01*
X018471Y002630D01*
X018457Y002629D01*
X018444Y002625D01*
X018432Y002618D01*
X018422Y002608D01*
X018414Y002597D01*
X018410Y002583D01*
X018409Y002569D01*
X018602Y003635D02*
X018602Y003866D01*
X018604Y003888D01*
X018609Y003909D01*
X018617Y003929D01*
X018628Y003947D01*
X018642Y003964D01*
X018659Y003978D01*
X018677Y003989D01*
X018697Y003997D01*
X018718Y004002D01*
X018740Y004004D01*
X018190Y004520D02*
X017883Y004520D01*
X017883Y004980D01*
X015242Y007497D02*
X015165Y007420D01*
X015011Y007420D01*
X014935Y007497D01*
X014935Y007650D02*
X015088Y007727D01*
X015165Y007727D01*
X015242Y007650D01*
X015242Y007497D01*
X014935Y007650D02*
X014935Y007880D01*
X015242Y007880D01*
X014781Y007804D02*
X014781Y007727D01*
X014705Y007650D01*
X014781Y007573D01*
X014781Y007497D01*
X014705Y007420D01*
X014551Y007420D01*
X014474Y007497D01*
X014321Y007497D02*
X014244Y007420D01*
X014091Y007420D01*
X014014Y007497D01*
X014014Y007804D01*
X014091Y007880D01*
X014244Y007880D01*
X014321Y007804D01*
X014474Y007804D02*
X014551Y007880D01*
X014705Y007880D01*
X014781Y007804D01*
X014705Y007650D02*
X014628Y007650D01*
X009974Y007191D02*
X009897Y007191D01*
X009590Y007498D01*
X009514Y007498D01*
X009514Y007191D01*
X009590Y007037D02*
X009667Y007037D01*
X009744Y006961D01*
X009821Y007037D01*
X009897Y007037D01*
X009974Y006961D01*
X009974Y006807D01*
X009897Y006730D01*
X009897Y006577D02*
X009974Y006500D01*
X009974Y006347D01*
X009897Y006270D01*
X009590Y006270D01*
X009514Y006347D01*
X009514Y006500D01*
X009590Y006577D01*
X009590Y006730D02*
X009514Y006807D01*
X009514Y006961D01*
X009590Y007037D01*
X009744Y006961D02*
X009744Y006884D01*
X009680Y003778D02*
X009678Y003761D01*
X009673Y003744D01*
X009665Y003729D01*
X009654Y003716D01*
X009641Y003705D01*
X009626Y003697D01*
X009609Y003692D01*
X009592Y003690D01*
X009531Y003690D01*
X009516Y003688D01*
X009502Y003683D01*
X009490Y003676D01*
X009479Y003665D01*
X009472Y003653D01*
X009467Y003639D01*
X009465Y003624D01*
X009918Y002630D02*
X010194Y002630D01*
X010206Y002629D01*
X010217Y002625D01*
X010227Y002618D01*
X010235Y002609D01*
X010241Y002598D01*
X010243Y002586D01*
X010332Y001245D01*
X010331Y001245D02*
X010333Y001227D01*
X010338Y001209D01*
X010347Y001193D01*
X010359Y001178D01*
X010373Y001166D01*
X010389Y001157D01*
X010407Y001151D01*
X010425Y001149D01*
X010444Y001150D01*
X010462Y001155D01*
X010478Y001163D01*
X010493Y001174D01*
X010506Y001188D01*
X010515Y001204D01*
X010522Y001221D01*
X010525Y001240D01*
X010525Y001239D02*
X010613Y002575D01*
X010615Y002589D01*
X010621Y002601D01*
X010630Y002613D01*
X010640Y002621D01*
X010653Y002627D01*
X010667Y002630D01*
X010681Y002629D01*
X010694Y002625D01*
X010706Y002618D01*
X010716Y002608D01*
X010724Y002597D01*
X010728Y002583D01*
X010729Y002569D01*
X010663Y001123D01*
X010663Y001107D01*
X010661Y001085D01*
X010656Y001064D01*
X010648Y001044D01*
X010637Y001026D01*
X010623Y001009D01*
X010606Y000995D01*
X010588Y000984D01*
X010568Y000976D01*
X010547Y000971D01*
X010525Y000969D01*
X009918Y000969D01*
X009896Y001482D02*
X009526Y001482D01*
X009513Y001483D01*
X009500Y001488D01*
X009488Y001495D01*
X009478Y001505D01*
X009471Y001517D01*
X009466Y001530D01*
X009465Y001543D01*
X009465Y001543D01*
X009467Y001558D01*
X009472Y001572D01*
X009479Y001584D01*
X009490Y001595D01*
X009502Y001602D01*
X009516Y001607D01*
X009531Y001609D01*
X009592Y001609D01*
X009609Y001611D01*
X009626Y001616D01*
X009641Y001624D01*
X009654Y001635D01*
X009665Y001648D01*
X009673Y001663D01*
X009678Y001680D01*
X009680Y001697D01*
X009680Y001708D01*
X009678Y001725D01*
X009673Y001742D01*
X009665Y001757D01*
X009654Y001770D01*
X009641Y001781D01*
X009626Y001789D01*
X009609Y001794D01*
X009592Y001796D01*
X009592Y001797D02*
X009526Y001797D01*
X009526Y001796D02*
X009512Y001798D01*
X009500Y001802D01*
X009488Y001809D01*
X009478Y001819D01*
X009471Y001831D01*
X009467Y001843D01*
X009465Y001857D01*
X009467Y001872D01*
X009472Y001886D01*
X009479Y001898D01*
X009490Y001909D01*
X009502Y001916D01*
X009516Y001921D01*
X009531Y001923D01*
X009531Y001924D02*
X009874Y001924D01*
X011055Y002249D02*
X010988Y001024D01*
X010989Y001024D02*
X010986Y001011D01*
X010980Y000998D01*
X010971Y000988D01*
X010960Y000980D01*
X010947Y000975D01*
X010933Y000974D01*
X010920Y000977D01*
X010907Y000983D01*
X010897Y000992D01*
X010889Y001003D01*
X010884Y001016D01*
X010883Y001030D01*
X010884Y001029D02*
X010966Y002614D01*
X010966Y002613D02*
X010968Y002634D01*
X010973Y002654D01*
X010981Y002673D01*
X010991Y002691D01*
X011005Y002707D01*
X011021Y002721D01*
X011039Y002731D01*
X011058Y002739D01*
X011078Y002744D01*
X011099Y002746D01*
X011678Y002746D01*
X011701Y002744D01*
X011722Y002739D01*
X011743Y002730D01*
X011763Y002718D01*
X011780Y002704D01*
X011794Y002687D01*
X011806Y002667D01*
X011815Y002646D01*
X011820Y002625D01*
X011822Y002602D01*
X011905Y001029D01*
X011904Y001029D02*
X011902Y001016D01*
X011896Y001003D01*
X011887Y000992D01*
X011876Y000984D01*
X011863Y000979D01*
X011849Y000977D01*
X011835Y000979D01*
X011822Y000984D01*
X011811Y000992D01*
X011802Y001003D01*
X011796Y001016D01*
X011794Y001029D01*
X011739Y002227D01*
X011739Y002255D01*
X011737Y002279D01*
X011732Y002302D01*
X011724Y002324D01*
X011713Y002345D01*
X011698Y002364D01*
X011682Y002380D01*
X011663Y002395D01*
X011642Y002406D01*
X011620Y002414D01*
X011597Y002419D01*
X011573Y002421D01*
X011573Y002420D02*
X011226Y002420D01*
X011202Y002418D01*
X011178Y002413D01*
X011155Y002405D01*
X011134Y002393D01*
X011114Y002378D01*
X011097Y002361D01*
X011082Y002341D01*
X011070Y002320D01*
X011062Y002297D01*
X011057Y002273D01*
X011055Y002249D01*
X012059Y002569D02*
X012125Y001123D01*
X012125Y001107D01*
X012127Y001085D01*
X012132Y001064D01*
X012140Y001044D01*
X012151Y001026D01*
X012165Y001009D01*
X012182Y000995D01*
X012200Y000984D01*
X012220Y000976D01*
X012241Y000971D01*
X012263Y000969D01*
X012871Y000969D01*
X012457Y001245D02*
X012545Y002586D01*
X012547Y002598D01*
X012553Y002609D01*
X012561Y002618D01*
X012571Y002625D01*
X012582Y002629D01*
X012594Y002630D01*
X012595Y002630D02*
X012871Y002630D01*
X012175Y002575D02*
X012263Y001239D01*
X012263Y001240D02*
X012266Y001221D01*
X012273Y001204D01*
X012282Y001188D01*
X012295Y001174D01*
X012310Y001163D01*
X012326Y001155D01*
X012344Y001150D01*
X012363Y001149D01*
X012381Y001151D01*
X012399Y001157D01*
X012415Y001166D01*
X012429Y001178D01*
X012441Y001193D01*
X012450Y001209D01*
X012455Y001227D01*
X012457Y001245D01*
X012175Y002575D02*
X012173Y002589D01*
X012167Y002601D01*
X012158Y002613D01*
X012148Y002621D01*
X012135Y002627D01*
X012121Y002630D01*
X012107Y002629D01*
X012094Y002625D01*
X012082Y002618D01*
X012072Y002608D01*
X012064Y002597D01*
X012060Y002583D01*
X012059Y002569D01*
X022165Y001543D02*
X022165Y001543D01*
X022166Y001530D01*
X022171Y001517D01*
X022178Y001505D01*
X022188Y001495D01*
X022200Y001488D01*
X022213Y001483D01*
X022226Y001482D01*
X022596Y001482D01*
X022380Y001697D02*
X022380Y001708D01*
X022378Y001725D01*
X022373Y001742D01*
X022365Y001757D01*
X022354Y001770D01*
X022341Y001781D01*
X022326Y001789D01*
X022309Y001794D01*
X022292Y001796D01*
X022292Y001797D02*
X022226Y001797D01*
X022226Y001796D02*
X022212Y001798D01*
X022200Y001802D01*
X022188Y001809D01*
X022178Y001819D01*
X022171Y001831D01*
X022167Y001843D01*
X022165Y001857D01*
X022167Y001872D01*
X022172Y001886D01*
X022179Y001898D01*
X022190Y001909D01*
X022202Y001916D01*
X022216Y001921D01*
X022231Y001923D01*
X022231Y001924D02*
X022574Y001924D01*
X022380Y001697D02*
X022378Y001680D01*
X022373Y001663D01*
X022365Y001648D01*
X022354Y001635D01*
X022341Y001624D01*
X022326Y001616D01*
X022309Y001611D01*
X022292Y001609D01*
X022231Y001609D01*
X022216Y001607D01*
X022202Y001602D01*
X022190Y001595D01*
X022179Y001584D01*
X022172Y001572D01*
X022167Y001558D01*
X022165Y001543D01*
X022618Y000969D02*
X023225Y000969D01*
X023247Y000971D01*
X023268Y000976D01*
X023288Y000984D01*
X023306Y000995D01*
X023323Y001009D01*
X023337Y001026D01*
X023348Y001044D01*
X023356Y001064D01*
X023361Y001085D01*
X023363Y001107D01*
X023363Y001123D01*
X023429Y002569D01*
X023428Y002583D01*
X023424Y002597D01*
X023416Y002608D01*
X023406Y002618D01*
X023394Y002625D01*
X023381Y002629D01*
X023367Y002630D01*
X023353Y002627D01*
X023340Y002621D01*
X023330Y002613D01*
X023321Y002601D01*
X023315Y002589D01*
X023313Y002575D01*
X023225Y001239D01*
X023225Y001240D02*
X023222Y001221D01*
X023215Y001204D01*
X023206Y001188D01*
X023193Y001174D01*
X023178Y001163D01*
X023162Y001155D01*
X023144Y001150D01*
X023125Y001149D01*
X023107Y001151D01*
X023089Y001157D01*
X023073Y001166D01*
X023059Y001178D01*
X023047Y001193D01*
X023038Y001209D01*
X023033Y001227D01*
X023031Y001245D01*
X023032Y001245D02*
X022943Y002586D01*
X022941Y002598D01*
X022935Y002609D01*
X022927Y002618D01*
X022917Y002625D01*
X022906Y002629D01*
X022894Y002630D01*
X022618Y002630D01*
X022596Y003563D02*
X022226Y003563D01*
X022226Y003562D02*
X022213Y003564D01*
X022200Y003568D01*
X022188Y003575D01*
X022178Y003585D01*
X022171Y003597D01*
X022166Y003610D01*
X022165Y003623D01*
X022165Y003624D02*
X022165Y003624D01*
X022167Y003639D01*
X022172Y003653D01*
X022179Y003665D01*
X022190Y003676D01*
X022202Y003683D01*
X022216Y003688D01*
X022231Y003690D01*
X022292Y003690D01*
X022309Y003692D01*
X022326Y003697D01*
X022341Y003705D01*
X022354Y003716D01*
X022365Y003729D01*
X022373Y003744D01*
X022378Y003761D01*
X022380Y003778D01*
X022380Y003789D01*
X022378Y003806D01*
X022373Y003823D01*
X022365Y003838D01*
X022354Y003851D01*
X022341Y003862D01*
X022326Y003870D01*
X022309Y003875D01*
X022292Y003877D01*
X022226Y003877D01*
X022212Y003879D01*
X022200Y003883D01*
X022188Y003890D01*
X022178Y003900D01*
X022171Y003912D01*
X022167Y003924D01*
X022165Y003938D01*
X022167Y003953D01*
X022172Y003967D01*
X022179Y003979D01*
X022190Y003990D01*
X022202Y003997D01*
X022216Y004002D01*
X022231Y004004D01*
X022601Y004004D01*
X022596Y004004D02*
X023092Y004004D01*
X023114Y004002D01*
X023136Y003997D01*
X023157Y003988D01*
X023176Y003977D01*
X023193Y003962D01*
X023208Y003945D01*
X023219Y003926D01*
X023228Y003905D01*
X023233Y003883D01*
X023235Y003861D01*
X023236Y003861D02*
X023236Y003651D01*
X022596Y004004D02*
X022596Y000500D01*
X025593Y000500D01*
X025593Y001924D01*
X025962Y001924D01*
X025963Y001924D02*
X025976Y001923D01*
X025989Y001918D01*
X026001Y001911D01*
X026011Y001901D01*
X026018Y001889D01*
X026023Y001876D01*
X026024Y001863D01*
X026023Y001863D02*
X026023Y001863D01*
X026021Y001848D01*
X026016Y001834D01*
X026009Y001822D01*
X025998Y001811D01*
X025986Y001804D01*
X025972Y001799D01*
X025957Y001797D01*
X025896Y001797D01*
X025896Y001796D02*
X025879Y001794D01*
X025862Y001789D01*
X025847Y001781D01*
X025834Y001770D01*
X025823Y001757D01*
X025815Y001742D01*
X025810Y001725D01*
X025808Y001708D01*
X025808Y001697D01*
X025810Y001680D01*
X025815Y001663D01*
X025823Y001648D01*
X025834Y001635D01*
X025847Y001624D01*
X025862Y001616D01*
X025879Y001611D01*
X025896Y001609D01*
X025962Y001609D01*
X025976Y001607D01*
X025988Y001603D01*
X026000Y001596D01*
X026010Y001586D01*
X026017Y001574D01*
X026021Y001562D01*
X026023Y001548D01*
X026021Y001533D01*
X026016Y001519D01*
X026009Y001507D01*
X025998Y001496D01*
X025986Y001489D01*
X025972Y001484D01*
X025957Y001482D01*
X025615Y001482D01*
X025593Y001924D02*
X025593Y004004D01*
X025962Y004004D01*
X025963Y004005D02*
X025976Y004004D01*
X025989Y003999D01*
X026001Y003992D01*
X026011Y003982D01*
X026018Y003970D01*
X026023Y003957D01*
X026024Y003944D01*
X026023Y003944D02*
X026023Y003944D01*
X026021Y003929D01*
X026016Y003915D01*
X026009Y003903D01*
X025998Y003892D01*
X025986Y003885D01*
X025972Y003880D01*
X025957Y003878D01*
X025957Y003877D02*
X025896Y003877D01*
X025879Y003875D01*
X025862Y003870D01*
X025847Y003862D01*
X025834Y003851D01*
X025823Y003838D01*
X025815Y003823D01*
X025810Y003806D01*
X025808Y003789D01*
X025808Y003778D01*
X025810Y003761D01*
X025815Y003744D01*
X025823Y003729D01*
X025834Y003716D01*
X025847Y003705D01*
X025862Y003697D01*
X025879Y003692D01*
X025896Y003690D01*
X025962Y003690D01*
X025976Y003688D01*
X025988Y003684D01*
X026000Y003677D01*
X026010Y003667D01*
X026017Y003655D01*
X026021Y003643D01*
X026023Y003629D01*
X026021Y003614D01*
X026016Y003600D01*
X026009Y003588D01*
X025998Y003577D01*
X025986Y003570D01*
X025972Y003565D01*
X025957Y003563D01*
X025615Y003563D01*
X025593Y004004D02*
X025090Y004004D01*
X025068Y004002D01*
X025047Y003997D01*
X025027Y003989D01*
X025009Y003978D01*
X024992Y003964D01*
X024978Y003947D01*
X024967Y003929D01*
X024959Y003909D01*
X024954Y003888D01*
X024952Y003866D01*
X024952Y003635D01*
X024923Y004520D02*
X025000Y004597D01*
X024923Y004520D02*
X024770Y004520D01*
X024693Y004597D01*
X024693Y004904D01*
X024770Y004980D01*
X024923Y004980D01*
X025000Y004904D01*
X025154Y004827D02*
X025307Y004980D01*
X025307Y004520D01*
X025154Y004520D02*
X025461Y004520D01*
X025500Y005220D02*
X025193Y005220D01*
X025040Y005220D02*
X024886Y005373D01*
X024963Y005373D02*
X024733Y005373D01*
X024733Y005220D02*
X024733Y005680D01*
X024963Y005680D01*
X025040Y005604D01*
X025040Y005450D01*
X024963Y005373D01*
X025193Y005527D02*
X025347Y005680D01*
X025347Y005220D01*
X025654Y005220D02*
X025654Y005297D01*
X025961Y005604D01*
X025961Y005680D01*
X025654Y005680D01*
X025274Y006139D02*
X024814Y006139D01*
X024814Y006369D01*
X024890Y006446D01*
X025044Y006446D01*
X025121Y006369D01*
X025121Y006139D01*
X025121Y006292D02*
X025274Y006446D01*
X025197Y006599D02*
X025274Y006676D01*
X025274Y006829D01*
X025197Y006906D01*
X025121Y006906D01*
X025044Y006829D01*
X025044Y006753D01*
X025044Y006829D02*
X024967Y006906D01*
X024890Y006906D01*
X024814Y006829D01*
X024814Y006676D01*
X024890Y006599D01*
X024890Y007060D02*
X024814Y007136D01*
X024814Y007290D01*
X024890Y007367D01*
X025197Y007060D01*
X025274Y007136D01*
X025274Y007290D01*
X025197Y007367D01*
X024890Y007367D01*
X024890Y007060D02*
X025197Y007060D01*
X025864Y006604D02*
X025864Y006297D01*
X025941Y006220D01*
X026094Y006220D01*
X026171Y006297D01*
X026324Y006220D02*
X026631Y006527D01*
X026631Y006604D01*
X026555Y006680D01*
X026401Y006680D01*
X026324Y006604D01*
X026290Y006720D02*
X026597Y006720D01*
X026674Y006797D01*
X026674Y006950D01*
X026597Y007027D01*
X026674Y007180D02*
X026674Y007487D01*
X026674Y007334D02*
X026214Y007334D01*
X026367Y007180D01*
X026290Y007027D02*
X026214Y006950D01*
X026214Y006797D01*
X026290Y006720D01*
X026171Y006604D02*
X026094Y006680D01*
X025941Y006680D01*
X025864Y006604D01*
X026324Y006220D02*
X026631Y006220D01*
X026785Y006220D02*
X027092Y006220D01*
X026938Y006220D02*
X026938Y006680D01*
X026785Y006527D01*
X026597Y007641D02*
X026674Y007718D01*
X026674Y007871D01*
X026597Y007948D01*
X026290Y007948D01*
X026214Y007871D01*
X026214Y007718D01*
X026290Y007641D01*
X026367Y007641D01*
X026444Y007718D01*
X026444Y007948D01*
X024124Y007880D02*
X023817Y008187D01*
X023740Y008187D01*
X023664Y008111D01*
X023664Y007957D01*
X023740Y007880D01*
X023740Y007727D02*
X023664Y007650D01*
X023664Y007497D01*
X023740Y007420D01*
X024047Y007420D01*
X024124Y007497D01*
X024124Y007650D01*
X024047Y007727D01*
X024124Y007880D02*
X024124Y008187D01*
X024047Y008341D02*
X023740Y008648D01*
X024047Y008648D01*
X024124Y008571D01*
X024124Y008418D01*
X024047Y008341D01*
X023740Y008341D01*
X023664Y008418D01*
X023664Y008571D01*
X023740Y008648D01*
X022907Y007328D02*
X022754Y007328D01*
X022677Y007251D01*
X022677Y007174D01*
X022754Y007021D01*
X022524Y007021D01*
X022524Y007328D01*
X022907Y007328D02*
X022984Y007251D01*
X022984Y007098D01*
X022907Y007021D01*
X022984Y006867D02*
X022984Y006560D01*
X022677Y006867D01*
X022600Y006867D01*
X022524Y006791D01*
X022524Y006637D01*
X022600Y006560D01*
X022600Y006407D02*
X022524Y006330D01*
X022524Y006177D01*
X022600Y006100D01*
X022907Y006100D01*
X022984Y006177D01*
X022984Y006330D01*
X022907Y006407D01*
X024233Y004980D02*
X024233Y004520D01*
X024540Y004520D01*
X024378Y002746D02*
X023799Y002746D01*
X023778Y002744D01*
X023758Y002739D01*
X023739Y002731D01*
X023721Y002721D01*
X023705Y002707D01*
X023691Y002691D01*
X023681Y002673D01*
X023673Y002654D01*
X023668Y002634D01*
X023666Y002613D01*
X023666Y002614D02*
X023584Y001029D01*
X023583Y001030D02*
X023584Y001016D01*
X023589Y001003D01*
X023597Y000992D01*
X023607Y000983D01*
X023620Y000977D01*
X023633Y000974D01*
X023647Y000975D01*
X023660Y000980D01*
X023671Y000988D01*
X023680Y000998D01*
X023686Y001011D01*
X023689Y001024D01*
X023688Y001024D02*
X023755Y002249D01*
X023757Y002273D01*
X023762Y002297D01*
X023770Y002320D01*
X023782Y002341D01*
X023797Y002361D01*
X023814Y002378D01*
X023834Y002393D01*
X023855Y002405D01*
X023878Y002413D01*
X023902Y002418D01*
X023926Y002420D01*
X024273Y002420D01*
X024273Y002421D02*
X024297Y002419D01*
X024320Y002414D01*
X024342Y002406D01*
X024363Y002395D01*
X024382Y002380D01*
X024398Y002364D01*
X024413Y002345D01*
X024424Y002324D01*
X024432Y002302D01*
X024437Y002279D01*
X024439Y002255D01*
X024439Y002227D01*
X024494Y001029D01*
X024496Y001016D01*
X024502Y001003D01*
X024511Y000992D01*
X024522Y000984D01*
X024535Y000979D01*
X024549Y000977D01*
X024563Y000979D01*
X024576Y000984D01*
X024587Y000992D01*
X024596Y001003D01*
X024602Y001016D01*
X024604Y001029D01*
X024605Y001029D02*
X024522Y002602D01*
X024520Y002625D01*
X024515Y002646D01*
X024506Y002667D01*
X024494Y002687D01*
X024480Y002704D01*
X024463Y002718D01*
X024443Y002730D01*
X024422Y002739D01*
X024401Y002744D01*
X024378Y002746D01*
X024759Y002569D02*
X024825Y001123D01*
X024825Y001107D01*
X024827Y001085D01*
X024832Y001064D01*
X024840Y001044D01*
X024851Y001026D01*
X024865Y001009D01*
X024882Y000995D01*
X024900Y000984D01*
X024920Y000976D01*
X024941Y000971D01*
X024963Y000969D01*
X025571Y000969D01*
X025157Y001245D02*
X025245Y002586D01*
X025247Y002598D01*
X025253Y002609D01*
X025261Y002618D01*
X025271Y002625D01*
X025282Y002629D01*
X025294Y002630D01*
X025295Y002630D02*
X025571Y002630D01*
X024875Y002575D02*
X024963Y001239D01*
X024963Y001240D02*
X024966Y001221D01*
X024973Y001204D01*
X024982Y001188D01*
X024995Y001174D01*
X025010Y001163D01*
X025026Y001155D01*
X025044Y001150D01*
X025063Y001149D01*
X025081Y001151D01*
X025099Y001157D01*
X025115Y001166D01*
X025129Y001178D01*
X025141Y001193D01*
X025150Y001209D01*
X025155Y001227D01*
X025157Y001245D01*
X024875Y002575D02*
X024873Y002589D01*
X024867Y002601D01*
X024858Y002613D01*
X024848Y002621D01*
X024835Y002627D01*
X024821Y002630D01*
X024807Y002629D01*
X024794Y002625D01*
X024782Y002618D01*
X024772Y002608D01*
X024764Y002597D01*
X024760Y002583D01*
X024759Y002569D01*
X030207Y000720D02*
X030267Y000660D01*
X030327Y000660D01*
X030388Y000720D01*
X030388Y001020D01*
X030448Y001020D02*
X030327Y001020D01*
X030576Y000960D02*
X030636Y001020D01*
X030756Y001020D01*
X030816Y000960D01*
X030816Y000900D01*
X030756Y000840D01*
X030816Y000780D01*
X030816Y000720D01*
X030756Y000660D01*
X030636Y000660D01*
X030576Y000720D01*
X030696Y000840D02*
X030756Y000840D01*
X032250Y003980D02*
X032403Y003980D01*
X032480Y004057D01*
X032633Y003980D02*
X032940Y003980D01*
X032787Y003980D02*
X032787Y004440D01*
X032633Y004287D01*
X032480Y004364D02*
X032403Y004440D01*
X032250Y004440D01*
X032173Y004364D01*
X032173Y004057D01*
X032250Y003980D01*
X033094Y003980D02*
X033401Y004287D01*
X033401Y004364D01*
X033324Y004440D01*
X033170Y004440D01*
X033094Y004364D01*
X033094Y003980D02*
X033401Y003980D01*
X034800Y001110D02*
X034904Y001110D01*
X034852Y001110D02*
X034852Y000852D01*
X034800Y000800D01*
X034749Y000800D01*
X034697Y000852D01*
X035019Y000800D02*
X035226Y001007D01*
X035226Y001059D01*
X035174Y001110D01*
X035071Y001110D01*
X035019Y001059D01*
X035019Y000800D02*
X035226Y000800D01*
X036781Y004540D02*
X036934Y004540D01*
X037011Y004617D01*
X037164Y004540D02*
X037471Y004540D01*
X037318Y004540D02*
X037318Y005000D01*
X037164Y004847D01*
X037011Y004924D02*
X036934Y005000D01*
X036781Y005000D01*
X036704Y004924D01*
X036704Y004617D01*
X036781Y004540D01*
X037625Y004617D02*
X037932Y004924D01*
X037932Y004617D01*
X037855Y004540D01*
X037701Y004540D01*
X037625Y004617D01*
X037625Y004924D01*
X037701Y005000D01*
X037855Y005000D01*
X037932Y004924D01*
X039031Y007470D02*
X039184Y007470D01*
X039261Y007547D01*
X039261Y007930D01*
X039414Y007930D02*
X039721Y007930D01*
X039721Y007854D01*
X039414Y007547D01*
X039414Y007470D01*
X039031Y007470D02*
X038954Y007547D01*
X038954Y007930D01*
X038537Y010709D02*
X038230Y010709D01*
X038154Y010786D01*
X038154Y010939D01*
X038230Y011016D01*
X038307Y011169D02*
X038154Y011323D01*
X038614Y011323D01*
X038614Y011476D02*
X038614Y011169D01*
X038537Y011016D02*
X038614Y010939D01*
X038614Y010786D01*
X038537Y010709D01*
X038537Y011630D02*
X038461Y011630D01*
X038384Y011706D01*
X038384Y011860D01*
X038461Y011937D01*
X038537Y011937D01*
X038614Y011860D01*
X038614Y011706D01*
X038537Y011630D01*
X038384Y011706D02*
X038307Y011630D01*
X038230Y011630D01*
X038154Y011706D01*
X038154Y011860D01*
X038230Y011937D01*
X038307Y011937D01*
X038384Y011860D01*
X037474Y011730D02*
X037397Y011730D01*
X037090Y012037D01*
X037014Y012037D01*
X037014Y011730D01*
X037014Y011423D02*
X037474Y011423D01*
X037474Y011576D02*
X037474Y011269D01*
X037397Y011116D02*
X037474Y011039D01*
X037474Y010886D01*
X037397Y010809D01*
X037090Y010809D01*
X037014Y010886D01*
X037014Y011039D01*
X037090Y011116D01*
X037167Y011269D02*
X037014Y011423D01*
X033774Y011570D02*
X033314Y011570D01*
X033314Y011800D01*
X033390Y011877D01*
X033544Y011877D01*
X033621Y011800D01*
X033621Y011570D01*
X033621Y011723D02*
X033774Y011877D01*
X033774Y012030D02*
X033314Y012030D01*
X033314Y012261D01*
X033390Y012337D01*
X033544Y012337D01*
X033621Y012261D01*
X033621Y012030D01*
X033774Y012491D02*
X033774Y012644D01*
X033774Y012568D02*
X033314Y012568D01*
X033314Y012644D02*
X033314Y012491D01*
X033851Y012798D02*
X033851Y013105D01*
X033774Y013258D02*
X033314Y013258D01*
X033314Y013488D01*
X033390Y013565D01*
X033544Y013565D01*
X033621Y013488D01*
X033621Y013258D01*
X033621Y013412D02*
X033774Y013565D01*
X033697Y013718D02*
X033774Y013795D01*
X033774Y013949D01*
X033697Y014025D01*
X033621Y014025D01*
X033544Y013949D01*
X033544Y013795D01*
X033467Y013718D01*
X033390Y013718D01*
X033314Y013795D01*
X033314Y013949D01*
X033390Y014025D01*
X033314Y014179D02*
X033314Y014486D01*
X033314Y014332D02*
X033774Y014332D01*
X034114Y015699D02*
X034114Y015929D01*
X034190Y016006D01*
X034344Y016006D01*
X034421Y015929D01*
X034421Y015699D01*
X034574Y015699D02*
X034114Y015699D01*
X034421Y015853D02*
X034574Y016006D01*
X034344Y016160D02*
X034114Y016390D01*
X034574Y016390D01*
X034344Y016467D02*
X034344Y016160D01*
X034734Y017800D02*
X034734Y018030D01*
X034810Y018107D01*
X034964Y018107D01*
X035041Y018030D01*
X035041Y017800D01*
X035194Y017800D02*
X034734Y017800D01*
X035041Y017953D02*
X035194Y018107D01*
X034964Y018260D02*
X034964Y018567D01*
X035117Y018721D02*
X035194Y018721D01*
X035117Y018721D02*
X034810Y019028D01*
X034734Y019028D01*
X034734Y018721D01*
X034734Y018491D02*
X034964Y018260D01*
X035194Y018491D02*
X034734Y018491D01*
X034531Y019780D02*
X034224Y019780D01*
X034531Y020087D01*
X034531Y020164D01*
X034454Y020240D01*
X034300Y020240D01*
X034224Y020164D01*
X034070Y020164D02*
X034070Y019857D01*
X033993Y019780D01*
X033840Y019780D01*
X033763Y019857D01*
X033763Y020164D01*
X033840Y020240D01*
X033993Y020240D01*
X034070Y020164D01*
X033917Y019933D02*
X034070Y019780D01*
X036755Y019390D02*
X037070Y019468D01*
X038093Y019468D01*
X037070Y019468D02*
X037070Y021752D01*
X036755Y021830D01*
X037070Y021752D02*
X038093Y021752D01*
X037924Y021477D02*
X037924Y021170D01*
X037617Y021477D01*
X037540Y021477D01*
X037464Y021400D01*
X037464Y021246D01*
X037540Y021170D01*
X037464Y021016D02*
X037464Y020709D01*
X037464Y020863D02*
X037924Y020863D01*
X035572Y022837D02*
X035572Y022913D01*
X035495Y022990D01*
X035265Y022990D01*
X035265Y022837D01*
X035341Y022760D01*
X035495Y022760D01*
X035572Y022837D01*
X035418Y023144D02*
X035265Y022990D01*
X035111Y022990D02*
X034804Y022990D01*
X035035Y023220D01*
X035035Y022760D01*
X034651Y022760D02*
X034497Y022913D01*
X034574Y022913D02*
X034344Y022913D01*
X034344Y022760D02*
X034344Y023220D01*
X034574Y023220D01*
X034651Y023144D01*
X034651Y022990D01*
X034574Y022913D01*
X035418Y023144D02*
X035572Y023220D01*
X031141Y020124D02*
X031141Y020047D01*
X031064Y019970D01*
X031141Y019893D01*
X031141Y019817D01*
X031064Y019740D01*
X030910Y019740D01*
X030834Y019817D01*
X030680Y019817D02*
X030603Y019740D01*
X030450Y019740D01*
X030373Y019817D01*
X030373Y020124D01*
X030450Y020200D01*
X030603Y020200D01*
X030680Y020124D01*
X030680Y019817D01*
X030680Y019740D02*
X030527Y019893D01*
X030834Y020124D02*
X030910Y020200D01*
X031064Y020200D01*
X031141Y020124D01*
X031064Y019970D02*
X030987Y019970D01*
X026306Y019884D02*
X026306Y019807D01*
X026229Y019730D01*
X026075Y019730D01*
X025999Y019807D01*
X025999Y019884D01*
X026075Y019960D01*
X026229Y019960D01*
X026306Y019884D01*
X026229Y019730D02*
X026306Y019653D01*
X026306Y019577D01*
X026229Y019500D01*
X026075Y019500D01*
X025999Y019577D01*
X025999Y019653D01*
X026075Y019730D01*
X025845Y019730D02*
X025538Y019730D01*
X025768Y019960D01*
X025768Y019500D01*
X025385Y019500D02*
X025231Y019653D01*
X025308Y019653D02*
X025078Y019653D01*
X025078Y019500D02*
X025078Y019960D01*
X025308Y019960D01*
X025385Y019884D01*
X025385Y019730D01*
X025308Y019653D01*
X032464Y011330D02*
X032694Y011330D01*
X032771Y011254D01*
X032771Y011100D01*
X032694Y011023D01*
X032464Y011023D01*
X032464Y010870D02*
X032464Y011330D01*
X032617Y011023D02*
X032771Y010870D01*
X032924Y010870D02*
X033231Y010870D01*
X033078Y010870D02*
X033078Y011330D01*
X032924Y011177D01*
X033385Y011254D02*
X033461Y011330D01*
X033615Y011330D01*
X033692Y011254D01*
X033692Y011177D01*
X033615Y011100D01*
X033692Y011023D01*
X033692Y010947D01*
X033615Y010870D01*
X033461Y010870D01*
X033385Y010947D01*
X033538Y011100D02*
X033615Y011100D01*
X014224Y031739D02*
X013764Y031739D01*
X013764Y031969D01*
X013840Y032046D01*
X013994Y032046D01*
X014071Y031969D01*
X014071Y031739D01*
X014071Y031892D02*
X014224Y032046D01*
X013994Y032199D02*
X013764Y032429D01*
X014224Y032429D01*
X013994Y032506D02*
X013994Y032199D01*
X014147Y032660D02*
X013840Y032660D01*
X013764Y032736D01*
X013764Y032890D01*
X013840Y032967D01*
X014147Y032660D01*
X014224Y032736D01*
X014224Y032890D01*
X014147Y032967D01*
X013840Y032967D01*
D21*
X031904Y006720D03*
D22*
X005889Y028466D03*
X005889Y028722D03*
X005889Y028978D03*
X005889Y029234D03*
X004599Y029234D03*
X004599Y028978D03*
X004599Y028722D03*
X004599Y028466D03*
D23*
X002444Y021850D03*
X034794Y012300D03*
D24*
X034218Y011778D03*
X001868Y021328D03*
M02*
