G75*
G70*
%OFA0B0*%
%FSLAX24Y24*%
%IPPOS*%
%LPD*%
%AMOC8*
5,1,8,0,0,1.08239X$1,22.5*
%
%ADD10C,0.1300*%
%ADD11R,0.0620X0.0180*%
%ADD12R,0.0552X0.0631*%
%ADD13R,0.0900X0.0900*%
%ADD14C,0.0900*%
%ADD15R,0.0631X0.0552*%
%ADD16R,0.2166X0.2481*%
%ADD17R,0.0440X0.0690*%
%ADD18R,0.1040X0.0640*%
%ADD19R,0.0355X0.0591*%
%ADD20C,0.0630*%
%ADD21R,0.0394X0.0630*%
%ADD22R,0.0540X0.0540*%
%ADD23R,0.0631X0.0237*%
%ADD24R,0.0237X0.0631*%
%ADD25R,0.0800X0.2140*%
%ADD26OC8,0.0640*%
%ADD27C,0.0640*%
%ADD28R,0.0512X0.0591*%
%ADD29R,0.1418X0.0591*%
%ADD30R,0.0920X0.0440*%
%ADD31OC8,0.1040*%
%ADD32R,0.0442X0.0201*%
%ADD33OC8,0.0890*%
%ADD34C,0.2000*%
%ADD35R,0.1102X0.0669*%
%ADD36R,0.0434X0.0591*%
%ADD37R,0.1024X0.0906*%
%ADD38R,0.0237X0.0827*%
%ADD39C,0.0394*%
%ADD40R,0.0906X0.1024*%
%ADD41R,0.0827X0.0237*%
D10*
X001744Y001750D03*
X008014Y022430D03*
X001744Y032700D03*
X029404Y012290D03*
X038894Y001750D03*
X038894Y032700D03*
D11*
X014361Y012145D03*
X014361Y011885D03*
X014361Y011635D03*
X014361Y011375D03*
X014361Y011115D03*
X014361Y010865D03*
X014361Y010605D03*
X014361Y010355D03*
X014361Y010095D03*
X014361Y009835D03*
X014361Y009585D03*
X014361Y009325D03*
X012141Y009325D03*
X012141Y009585D03*
X012141Y009835D03*
X012141Y010095D03*
X012141Y010355D03*
X012141Y010605D03*
X012141Y010865D03*
X012141Y011115D03*
X012141Y011375D03*
X012141Y011635D03*
X012141Y011885D03*
X012141Y012145D03*
D12*
X012248Y013120D03*
X011500Y013120D03*
X010038Y011820D03*
X009290Y011820D03*
X009290Y010970D03*
X010038Y010970D03*
X008818Y009250D03*
X008070Y009250D03*
X008120Y007450D03*
X008868Y007450D03*
X006268Y007800D03*
X006268Y007000D03*
X005520Y007000D03*
X005520Y007800D03*
X006840Y011070D03*
X007588Y011070D03*
X007588Y012120D03*
X006840Y012120D03*
X007520Y014490D03*
X008268Y014490D03*
X004168Y017850D03*
X003420Y017850D03*
X003118Y019750D03*
X002370Y019750D03*
X013370Y016500D03*
X014118Y016500D03*
X014120Y006900D03*
X014868Y006900D03*
X014868Y005750D03*
X014120Y005750D03*
X012418Y006400D03*
X011670Y006400D03*
X011670Y004900D03*
X012418Y004900D03*
X017420Y005750D03*
X018168Y005750D03*
X018470Y004900D03*
X019218Y004900D03*
X018718Y006600D03*
X017970Y006600D03*
X023720Y005350D03*
X024468Y005350D03*
X024670Y006700D03*
X025418Y006700D03*
X033160Y004910D03*
X033908Y004910D03*
X037110Y005470D03*
X037858Y005470D03*
X026563Y020480D03*
X025815Y020480D03*
X031870Y028100D03*
X032618Y028100D03*
X035250Y022240D03*
X035998Y022240D03*
D13*
X033987Y001960D03*
X031714Y001950D03*
D14*
X029745Y001950D03*
X035955Y001960D03*
D15*
X037144Y009596D03*
X037144Y010344D03*
X038384Y010344D03*
X038384Y009596D03*
X032794Y011876D03*
X032794Y012624D03*
X035094Y014876D03*
X035094Y015624D03*
X035714Y017656D03*
X035714Y018404D03*
X034894Y027376D03*
X034894Y028124D03*
X036044Y028424D03*
X036044Y027676D03*
X037344Y027476D03*
X037344Y028224D03*
X038644Y028224D03*
X038644Y027476D03*
X025494Y008274D03*
X025494Y007526D03*
X024644Y007526D03*
X024644Y008274D03*
X023454Y007004D03*
X023454Y006256D03*
X025394Y005774D03*
X025394Y005026D03*
X018894Y007426D03*
X018894Y008174D03*
X017994Y008174D03*
X017994Y007426D03*
X016444Y007324D03*
X016444Y006576D03*
X013244Y006424D03*
X013244Y005676D03*
X010494Y006376D03*
X010494Y007124D03*
X007294Y007326D03*
X007294Y008074D03*
X006894Y009326D03*
X006894Y010074D03*
X008464Y011046D03*
X008464Y011794D03*
X012894Y013976D03*
X012894Y014724D03*
X014174Y014734D03*
X014174Y013986D03*
X016294Y011274D03*
X016294Y010526D03*
X018052Y010637D03*
X018052Y011386D03*
X018862Y011330D03*
X018862Y012078D03*
X013884Y018016D03*
X013884Y018764D03*
X013914Y020106D03*
X013914Y020854D03*
X007154Y027106D03*
X007154Y027854D03*
X003044Y027966D03*
X003044Y028714D03*
X003014Y029666D03*
X003014Y030414D03*
X001124Y030364D03*
X001124Y029616D03*
X013244Y032476D03*
X013244Y033224D03*
D16*
X031904Y008744D03*
D17*
X032804Y005860D03*
X031004Y005860D03*
D18*
X029614Y006150D03*
X028014Y006150D03*
X027324Y008700D03*
X028924Y008700D03*
X011124Y027020D03*
X009524Y027020D03*
D19*
X037174Y007160D03*
X038374Y007160D03*
D20*
X037879Y007857D02*
X037669Y007857D01*
X037669Y008703D01*
X037879Y008703D01*
X037879Y007857D01*
X037879Y008486D02*
X037669Y008486D01*
D21*
X037774Y007130D03*
D22*
X039244Y009280D03*
X039244Y010280D03*
X035434Y010290D03*
X035434Y009290D03*
D23*
X023097Y017375D03*
X023097Y017690D03*
X023097Y018005D03*
X023097Y018320D03*
X023097Y018635D03*
X023097Y018950D03*
X023097Y019265D03*
X023097Y019580D03*
X023097Y019895D03*
X023097Y020210D03*
X023097Y020525D03*
X018531Y020525D03*
X018531Y020210D03*
X018531Y019895D03*
X018531Y019580D03*
X018531Y019265D03*
X018531Y018950D03*
X018531Y018635D03*
X018531Y018320D03*
X018531Y018005D03*
X018531Y017690D03*
X018531Y017375D03*
D24*
X019239Y016667D03*
X019554Y016667D03*
X019869Y016667D03*
X020184Y016667D03*
X020499Y016667D03*
X020814Y016667D03*
X021129Y016667D03*
X021444Y016667D03*
X021759Y016667D03*
X022074Y016667D03*
X022389Y016667D03*
X022389Y021233D03*
X022074Y021233D03*
X021759Y021233D03*
X021444Y021233D03*
X021129Y021233D03*
X020814Y021233D03*
X020499Y021233D03*
X020184Y021233D03*
X019869Y021233D03*
X019554Y021233D03*
X019239Y021233D03*
D25*
X016114Y020920D03*
X016114Y017120D03*
D26*
X026794Y025250D03*
X026794Y026250D03*
X027794Y026250D03*
X028794Y026250D03*
X029794Y026250D03*
X029794Y025250D03*
X028794Y025250D03*
X027794Y025250D03*
X030794Y025250D03*
X031794Y025250D03*
X031794Y026250D03*
X030794Y026250D03*
X032794Y026250D03*
X033794Y026250D03*
X033794Y025250D03*
X032794Y025250D03*
X034794Y025250D03*
X035794Y025250D03*
X035794Y026250D03*
X034794Y026250D03*
X036794Y026250D03*
X037794Y026250D03*
X038794Y026250D03*
X038794Y025250D03*
X037794Y025250D03*
X036794Y025250D03*
X026104Y031530D03*
X025104Y031530D03*
X025104Y032530D03*
X026104Y032530D03*
X024104Y032530D03*
X023104Y032530D03*
X022104Y032530D03*
X022104Y031530D03*
X023104Y031530D03*
X024104Y031530D03*
X021104Y031530D03*
X021104Y032530D03*
X019594Y032550D03*
X018594Y032550D03*
X017594Y032550D03*
X017594Y031550D03*
X018594Y031550D03*
X019594Y031550D03*
X016594Y031550D03*
X015594Y031550D03*
X015594Y032550D03*
X016594Y032550D03*
X014594Y032550D03*
X014594Y031550D03*
D27*
X027444Y031600D02*
X028044Y031600D01*
X028044Y032600D02*
X027444Y032600D01*
X029694Y032650D02*
X030294Y032650D01*
X030294Y031650D02*
X029694Y031650D01*
X031794Y031650D02*
X032394Y031650D01*
X032394Y032650D02*
X031794Y032650D01*
X033844Y032840D02*
X033844Y032240D01*
X034844Y032240D02*
X034844Y032840D01*
X035844Y032840D02*
X035844Y032240D01*
X036844Y032240D02*
X036844Y032840D01*
X036994Y030250D02*
X037594Y030250D01*
X037594Y029250D02*
X036994Y029250D01*
X038774Y029370D02*
X039374Y029370D01*
X039374Y030370D02*
X038774Y030370D01*
X035194Y030200D02*
X034594Y030200D01*
X034594Y029200D02*
X035194Y029200D01*
X032844Y029150D02*
X032244Y029150D01*
X032244Y030150D02*
X032844Y030150D01*
X036794Y024100D02*
X036794Y023500D01*
X037794Y023500D02*
X037794Y024100D01*
X002444Y016900D02*
X001844Y016900D01*
X001844Y015900D02*
X002444Y015900D01*
D28*
X029364Y021460D03*
X030274Y021460D03*
X031184Y021460D03*
X032754Y021500D03*
X033664Y021500D03*
X034574Y021500D03*
D29*
X033664Y019060D03*
X030274Y019020D03*
D30*
X036204Y019710D03*
X036204Y020310D03*
X036204Y020910D03*
X036204Y021510D03*
X038644Y021510D03*
X038644Y020910D03*
X038644Y020310D03*
X038644Y019710D03*
D31*
X011524Y028920D03*
X007584Y028920D03*
D32*
X006189Y028978D03*
X006189Y029234D03*
X006189Y028722D03*
X006189Y028466D03*
X004299Y028466D03*
X004299Y028722D03*
X004299Y028978D03*
X004299Y029234D03*
D33*
X004854Y032050D03*
X003444Y032050D03*
D34*
X003644Y026300D03*
X007944Y016900D03*
X035144Y007500D03*
X038844Y017400D03*
D35*
X034794Y012891D03*
X034794Y011709D03*
X002444Y021259D03*
X002444Y022441D03*
D36*
X005344Y018733D03*
X005718Y017867D03*
X004970Y017867D03*
D37*
X003390Y003787D03*
X003390Y001701D03*
X006698Y001701D03*
X006698Y003787D03*
X009740Y003787D03*
X009740Y001701D03*
X013048Y001701D03*
X013048Y003787D03*
X016090Y003787D03*
X016090Y001701D03*
X019398Y001701D03*
X019398Y003787D03*
X022440Y003787D03*
X022440Y001701D03*
X025748Y001701D03*
X025748Y003787D03*
D38*
X024724Y003886D03*
X024409Y003886D03*
X024094Y003886D03*
X023779Y003886D03*
X023464Y003886D03*
X018374Y003886D03*
X018059Y003886D03*
X017744Y003886D03*
X017429Y003886D03*
X017114Y003886D03*
X012024Y003886D03*
X011709Y003886D03*
X011394Y003886D03*
X011079Y003886D03*
X010764Y003886D03*
X005674Y003886D03*
X005359Y003886D03*
X005044Y003886D03*
X004729Y003886D03*
X004414Y003886D03*
D39*
X004355Y003000D03*
X005733Y003000D03*
X010705Y003000D03*
X012083Y003000D03*
X017055Y003000D03*
X018433Y003000D03*
X023405Y003000D03*
X024783Y003000D03*
X002844Y010461D03*
X002844Y011839D03*
D40*
X003631Y012804D03*
X001545Y012804D03*
X001545Y009496D03*
X003631Y009496D03*
D41*
X003730Y010520D03*
X003730Y010835D03*
X003730Y011150D03*
X003730Y011465D03*
X003730Y011780D03*
M02*
