%
M48
M72
T01C0.0197
T02C0.0236
T03C0.0354
T04C0.0394
T05C0.0400
T06C0.0440
T07C0.0472
T08C0.1260
%
T01
X4535Y6600
X7385Y5550
X8135Y8500
X7385Y8800
X8585Y9900
X9585Y9300
X10935Y9850
X11385Y10100
X11385Y9300
X10785Y10900
X10685Y11300
X11385Y11100
X10735Y12750
X9335Y12400
X6185Y11950
X6185Y10500
X11085Y6350
X12035Y5550
X12035Y7200
X13435Y9000
X14235Y8550
X15185Y8550
X15585Y8700
X15585Y7800
X16985Y6300
X17435Y7400
X17035Y7800
X17035Y8600
X15435Y10600
X15085Y10300
X19435Y6950
X18835Y5550
X21635Y9000
X22685Y9000
X23885Y7650
X24035Y6300
X26135Y5550
X26085Y7600
X30035Y8700
X33485Y8700
X24985Y17950
X25185Y18500
X25285Y19050
X22935Y17050
X22785Y16500
X22335Y16100
X21585Y16250
X19785Y16650
X17535Y21650
X19135Y23650
X19935Y23950
X20935Y24300
X21385Y23250
X23235Y25550
X23385Y27250
X22385Y28750
X23385Y28800
X23885Y29800
X23835Y30750
X24685Y30350
X22485Y31850
X21535Y31250
X22085Y30100
X21535Y29750
X20385Y27950
X18385Y25550
X17535Y25550
X16435Y25750
X10235Y27750
X8135Y30650
X7285Y30450
X6835Y30100
X6685Y29450
X9235Y21800
X12435Y19450
X25385Y23650
X25885Y23500
X26385Y23400
X27335Y24950
X27185Y25350
X26485Y25150
X25685Y25250
X28085Y25100
X28935Y24800
X28435Y24200
X28435Y22950
X28435Y22050
X29485Y22950
X29235Y26200
X28985Y26600
X27885Y26550
X31935Y26500
X35135Y28100
X36285Y28100
X37935Y27400
X37985Y24300
X35335Y20900
X38635Y19200
X19735Y31650
X19335Y31900
X19785Y33100
X19335Y33300
T02
X21435Y32600
X22835Y26200
X22435Y25650
X22085Y25050
X21785Y24250
X20935Y21700
X19735Y20200
X21385Y18800
X22635Y18800
X22535Y20200
X24935Y21750
X26385Y19550
X25685Y17150
X28835Y17150
X29685Y16500
X29835Y15800
X30535Y16200
X30985Y17500
X30985Y20750
X29035Y21400
X29535Y23600
X30935Y24100
X31285Y24800
X31285Y25750
X28785Y27650
X32635Y31150
X31335Y31750
X33285Y28400
X34285Y27350
X36285Y25750
X36685Y23900
X37335Y22650
X39485Y22050
X34235Y22000
X33735Y24800
X37285Y28350
X38635Y29100
X35235Y31196
X34735Y15650
X33685Y12650
X36235Y10300
X34085Y8600
X36385Y6500
X36385Y4800
X37785Y4650
X39185Y4650
X39485Y8150
X33995Y3970
X31785Y5500
X29295Y5900
X28835Y13900
X29835Y13900
X30535Y13900
X38485Y15950
X21085Y15150
X20635Y15800
X20085Y16000
X19335Y15650
X19585Y14300
X18235Y13000
X17785Y12500
X12585Y8100
X11635Y12350
X10735Y15350
X8285Y13750
X7535Y13700
X8285Y12790
X7935Y18900
X7935Y19550
X10585Y19550
X10535Y18900
X15285Y19500
X13885Y24850
X6885Y31200
X5635Y30350
X6035Y29400
X4885Y29300
X4185Y29450
X4885Y27800
X9435Y33150
X3185Y19550
X2185Y18900
T03
X2835Y7889
X2835Y6511
X4346Y3000
X5724Y3000
X10696Y3000
X12074Y3000
X17046Y3000
X18424Y3000
X23396Y3000
X24774Y3000
T04
X25785Y29200
X25785Y30200
X26785Y30200
X26785Y29200
X27785Y29200
X27785Y30200
X28785Y30200
X28785Y29200
X29785Y29200
X29785Y30200
X30785Y30200
X30785Y29200
X31785Y29200
X31785Y30200
X32785Y30200
X32785Y29200
X33785Y29200
X33785Y30200
X34785Y30200
X34785Y29200
X35785Y29200
X35785Y30200
X36785Y30200
X36785Y29200
X37785Y29200
X37785Y30200
T05
X39435Y28300
X39435Y27300
X39285Y23800
X39285Y22800
X36835Y32640
X35835Y32640
X34835Y32640
X33835Y32640
X31935Y32650
X30935Y32650
X29935Y32650
X28345Y33080
X28345Y32080
X27345Y32080
X27345Y33080
X26345Y33080
X26345Y32080
X25345Y32080
X25345Y33080
X24345Y33080
X24345Y32080
X23345Y32080
X23345Y33080
X18005Y32870
X17005Y32870
X10435Y33200
X10435Y32200
X8585Y32200
X8585Y33200
X7585Y33200
X7585Y32200
X6585Y32200
X6585Y33200
X5585Y33200
X5585Y32200
X4585Y32200
X4585Y33200
X3585Y33200
X3585Y32200
X1185Y27700
X1185Y26700
X1185Y24750
X2185Y24750
X3185Y24750
X2135Y16900
X2135Y15900
T06
X7555Y28880
X11495Y28880
T07
X29736Y1950
X31705Y1950
X33978Y1960
X35946Y1960
T08
X1735Y1750
X1735Y32700
X38885Y32700
X38885Y1750
M30
